<svg xmlns="http://www.w3.org/2000/svg" width="640.275" height="287.562" viewBox="0 0 640.275 287.562">
  <g id="what-knot-game-logo-intro" transform="translate(0 1)">
    <g id="Group_1" data-name="Group 1" transform="translate(163.479 246.973)">
      <path id="Path_1" data-name="Path 1" d="M236.807,328.991c7.4,0,10.755,2.54,12.538,3.837l-2.486,4.7a14.96,14.96,0,0,0-9.836-3.188c-7.4,0-13.89,4-13.89,13.781s5.675,13.944,13.727,13.944a20.825,20.825,0,0,0,6.431-.919v-9.62h-6.539V346.5h12.323v17.727c-1.351.81-5.242,3.35-12.971,3.35-10.7,0-19.078-5.512-19.078-19.186,0-13.4,9.458-19.4,19.781-19.4Z" transform="translate(-217.026 -328.991)" fill="none" stroke="#002d5d" stroke-width="2"/>
      <path id="Path_2" data-name="Path 2" d="M356.978,367.144H350.6l-4.053-11.025H332.009l-3.945,11.025h-6.215l14.484-37.291h6.215l14.43,37.291Zm-17.619-31.13h-.108l-5.567,15.565h11.3Z" transform="translate(-242.89 -329.204)" fill="none" stroke="#002d5d" stroke-width="2"/>
      <path id="Path_3" data-name="Path 3" d="M472.172,367.144H466.28V341.256h-.108l-11.62,25.888h-5.027l-11.62-25.888H437.8v25.888h-5.891V329.853h6.918l13.187,29.238h.109l13.187-29.238h6.864v37.291Z" transform="translate(-270.045 -329.204)" fill="none" stroke="#002d5d" stroke-width="2"/>
      <path id="Path_4" data-name="Path 4" d="M577.375,335.1h-18.43v10.322h16.646v5.134H558.945v11.241h18.916v5.351H552.946V329.853h24.429Z" transform="translate(-299.909 -329.204)" fill="none" stroke="#002d5d" stroke-width="2"/>
    </g>
    <path id="Path_5" data-name="Path 5" d="M100.994,94.143c.227-1.137.682-2.046.909-2.956,1.819-4.775,3.638-9.322,5.457-13.869a6.544,6.544,0,0,0,.227-2.956c0-1.137-.909-1.137-1.819-.455-.682.682-1.137,1.364-1.819,2.046.227-.909.682-1.819.909-2.728,0-.227.227-.455.227-.682-.227-.455-.455-1.137-.909-1.364a3.028,3.028,0,0,0-1.137.682c-.455.455-.455.91-.682,1.364C98.265,80.274,97.583,88,94.4,95.053a15.629,15.629,0,0,0-.682,1.819c0,.227.227.682.455.682s.909-.227.909-.455c.455-.455.455-1.137.682-1.819,1.364-3.638,2.956-7.275,4.32-11.141,0-.227.227-.454.455-.682.227,0,.682-.227.909-.227a1.025,1.025,0,0,1,.682.682c0,.454-.227.909-.227,1.364-1.364,3.638-2.5,7.275-3.865,10.913-1.137,2.728-2.728,5.457-2.728,8.64a6.639,6.639,0,0,1-.455,2.046,5.7,5.7,0,0,1-1.591.909c0-.455-.227-.682-.227-1.137q.341-1.7.682-3.41v-3.41a13.866,13.866,0,0,1-1.591,3.183v.455c-2.5,9.322-5.229,18.416-7.73,27.738-1.819,6.366-3.41,12.959-5.456,19.553-2.5,7.275-5.229,14.551-7.958,21.827-1.137,3.183-2.729,6.138-4.092,9.094,0,.455-.455.683-.682.909a1.181,1.181,0,0,1-.455-.909c0-1.364-.455-2.956,0-4.092,1.364-4.32.455-7.957.227-11.822a3.7,3.7,0,0,1,.227-2.729c1.819-2.5,1.592-5,1.364-7.5a33.573,33.573,0,0,1,.227-4.775c0-3.41.909-7.275.454-10.686-1.591-10-1.364-20.235-1.591-30.466-.227-4.775.227-9.777-1.364-14.324a6.291,6.291,0,0,1-.227-2.046q-1.023-7.844-2.046-15.688c-.455-3.865-3.183-6.139-7.048-6.593a2.064,2.064,0,0,1-1.592-.682c-2.5-1.591-4.092-1.137-5.229,1.819-.909,1.819-1.364,3.865-2.5,5.456A49.3,49.3,0,0,0,41.88,89.6c-.909,2.728-1.364,5.457-2.274,8.185-2.273,7.275-4.774,14.551-7.048,22.054-.682,1.819-1.364,3.638-2.273,5.684-1.592,3.638-3.41,7.048-4.775,10.686-2.5,6.593-4.32,13.187-6.593,19.78-.455,1.364-.909,2.5-1.364,3.638-.227.227-.682.682-.909.682-.455-.227-.682-.682-.909-.909a4.851,4.851,0,0,1,0-1.819,53.38,53.38,0,0,0-.227-6.139,45.663,45.663,0,0,1,0-18.416,18.692,18.692,0,0,0,.455-6.139c-.227-3.638-1.137-7.275-1.137-10.913.227-8.185.909-16.37,1.364-24.555a8.207,8.207,0,0,0-.682-4.092c-1.137-1.592-2.728-2.729-3.638-4.32-1.592-2.5-4.092-1.364-5.911-1.137-1.819,0-4.092,2.956-4.092,5-.227,3.865-.227,7.5-.455,11.368,0,3.865-1.592,7.73-.227,11.6,0,.455-.227,1.137-.227,1.819A27.852,27.852,0,0,0,.5,115.97V128.7c0,1.364-.682,2.956-.455,4.32.682,3.41.227,6.821.455,10.231.455,6.139,0,12.277.227,18.189,0,2.273.682,4.32.682,6.366.227,4.547.227,9.094,1.137,13.414A7.111,7.111,0,0,0,3.684,183.5c2.274,2.5,5.684,3.183,8.412,4.775,2.273,1.364,5.456-.455,5.684-3.183.227-4.774,4.32-8.867,4.092-13.868-.227-.455.455-1.364.909-1.591,1.591-1.364,1.591-2.956,1.364-4.548a24.7,24.7,0,0,1,1.591-7.73,44.418,44.418,0,0,0,3.183-10.686A50.666,50.666,0,0,1,33.013,133.7l1.364-4.775c.227-.227,0-.455,0-.91a3.139,3.139,0,0,1-.682.91,27.619,27.619,0,0,1-2.046,4.547,47.558,47.558,0,0,1-3.183,3.865c-1.137-1.819.227-3.41.909-5.229,2.273-5.456,4.547-10.913,6.593-16.37,1.819-4.775,3.41-9.777,5.229-14.551.227-.682.909-1.137,1.364-1.592-.227.682,0,1.364-.227,2.046-1.592,4.32-2.956,8.639-4.547,12.959l-.682,2.728c.682-.909,1.364-1.591,2.046-2.5a1.724,1.724,0,0,0,.455-.909c2.046-7.048,6.366-13.187,7.5-20.462a3.233,3.233,0,0,1,.455-1.364,1.773,1.773,0,0,1,.909-.909c0,.454.455.682.455,1.137.227,2.956.227,6.139.227,9.095,0,6.366-.227,12.959,0,19.553a238.349,238.349,0,0,1-.227,25.464c-.455,6.139-.909,12.277-1.137,18.416-.227,1.591.455,3.183.227,4.547,0,2.956-.455,5.684-.455,8.64,0,3.183.455,6.593.455,10,0,2.047-.227,3.865-.227,5.912,0,1.137-.227,2.5-.227,3.637.227,2.5.227,5,.455,7.5,0,2.728-.227,5.229,0,7.73a4,4,0,0,0,2.273,3.865c2.274,1.137,4.32,2.728,6.594,3.864a5.265,5.265,0,0,0,5.684-1.137,5.649,5.649,0,0,0,2.5-5.229c-.909-4.32.455-8.639,1.819-12.959,2.273-5.912,4.775-11.823,7.048-17.734,1.591-4.32,2.956-8.64,4.547-12.96,3.183-8.639,7.048-17.052,9.322-26.146,2.273-9.322,5-18.871,7.5-28.42.682-3.183,1.364-6.593,2.273-9.777-1.819-1.137-.909-2.5,0-3.638,1.819-2.728,3.183-5.456,3.41-8.412Zm232.127,60.7v.227c-.227,0-.455.455-.682.455a3.93,3.93,0,0,0-2.274.227,1.7,1.7,0,0,0-1.137.227,2.884,2.884,0,0,1-1.364-.227c-1.364-.455-2.729.227-4.093.455a25.33,25.33,0,0,0-3.865.455c-.227,0-.227-.227-.454-.227a8.078,8.078,0,0,0-2.047-.91,1.823,1.823,0,0,0-1.818.227c0,.227-.228.227-.455,0a1.031,1.031,0,0,0-1.592-.455,1.136,1.136,0,0,1-1.591-.227.222.222,0,0,0-.227.227,14.426,14.426,0,0,1-5.457.682h-1.818a2.492,2.492,0,0,0-1.819,0,5.006,5.006,0,0,0-1.819.227l-2.046.682c-1.137-.682-1.819,1.364-1.819,4.775v.909a6.483,6.483,0,0,0,.682,4.32,3.582,3.582,0,0,0,1.592,1.591l.227.228,2.046-.683a6.289,6.289,0,0,1,2.047.228v-.228a.8.8,0,0,1,.227-.455c.228-.227.455-.227.909-.227a24.678,24.678,0,0,0,4.093-.228c1.364,0,2.5-.227,3.637-.227a51.2,51.2,0,0,1,5.911,0c.455,0,.909-.228,1.591-.228a2.888,2.888,0,0,0,1.364-.227c1.137,0,2.274-.228,3.183-.228,2.5-.227,5-.227,7.73-.454.682,0,1.364-.683,2.273-.909,1.137-.228,2.047-.91,2.274-4.547v-.682a8.254,8.254,0,0,0,0-4.092,18.121,18.121,0,0,1-3.41-.682Zm-5.456,2.956.682.682-.455.682-.455-.682A1.122,1.122,0,0,0,327.664,157.8Zm2.956,6.821c0,.228-.228.683-.455-.227v-.228a.8.8,0,0,0,.455-.227c0,.227.227.682,0,.682Zm4.547-3.638a5.612,5.612,0,0,1-.909,2.046c-.454.455-.682.682-1.137-.455a.7.7,0,0,0-.455-.228c-.91.683-2.046,0-2.728,1.364a1.716,1.716,0,0,0-.909.228c-.228.682-.455,1.591-.91.227-.909-1.364-2.046-1.137-2.956-1.137H321.3a.654.654,0,0,1-.455-.228.7.7,0,0,0-.228-.455.793.793,0,0,1,.228-.454,4.948,4.948,0,0,1,1.137-.909c.683-.227,1.591,0,2.274-.227s1.137-1.364,2.046-.227c.228.227.455-.455.91-.455a5.356,5.356,0,0,0,1.819-.455,6.291,6.291,0,0,1,2.046-.227c.91.227,1.819-1.137,2.729.227.454.455.682,0,1.137,0a.794.794,0,0,1,.227.455v.909ZM589.347,102.1c2.728-.227,5.229-.455,7.957-.455,2.274-.227,4.32.455,6.594-.682a.691.691,0,0,1,.909,0c2.046,1.137,4.319.227,6.593,0a18.122,18.122,0,0,1,3.41-.682c3.865-.227,7.5-2.5,11.141-2.728,3.638,0,7.276.227,10.914.227.91,0,1.819-.227,2.729-.227.227-.227.682-.682.682-.909a1.251,1.251,0,0,0-.683-1.137,9.817,9.817,0,0,0-1.136-.227h-6.594c-5.683,0-11.141,2.274-16.6,2.5l-22.508,1.364c-2.729.227-5.684.455-8.413.682-2.956.227-5.683.682-9.094,1.137-1.819,0-1.819-.455-1.364-2.274.455-1.591,1.364-3.41.91-4.774a7.552,7.552,0,0,0-5-5.457,2.906,2.906,0,0,0-3.865,1.592A15.869,15.869,0,0,0,564.11,94.6c-.455,1.591-.455,3.41-2.729,3.865-.455,0-.91.909-1.137,1.591-.91,2.5-2.956,3.41-5.457,3.638-4.092.455-8.184,1.364-12.277,2.046-4.547.909-6.821-.227-11.368.682-3.41.682-3.638.682-3.41,4.092v.909c.682,4.32,4.32,4.092,7.957,4.775,3.41.682,5.229-.682,8.64-1.137,3.41-.682,5.911-.682,8.64-2.273,1.364-.455,1.818,0,1.818,1.591l-.682,2.728-3.41,12.277c-.909,3.41-1.819,6.821-2.5,10.231-1.137,4.775-2.046,9.549-2.956,14.324-.013.073-.024.145-.037.217-3.387,1.229-6.491,1.992-6.783,2.284-2.047,1.137-5.684,1.819-7.73,2.956-.909.455-1.819.455-2.729.909a9.686,9.686,0,0,1-.455-2.5,8.623,8.623,0,0,0-1.364-5.229c-1.137-1.592-1.364-3.41-1.819-5-.227-1.137,0-2.5-.454-3.183-1.819-2.046-1.592-4.32-1.819-6.593-.228-3.183-2.046-4.775-5.456-5.229a5.918,5.918,0,0,1-3.41-.909c-3.411-2.046-5.457-1.819-7.73,1.137a77.441,77.441,0,0,0-10.459,17.734c-1.819,3.638-3.183,7.5-5,11.141a37.794,37.794,0,0,0-3.575,12.72c-3.467,5.8-6.79,11.75-10.293,17.518a21.716,21.716,0,0,1-2.728,3.638c-.228.227-.909.682-1.137.455s-.682-.683-.455-1.136c.228-3.638.455-7.5.909-11.368.455-2.729.455-5.684,1.591-8.412a31.227,31.227,0,0,0,1.364-12.96c-.227-3.865-.455-7.275-4.092-9.776-2.046-1.592-3.638-2.046-5.911-1.137-5.684,1.819-8.868,6.593-12.5,10.913-1.819,2.5-3.865,5.229-5.911,7.73-.228.227-.683.227-1.137.455,0-.455-.227-.682-.227-1.137,1.819-5.912,3.183-11.823,5-17.734,2.046-5.684,3.183-11.368,4.775-17.279a5.107,5.107,0,0,0,.227-3.638c-2.273-3.638-3.183-8.412-8.639-9.549-3.183-.682-4.775-.227-5.229,3.183a27.526,27.526,0,0,1-1.137,4.092c-1.137,4.092-2.956,7.958-3.637,12.05-1.364,8.412-3.41,16.6-5.456,24.782-3.183,11.368-5.457,23.418-8.185,35.013a14,14,0,0,0,.227,3.183c1.364,3.41,2.729,6.593,6.139,8.867,2.5,1.591,5,1.364,5.911-1.591.683-2.274,2.729-4.32,2.046-7.048-.227-.227.228-.909.455-1.364,2.047-3.638,4.093-7.048,6.366-10.687,1.137-2.046,2.729-4.092,3.865-6.138,2.5-4.093,3.865-8.413,6.594-12.277,2.274-3.41,4.092-7.048,6.366-10.687a13.2,13.2,0,0,1,2.729-2.273c1.364-.682,2.273-.227,2.273,1.364-.455,4.774-.682,9.549-1.364,14.324-.228,2.274-.91,4.32-1.137,6.594-.909,7.957-.455,16.142-2.956,23.872a3.912,3.912,0,0,0,.228,3.183,36.062,36.062,0,0,0,4.092,6.138c2.274,2.274,4.093,2.274,6.594.228a12.639,12.639,0,0,0,1.364-1.819,73.745,73.745,0,0,1,3.864-7.275c3.285-6.176,7.326-12.278,10.814-18.565a39.6,39.6,0,0,0,5.1,9.925,18.126,18.126,0,0,0,10.914,7.73h2.5c4.775-.909,7.73-4.092,10.231-7.5A33.3,33.3,0,0,0,520,191.907c1.818-5,3.41-7.73,5-12.732v-.227c.682-2.729,1.364-5.229,1.819-7.958.455-1.818.91-4.547,2.728-5.456,4.1-2.315,9.445-2.687,14.631-5.138-.493,3.077-1,6.154-1.673,9.231a246.116,246.116,0,0,0-3.865,29.329c-.227,4.32.455,8.412,3.865,11.822,2.956,2.956,7.957,2.047,10.686-1.137a14.69,14.69,0,0,1,1.819-2.046c7.5-8.185,25.237-32.285,31.148-40.7.91-1.591,1.591-3.183,0-3.183a3.061,3.061,0,0,0-2.046,1.137,12.447,12.447,0,0,0-1.591,2.046c-3.638,4.092-16.143,19.326-19.78,23.646-2.046,2.273-7.5,6.593-9.549,8.639-.91.91-1.591.455-1.591-.454.227-1.592.227-2.956.455-4.548.227-1.364,1.136-2.729,1.136-4.092-.227-4.093.909-8.185,1.364-12.05,1.137-7.958,3.41-15.46,4.32-23.418.682-5.684,2.274-11.368,3.637-17.279.683-2.5,1.364-5.229,2.047-7.73,1.137-3.865,2.5-7.5,3.41-11.368,1.136-6.139,2.956-7.73,9.094-7.958a35.353,35.353,0,0,0,7.275-.909c4.32-.682,8.64-1.137,12.96-1.592,3.41-.455,6.821-.682,10.231-1.137.228,0,.455-.227.682-.227-.228-.227-.455-.455-.682-.455H603.9a.8.8,0,0,0-.455-.227c.227,0,.455-.227.682-.227,2.5-.227,5.229-.455,7.73-.455a1.7,1.7,0,0,1,1.136.227c.683,1.591,2.047.909,3.183.909a4.292,4.292,0,0,0,1.819-.454c-.455,0-1.137-.227-1.592-.227-.227-.227-.682-.227-.909-.455.227,0,.455-.227.909-.227,5.457-.455,10.914-2.956,16.6-3.41a13.153,13.153,0,0,0,6.366-2.046c.227,0,0-.455.227-.909-.909,1.137-2.273-1.137-3.183.682,0,0-1.137.227-1.137,0-.91-1.591-1.818-1.137-3.183-.227-.683.909-1.591,1.137-2.274-.227,0-.227-.682-.227-.909,0a1.522,1.522,0,0,1-1.591.909c-2.729,0-5.456.227-8.185.455-6.821.455-13.869,2.956-20.69,3.41l-8.184.682h-.91c-.455-.455-.909-.682-1.137-1.137.228-.227.683-.909,1.137-.909ZM450.433,172.809h-.227l.227-.227Zm11.6-14.324a35.071,35.071,0,0,1-8.412,10.686,1.708,1.708,0,0,1-1.137.227c0,.228-.227-.455-.227-.455,2.5-3.637,3.183-8.639,7.73-10.913v.227q.682-1.819,2.274.227h-.228Zm.228-.227.454-.682.455.227Zm54.791-19.78a.359.359,0,1,1-.227.682c0-.227-.227-.227-.227-.454A.792.792,0,0,1,517.048,138.478Zm4.548,33.194c-.91,4.092-1.591,8.185-2.729,12.277-1.137,4.32-4.092,5.684-6.821,9.095a15.916,15.916,0,0,1-4.32,3.41,3.935,3.935,0,0,1-5.911-2.274c-.91-3.41-1.364-4.775-2.046-8.185,0-6.138,2.728-11.6,4.547-17.279.683-1.819,1.591-1.819,2.729-.455,2.5,3.183,5.456,3.865,9.094,2.046.909-.455,2.273-.228,3.41-.455,1.818-.227,2.273.227,2.046,1.819Zm.682-11.6c-.682,2.728-.909,2.956-4.092,3.41a33.723,33.723,0,0,1-4.32.682c-2.046.228-3.41-.455-3.865-2.273-.682-1.591-1.137-3.183-.228-4.775l5.457-10.231a13.558,13.558,0,0,1,1.364-2.5,8.057,8.057,0,0,1,.909-2.046,23.423,23.423,0,0,1,.909,2.274c.455,1.364.683,2.728,1.137,4.092.455,1.819,1.364,3.638,2.046,5.684l.91,2.728a15.071,15.071,0,0,0-.228,2.956ZM577.3,104.6a11.415,11.415,0,0,0-2.729.455s-.455-.455-.227-.682c0-.227.455-.455.682-.682h1.819a.8.8,0,0,1,.455.228v.682Zm7.73-.682a5.789,5.789,0,0,1-1.592.455c-.454,0,0-.455-.454-.909.454-.227,0-.682.454-.909.228-.227.683,0,.909,0h.682l1.364.682-1.364.682ZM442.479,231.695c-2.274-3.41-7.049-4.774-8.413-9.094-1.364-2.274-2.5-4.32-3.865-6.366-.455-.683-1.137-1.819-1.818-2.047-2.047-.455-2.274-1.591-2.729-3.183a17.781,17.781,0,0,0-3.41-5c-.455-.454-1.364-.909-1.591-1.364a17.34,17.34,0,0,0-7.73-9.322c-.683-.454-1.137-1.818-1.592-2.728a13.865,13.865,0,0,0-1.591-3.183q-6.138-8.185-12.96-15.687a147.706,147.706,0,0,0-11.822-12.05c-2.956-2.5-3.183-5.456-2.274-8.867.455-1.592,1.137-2.956,1.137-4.547-.228-4.092,2.046-6.139,5.229-7.958,5.456-3.183,10.913-6.139,16.369-9.549,2.5-1.592,4.775-3.865,7.275-5.684,5.457-3.638,11.141-7.048,16.37-10.686,2.274-1.591,4.092-4.092,6.366-4.774,3.638-.909,5.911-3.638,8.867-5.229,3.865-2.273,7.73-4.775,11.823-6.821,3.41-1.819,4.32-2.956,3.41-6.139-1.137-3.637-3.41-5.456-6.821-5a19.311,19.311,0,0,0-8.867,3.865c-5.911,4.32-12.049,8.867-17.961,13.414-5.456,4.092-10.913,8.64-16.369,12.732-6.139,4.547-12.278,8.639-18.416,12.959-1.819,1.137-2.728.682-2.956-1.364a3.868,3.868,0,0,1,0-2.273c2.5-5.684.455-12.5,4.774-17.961a2.165,2.165,0,0,0,.455-1.592c.228-5.229,2.5-9.549,4.548-14.1,2.046-5,2.273-7.958-1.819-12.05-4.32-4.547-9.549-3.41-11.368,2.728q-4.093,15.005-7.5,30.011c-1.819,7.957-3.183,16.142-4.775,24.1-.455,3.183-.682,3.183-4.092,2.728a26.611,26.611,0,0,0-5.911-.909c-.683-.227-1.364.227-2.047.454a4.755,4.755,0,0,0,1.364.91c.455.455.909.682,1.137.909l.682.682c-.455.227-.682.455-1.137.227-2.956-.455-5.684-1.137-8.64-1.364-3.183-.227-4.093,1.364-2.956,4.092a11.553,11.553,0,0,0,6.366,7.048c2.956,1.592,5.684,3.183,8.412,4.547,2.729,1.137,3.41,3.41,2.729,6.138-1.137,6.367-2.046,12.733-3.183,19.1-2.046,9.549-4.092,18.871-6.138,28.419-.91,3.638-1.137,7.73-2.729,10.914a11.913,11.913,0,0,0-.455,6.821c1.364,5.911,6.594,9.322,12.277,7.957,3.865-.682,5-3.41,3.183-6.821-.455-1.364-1.364-2.728-1.137-4.092a43.412,43.412,0,0,1,1.591-10.686,63.775,63.775,0,0,0,2.274-17.507c1.591-2.956.455-5.456-1.364-7.958a32.146,32.146,0,0,1,.909-4.547c.682-2.956,1.818-5.684.682-8.867-1.136,5.683-2.5,11.368-3.637,16.824-1.592,8.413-3.183,16.6-4.775,25.01-.228.682-.455,1.137-.683,1.819-.227.227-.682.455-.909.909-.227-.455-.454-.683-.454-1.137a17.692,17.692,0,0,1,.454-3.637c.909-4.775,1.819-9.549,2.729-14.551,2.046-10.914,4.092-22.054,6.139-33.195a9.384,9.384,0,0,1,1.591-2.5,7.943,7.943,0,0,1,1.137,2.956c-.455,2.5-1.137,5-1.818,7.5h.227L377,172.809a10.7,10.7,0,0,1-1.137,7.957c1.819-.454,2.5-2.046,2.729-3.865.227-2.273.227-4.547.227-6.821,1.819-.682,3.183.228,4.32,1.592,3.638,4.32,7.5,8.412,11.141,12.959,6.366,8.185,12.96,16.37,19.326,24.783,4.548,6.366,9.322,12.5,13.641,19.1a25.492,25.492,0,0,0,8.64,8.412,11.175,11.175,0,0,0,3.865,1.364,5.226,5.226,0,0,0,5-3.183c.909-1.818-1.364-2.273-2.273-3.41Zm-69.344-36.831a3.138,3.138,0,0,0,.682.909v.683c0-.228-.227-.228-.455-.455s-.227-.455-.455-.683A.7.7,0,0,1,373.134,194.863Zm-2.956,9.322L371.77,206c-.683.455-1.364,1.137-1.591.909a1.51,1.51,0,0,1-.91-1.137,2.888,2.888,0,0,1,.91-1.591Zm6.593-54.112c0-.455.228-.682.228-.909l.455.682-.455.909C377,150.528,376.772,150.3,376.772,150.073Zm1.819,19.78c-.228,0-.909,0-.909-.455-.455-.455-.455-.909-.682-1.591,0,0,.682-.455.682-.228a1.512,1.512,0,0,1,.909,1.137C378.818,169.172,378.591,169.627,378.591,169.854Zm50.928,49.109h-.455v-.455h.682ZM340.851,95.507a9.823,9.823,0,0,0-1.137-.227h-6.594c-5.683,0-11.141,2.274-16.6,2.5l-22.509,1.364c-2.728.227-5.684.455-8.412.682-2.956.227-5.684.682-9.095,1.137-1.819,0-1.819-.455-1.364-2.274.454-1.591,1.364-3.41.909-4.774a7.55,7.55,0,0,0-5-5.457,2.906,2.906,0,0,0-3.865,1.592,15.872,15.872,0,0,0-1.819,4.547c-.455,1.591-.455,3.41-2.728,3.865-.455,0-.91.909-1.137,1.591-.909,2.5-2.956,3.41-5.456,3.638-4.092.455-8.185,1.364-12.277,2.046-4.547.909-6.821-.227-11.368.682-3.41.682-3.638.682-3.41,4.092v.909c.682,4.32,4.32,4.092,7.958,4.775,3.41.682,5.229-.682,8.64-1.137,3.41-.682,5.911-.682,8.639-2.273,1.364-.455,1.819,0,1.819,1.591l-.682,2.728-3.41,12.277c-.91,3.41-1.819,6.821-2.5,10.231-1.137,4.775-2.046,9.549-2.956,14.324-.909,5.229-1.591,10.459-2.728,15.688-.092.483-.178.97-.267,1.454-.915,1.372-1.773,2.745-2.688,4-1.592,2.046-2.956,4.092-4.547,6.138-2.956,3.41-6.139,6.821-9.322,10.231-2.5,2.729-4.092,5.912-6.593,7.958-.682.682-1.364,2.046-2.5,1.137-.682-.455-.682-2.046-.682-2.956,0-2.274,0-7.048.227-9.322.227-2.5.682-6.594.682-6.139,0-6.138,1.592-9.322,2.274-15.233.454-3.41,1.364-6.593,2.046-9.777a15.8,15.8,0,0,1,1.137-2.956,38.423,38.423,0,0,0,1.819-5.456c.682-2.5-.91-3.865-2.5-5.457a3.407,3.407,0,0,0-4.32-.455c-1.592,1.137-3.638,2.046-3.865,4.775,0,.227-.455.455-.455.91-2.728,3.865-4.547,8.412-6.366,12.959-.682,1.819-1.137,3.865-2.273,5.457-2.274,3.637-4.775,7.5-7.275,11.141a38.978,38.978,0,0,1-10,10.231,1.768,1.768,0,0,1-1.819.455c-.455-.228-.682-1.364-.682-1.819-.227-2.046-.455-4.092-.682-5.911a40.133,40.133,0,0,1,0-5.229c.227-3.183.91-6.593,1.364-10a1.739,1.739,0,0,1,.455-1.137c.455-2.046.909-3.865,1.364-5.911a30.177,30.177,0,0,1,2.046-4.775,25.9,25.9,0,0,0,2.273-4.32c.455-1.364,1.137-3.183,2.273-3.637,1.592-.91,3.865-.455,5.684.682a4.718,4.718,0,0,1,1.364,2.274c.227.682.227,1.591.454,2.273l.682,1.364c.455-.455.909-.455,1.137-.91a3.371,3.371,0,0,0,.227-1.592,19.905,19.905,0,0,0-.455-3.638,3.751,3.751,0,0,0-2.046-3.41c-2.956-1.591-5.684-2.5-8.867-1.364-3.638,1.137-6.821,2.5-9.094,5.684l-1.137,1.137a30.779,30.779,0,0,0-7.73,13.187,32.6,32.6,0,0,0-2.273,9.549c-.109,1.094-.2,2.2-.271,3.323-2.176,2.382-4.136,4.872-6.093,7.363-2.728,3.41-5.457,6.821-8.185,10a57.14,57.14,0,0,0-5.911,7.048c-1.137,2.046-3.183,3.41-4.32,5.229-.227.227-.909.455-1.137.227-.227,0-.682-.682-.455-.91,1.364-3.865.455-7.73,1.592-11.6,1.137-2.956,1.591-5.911,2.5-8.867,1.592-5,3.41-10.231,5-15.46,1.364-5.229,2.5-10.686,3.638-15.915.909-3.41,1.364-6.593-1.137-9.549-1.137-.909-2.273-2.046-3.41-2.956a1.4,1.4,0,0,0-1.364-.227,9.742,9.742,0,0,0-3.638,1.137c-2.728,2.5-5.684,4.775-7.957,7.5-6.139,7.048-12.05,14.324-18.189,21.372-.682.909-4.092,2.274-4.547,2.046-1.364-.682-.682-2.046-.455-3.183.682-2.956,1.592-5.912,2.273-9.095a36.849,36.849,0,0,1,.682-4.547c.682-3.183,1.819-6.366,2.274-9.776,1.364-6.366,2.5-12.732,3.638-19.1.454-3.41,1.137-6.821,1.819-10.231.91-4.092,1.819-8.412,3.183-12.732,1.137-3.183,2.728-6.594,2.274-10.231A6.592,6.592,0,0,1,135.775,88a10.448,10.448,0,0,0,2.5-5.911c.227-3.41,2.046-6.821-.455-9.322a37.71,37.71,0,0,0-4.775-3.638C131,68,127.59,68.679,126.909,70.725a46.3,46.3,0,0,0-2.5,7.958q-.682,2.046-1.364,4.092c-.227.909-.455,1.819-.682,2.5-1.137,4.32-1.819,8.412-2.956,12.5-1.137,3.865-2.5,7.5-2.274,11.368,0,.455-.227.909-.227,1.364-1.364,4.775-2.728,9.777-4.092,14.778,0,.227-.227.455-.227.682.682,4.32-1.364,8.412-1.819,12.5-.455,2.728-1.364,5.456-1.819,8.185-1.819,9.095-3.638,18.416-5.457,27.738-.909,5-2.046,9.777-2.956,14.551-.227,1.364,0,3.183-.682,4.32-1.364,2.046-.909,4.093-.227,5.911a19.923,19.923,0,0,0,7.73,10.459c3.865,2.956,6.593,1.591,7.275-3.183.227-1.364,0-2.728.227-3.865,1.137-4.547,2.046-9.094,5.229-12.732.909-1.137,1.591-2.5,2.5-3.865,2.956-4.32,5.684-8.64,8.867-12.732,4.092-5.456,8.412-10.686,12.732-15.915,1.137-1.591,2.5-2.956,3.638-4.32a3.841,3.841,0,0,1,1.137-.455,3.229,3.229,0,0,1,.454,1.364c-.682,2.5-1.137,4.775-1.819,7.275-1.819,5.684-3.638,11.6-5.229,17.28s-3.41,11.368-3.41,17.279c-1.591,5-1.137,10.231-.909,15.46a5.932,5.932,0,0,0,1.591,3.865c2.728,3.183,5.457,2.729,7.73-.909a4.981,4.981,0,0,1,2.273-2.046c.455-.455,1.364-.91,1.819-1.364a54.442,54.442,0,0,0,5-5.229c3.183-3.638,6.366-7.5,9.549-11.141a3.985,3.985,0,0,1,1.137-.91c-.227-1.137,1.591-2.729,2.046-3.638A21.551,21.551,0,0,0,171.471,186c.489-.977.938-1.958,1.368-2.946.119.825.259,1.654.449,2.491,1.137,3.638,2.956,6.139,6.366,7.73.682.228,1.364.683,2.046.909a8.991,8.991,0,0,0,9.549-.682,32.891,32.891,0,0,0,8.867-8.867c.455-.682.682-1.818,1.819-1.591A13.324,13.324,0,0,1,202.39,186c.227,2.729,0,5.456,0,8.185,1.137,5,2.046,7.275,5.229,10.459a12.894,12.894,0,0,0,5,3.637c3.638,1.819,8.867-.682,10.231-4.547.227-.683,1.819-.91,1.819-1.591,0-.455,1.819-1.364,1.819-1.819.227-1.364-1.137-1.591.909-1.364s2.728-4.092,3.638-5.229c2.273-2.5,3.183-3.637,5.456-6.366,1.716-1.98,3.583-4.267,5.383-6.548-.879,5.963-1.555,12.01-1.974,18.144-.227,4.32.455,8.412,3.865,11.822,2.956,2.956,7.958,2.047,10.686-1.137a14.709,14.709,0,0,1,1.819-2.046c7.5-8.185,25.237-32.285,31.148-40.7.91-1.591,1.592-3.183,0-3.183a3.061,3.061,0,0,0-2.046,1.137,12.463,12.463,0,0,0-1.592,2.046c-3.638,4.092-16.142,19.326-19.78,23.646-2.046,2.273-7.5,6.593-9.549,8.639-.909.91-1.591.455-1.591-.454.227-1.592.227-2.956.455-4.548.227-1.364,1.137-2.729,1.137-4.092-.227-4.093.91-8.185,1.364-12.05,1.137-7.958,3.41-15.46,4.32-23.418.682-5.684,2.273-11.368,3.638-17.279.682-2.5,1.364-5.229,2.046-7.73,1.137-3.865,2.5-7.5,3.41-11.368,1.137-6.139,2.956-7.73,9.094-7.958a35.361,35.361,0,0,0,7.276-.909c4.32-.682,8.639-1.137,12.959-1.592,3.41-.455,6.821-.682,10.231-1.137.228,0,.455-.227.683-.227-.228-.227-.455-.455-.683-.455h-3.637a.8.8,0,0,0-.455-.227c.227,0,.455-.227.682-.227,2.5-.227,5.229-.455,7.73-.455a1.7,1.7,0,0,1,1.137.227c.683,1.591,2.047.909,3.183.909a4.291,4.291,0,0,0,1.819-.454c-.455,0-1.137-.227-1.592-.227-.227-.227-.682-.227-.909-.455.227,0,.454-.227.909-.227,5.457-.455,10.914-2.956,16.6-3.41a13.153,13.153,0,0,0,6.366-2.046c.227,0,0-.455.227-.909-.91,1.137-2.273-1.137-3.183.682,0,0-1.137.227-1.137,0-.909-1.591-1.818-1.137-3.183-.227-.683.909-1.592,1.137-2.274-.227,0-.227-.682-.227-.909,0a1.522,1.522,0,0,1-1.591.909c-2.729,0-5.456.227-8.185.455-6.821.455-13.869,2.956-20.69,3.41l-8.185.682H290.6c-.455-.455-.909-.682-1.137-1.137.227-.227.682-.909,1.137-.909,2.729-.227,5.229-.455,7.958-.455,2.274-.227,4.32.455,6.594-.682a.692.692,0,0,1,.91,0c2.046,1.137,4.319.227,6.593,0a18.122,18.122,0,0,1,3.41-.682c3.865-.227,7.5-2.5,11.141-2.728,3.638,0,7.275.227,10.914.227.909,0,1.819-.227,2.728-.227.227-.227.682-.682.682-.909a1.251,1.251,0,0,0-.683-1.137ZM136,158.713l-.455-.227a5.615,5.615,0,0,1,.909-2.046c.227-.455.91-.682,1.592-.91l.227.227C137.594,156.667,136.685,157.8,136,158.713Zm10.231-11.141a2.228,2.228,0,0,1-2.728.682l-.227.227c.227,2.046-1.364,3.41-2.5,5H140.1c-.227-.227-.455-.682-.227-.909l3.41-4.092v-.227h.227c1.819-1.819,3.865-3.865,5.911-5.684.227-.227.455-.227.909-.227a1.367,1.367,0,0,0-.227.909c-1.364,1.364-2.728,2.956-3.865,4.32ZM278.555,104.6a11.415,11.415,0,0,0-2.729.455s-.455-.455-.227-.682c0-.227.455-.455.682-.682H278.1a.8.8,0,0,1,.455.228v.682Zm7.73-.682a5.783,5.783,0,0,1-1.592.455c-.455,0,0-.455-.455-.909.455-.227,0-.682.455-.909.227-.227.682,0,.909,0h.682l1.364.682-1.364.682Z" transform="translate(0 -17.767)" fill="#36b0c9"/>
    <g id="Group_2" data-name="Group 2" transform="translate(208.714)">
      <path id="Path_6" data-name="Path 6" d="M310.262,6.363H296.7V38.412h-6V6.363h-13.62V1.121h33.184V6.363Z" transform="translate(-277.078 -1.121)" fill="none" stroke="#002d5d" stroke-width="2"/>
      <path id="Path_7" data-name="Path 7" d="M415.131,38.412h-6V21.874H389.784V38.412h-5.945V1.121h5.945V16.632h19.348V1.121h6Z" transform="translate(-303.42 -1.121)" fill="none" stroke="#002d5d" stroke-width="2"/>
      <path id="Path_8" data-name="Path 8" d="M517.323,6.363h-18.43V16.686h16.646V21.82H498.893V33.062h18.916v5.35H492.894V1.121h24.429V6.363Z" transform="translate(-330.327 -1.121)" fill="none" stroke="#002d5d" stroke-width="2"/>
    </g>
  </g>
</svg>
