<svg id="knot-sheet-bend" xmlns="http://www.w3.org/2000/svg" width="479.166" height="179.233" viewBox="0 0 479.166 179.233">
  <g id="Group_157" data-name="Group 157">
    <g id="Group_125" data-name="Group 125" transform="translate(221.346 98.262)">
      <path id="Path_263" data-name="Path 263" d="M101.282,25.37l14.792,26.986-4.467,1.734a51.8,51.8,0,0,1-7.943,2.473,30.584,30.584,0,0,1-7.988,8.012l-1.06.662A41.351,41.351,0,0,1,80.7,70.35a27.486,27.486,0,0,1-9.68,8.182L71,78.539,71,78.548,56.887,51.2c4.967-6.223,14.391-10.028,21.685-11.458A35.112,35.112,0,0,1,92.724,28.81a46.487,46.487,0,0,1,8.011-2.729,1.155,1.155,0,0,1,.082-.159l.464-.552Z" transform="translate(-56.579 -24.782)" fill="#d9dfe7"/>
      <path id="Path_264" data-name="Path 264" d="M115.313,50.988l-.008,0a35.3,35.3,0,0,1-11.646,3.772,45.938,45.938,0,0,1-8.128.6,67.324,67.324,0,0,1-14.458-1.6l-1.037-.2a132.9,132.9,0,0,0-15.4-1.972,38.1,38.1,0,0,0-4.579-.092c4.752-5.085,13.009-8.1,19.33-9.164a45.1,45.1,0,0,1,18.289.208l1.36.274c4.013.839,8.1,1.61,12.039,2.27h.034l1.068.177-1.73-3.156L99.73,40.035l-1.361-.274a47.627,47.627,0,0,0-15.723-.748,30.155,30.155,0,0,1,10.966-7.787,39.425,39.425,0,0,1,9.412-2.659l-1.836-3.349-.46.563a1.179,1.179,0,0,0-.08.163,45.343,45.343,0,0,0-8.064,2.674A33.735,33.735,0,0,0,78.472,39.637c-7.354,1.329-16.794,5.058-21.664,11.4l1.756,3.4a32.551,32.551,0,0,1,5.853-.057,133.331,133.331,0,0,1,14.95,1.973l1.045.208a71.561,71.561,0,0,0,15.015,1.653c1.994-.013,3.655-.094,4.971-.229a25.138,25.138,0,0,1-5.668,5.326,31.082,31.082,0,0,1-9.366,4.2,46.894,46.894,0,0,1-12.1,1.5,50.651,50.651,0,0,1-7.619-.851l1.651,3.2a50.306,50.306,0,0,0,9.957.458,25.3,25.3,0,0,1-6.97,5.333l1.285,2.491.009-.008.014-.008a26.657,26.657,0,0,0,9.65-8.3,39.991,39.991,0,0,0,13.995-5.016l1.06-.663a29.464,29.464,0,0,0,7.921-8.117,40.752,40.752,0,0,0,12.427-4.074l.012-.007.006-.009-1.351-2.464Z" transform="translate(-56.808 -25.219)" fill="#002d5d"/>
    </g>
    <g id="Group_126" data-name="Group 126" transform="translate(178.299 124.089)">
      <path id="Path_265" data-name="Path 265" d="M89.088,32,103.2,59.349s-2.219.945-5.2,1.841a40.247,40.247,0,0,1-9.075,2.039A29.115,29.115,0,0,1,78.415,70.1l-1.326.463a33.111,33.111,0,0,1-9.019,1.622,30.525,30.525,0,0,1-7.28-.285,30.9,30.9,0,0,1-6.023,2.893,35.064,35.064,0,0,1-7.151,1.248H47.6l-.012,0L45.77,45.326c6.377-3.414,14.888-3.883,21.693-3.3a36.306,36.306,0,0,1,13.889-7.633,56.464,56.464,0,0,1,7.261-1.733,1.037,1.037,0,0,1,.071-.15l.4-.51Z" transform="translate(-45.731 -31.404)" fill="#d9dfe7"/>
      <path id="Path_266" data-name="Path 266" d="M102.284,57.963l-.01.005A32.19,32.19,0,0,1,89.122,61.4a42.21,42.21,0,0,1-8.631-.465,44.742,44.742,0,0,1-14-4.853l-.937-.482L52.186,48.712c-1.323-.585-2.606-1.343-3.884-1.863a26.238,26.238,0,0,1,9.578-2.274,44.763,44.763,0,0,1,9.729.128,65.126,65.126,0,0,1,17.185,3.828l1.306.439A87.35,87.35,0,0,0,98.15,52l.035,0,1.107.17-1.65-3.2a82.248,82.248,0,0,1-10.607-2.719l-1.292-.406a74.823,74.823,0,0,0-14.62-3.546A44.163,44.163,0,0,1,76.2,39.05a34.824,34.824,0,0,1,5.686-2.192,47.978,47.978,0,0,1,8.675-1.617L88.81,31.847l-.4.52a1.019,1.019,0,0,0-.068.154,53.534,53.534,0,0,0-7.267,1.654A34.017,34.017,0,0,0,67.3,41.866c-6.811-.707-15.237-.333-21.541,3.233l.226,3.822a32.639,32.639,0,0,1,5.072,2.332L57.4,54.538c2.257,1.264,4.582,2.487,6.735,3.555l.943.5A70.313,70.313,0,0,0,71.7,61.638a53.735,53.735,0,0,0,8.02,2.08,29.322,29.322,0,0,0,5.294.542,23.333,23.333,0,0,1-7.349,4.372,28.967,28.967,0,0,1-11.116,1.9,40.284,40.284,0,0,1-12.706-2.414A42.666,42.666,0,0,1,46.9,64.341l.212,3.593a36.915,36.915,0,0,0,9.572,4.174,23.309,23.309,0,0,1-9.188,2.33l.166,2.8.012,0,.018,0a34.153,34.153,0,0,0,7.2-1.283,30.139,30.139,0,0,0,6.048-2.984,30.338,30.338,0,0,0,7.337.358,32.48,32.48,0,0,0,9.079-1.6l1.333-.466A28.471,28.471,0,0,0,89.2,64.254a36.354,36.354,0,0,0,14.345-3.776l.015-.008.007-.009-1.288-2.5Z" transform="translate(-45.76 -31.847)" fill="#002d5d"/>
    </g>
    <g id="Group_127" data-name="Group 127" transform="translate(265.812 34.33)">
      <path id="Path_267" data-name="Path 267" d="M68.252,39.251,73.9,9s8.473,2.5,12.439,4.8a31.589,31.589,0,0,1,10.892-1.146l1.174.142a43.889,43.889,0,0,1,13.151,4.083,28.436,28.436,0,0,1,11.293-1.859h.015l.01,0-1.241,30.747c-8.445,3.045-19.65.434-26.53-3.024a35.143,35.143,0,0,1-18.3-.684,47.081,47.081,0,0,1-7.715-3.013,1.112,1.112,0,0,1-.159.072l-.682.139Z" transform="translate(-68.129 -8.259)" fill="#d9dfe7"/>
      <path id="Path_268" data-name="Path 268" d="M73.618,11.576l.01,0a33.652,33.652,0,0,1,11.559,4.629A47.2,47.2,0,0,1,91.7,20.949,90.838,90.838,0,0,1,101.89,31.17l.714.783A71.845,71.845,0,0,0,114.59,42.443a34.639,34.639,0,0,0,4.231,2.5c-7.5,1.962-16.881-.6-22.717-3.7A40.865,40.865,0,0,1,81.865,29.387L81,28.3c-2.541-3.189-5.114-6.492-7.825-9.479l-.028-.02-.733-.816-.661,3.538c2.361,2.671,4.653,5.633,6.92,8.464l.861,1.084A43.444,43.444,0,0,0,91.3,41.759a30.076,30.076,0,0,1-13.637-1.093,39.815,39.815,0,0,1-8.746-3.958l-.7,3.754.685-.151a1.115,1.115,0,0,0,.16-.076,45.561,45.561,0,0,0,7.711,3.089,33.933,33.933,0,0,0,18.344.595C102,47.5,113.232,50.183,121.7,46.985l.154-3.826a28.56,28.56,0,0,1-5.472-2.962A71.21,71.21,0,0,1,104.81,30.131l-.712-.8A98.519,98.519,0,0,0,93.554,18.8c-1.483-1.227-2.8-2.256-3.87-2.984a26.579,26.579,0,0,1,7.493-.561,30.8,30.8,0,0,1,9.386,2.333A55.452,55.452,0,0,1,116.675,23.1c1.5,1.1,4.786,3.594,5.8,4.62l.145-3.6a72.355,72.355,0,0,0-7.644-5.534,25.481,25.481,0,0,1,7.906-.977l.113-2.8-.01,0h-.015A27.161,27.161,0,0,0,111.7,16.8a41.776,41.776,0,0,0-13.106-4.2l-1.172-.141a30.331,30.331,0,0,0-10.89,1.273A38.241,38.241,0,0,0,74.159,8.813l-.015,0-.011,0-.516,2.762Z" transform="translate(-68.22 -8.811)" fill="#002d5d"/>
    </g>
    <g id="Group_128" data-name="Group 128" transform="translate(167.267 7.572)">
      <path id="Path_269" data-name="Path 269" d="M46.955,32.782l-4-30.513a63.307,63.307,0,0,1,6.563.013c3.557.53,7.851,1.068,10.367,2.3a30.555,30.555,0,0,1,13.485-.254l1.435.337A37.08,37.08,0,0,1,88.9,12.2a28.69,28.69,0,0,1,12.257,2.218l.014.006h.011l-11.856,28.4c-8.6-.02-16.834-4.952-21.958-8.984A39.454,39.454,0,0,1,53.335,33.7c-1.1-.208-2.134-.515-3.107-.77a22.748,22.748,0,0,1-2.753-.566.823.823,0,0,1-.091.111l-.429.311Z" transform="translate(-42.856 -1.224)" fill="#d9dfe7"/>
      <path id="Path_270" data-name="Path 270" d="M43.294,5.03l.013,0c5.2-.93,11.8.548,15.324,2.145a41.116,41.116,0,0,1,7.776,4.851A40.992,40.992,0,0,1,75.689,23.7l.528.905c2.521,4.311,5.419,9.278,8.155,13.088A34.179,34.179,0,0,0,87.3,41.312c-7.345-.621-14.26-4.9-18.762-8.7-5.316-4.258-8.027-7.347-12.224-12l-.943-.941a37.479,37.479,0,0,0-10.121-7.608l-.036-.011L44.142,11.5l.468,3.569a48.665,48.665,0,0,1,4.676,2.952,45.569,45.569,0,0,1,4.081,3.661l.937.943,2.562,2.616,2.4,2.627c1.6,1.678,3.208,3.085,5.192,4.947-1.983.108-3.77.288-5.506.24a17.487,17.487,0,0,1-2.608-.315c-.861-.124-1.7-.164-2.568-.355a35.756,35.756,0,0,1-3.661-1.022,25.735,25.735,0,0,1-3.5-.98l.5,3.787.42-.322a.85.85,0,0,0,.088-.115,21.5,21.5,0,0,0,2.711.612c.957.268,1.975.586,3.056.8a35.813,35.813,0,0,0,13.886.026c5.049,4.134,13.211,9.114,21.868,8.992l1.476-3.533A31.784,31.784,0,0,1,86.7,36.11a144.423,144.423,0,0,1-7.928-12.837l-.525-.92c-2.552-4.324-4.628-7.843-9.675-12.259a22.806,22.806,0,0,0-4.54-3.255,23.537,23.537,0,0,1,9.039.236,30.026,30.026,0,0,1,10.4,4.421,42.853,42.853,0,0,1,8.98,8.517,49.226,49.226,0,0,1,4.112,6.364l1.387-3.321a52.939,52.939,0,0,0-5.8-7.919,26.175,26.175,0,0,1,8.314,1.906l1.08-2.587h-.011l-.014-.006A27.815,27.815,0,0,0,89.2,12.331,36.193,36.193,0,0,0,75.074,4.652l-1.446-.339c-5.69-1.389-11.559-.15-13.606.36a32.585,32.585,0,0,0-17.06-2.437l-.02,0-.012.007.365,2.786Z" transform="translate(-42.929 -1.943)" fill="#002d5d"/>
    </g>
    <g id="Group_129" data-name="Group 129" transform="translate(213.483 20.076)">
      <path id="Path_271" data-name="Path 271" d="M54.856,33.729l11.857-28.4S68.7,6.409,71.107,7.89a46.654,46.654,0,0,1,6.8,4.823,32.265,32.265,0,0,1,10.558,1l1.057.314a43.326,43.326,0,0,1,11.391,5.891,28.079,28.079,0,0,1,11.762-.277l.015,0h.011l-5.652,30.249a28.143,28.143,0,0,1-13.628-.9,54.889,54.889,0,0,1-7.043-2.673,46.839,46.839,0,0,1-5.652-3.488,34.851,34.851,0,0,1-18.217-4.572,46.669,46.669,0,0,1-6.8-4.561,1.056,1.056,0,0,1-.168.038Z" transform="translate(-54.598 -4.636)" fill="#d9dfe7"/>
      <path id="Path_272" data-name="Path 272" d="M66.113,7.746l.009,0A33.245,33.245,0,0,1,76.49,14.772a54.416,54.416,0,0,1,5.276,5.955,124.84,124.84,0,0,1,7.977,11.953l.579.893a73.655,73.655,0,0,0,10.562,12.053,34.622,34.622,0,0,0,3.744,3.013,23.516,23.516,0,0,1-5.755-.066c-.977-.125-1.945-.295-2.925-.519-1.063-.279-2.117-.6-3.152-.957a48.536,48.536,0,0,1-5.877-2.474,44.5,44.5,0,0,1-4.7-3.125,36.221,36.221,0,0,1-7.22-7.03,39.715,39.715,0,0,1-4.575-7.531l-.609-1.241c-1.794-3.646-3.58-7.453-5.637-10.946l-.023-.026-.552-.955-1.387,3.322c1.767,3.111,3.36,6.5,4.958,9.755l.61,1.242a40.56,40.56,0,0,0,9.431,12.987,30.356,30.356,0,0,1-13.335-4.028,39.232,39.232,0,0,1-7.614-5.7L54.79,34.864l.69-.007a1.1,1.1,0,0,0,.17-.042,44.954,44.954,0,0,0,6.774,4.631,33.813,33.813,0,0,0,18.3,4.5,45.574,45.574,0,0,0,5.656,3.569,53.1,53.1,0,0,0,7.073,2.725,27.147,27.147,0,0,0,13.666.821l.7-3.764a30.2,30.2,0,0,1-4.9-3.672c-1.73-1.6-3.537-3.427-5.3-5.4a64.014,64.014,0,0,1-4.809-6.164l-.582-.876c-2.71-4.161-4.633-7.539-8.251-12.182a47.714,47.714,0,0,0-3.074-3.67,25.415,25.415,0,0,1,7.21.877,32.026,32.026,0,0,1,8.3,3.7,51.006,51.006,0,0,1,4.53,3.239,43.646,43.646,0,0,1,4.52,3.573,61.306,61.306,0,0,1,5.192,5.392l.661-3.538a61.939,61.939,0,0,0-7-6.56,25.586,25.586,0,0,1,8.2.155l.515-2.756-.011,0-.015,0a26.929,26.929,0,0,0-11.772.395,40.658,40.658,0,0,0-11.285-5.991L88.9,13.507a30.878,30.878,0,0,0-10.567-.866A37.394,37.394,0,0,0,67.221,5.158l-.014-.006h-.011L66.113,7.746Z" transform="translate(-54.79 -5.153)" fill="#002d5d"/>
    </g>
    <g id="Group_130" data-name="Group 130" transform="translate(120.172 127.737)">
      <path id="Path_273" data-name="Path 273" d="M88.687,42.654,90.5,73.375l-1.741-.048a25.4,25.4,0,0,1-4.2-.4c-3.285-.544-7.18-1.2-9.624-2.261-1.983.418-7.236,1.866-13.135.734l-1.476-.35c-3.449-.945-6.588-1.853-9.141-3.478a57.423,57.423,0,0,1-6.324-4.484,19.842,19.842,0,0,1-6.91-1.485A27.58,27.58,0,0,1,30.981,58.1l-.016-.012-.012-.005L48.679,32.924a25.125,25.125,0,0,1,4.944,1.086,15.694,15.694,0,0,1,2.256,1.056c.747.38,1.584.641,2.336,1.045a29.278,29.278,0,0,1,4.35,2.762,30.369,30.369,0,0,1,4.1,2.722c1.288-.263,2.441-.309,3.7-.491a25.224,25.224,0,0,1,3.733-.321,22.566,22.566,0,0,1,3.642.26c1.213.125,2.433.19,3.669.441,2.506.448,4.636,1.16,6.643,1.58a.982.982,0,0,1,.113-.109l.518-.3Z" transform="translate(-30.52 -32.376)" fill="#d9dfe7"/>
      <path id="Path_274" data-name="Path 274" d="M90.7,71.728H90.69a34.326,34.326,0,0,1-3.742.075c-1.294-.149-2.608-.369-3.876-.632A33.135,33.135,0,0,1,76.5,69.162a41.987,41.987,0,0,1-7.615-4.688,29.351,29.351,0,0,1-5.7-5.535,58.074,58.074,0,0,1-4.035-5.7l-.543-.857-3.629-6.853-1.7-3.178-1.346-3.173a31.6,31.6,0,0,0-1.8-3.6c3.069.342,5.6,1.924,8.415,3.256a41.335,41.335,0,0,1,3.846,2.613,30.129,30.129,0,0,1,3.6,2.518l3.543,3.022c1.143.855,2.184,1.72,3.178,2.627,2,1.751,3.774,3.93,5.948,6.064l.955.949c2.844,2.7,6.1,5.949,9.691,7.975l.034.012.982.6-.212-3.593a47.945,47.945,0,0,1-8.452-6.994l-.952-.949c-3.727-3.541-6.573-6.975-10.8-9.9a23.1,23.1,0,0,1,5.747-.5c.934.031,1.861.168,2.8.293a22.642,22.642,0,0,1,2.856.352A81.4,81.4,0,0,1,89.194,46.2l-.225-3.813-.513.313a.951.951,0,0,0-.112.113c-1.992-.453-4.1-1.19-6.584-1.655a33.968,33.968,0,0,0-3.633-.454,21.183,21.183,0,0,0-3.609-.246,23.959,23.959,0,0,0-3.706.363c-1.251.2-2.394.269-3.676.56A29.056,29.056,0,0,0,63.1,38.6a27.293,27.293,0,0,0-4.268-2.777c-.738-.4-1.564-.659-2.3-1.033a14.583,14.583,0,0,0-2.226-1.027,23.158,23.158,0,0,0-4.923-.983l-2.205,3.13c.707,1.606,1.7,2.877,2.42,4.64A137.46,137.46,0,0,0,56.1,53.609l.508.973a38.315,38.315,0,0,0,4.118,5.958A39.338,39.338,0,0,0,66.8,66.6,44.522,44.522,0,0,0,71.336,69.6c-2.3.308-5.5,1.042-8.934.156-4.358-1.049-8.294-2.184-11.107-4.448-3.891-2.752-7.495-5.968-9.552-9.579-1.108-1.843-3.277-5.533-3.46-7.193L36.21,51.482a37.554,37.554,0,0,0,5.521,9.3,26.623,26.623,0,0,1-9.275-3.977L30.842,59.1l.013.005.016.012a27.32,27.32,0,0,0,7.045,3.522,19.743,19.743,0,0,0,7,1.434,56,56,0,0,0,6.35,4.584c2.569,1.656,5.729,2.588,9.207,3.54l1.488.351c5.95,1.134,11.24-.392,13.238-.844A37.552,37.552,0,0,0,82.937,74c1.325.26,2.657.464,3.981.609,1.319.046,2.63.011,3.92-.07l.018,0,.012-.006-.166-2.8Z" transform="translate(-30.842 -32.784)" fill="#002d5d"/>
    </g>
    <g id="Group_131" data-name="Group 131" transform="translate(89.19 95.963)">
      <path id="Path_275" data-name="Path 275" d="M71.471,56.941,53.744,82.1s-2.164-1.938-4.659-4.484c-2.638-2.365-4.869-6.228-6.2-8.677-2.133-.835-6.814-4.392-10.468-9.713l-.751-1.429c-1.628-3.429-3.163-6.609-3.52-9.759a57.422,57.422,0,0,1-.682-8.029A29.712,29.712,0,0,1,24.411,33.4a32.718,32.718,0,0,1-1.048-3.8c-.15-1.318-.243-2.679-.276-4.072v-.02l0-.013,30.76-.862a12.323,12.323,0,0,1,1.018,2.192,23.4,23.4,0,0,1,.988,2.21c.642,1.467.576,3.106,1.068,4.606a20.219,20.219,0,0,1,.52,4.741,25.031,25.031,0,0,1,.434,4.518c3.932,2.809,6.885,5.326,9.4,8.988,1.255,1.876,2.611,3.255,3.531,4.978a.846.846,0,0,1,.141-.014Z" transform="translate(-22.332 -24.615)" fill="#d9dfe7"/>
      <path id="Path_276" data-name="Path 276" d="M55.488,80.428l-.01-.008A42.719,42.719,0,0,1,49.506,74.8a27.774,27.774,0,0,1-3.747-6.36l-1.4-3.314a30.829,30.829,0,0,1-1.122-5.7c-.946-6.286.378-10.3,1.676-14.916l.308-.964c2.012-4.817,3.948-9.589,6.2-13.223.706-1.225,1.138-2.346,1.722-3.48a16.8,16.8,0,0,1,1.681,3.98,14.471,14.471,0,0,1,.372,2.117c.156.7.367,1.386.479,2.1a27.436,27.436,0,0,1,.337,4.354,26.219,26.219,0,0,1,.31,4.1c-.176,3.268.335,5.654.192,8.337-.149,2.725-.032,5.124-.01,8.246l.026,1.368a38.61,38.61,0,0,0,2.3,12.462l.019.033.391,1.149,2.073-2.942a46.454,46.454,0,0,1-2.026-10.772l-.022-1.366c-.03-2.675-.023-4.948-.148-7.112.025-2.275.108-4.574-.082-6.915a16.891,16.891,0,0,1,3.83,3.353,16.352,16.352,0,0,1,3.338,3.807c1.289,2.115,3,4.1,4.007,6.381l2.2-3.122-.525-.074a.846.846,0,0,0-.143.019,59.9,59.9,0,0,0-3.412-4.976c-2.437-3.637-5.359-6.06-9.348-8.761a23.949,23.949,0,0,0-.334-4.486,18.844,18.844,0,0,0-.45-4.67c-.477-1.472-.406-3.078-1.057-4.514a21.448,21.448,0,0,0-1.011-2.164,11.809,11.809,0,0,0-1.063-2.152l-3.827.108-2.373,4.628-3.3,6.154L42.7,42.4l-.422,1.014a31.113,31.113,0,0,0-1.85,7.091,27.277,27.277,0,0,0-.2,8.762A44.1,44.1,0,0,0,41.346,65a29.293,29.293,0,0,1-6.665-6.938c-2.2-4.182-4-8.2-4.073-11.918a49.984,49.984,0,0,1-.111-7.273,40.549,40.549,0,0,1,1.568-6.523,28.326,28.326,0,0,1,1.624-3.923A25.3,25.3,0,0,1,35.8,25.169l-3.6.1a29.093,29.093,0,0,0-4.086,10.2,21.938,21.938,0,0,1-2.428-10.016l-2.8.079,0,.013v.02c.035,1.407.131,2.782.288,4.113a32.369,32.369,0,0,0,1.075,3.837,29.251,29.251,0,0,0,3.151,6.657,56.145,56.145,0,0,0,.625,8.127c.345,3.188,1.88,6.41,3.528,9.875l.761,1.444C36.017,65,40.8,68.547,42.97,69.37a39.465,39.465,0,0,0,4.572,7.484,48.851,48.851,0,0,0,6.3,5.855l.016.012.014,0,1.619-2.3Z" transform="translate(-22.89 -24.629)" fill="#002d5d"/>
    </g>
    <g id="Group_132" data-name="Group 132" transform="translate(52.62 34.684)">
      <path id="Path_277" data-name="Path 277" d="M72.81,24.362,63.147,53.58s-8.259-3.67-12.059-6.538a32.932,32.932,0,0,1-11.456-.621l-1.2-.344A44.148,44.148,0,0,1,25.5,39.653a29.747,29.747,0,0,1-11.924-.4l-.015,0H13.55L20.685,9.318c8.981-1.339,19.432,3.233,25.732,7.712a37.158,37.158,0,0,1,18.1,3.346,50.261,50.261,0,0,1,7.414,4.076A1.143,1.143,0,0,1,72.1,24.4l.712-.041Z" transform="translate(-13.375 -8.383)" fill="#d9dfe7"/>
      <path id="Path_278" data-name="Path 278" d="M63.923,52.144l-.01,0a36.1,36.1,0,0,1-11.17-6.235,52.978,52.978,0,0,1-6.043-5.7,81.211,81.211,0,0,1-8.8-11.8l-.592-.894a80.578,80.578,0,0,0-10.14-12.5,33.174,33.174,0,0,0-3.725-3.26c7.8-.47,16.553,3.683,21.88,7.677A44.638,44.638,0,0,1,57.874,33.31L58.6,34.5c2.159,3.508,4.35,7.171,6.706,10.51l.025.024.637.911,1.13-3.417c-2.048-2.972-3.991-6.259-5.918-9.378l-.73-1.194a47.272,47.272,0,0,0-10.3-12.291,31.478,31.478,0,0,1,13.458,3.042,42.2,42.2,0,0,1,8.339,5.158l1.2-3.626-.717.053a1.089,1.089,0,0,0-.172.053,48.684,48.684,0,0,0-7.4-4.15A35.73,35.73,0,0,0,46.725,16.94C40.452,12.347,30,7.7,20.97,9.184l-.888,3.725a29.747,29.747,0,0,1,4.89,3.965,79.49,79.49,0,0,1,9.806,12.066l.588.908a87.267,87.267,0,0,0,9.126,12.19,48.286,48.286,0,0,0,3.581,3.552,26.006,26.006,0,0,1-7.849-.658,32.61,32.61,0,0,1-9.331-3.937,56.023,56.023,0,0,1-9.381-7.375A70.9,70.9,0,0,1,16.5,27.934l-.835,3.5a70.964,70.964,0,0,0,6.751,6.959,27.7,27.7,0,0,1-8.262-.62L13.5,40.5h.011l.015,0a28.488,28.488,0,0,0,11.934.281,42.251,42.251,0,0,0,12.879,6.538l1.2.343a31.662,31.662,0,0,0,11.484.5,41.005,41.005,0,0,0,11.983,6.643l.015,0,.011,0,.882-2.667Z" transform="translate(-13.505 -8.902)" fill="#002d5d"/>
    </g>
    <g id="Group_133" data-name="Group 133" transform="translate(0 26.017)">
      <path id="Path_279" data-name="Path 279" d="M59.791,15.72,52.655,45.656s-2.106-.731-4.7-1.793A48.559,48.559,0,0,1,40.314,40.3a33.3,33.3,0,0,1-10.934.85l-1.163-.166a45.936,45.936,0,0,1-12.664-3.945,38.951,38.951,0,0,1-4.54,1.85c-1.287.432-3.082.937-2.431.859l-.03.009-.019.009L.048,10.177A30.365,30.365,0,0,1,9.822,7.17,33.721,33.721,0,0,1,18.207,7.1a41.682,41.682,0,0,1,13.75,3.985,36.522,36.522,0,0,1,19.068,1.371,46.82,46.82,0,0,1,7.885,3.429,1.144,1.144,0,0,1,.167-.063Z" transform="translate(0.138 -6.114)" fill="#d9dfe7"/>
      <path id="Path_280" data-name="Path 280" d="M53.27,44.218l-.01,0A35.912,35.912,0,0,1,41.776,39.06a52.9,52.9,0,0,1-6.454-4.966A114.778,114.778,0,0,1,25.086,23.679l-.736-.8A48.408,48.408,0,0,0,11.014,12.832a20.945,20.945,0,0,0-5.65-1.838c9.8-3.412,19.6-.472,25.766,2.683A39.8,39.8,0,0,1,45.6,26.016l.846,1.121c2.5,3.285,4.987,6.72,7.605,9.858l.027.021.707.853.835-3.5c-2.286-2.788-4.5-5.9-6.729-8.818l-.847-1.121A42.291,42.291,0,0,0,36.154,13.287,31.3,31.3,0,0,1,50.3,14.922a40.143,40.143,0,0,1,8.9,4.424l.886-3.715-.717.111a1.19,1.19,0,0,0-.168.067,45.448,45.448,0,0,0-7.884-3.5,35.376,35.376,0,0,0-19.132-1.286,40.687,40.687,0,0,0-13.8-4.11,33.214,33.214,0,0,0-8.453.079A30.855,30.855,0,0,0,0,10.1l1.056,3.682A16.754,16.754,0,0,1,9.194,15.25a43.51,43.51,0,0,1,12.9,9.5l.737.782A130.152,130.152,0,0,0,33.4,36.187c1.463,1.269,2.764,2.342,3.822,3.1a28.389,28.389,0,0,1-7.522.367A33.516,33.516,0,0,1,20.5,37.312a71.1,71.1,0,0,1-9.7-5.032L5.317,28.629l.992,3.46a38.07,38.07,0,0,0,6.336,4.538c-.989.479-2.116.817-2.965,1.149a6.93,6.93,0,0,0-1.574.577l.773,2.694.019-.009.03-.009c-.779.11,1-.413,2.254-.861a37.4,37.4,0,0,0,4.486-1.936,42.973,42.973,0,0,0,12.58,4.062l1.158.164A31.864,31.864,0,0,0,40.33,41.48a40.444,40.444,0,0,0,12.263,5.47l.015,0,.011,0,.651-2.733Z" transform="translate(0 -6.677)" fill="#002d5d"/>
    </g>
    <g id="Group_134" data-name="Group 134" transform="translate(243.974 120.038)">
      <path id="Path_281" data-name="Path 281" d="M119.025,39.086l2.71,30.654-1.813,0a28.845,28.845,0,0,1-4.363-.291c-3.408-.36-7.416-1.011-9.925-2.115a34.6,34.6,0,0,1-5.2,1.169,37.14,37.14,0,0,1-8.02-.024c-.494-.057-.962-.179-1.425-.27a40.719,40.719,0,0,1-15.1-6.54,29.786,29.786,0,0,1-13.175-1.959L62.7,59.7h-.012L73.774,31c8.188-.369,16.627,3.976,22.4,7.526a38.385,38.385,0,0,1,7.926-.9,32.853,32.853,0,0,1,7.535.515c2.554.332,4.752.988,6.77,1.376a.957.957,0,0,1,.111-.111l.512-.312Z" transform="translate(-62.414 -30.327)" fill="#d9dfe7"/>
      <path id="Path_282" data-name="Path 282" d="M121.755,68.172h-.012a26.027,26.027,0,0,1-7.893-.345,23.312,23.312,0,0,1-6.777-1.965c-2.056-1.082-3.807-1.327-7.883-4.457-5.055-3.736-7.34-6.842-10.343-10.916l-.619-.848c-2.911-4.29-6.3-8.857-9.157-12.585-.973-1.248-1.972-2.3-3.021-3.426,7.078.089,14.348,4.111,19.35,7.363A80.563,80.563,0,0,1,108.98,52.413l1,1c2.974,2.625,6.366,5.679,10.138,7.676l.035.012,1.031.574-.317-3.585a50.548,50.548,0,0,1-8.837-6.745l-.994-.913a94.335,94.335,0,0,0-11.353-9.841,33.256,33.256,0,0,1,11.764.071A64.182,64.182,0,0,1,119.5,42.7l-.336-3.8-.507.324a.984.984,0,0,0-.109.115c-2-.421-4.18-1.1-6.708-1.453a30.359,30.359,0,0,0-7.465-.514,36.248,36.248,0,0,0-7.885,1.01c-5.709-3.659-14.058-8.053-22.277-7.53l-1.38,3.572a42.5,42.5,0,0,1,4,4.368c1.413,1.767,2.928,3.824,4.44,5.984C82.8,46.861,84.351,49,85.75,51.086l.606.911a55.924,55.924,0,0,0,4.507,5.774,36.462,36.462,0,0,0,6.267,5.742,38.089,38.089,0,0,0,4.65,3.042,29.96,29.96,0,0,1-8.951.356,31.57,31.57,0,0,1-10.847-3.736A39.248,39.248,0,0,1,67.271,48.832l-1.3,3.357a42.189,42.189,0,0,0,6.645,7.835,24.748,24.748,0,0,1-8.993-1.757l-1.01,2.615h.012l.016.006A28.984,28.984,0,0,0,75.9,62.753a39.757,39.757,0,0,0,15.142,6.679c.466.091.935.214,1.433.271a36,36,0,0,0,8.075-.021,33.9,33.9,0,0,0,5.239-1.238,30,30,0,0,0,7.981,2.216,29.012,29.012,0,0,0,8.2.318l.019,0L122,70.97l-.247-2.8Z" transform="translate(-62.616 -30.808)" fill="#002d5d"/>
    </g>
    <g id="Group_135" data-name="Group 135" transform="translate(194.254 97.564)">
      <path id="Path_283" data-name="Path 283" d="M110.659,47.752,99.57,76.459s-2.292-1.08-4.952-2.683a47.669,47.669,0,0,1-7.576-5.39,32.382,32.382,0,0,1-11.849-2.7L74,65.108a42.121,42.121,0,0,1-12.052-9.352,29.529,29.529,0,0,1-11.974-3.74l-.014-.008-.011,0L65.043,25.19c8.6,1.05,17.018,7.44,22.073,12.8a38.932,38.932,0,0,1,16.352,5.456,71.313,71.313,0,0,1,6.378,4.376,1.018,1.018,0,0,1,.16-.045Z" transform="translate(-49.581 -24.605)" fill="#d9dfe7"/>
      <path id="Path_284" data-name="Path 284" d="M100.586,74.974l-.011,0a33.512,33.512,0,0,1-11.487-7.562,47.027,47.027,0,0,1-5.47-6.647A61.292,61.292,0,0,1,76.96,47.48l-.391-1a121.48,121.48,0,0,0-6.757-14.348,37.812,37.812,0,0,0-2.614-4c7.342,1.447,14.408,7.168,18.67,11.938a52.722,52.722,0,0,1,9.878,15.467l.583,1.257a81.745,81.745,0,0,0,5.953,11.11l.025.026.63.96,1.3-3.358a80.008,80.008,0,0,1-5.213-9.816l-.583-1.256A58.632,58.632,0,0,0,90.4,41.06,32.919,32.919,0,0,1,102.557,45.6a52.87,52.87,0,0,1,7.242,5.528l1.376-3.562-.657.039a1.072,1.072,0,0,0-.161.049,66.54,66.54,0,0,0-6.326-4.436,36.946,36.946,0,0,0-16.356-5.354C82.684,32.4,74.314,25.953,65.646,25.04l-1.878,3.336a35.4,35.4,0,0,1,3.488,5.039A114.677,114.677,0,0,1,73.8,47.343l.385,1.012a64.616,64.616,0,0,0,6.908,13.827,40.56,40.56,0,0,0,3.184,4.153,25.259,25.259,0,0,1-8.008-2.107,31.1,31.1,0,0,1-8.856-5.944,47.44,47.44,0,0,1-7.776-9.569,51.294,51.294,0,0,1-3.446-6.876l-1.765,3.137a53.182,53.182,0,0,0,4.966,8.62,25.861,25.861,0,0,1-8.161-2.941L49.855,53.1l.011,0,.014.008a28.514,28.514,0,0,0,12.04,3.642A40.709,40.709,0,0,0,73.933,66.22l1.2.583A31.427,31.427,0,0,0,87.053,69.4a37.583,37.583,0,0,0,12.492,8.192l.016.006h.012l1.013-2.621Z" transform="translate(-49.855 -25.04)" fill="#002d5d"/>
    </g>
    <g id="Group_136" data-name="Group 136" transform="translate(336.748 70.311)">
      <path id="Path_285" data-name="Path 285" d="M98.263,20.079l30.707-2.021s-.028,2.809-.42,6.259c-.57,3.458-1.242,7.533-2.512,10.091a37.3,37.3,0,0,1,.88,5.439A36.676,36.676,0,0,1,126.2,48.3l-.452,1.505a32.994,32.994,0,0,1-4.249,9.215c-.835,1.289-1.669,2.457-2.468,3.508-.893,1.016-1.76,1.91-2.545,2.7a27.724,27.724,0,0,1-6.332,13.8l-.014.015-.006.012L86.558,59.284a27.466,27.466,0,0,1,4.068-9.333A82.579,82.579,0,0,1,96.7,41.779c-.194-2.543-.669-5.063-.413-7.37a34.929,34.929,0,0,1,.787-7.143c.238-1.232.523-2.374.831-3.456a31.073,31.073,0,0,1,.743-3.107.949.949,0,0,1-.1-.111l-.286-.512Z" transform="translate(-86.044 -18.009)" fill="#d9dfe7"/>
      <path id="Path_286" data-name="Path 286" d="M127.3,18.23v.012a31.08,31.08,0,0,1-2.762,14.846c-1.205,2.071-1.509,3.838-4.922,7.861-4.086,4.94-7.506,6.992-11.879,9.437l-.966.477a131.215,131.215,0,0,1-13.637,5.989,33.458,33.458,0,0,0-3.809,1.521c1.636-5.688,5.949-11.079,9.661-15.436a131.849,131.849,0,0,1,12.208-12.321l.98-.957a49.584,49.584,0,0,0,7.985-9.941l.013-.035.617-1.024-3.592.237c-1.019,1.595-2.116,3.122-3.243,4.567-1.2,1.446-2.514,2.809-3.761,4.084l-.957.956c-3.884,3.7-6.85,6.539-10.329,10.427a33.717,33.717,0,0,1,.582-11.174,34.152,34.152,0,0,1,1.1-4.007,31.944,31.944,0,0,1,1.2-3.838l-3.811.251.3.506c.032.05.078.073.11.11a29.56,29.56,0,0,0-.787,3.076c-.321,1.071-.616,2.2-.863,3.416-.368,2.424-.953,4.668-.782,7.056-.236,2.28.279,4.78.528,7.31a72.8,72.8,0,0,0-6.14,8,24.856,24.856,0,0,0-3.914,9.25l2.934,2.461c1.665-.615,3.1-1.456,4.928-2.065,2.085-.668,4.295-1.574,6.6-2.583l3.59-1.516,3.384-1.663.981-.474a34.512,34.512,0,0,0,6.361-3.846,33.489,33.489,0,0,0,6.354-5.988,34.286,34.286,0,0,0,3.371-4.654,28.458,28.458,0,0,1-.38,9.388,44.471,44.471,0,0,1-2.222,6.224,29.158,29.158,0,0,1-3.1,4.96,30.287,30.287,0,0,1-4.967,5.3,24.7,24.7,0,0,1-5.442,3.87c-1.934,1.023-5.994,2.867-7.626,2.971l2.758,2.313a37.927,37.927,0,0,0,9.961-4.927,27.285,27.285,0,0,1-4.969,9.115l2.148,1.8.007-.012.013-.015a27.422,27.422,0,0,0,6.313-13.981c.8-.789,1.686-1.686,2.6-2.706.817-1.054,1.668-2.228,2.519-3.524a32.644,32.644,0,0,0,4.317-9.284l.456-1.518A35.823,35.823,0,0,0,128,40a36.51,36.51,0,0,0-.946-5.487,34.845,34.845,0,0,0,3.061-16.438v-.019l-.006-.012-2.8.185Z" transform="translate(-86.426 -18.045)" fill="#002d5d"/>
    </g>
    <g id="Group_137" data-name="Group 137" transform="translate(300.525 111.158)">
      <path id="Path_287" data-name="Path 287" d="M113.826,28.639,137.4,48.416s-2.118,2.093-4.9,4.456c-3.061,2.079-6.545,4.7-9.418,5.509a40.414,40.414,0,0,1-3.627,4.438,33.512,33.512,0,0,1-7.068,5.193,15.04,15.04,0,0,1-1.432.733,42.71,42.71,0,0,1-9.81,2.79,59.03,59.03,0,0,1-7.647.26,29.1,29.1,0,0,1-13.618,4.7l-.019,0-.012,0-2.71-30.653a29.926,29.926,0,0,1,10.484-3.574,44.58,44.58,0,0,1,5.492-.625,30.55,30.55,0,0,1,4.931-.146,40.972,40.972,0,0,1,10.256-9.026c.96-.629,1.974-1.087,2.841-1.633a25.885,25.885,0,0,1,2.551-1.521.845.845,0,0,1,0-.146l.129-.532Z" transform="translate(-77.085 -28.208)" fill="#d9dfe7"/>
      <path id="Path_288" data-name="Path 288" d="M135.871,47.414l-.009.01a30.7,30.7,0,0,1-12.977,8.962c-2.4.56-4.039,1.543-9.34,1.8a37.417,37.417,0,0,1-8.164-.605,56.705,56.705,0,0,1-6.85-2.186l-.971-.37c-4.719-2.044-9.86-4.223-13.866-6.2-1.361-.65-2.637-1.052-3.955-1.636,5.616-3.06,13.3-3.306,18.747-3.224,3.3.1,5.934.041,8.665.351,2.567.042,5.2.376,8.394.638l1.347.034c2.008.033,4.136,0,6.339-.17a36.667,36.667,0,0,0,6.425-1.257l.035-.017,1.18-.325-2.757-2.313a38.522,38.522,0,0,1-11.083,1.205l-1.344-.037c-2.57-.01-4.982-.328-7.273-.468-1.147-.074-2.253-.093-3.4-.111-1.205-.109-2.423-.182-3.68-.214,1.272-1.4,2.59-2.519,3.834-3.728,1.3-1.126,2.817-1.959,4.284-3.01,1.046-.684,2.3-1.2,3.43-1.834a28.629,28.629,0,0,1,3.4-1.727l-2.926-2.454-.115.534a.843.843,0,0,0,.007.148,24.508,24.508,0,0,0-2.553,1.461c-.864.526-1.873.965-2.824,1.574A36.446,36.446,0,0,0,97.837,41.24a29.293,29.293,0,0,0-4.9.052,40.788,40.788,0,0,0-5.447.566,27.559,27.559,0,0,0-10.359,3.637l.337,3.814c1.7.514,3.443,1.4,5.192,2.107,1.972.869,4.218,1.979,6.565,3.1L96.261,57.6l1,.461a49.148,49.148,0,0,0,7.048,2.256,29.581,29.581,0,0,0,8.779.819,24.073,24.073,0,0,0,5.836-.673,26.25,26.25,0,0,1-7.525,6.087,30.114,30.114,0,0,1-6.266,2.362,20.645,20.645,0,0,1-5.694.936,58.169,58.169,0,0,1-7-.216,42.6,42.6,0,0,1-6.351-1.492A32.581,32.581,0,0,1,78.827,64.7l.317,3.585a40.883,40.883,0,0,0,5.426,2.487c1.718.556,3.311.971,4.63,1.272a30.512,30.512,0,0,1-4.44,1.848,33.174,33.174,0,0,1-5.043.883l.247,2.793.012,0,.019,0a28.58,28.58,0,0,0,13.7-4.826,57.5,57.5,0,0,0,7.718-.192,41.931,41.931,0,0,0,9.91-2.785,15.238,15.238,0,0,0,1.446-.74,32.974,32.974,0,0,0,7.116-5.279,39.594,39.594,0,0,0,3.628-4.526,34.047,34.047,0,0,0,14.5-9.961l.014-.015.005-.014-2.153-1.806Z" transform="translate(-77.129 -28.529)" fill="#002d5d"/>
    </g>
    <g id="Group_138" data-name="Group 138" transform="translate(284.479)">
      <path id="Path_289" data-name="Path 289" d="M80.96,32.374l-7.9-29.743a15.3,15.3,0,0,1,1.878-.323l4.576-.425a37.575,37.575,0,0,1,10.61.681A36.709,36.709,0,0,1,95.45.857a30.924,30.924,0,0,1,8.577-.542l1.573.2a36.122,36.122,0,0,1,9.831,2.811,45.223,45.223,0,0,1,6.909,4.133,28.021,28.021,0,0,1,14.7,4.609l.017.012.013.005L120.35,37.916a26.557,26.557,0,0,1-9.559-2.711,80.442,80.442,0,0,1-8.842-4.794,43.052,43.052,0,0,1-14.03,1.9c-2.439-.222-4.454-.122-6.463-.468a.959.959,0,0,1-.082.129l-.413.4Z" transform="translate(-72.868 0.557)" fill="#d9dfe7"/>
      <path id="Path_290" data-name="Path 290" d="M73.732,5.176l.012,0a33.754,33.754,0,0,1,8.193-1.014,32.275,32.275,0,0,1,7.279,1.033c2.267.862,4.109.9,8.646,3.636a30.7,30.7,0,0,1,6.5,4.933,34.922,34.922,0,0,1,4.626,5.459l.618.855a120.453,120.453,0,0,1,7.781,12.613,33.816,33.816,0,0,0,1.933,3.569c-5.774-.729-11.6-4.273-16.4-7.349a159.655,159.655,0,0,1-13.947-10.1l-1.105-.8a45.7,45.7,0,0,0-11.289-6.155l-.038,0-1.132-.366.924,3.479a43.514,43.514,0,0,1,9.792,5.315l1.1.8c2.148,1.522,4,3.009,5.877,4.41,1.874,1.282,3.765,2.761,5.911,4.09a33.508,33.508,0,0,1-10.864,1.228c-2.627-.242-5.4-.437-7.853-.919l.98,3.691.4-.408a.969.969,0,0,0,.079-.133c1.993.383,3.985.313,6.393.557a38.529,38.529,0,0,0,13.85-2,70.741,70.741,0,0,0,8.681,4.878,23.891,23.891,0,0,0,9.446,2.563l2.08-3.215c-.8-1.514-1.758-2.887-2.593-4.6a123.318,123.318,0,0,0-7.524-12.675l-.612-.891A37.208,37.208,0,0,0,99.819,6.545a35.812,35.812,0,0,0-5.178-2.594,26.148,26.148,0,0,1,9.445-1.015,30.018,30.018,0,0,1,11.94,3.588,34.914,34.914,0,0,1,10.612,9.1c1.3,1.78,3.631,5.654,3.964,7.234l1.956-3.022a26.938,26.938,0,0,0-3.093-5.33,29.463,29.463,0,0,0-3.2-3.92,20.348,20.348,0,0,1,4.906,1.308,21.145,21.145,0,0,1,4.929,2.472l1.523-2.353L137.608,12l-.018-.012a27.727,27.727,0,0,0-14.881-4.571,44.681,44.681,0,0,0-6.949-4.234A35.7,35.7,0,0,0,105.846.317l-1.587-.2A30.417,30.417,0,0,0,95.6.709a36.062,36.062,0,0,0-5.369,1.781,37.38,37.38,0,0,0-8.627-1.142,37.672,37.672,0,0,0-8.565,1.1l-.019.005-.012.009.721,2.715Z" transform="translate(-73.011 0)" fill="#002d5d"/>
    </g>
    <g id="Group_139" data-name="Group 139" transform="translate(331.6 12.003)">
      <path id="Path_291" data-name="Path 291" d="M85.2,29.078l16.72-25.835,1.553,1.24a30.217,30.217,0,0,1,3.559,3.255,37.445,37.445,0,0,1,6.794,9.038,30.762,30.762,0,0,1,10.681,10.883l.725,1.567a53.424,53.424,0,0,1,2.091,5.446c.371,1.633.64,3.2.838,4.687a32.991,32.991,0,0,1,.194,7.757,22.435,22.435,0,0,1,3.066,6.32,28.168,28.168,0,0,1,1.478,7.5v.019l0,.013L102.2,62.99A29.825,29.825,0,0,1,98.81,52.616,55.188,55.188,0,0,1,98.2,42.544a37.225,37.225,0,0,1-8.771-8.7c-1.4-1.621-2.393-3.29-3.55-4.75a.894.894,0,0,1-.143.025l-.534-.045Z" transform="translate(-84.834 -2.612)" fill="#d9dfe7"/>
      <path id="Path_292" data-name="Path 292" d="M101.071,5.439l.011.007A29.268,29.268,0,0,1,111.723,17.7a28.7,28.7,0,0,1,2.694,9.428,29.281,29.281,0,0,1-2.4,15.252l-.421.986c-1.938,4.683-4.367,9.79-6.317,13.711a33.469,33.469,0,0,0-1.721,3.891,16.277,16.277,0,0,1-1.667-4.531,23.731,23.731,0,0,1-.923-4.812,51.07,51.07,0,0,1-.357-9.079c.176-6.123.443-10.32.334-16.509l-.049-1.38a32.989,32.989,0,0,0-.849-6.268,28.323,28.323,0,0,0-2.009-6.309l-.021-.032-.486-1.128L95.57,13.939a37.66,37.66,0,0,1,2.514,10.812c.026-.019.069,1.352.069,1.352.115,5.328.1,9.155-.109,13.928a18.54,18.54,0,0,1-1.879-1.635,13.938,13.938,0,0,1-1.8-1.6,32.091,32.091,0,0,1-3.078-3.749C89.85,31.179,88.477,28.9,87.179,26.9L85.1,30.11l.534.03a.858.858,0,0,0,.144-.03c1.116,1.47,2.06,3.136,3.418,4.74a32.131,32.131,0,0,0,8.692,8.429,48.652,48.652,0,0,0,.455,9.981A27.384,27.384,0,0,0,101.8,63.5l3.821-.252c.713-1.688,1.309-3.355,2.175-5.1,1.021-1.963,2.151-4.175,3.174-6.473,1.107-2.313,2.278-4.742,3.2-7l.434-.994a31.756,31.756,0,0,0,2.348-7.1,28.121,28.121,0,0,0,.476-9.076,23,23,0,0,0-1.168-6,25.691,25.691,0,0,1,6.759,7.7,46.383,46.383,0,0,1,2.659,6.674,38.209,38.209,0,0,1,.782,5.681,33.929,33.929,0,0,1-.338,7.089,24.979,24.979,0,0,1-1.518,6.349c-.691,1.989-2.519,6.038-3.568,7.226L124.624,62a39.269,39.269,0,0,0,3.989-10.056,26.363,26.363,0,0,1,2.514,9.628l2.8-.184,0-.012v-.019A27.777,27.777,0,0,0,132.4,53.8a22.245,22.245,0,0,0-3.16-6.353,32.793,32.793,0,0,0-.129-7.832c-.189-1.5-.453-3.083-.821-4.732a52.357,52.357,0,0,0-2.108-5.515l-.734-1.585a30.559,30.559,0,0,0-10.88-10.955A33.741,33.741,0,0,0,102.629,3.1l-.018-.012-.014,0-1.527,2.358Z" transform="translate(-85.105 -3.08)" fill="#002d5d"/>
    </g>
    <g id="Group_140" data-name="Group 140" transform="translate(187.221 25.989)">
      <path id="Path_293" data-name="Path 293" d="M69.3,63.888,48.182,41.5s7.682-5.923,12.37-7.763A31.469,31.469,0,0,1,67.977,24l1.05-.857a41.4,41.4,0,0,1,14.042-7.11,29.29,29.29,0,0,1,9.457-9.184l.014-.009.008-.009L108.584,33.1c-4.664,6.69-13.533,11.054-20.459,13.342A38.114,38.114,0,0,1,76.416,59.009a54.456,54.456,0,0,1-6.811,4.09,1.121,1.121,0,0,1-.032.168l-.274.621Z" transform="translate(-47.667 -6.194)" fill="#d9dfe7"/>
      <path id="Path_294" data-name="Path 294" d="M49.978,43.476l.008-.007A34.049,34.049,0,0,1,61.5,36.425a40.609,40.609,0,0,1,8.309-2.248,55.294,55.294,0,0,1,14.879-.5l1.065.073c5.1.357,10.948.547,15.646.5,1.589-.026,3.091-.152,4.6-.316-4.457,5.517-12.279,9.112-18.357,10.919A55.819,55.819,0,0,1,69.56,47.388h-1.4a100.651,100.651,0,0,0-12.551.677l-.033.012-1.123.146,2.47,2.618c3.621-.43,7.45-.509,11.082-.57l1.392,0A59.227,59.227,0,0,0,84.91,48.5,32.047,32.047,0,0,1,75.743,57.7a46.67,46.67,0,0,1-8.22,4.378l2.621,2.778.264-.629a1.067,1.067,0,0,0,.029-.171,52.014,52.014,0,0,0,6.85-4.025A36.15,36.15,0,0,0,88.9,47.415c6.988-2.186,15.858-6.461,20.416-13.267l-2-3.268a37.609,37.609,0,0,1-5.91.535c-4.587.051-10.269-.148-15.247-.547l-1.075-.085a59.37,59.37,0,0,0-15.526.491,47.642,47.642,0,0,0-5.118,1.187A25.95,25.95,0,0,1,69.752,26a32.194,32.194,0,0,1,9.35-5.658A41.741,41.741,0,0,1,99.273,17.7L97.4,14.624a46.65,46.65,0,0,0-10.208.462A25.7,25.7,0,0,1,94,9.062L92.54,6.67l-.008.009-.015.009a28.459,28.459,0,0,0-9.426,9.3A40.245,40.245,0,0,0,68.94,23.029l-1.054.86a30.57,30.57,0,0,0-7.366,9.851,38.913,38.913,0,0,0-12.454,7.67l-.012.011,0,.011,1.928,2.044Z" transform="translate(-48.05 -6.67)" fill="#002d5d"/>
    </g>
    <g id="Group_141" data-name="Group 141" transform="translate(231.708 2.467)">
      <path id="Path_295" data-name="Path 295" d="M75.6,50.516,59.568,24.251s2.245-1.13,5.167-2.282A45.519,45.519,0,0,1,73.729,19.2a31.99,31.99,0,0,1,9.74-7.719l1.239-.582a41.565,41.565,0,0,1,15.337-3.379A27.264,27.264,0,0,1,112.111.832l.019-.005.012-.007,7.9,29.741c-2.208,2.3-6.459,4.274-10.607,5.532a52.5,52.5,0,0,1-12.021,2.115,38.411,38.411,0,0,1-14.07,9.252,58.555,58.555,0,0,1-7.3,2.362,1.083,1.083,0,0,1-.062.155l-.374.54Z" transform="translate(-59.176 -0.094)" fill="#d9dfe7"/>
      <path id="Path_296" data-name="Path 296" d="M60.932,26.547l.01-.006a33.313,33.313,0,0,1,13.1-4.5,40.219,40.219,0,0,1,8.7-.251,54.268,54.268,0,0,1,14.572,3.2l1.011.333c4.858,1.644,10.476,3.254,15.113,4.32,1.564.355,3.144.545,4.374.9-5.306,4.117-14.229,5.854-20.424,5.995a57.911,57.911,0,0,1-18.062-1.947l-1.356-.321A80.728,80.728,0,0,0,65.508,32.19l-.036,0-1.141-.078,1.876,3.072a87.043,87.043,0,0,1,10.95,1.836l1.354.322A64.341,64.341,0,0,0,93.866,39.4,32.756,32.756,0,0,1,83,46.022a50.331,50.331,0,0,1-8.747,2.347l1.99,3.259.366-.549a1.091,1.091,0,0,0,.058-.159,55.32,55.32,0,0,0,7.316-2.283,36.289,36.289,0,0,0,13.976-9.311,49.806,49.806,0,0,0,12.032-1.989,36.675,36.675,0,0,0,6.029-2.383,16.105,16.105,0,0,0,4.481-3.2l-.983-3.7c-1.726-.208-3.345-.744-5.384-1.162a151.91,151.91,0,0,1-14.7-4.249l-1.024-.363a58.44,58.44,0,0,0-15.185-3.356,39.362,39.362,0,0,0-5.308-.064,25.4,25.4,0,0,1,6.814-5.015A31.457,31.457,0,0,1,95.222,10.7a44.573,44.573,0,0,1,12.572.323,44.1,44.1,0,0,1,7.762,2.1l-.924-3.479a46.157,46.157,0,0,0-5.931-1.4c-1.684-.3-3.2-.5-4.443-.623a24.576,24.576,0,0,1,3.677-2.392,38.082,38.082,0,0,1,5.024-1.88L112.24.633l-.012.007-.019.006a26.533,26.533,0,0,0-12.1,6.821A40.356,40.356,0,0,0,84.69,10.748l-1.243.584a31.132,31.132,0,0,0-9.719,7.847A38.175,38.175,0,0,0,59.49,24.13l-.015.009-.007.01,1.464,2.4Z" transform="translate(-59.467 -0.633)" fill="#002d5d"/>
    </g>
    <g id="Group_142" data-name="Group 142" transform="translate(104.013 92.015)">
      <path id="Path_297" data-name="Path 297" d="M39.757,76.107,26.776,48.2l4.785-1.559a47.635,47.635,0,0,1,8.288-1.924,31.549,31.549,0,0,1,8.368-7.477l1.07-.583A42.942,42.942,0,0,1,62.724,32.05a27.175,27.175,0,0,1,8.41-8.257l.013-.008.007-.008,16.834,25.76a32.3,32.3,0,0,1-10.953,8.946,50.4,50.4,0,0,1-12.792,4.336,36.915,36.915,0,0,1-15.633,10.4,54.84,54.84,0,0,1-8.259,2.23,1.127,1.127,0,0,1-.093.151l-.5.511Z" transform="translate(-26.459 -23.148)" fill="#d9dfe7"/>
      <path id="Path_298" data-name="Path 298" d="M27.88,50.538l.009,0a34.12,34.12,0,0,1,12.254-3.112,57.872,57.872,0,0,1,8.2-.109,99.667,99.667,0,0,1,14.515,2.15l1.053.2a73.241,73.241,0,0,0,16.1,1.369,36.05,36.05,0,0,0,4.967-.476C79.9,56.626,70.647,60.04,64.018,61.094c-7.983,1.04-12.562.613-18.84-1.052l-1.359-.364C39.811,58.6,35.726,57.47,31.757,56.7h-.035l-1.091-.244,1.518,3.264c3.535.795,7.148,1.739,10.726,2.708l1.36.364a43.573,43.573,0,0,0,16.1,1.559,30.785,30.785,0,0,1-11.993,7.308,42.7,42.7,0,0,1-9.677,2.064l1.611,3.463.5-.522a1.141,1.141,0,0,0,.091-.155,52.908,52.908,0,0,0,8.3-2.169A35.626,35.626,0,0,0,64.782,63.842,48.669,48.669,0,0,0,77.656,59.6,31.129,31.129,0,0,0,88.59,50.566l-2.095-3.205a34.741,34.741,0,0,1-6.308.781,70.032,70.032,0,0,1-15.524-1.286L63.6,46.642a107.58,107.58,0,0,0-15-2.169,48.333,48.333,0,0,0-4.968-.062,24.954,24.954,0,0,1,5.9-4.95,33.474,33.474,0,0,1,9.2-3.8,63.359,63.359,0,0,1,11.718-1.577,61.632,61.632,0,0,1,7.58.349l-1.969-3.013a62.846,62.846,0,0,0-9.665.015,24.344,24.344,0,0,1,6.1-5.47l-1.533-2.347-.007.008-.012.008a26.073,26.073,0,0,0-8.326,8.342,41.054,41.054,0,0,0-13.475,4.489l-1.068.582A30.321,30.321,0,0,0,39.8,44.623a38.347,38.347,0,0,0-13.083,3.352l-.014.006-.007.009,1.185,2.548Z" transform="translate(-26.695 -23.616)" fill="#002d5d"/>
    </g>
    <g id="Group_143" data-name="Group 143" transform="translate(148.293 60.756)">
      <path id="Path_299" data-name="Path 299" d="M55,72.831,38.165,47.069s7.761-4.125,12.235-5.308a30.487,30.487,0,0,1,6.912-8.581l.9-.766a47.921,47.921,0,0,1,12.075-6.769A24.142,24.142,0,0,1,72.936,20.7a34.54,34.54,0,0,1,4.248-4.946l.012-.011.006-.01L98.318,38.117a21.764,21.764,0,0,1-3.49,5.558,42.6,42.6,0,0,1-5.392,5.16A43.819,43.819,0,0,1,77.411,55.62,36.312,36.312,0,0,1,63.423,68.594a57.793,57.793,0,0,1-7.936,3.472,1.214,1.214,0,0,1-.069.168l-.418.6Z" transform="translate(-37.754 -15.187)" fill="#d9dfe7"/>
      <path id="Path_300" data-name="Path 300" d="M39.6,49.2l.009-.005a32.93,32.93,0,0,1,11.536-4.811,47.179,47.179,0,0,1,8-1.373,113.662,113.662,0,0,1,14.624-.325l1.08.017a67.946,67.946,0,0,0,16.19-1.814,46.157,46.157,0,0,0,4.692-1.338C94.14,42.7,90.679,46.014,87.359,48.5a40.545,40.545,0,0,1-10.472,5.42,40.711,40.711,0,0,1-18.825,2.155l-1.4-.159c-4.141-.471-8.351-1-12.365-1.2l-.034.005-1.094-.065,1.969,3.013c3.566.231,7.305.678,11,1.1l1.405.158a43.106,43.106,0,0,0,16.251-1.068,31.624,31.624,0,0,1-10.855,9.213,46.163,46.163,0,0,1-9.35,3.53l2.089,3.2.413-.608a1.19,1.19,0,0,0,.067-.172A55.7,55.7,0,0,0,64.145,69.6,35.154,35.154,0,0,0,78.113,56.521,42.642,42.642,0,0,0,90.245,49.8a41.007,41.007,0,0,0,5.406-5.183,20.953,20.953,0,0,0,3.434-5.609l-2.628-2.785a33.991,33.991,0,0,1-5.793,1.8,72.6,72.6,0,0,1-15.57,1.8L74.006,39.8a111.269,111.269,0,0,0-15.074.388,49.092,49.092,0,0,0-4.887.68,25.66,25.66,0,0,1,4.938-5.741,28.776,28.776,0,0,1,8.244-5.212,53.052,53.052,0,0,1,11.024-3.666,63.862,63.862,0,0,1,7.6-1.257l-2.47-2.618c-3.966.553-7.474,1.547-9.643,2.04a26.618,26.618,0,0,1,5.172-6.779l-1.924-2.039-.006.01-.012.011a33.012,33.012,0,0,0-4.232,4.974,23.34,23.34,0,0,0-2.572,4.994c-3.2,1.331-7.839,3.128-12.121,6.645l-.9.764a29.271,29.271,0,0,0-6.813,8.663,38.074,38.074,0,0,0-12.258,5.174l-.013.008-.006.01L39.6,49.2Z" transform="translate(-38.059 -15.593)" fill="#002d5d"/>
    </g>
    <g id="Group_144" data-name="Group 144" transform="translate(7.428 135.012)">
      <path id="Path_301" data-name="Path 301" d="M7.526,77.681,1.942,47.418s8.841-.832,13.482-.136A30.727,30.727,0,0,1,25.4,42.124l1.183-.3a43.008,43.008,0,0,1,14.239-1.141A27.709,27.709,0,0,1,51.2,34.845l.014,0,.009-.006,9.488,29.273a32.442,32.442,0,0,1-12.747,5.8,51.544,51.544,0,0,1-13.4.96,36.946,36.946,0,0,1-17.718,6.2,57.071,57.071,0,0,1-8.581.1,1.188,1.188,0,0,1-.127.127l-.611.39Z" transform="translate(-1.805 -34.12)" fill="#d9dfe7"/>
      <path id="Path_302" data-name="Path 302" d="M2.416,49.973l.01,0a32.934,32.934,0,0,1,12.608.042A48.569,48.569,0,0,1,23,51.916,98.758,98.758,0,0,1,36.53,57.6l.969.461a75.975,75.975,0,0,0,15.18,5.42,35.966,35.966,0,0,0,4.885.835,29.6,29.6,0,0,1-11.291,4.374,46.152,46.152,0,0,1-11.513.445,43.018,43.018,0,0,1-17.972-5.657L15.56,62.79c-3.619-2.047-7.295-4.174-10.938-5.911l-.034-.009L3.6,56.389l.653,3.54c3.209,1.59,6.483,3.46,9.709,5.282l1.228.693A44.3,44.3,0,0,0,30.4,71.4a31.139,31.139,0,0,1-13.432,4.108,46.071,46.071,0,0,1-9.909-.4l.693,3.756.61-.4a1.152,1.152,0,0,0,.127-.132,55.019,55.019,0,0,0,8.611-.028,35.652,35.652,0,0,0,17.727-6.3,49.668,49.668,0,0,0,13.456-.849,31.205,31.205,0,0,0,12.744-5.883l-1.181-3.642a34.578,34.578,0,0,1-6.253-.89,74.537,74.537,0,0,1-14.653-5.2l-.972-.476a102.511,102.511,0,0,0-13.995-5.831,48.606,48.606,0,0,0-4.805-1.3,24.962,24.962,0,0,1,6.962-3.311,31.7,31.7,0,0,1,9.9-1.4,60.475,60.475,0,0,1,11.8,1.432,60.379,60.379,0,0,1,7.252,2.291l-1.11-3.424a62.123,62.123,0,0,0-9.394-2.467,24.819,24.819,0,0,1,7.384-3.731L51.1,34.651l-.009.006-.014,0a26.611,26.611,0,0,0-10.327,5.945A41.174,41.174,0,0,0,26.5,41.621l-1.18.3a29.584,29.584,0,0,0-9.93,5.275,37.8,37.8,0,0,0-13.457,0l-.015,0-.009.007.51,2.763Z" transform="translate(-1.906 -34.651)" fill="#002d5d"/>
    </g>
    <g id="Group_145" data-name="Group 145" transform="translate(56.615 116.396)">
      <path id="Path_303" data-name="Path 303" d="M24.078,77.966,14.59,48.691s8.714-2,13.432-1.873a30.956,30.956,0,0,1,9.292-6.386l1.142-.444a42.539,42.539,0,0,1,14.022-2.85,27.724,27.724,0,0,1,9.576-7.077l.014-.006.008-.007,12.98,27.9a31.73,31.73,0,0,1-11.957,7.3,50.837,50.837,0,0,1-13.163,2.6,37.04,37.04,0,0,1-16.744,8.33,56.6,56.6,0,0,1-8.453,1.186,1.182,1.182,0,0,1-.109.142l-.553.462Z" transform="translate(-14.358 -29.367)" fill="#d9dfe7"/>
      <path id="Path_304" data-name="Path 304" d="M15.4,51.156l.01,0a33.3,33.3,0,0,1,12.569-1.6,52.079,52.079,0,0,1,8.164.9,96.138,96.138,0,0,1,14.133,3.986l1.017.338a77.154,77.154,0,0,0,15.725,3.539,35.838,35.838,0,0,0,4.948.227c-5.8,5.271-15.348,7.389-22.034,7.568a43.429,43.429,0,0,1-18.52-3.41l-1.3-.531c-3.845-1.566-7.767-3.2-11.616-4.451l-.034,0-1.046-.351,1.11,3.424c3.4,1.166,6.885,2.6,10.312,3.99l1.3.53a44.45,44.45,0,0,0,15.747,3.565,31.033,31.033,0,0,1-12.766,5.74,45.57,45.57,0,0,1-9.836.867l1.178,3.633.549-.473a1.12,1.12,0,0,0,.108-.147A54.549,54.549,0,0,0,33.6,77.371a35.718,35.718,0,0,0,16.737-8.429A49.027,49.027,0,0,0,63.568,66.45a30.554,30.554,0,0,0,11.943-7.387L73.9,55.592a34.538,34.538,0,0,1-6.312-.112,73.336,73.336,0,0,1-15.178-3.386l-1.022-.352A102,102,0,0,0,36.769,47.67a48.547,48.547,0,0,0-4.939-.687,25.139,25.139,0,0,1,6.517-4.17,32.952,32.952,0,0,1,9.676-2.6,61.584,61.584,0,0,1,11.887-.005,60.268,60.268,0,0,1,7.47,1.381l-1.518-3.264a61.879,61.879,0,0,0-9.614-1.292,24.826,24.826,0,0,1,6.865-4.616l-1.182-2.542-.008.007-.014.006a26.627,26.627,0,0,0-9.51,7.176,40.752,40.752,0,0,0-14.048,2.726l-1.139.444a29.8,29.8,0,0,0-9.232,6.5,37.6,37.6,0,0,0-13.428,1.741l-.015,0-.008.007.867,2.673Z" transform="translate(-14.53 -29.873)" fill="#002d5d"/>
    </g>
    <g id="Group_146" data-name="Group 146" transform="translate(370.297 31.57)">
      <path id="Path_305" data-name="Path 305" d="M97.393,46.339,95.051,15.655s8.912.208,13.417,1.468a28.785,28.785,0,0,1,9.938-3.853l1.125-.2a31.906,31.906,0,0,1,7.428-.312,48.661,48.661,0,0,1,5.964.591A27.71,27.71,0,0,1,142.786,8.3l.014,0,.008-.005,8.516,29.571c-7.352,5.576-19.208,6.418-26.922,4.931a35.482,35.482,0,0,1-18.113,4.078,48.794,48.794,0,0,1-8.141-.946,1.11,1.11,0,0,1-.134.11l-.621.308Z" transform="translate(-94.994 -7.566)" fill="#d9dfe7"/>
      <path id="Path_306" data-name="Path 306" d="M95.25,18.244h.01a33.84,33.84,0,0,1,12.484,1.523,48.174,48.174,0,0,1,7.4,2.907,118.688,118.688,0,0,1,12.483,7.153l.907.561a65.679,65.679,0,0,0,14.655,6.547,34.715,34.715,0,0,0,4.886,1.027c-6.717,4.367-16.738,4.506-23.3,3.132A38.646,38.646,0,0,1,107.8,33.362l-1.1-.832c-3.253-2.467-6.6-4.969-10-7.167l-.032-.012-.92-.6.274,3.589c2.974,1.993,5.954,4.226,8.854,6.41l1.1.832A40.863,40.863,0,0,0,120.19,42.9a30.646,30.646,0,0,1-13.61,2.435,40.69,40.69,0,0,1-9.384-1.6l.291,3.808.62-.32a1.086,1.086,0,0,0,.134-.115,47.1,47.1,0,0,0,8.153,1.02,34.342,34.342,0,0,0,18.143-4.177c7.75,1.6,19.675.821,27.015-4.913l-1.06-3.679a33.583,33.583,0,0,1-6.246-1.137,63.859,63.859,0,0,1-14.1-6.182l-.909-.576a118.514,118.514,0,0,0-12.888-7.329,47.539,47.539,0,0,0-4.407-1.9,23.138,23.138,0,0,1,6.906-2.417,27.833,27.833,0,0,1,9.421-.321,58.28,58.28,0,0,1,11.071,2.352,64.074,64.074,0,0,1,6.878,2.66l-1-3.459a63.324,63.324,0,0,0-8.8-2.977,21.7,21.7,0,0,1,7-3.284L142.642,8.1l-.008.005-.014,0a26.358,26.358,0,0,0-9.79,5.156,46.719,46.719,0,0,0-5.96-.677,30.335,30.335,0,0,0-7.407.267l-1.121.2a27.664,27.664,0,0,0-9.89,3.973,38.405,38.405,0,0,0-13.393-1.594h-.015l-.009.006.214,2.8Z" transform="translate(-95.036 -8.102)" fill="#002d5d"/>
    </g>
    <g id="Group_147" data-name="Group 147" transform="translate(417.901 12.729)">
      <path id="Path_307" data-name="Path 307" d="M115.823,51.991l-8.516-29.572s8.07-1.472,12.405-1.438a33.426,33.426,0,0,1,8.086-6.339l.983-.478a47,47,0,0,1,12.187-3.613A28.154,28.154,0,0,1,143.833,6.4a22.981,22.981,0,0,1,1.58-1.8l1.177-1.195,0,0h0l21.24,22.266c-1.214,1.687-1.783,2.555-2.732,3.665a31.149,31.149,0,0,1-2.819,2.89,34.679,34.679,0,0,1-6.5,4.493,40.443,40.443,0,0,1-13.5,4.375,34.44,34.44,0,0,1-17.056,9.218,51.872,51.872,0,0,1-8.7,1.082,1.228,1.228,0,0,1-.117.141l-.581.452Z" transform="translate(-107.099 -2.862)" fill="#d9dfe7"/>
      <path id="Path_308" data-name="Path 308" d="M108.031,24.8l.009,0a34.125,34.125,0,0,1,11.709-1.207,72.122,72.122,0,0,1,7.75.892c5.577.929,9.033,1.958,13.946,3.158l1.039.246a50.259,50.259,0,0,0,16.308,1.025,24.835,24.835,0,0,0,5.269-1.147c-5.291,7.216-15.1,10.832-21.954,11.515a37.159,37.159,0,0,1-10.187-.136,36.826,36.826,0,0,1-8.538-2.452l-1.284-.514c-3.753-1.456-7.6-3.354-11.238-4.71l-.033-.005-.99-.392,1,3.459c3.24,1.282,6.642,2.842,10.038,4.283l1.285.514a38.245,38.245,0,0,0,15.974,3.089,30.1,30.1,0,0,1-12.989,6.219,41.367,41.367,0,0,1-10.034.735l1.057,3.67.581-.464a1.151,1.151,0,0,0,.116-.145,50.315,50.315,0,0,0,8.756-1.021,33.551,33.551,0,0,0,17.094-9.336,39.6,39.6,0,0,0,13.615-4.3,34,34,0,0,0,6.539-4.529,30.687,30.687,0,0,0,2.829-2.933c.955-1.13,1.513-2.008,2.749-3.742L165.8,23.8a13.975,13.975,0,0,1-3.6,1.48,21.338,21.338,0,0,1-3.329.68,47.978,47.978,0,0,1-15.617-.835l-1.028-.231c-4.848-1.158-8.567-2.219-14.32-3.157-1.867-.337-3.433-.539-4.666-.636a26.2,26.2,0,0,1,5.683-4.234,32.084,32.084,0,0,1,8.518-3A71.777,71.777,0,0,1,148.221,12.6c1.7-.012,5.7-.185,6.915.021l-2.485-2.6a53.717,53.717,0,0,0-8.449.017,29.574,29.574,0,0,1,2.072-2.744l1.1-1.207.777-.781-1.935-2.028h0l0,0-1.119,1.155a21.532,21.532,0,0,0-1.541,1.8,26.9,26.9,0,0,0-2.782,4.2,43.782,43.782,0,0,0-12.176,3.465l-.977.475a31.706,31.706,0,0,0-7.989,6.434,38.181,38.181,0,0,0-12.367,1.3l-.014,0-.008.007.777,2.7Z" transform="translate(-107.254 -3.267)" fill="#002d5d"/>
    </g>
    <g id="Group_148" data-name="Group 148" transform="translate(319.294 38.917)">
      <path id="Path_309" data-name="Path 309" d="M81.953,42.343l1.241-30.749,4.777.831a50.755,50.755,0,0,1,7.991,1.983,31.451,31.451,0,0,1,10.58-2.886l1.193-.048a43.615,43.615,0,0,1,13.9,2.028,28.4,28.4,0,0,1,11.322-3.318h.015l.01,0,2.342,30.683c-7.736,3.991-18.8,2.978-26.088.7a35,35,0,0,1-18.215,2.264,45.057,45.057,0,0,1-8.251-1.814,1.115,1.115,0,0,1-.15.094l-.671.236Z" transform="translate(-81.926 -9.431)" fill="#d9dfe7"/>
      <path id="Path_310" data-name="Path 310" d="M83.131,14.207h.01a34.364,34.364,0,0,1,11.914,2.8,46.81,46.81,0,0,1,7.178,3.63,84.872,84.872,0,0,1,11.7,8.468l.824.662a84.676,84.676,0,0,0,13.22,8.693,32.889,32.889,0,0,0,4.4,1.92c-6.967,2.872-16.345,1.7-22.555-.427a41.4,41.4,0,0,1-15.937-9.395l-1.023-.937c-3.015-2.772-6.063-5.6-9.135-8.177l-.03-.016-.832-.7-.145,3.6c2.7,2.32,5.415,4.881,8.1,7.323l1.024.938A43.445,43.445,0,0,0,105.2,41.23a29.851,29.851,0,0,1-13.692,1.119A38.563,38.563,0,0,1,82.1,39.754l-.154,3.816.673-.248a1.119,1.119,0,0,0,.15-.1,43.822,43.822,0,0,0,8.267,1.889,33.794,33.794,0,0,0,18.246-2.359c7.3,2.4,18.388,3.481,26.118-.664l-.291-3.818A32.936,32.936,0,0,1,129.435,36a82.489,82.489,0,0,1-12.772-8.379l-.825-.678a93.319,93.319,0,0,0-12.122-8.733c-1.676-.968-3.127-1.755-4.3-2.312a26,26,0,0,1,7.329-1.766,31.4,31.4,0,0,1,9.779.825,51.393,51.393,0,0,1,11,4.06,56.513,56.513,0,0,1,6.411,3.852l-.274-3.589a63.661,63.661,0,0,0-8.453-4.523,25.388,25.388,0,0,1,7.957-1.975l-.214-2.795-.01,0h-.015a27.242,27.242,0,0,0-11.3,3.434,41.7,41.7,0,0,0-13.891-2.154l-1.19.048a30.174,30.174,0,0,0-10.558,3.011A39.477,39.477,0,0,0,83.269,11.4h-.015l-.01,0-.113,2.807Z" transform="translate(-81.946 -9.988)" fill="#002d5d"/>
    </g>
    <g id="Group_149" data-name="Group 149" transform="translate(318.602 73.411)">
      <path id="Path_311" data-name="Path 311" d="M136.464,20.642,135.649,51.4s-2.118-.3-4.763-.811a43.474,43.474,0,0,1-7.924-1.792,33.865,33.865,0,0,1-10.237,3.184l-1.154.084A42.037,42.037,0,0,1,98.1,50.735a25.772,25.772,0,0,1-10.339,4.307l-.014,0-.009.005L81.8,24.857A30.441,30.441,0,0,1,95.38,20.819a44.468,44.468,0,0,1,13.435,1.246,40.635,40.635,0,0,1,9.094-2.694,37.109,37.109,0,0,1,9.4-.083,38.96,38.96,0,0,1,8.34,1.688,1.171,1.171,0,0,1,.149-.1l.67-.24Z" transform="translate(-81.672 -18.288)" fill="#d9dfe7"/>
      <path id="Path_312" data-name="Path 312" d="M135.8,49.9h-.01a36.154,36.154,0,0,1-11.863-2.591,68.059,68.059,0,0,1-7.178-3.458c-5-2.715-7.9-5.146-11.967-8l-.861-.609a64.466,64.466,0,0,0-14.053-7.656A35.061,35.061,0,0,0,85.113,26.1c7-3.651,16.9-3.163,23.313-1.3,7.638,2.3,11.543,4.7,16.382,8.941l1.043.909c3.072,2.668,6.149,5.432,9.253,8.014l.03.016.839.7.1-3.6-8.216-7.21-1.044-.909a40.2,40.2,0,0,0-13.71-8.295,28.982,28.982,0,0,1,13.874-1.478,34.767,34.767,0,0,1,9.505,2.452l.1-3.818-.672.252a1.106,1.106,0,0,0-.15.1,38.066,38.066,0,0,0-8.36-1.763,35.763,35.763,0,0,0-9.421.079,39.258,39.258,0,0,0-9.113,2.793,43.2,43.2,0,0,0-13.486-1.362,29.472,29.472,0,0,0-13.608,4.127l.739,3.757A28.206,28.206,0,0,1,88.6,30.176a72.848,72.848,0,0,1,6.955,3.183,70.432,70.432,0,0,1,6.59,4.146l.862.624a130.09,130.09,0,0,0,12.363,8.194,46.416,46.416,0,0,0,4.286,2.122,23.044,23.044,0,0,1-7.093,2.048,34.215,34.215,0,0,1-9.493-.356A68.11,68.11,0,0,1,92.144,46.9c-1.673-.695-5.444-2.519-6.656-3.236l.694,3.532a72.632,72.632,0,0,0,8.585,3.73,24.106,24.106,0,0,1-7.328,2.664l.541,2.751.009-.005.014,0a24.646,24.646,0,0,0,10.281-4.417,39.985,39.985,0,0,0,13.44,1.462l1.15-.084a32.28,32.28,0,0,0,10.2-3.308A40.687,40.687,0,0,0,135.7,52.713h.014l.01,0L135.8,49.9Z" transform="translate(-81.769 -18.841)" fill="#002d5d"/>
    </g>
    <g id="Group_150" data-name="Group 150" transform="translate(265.724 79.326)">
      <path id="Path_313" data-name="Path 313" d="M120.966,20.528l5.938,30.2s-2.058.223-4.674.351a79.175,79.175,0,0,1-7.95,0,34.173,34.173,0,0,1-8.837,5.54l-1.05.38a44.275,44.275,0,0,1-12.921,2.225,26.678,26.678,0,0,1-8.38,7.141l-.012.007-.007.008L68.28,39.39c2.8-3.494,7.314-6.249,11.988-8.027a41.294,41.294,0,0,1,13.623-2.6,34.693,34.693,0,0,1,17.653-7.434,57.134,57.134,0,0,1,8.683-.266,1.224,1.224,0,0,1,.127-.13l.612-.4Z" transform="translate(-67.958 -19.869)" fill="#d9dfe7"/>
      <path id="Path_314" data-name="Path 314" d="M126.747,49.194l-.009,0c-3.691.922-8.773.625-11.887.163a46.725,46.725,0,0,1-7.7-1.675,110.675,110.675,0,0,1-13.555-4.607l-.993-.342a59.445,59.445,0,0,0-15.806-3.256,29.129,29.129,0,0,0-5.03.063c5.645-5.661,15.659-8.235,22.458-8.048,8.079.016,12.576,1.681,18.255,4.458l1.224.616c3.625,1.919,7.273,4.053,10.8,5.744l.032.008.957.473-.695-3.532c-3.126-1.56-6.372-3.39-9.619-5.158l-1.238-.672a40.379,40.379,0,0,0-15.486-4.617,30.7,30.7,0,0,1,13.38-4.92,45.812,45.812,0,0,1,9.984.213l-.737-3.747-.612.413a1.232,1.232,0,0,0-.127.134,55.264,55.264,0,0,0-8.727.2A33.733,33.733,0,0,0,93.918,28.65,40.346,40.346,0,0,0,80.2,31.164c-4.7,1.775-9.228,4.562-12,8.127l1.841,3.358a29.118,29.118,0,0,1,6.288-.316A68.9,68.9,0,0,1,84,43.306a67.4,67.4,0,0,1,7.522,2.11l1,.357c4.616,1.554,8.321,3.264,13.949,4.656,1.794.415,3.395.886,4.626,1.1a30.816,30.816,0,0,1-6.184,3.668,26.447,26.447,0,0,1-4.7,1.374,25.992,25.992,0,0,1-4.286.724,75.129,75.129,0,0,1-11.183-.071c-1.8-.267-5.866-.637-7.276-1.029l1.73,3.156c3.765.553,7.035.81,9.216.967a26.338,26.338,0,0,1-6.085,4.747l1.347,2.458.007-.007.012-.007a25.338,25.338,0,0,0,8.283-7.223A41.741,41.741,0,0,0,104.883,58.2l1.045-.378a32.445,32.445,0,0,0,8.758-5.647c4.323.448,8.7.684,12.581-.214l.014,0,.008-.007-.542-2.757Z" transform="translate(-68.198 -20.359)" fill="#002d5d"/>
    </g>
    <g id="Group_151" data-name="Group 151" transform="translate(421.119 80.69)">
      <path id="Path_315" data-name="Path 315" d="M165.807,35.035l-9.8,29.173s-7.977-3.485-11.587-6.362a31.506,31.506,0,0,1-10.978-.286l-1.151-.305A43.648,43.648,0,0,1,119.7,51.363a29.239,29.239,0,0,1-11.559.164l-.014,0h-.011l5.854-30.211c8.752-1.781,19.272,2.392,25.6,6.7a34.825,34.825,0,0,1,18.037,3.112,54.134,54.134,0,0,1,7.322,4.005,1.168,1.168,0,0,1,.169-.051l.705-.05Z" transform="translate(-107.973 -20.178)" fill="#d9dfe7"/>
      <path id="Path_316" data-name="Path 316" d="M156.771,62.788l-.009,0a31.637,31.637,0,0,1-10.756-6.073,60.574,60.574,0,0,1-5.841-5.536c-3.916-4.233-5.878-7.414-8.728-11.536l-.6-.863a81.174,81.174,0,0,0-10.318-12.09,34.286,34.286,0,0,0-3.8-3.032A25.755,25.755,0,0,1,128.48,25.3a38.587,38.587,0,0,1,10.031,5.158c6.312,4.694,9.253,8.084,12.523,13.632l.708,1.193c2.09,3.519,4.2,7.138,6.469,10.4l.024.023.612.894,1.146-3.412c-1.971-2.927-3.857-6.129-5.721-9.263l-.71-1.193A41.9,41.9,0,0,0,143.311,30.6a28.906,28.906,0,0,1,13.383,2.881,43.811,43.811,0,0,1,8.216,5.071l1.216-3.621-.71.062a1.118,1.118,0,0,0-.171.055,52.172,52.172,0,0,0-7.311-4.08,33.626,33.626,0,0,0-18.092-3.029c-6.311-4.429-16.842-8.68-25.639-6.75l-.728,3.759a33.033,33.033,0,0,1,4.941,3.722,72.6,72.6,0,0,1,9.974,11.64l.6.877a103.508,103.508,0,0,0,9.055,11.875,46.544,46.544,0,0,0,3.457,3.431,23.957,23.957,0,0,1-7.529-.418,34.525,34.525,0,0,1-9.058-3.582,56.622,56.622,0,0,1-9.3-6.969,58.611,58.611,0,0,1-5.081-5.411l-.685,3.534a59.677,59.677,0,0,0,6.8,6.564,23.556,23.556,0,0,1-8.041-.167l-.533,2.752.011,0,.014,0a27.941,27.941,0,0,0,11.561-.283A41.639,41.639,0,0,0,132.2,58.518l1.149.3a30.252,30.252,0,0,0,10.994.161,35.531,35.531,0,0,0,11.5,6.466l.014,0,.011,0,.895-2.664Z" transform="translate(-108.08 -20.709)" fill="#002d5d"/>
    </g>
    <g id="Group_152" data-name="Group 152" transform="translate(372.558 73.513)">
      <path id="Path_317" data-name="Path 317" d="M150.157,26.624,144.3,56.837s-2.069-.644-4.627-1.6A45.7,45.7,0,0,1,132.07,52.1a34.384,34.384,0,0,1-10.807,1.255l-1.171-.123a45.8,45.8,0,0,1-13.2-3.921,29.73,29.73,0,0,1-11.25,2h-.014l-.01,0,.815-30.762a28.134,28.134,0,0,1,13.856-1.105,40.743,40.743,0,0,1,12.725,3.8,34.547,34.547,0,0,1,18.447.52,40.626,40.626,0,0,1,7.838,3.054,1.11,1.11,0,0,1,.161-.069Z" transform="translate(-95.602 -18.306)" fill="#d9dfe7"/>
      <path id="Path_318" data-name="Path 318" d="M144.71,55.377l-.01,0a36.283,36.283,0,0,1-11.39-4.58,52.577,52.577,0,0,1-6.514-4.724A81.352,81.352,0,0,1,116.5,35.946l-.725-.77a82.186,82.186,0,0,0-12.118-10.34,34.255,34.255,0,0,0-4.273-2.371,26.132,26.132,0,0,1,11.986-.219,35.969,35.969,0,0,1,10.777,3.625,39.111,39.111,0,0,1,14.4,11.714l.869,1.072c2.565,3.137,5.135,6.421,7.791,9.469l.027.021.718.824.685-3.534c-2.325-2.7-4.6-5.719-6.9-8.492l-.87-1.072c-3.488-4.164-6.635-7.548-11.912-10.593a29.584,29.584,0,0,1,13.751.994,35.842,35.842,0,0,1,8.863,4l.727-3.749-.7.14a1.14,1.14,0,0,0-.162.074,39.582,39.582,0,0,0-7.84-3.13,33.412,33.412,0,0,0-18.5-.432,39.645,39.645,0,0,0-12.742-3.924,27.254,27.254,0,0,0-13.893,1.187l-.1,3.828a33.014,33.014,0,0,1,5.523,2.864,72.794,72.794,0,0,1,11.7,9.94l.724.771a97.456,97.456,0,0,0,10.66,10.413c1.495,1.2,2.809,2.152,3.878,2.917a27.344,27.344,0,0,1-7.45.684,33.5,33.5,0,0,1-9.4-2.212,53.477,53.477,0,0,1-10.185-5.431,59.465,59.465,0,0,1-5.859-4.5l-.1,3.6a67.264,67.264,0,0,0,7.7,5.391,24.5,24.5,0,0,1-7.876,1.123l-.074,2.8.01,0h.015a28.327,28.327,0,0,0,11.227-2.12,43.49,43.49,0,0,0,13.152,4.042l1.168.122a32.824,32.824,0,0,0,10.8-1.382,41.052,41.052,0,0,0,12.162,4.851l.014,0,.011,0,.535-2.759Z" transform="translate(-95.617 -18.867)" fill="#002d5d"/>
    </g>
    <g id="Group_153" data-name="Group 153" transform="translate(148.524 71.282)">
      <path id="Path_319" data-name="Path 319" d="M99.048,44.724,83.954,71.542s-7.718-5.419-10.823-9.118a32.8,32.8,0,0,1-11.176-3.308L60.85,58.5a44.236,44.236,0,0,1-11.166-9.443,29.848,29.848,0,0,1-11.452-3.342l-.013-.007-.011,0L52.491,18.447c9.088.979,17.972,7.907,22.921,13.681a37.577,37.577,0,0,1,16.593,7.166,55.473,55.473,0,0,1,6.187,5.361,1.082,1.082,0,0,1,.172-.018Z" transform="translate(-37.859 -17.853)" fill="#d9dfe7"/>
      <path id="Path_320" data-name="Path 320" d="M85.223,70.19l-.01-.005a34.528,34.528,0,0,1-9.951-8.59,46.279,46.279,0,0,1-4.7-6.959,73.492,73.492,0,0,1-5.819-13.56l-.359-1.01a86.732,86.732,0,0,0-6.736-14.589,35.715,35.715,0,0,0-2.83-4.062c7.738,1.472,15.078,7.6,19.224,12.7a46.353,46.353,0,0,1,8.98,16.308l.452,1.322a123.657,123.657,0,0,0,4.462,11.7l.021.029.462,1.028,1.765-3.137c-1.46-3.344-2.721-6.9-3.91-10.386l-.452-1.322a50.163,50.163,0,0,0-7.166-14.213A32.106,32.106,0,0,1,90.881,41.3a45.028,45.028,0,0,1,6.882,6.613l1.873-3.328-.689-.075a1.091,1.091,0,0,0-.174.021A53.13,53.13,0,0,0,92.625,39.1,36.023,36.023,0,0,0,75.987,32.02c-4.89-5.875-13.75-12.874-22.926-13.725l-1.777,3.391a31.963,31.963,0,0,1,3.765,5.062,81.646,81.646,0,0,1,6.537,14.09l.351,1.022A79.249,79.249,0,0,0,67.983,55.9,48.283,48.283,0,0,0,70.7,60.213a26.759,26.759,0,0,1-7.573-2.5,32.478,32.478,0,0,1-8.24-6.122,53.426,53.426,0,0,1-7.33-9.478,64.035,64.035,0,0,1-3.446-6.743l-1.67,3.188a65.052,65.052,0,0,0,4.816,8.4,26.134,26.134,0,0,1-7.84-2.627l-1.3,2.483.011,0,.013.007a28.591,28.591,0,0,0,11.492,3.23,42.393,42.393,0,0,0,11.1,9.547l1.105.618a31.664,31.664,0,0,0,11.239,3.2,39.3,39.3,0,0,0,10.743,9.214l.014.008h.012l1.378-2.448Z" transform="translate(-38.119 -18.294)" fill="#002d5d"/>
    </g>
    <g id="Group_154" data-name="Group 154" transform="translate(102.158 49.957)">
      <path id="Path_321" data-name="Path 321" d="M87.038,34.255,72.755,61.514s-7.364-4.849-10.582-8.108A33.036,33.036,0,0,1,51.3,51.57l-1.113-.447a45.252,45.252,0,0,1-12.007-7.482A29.3,29.3,0,0,1,26.3,42.254l-.014,0h-.011l9.662-29.217c8.939-.576,19.176,4.775,25.172,10.025a36.274,36.274,0,0,1,18.145,5.871,47.877,47.877,0,0,1,6.88,5.268,1.192,1.192,0,0,1,.179-.02l.722.078Z" transform="translate(-26.043 -12.332)" fill="#d9dfe7"/>
      <path id="Path_322" data-name="Path 322" d="M73.886,60.18l-.009,0a35.635,35.635,0,0,1-9.813-7.732A52.591,52.591,0,0,1,58.981,46.1,98.854,98.854,0,0,1,51.57,33.474l-.5-.954A80.719,80.719,0,0,0,41.993,19.2a34.845,34.845,0,0,0-3.446-3.555c7.771.189,16.3,5.02,21.316,9.65A40.482,40.482,0,0,1,70.9,40.684l.551,1.3c1.629,3.8,3.209,7.733,4.97,11.4l.021.028.473,1,1.671-3.188c-1.528-3.253-2.922-6.8-4.381-10.178l-.552-1.3A42.408,42.408,0,0,0,64.773,26.1a31,31,0,0,1,13.36,4.96,40.82,40.82,0,0,1,7.619,6.477l1.772-3.383-.729-.068a1.151,1.151,0,0,0-.181.024,46.489,46.489,0,0,0-6.863-5.342,35.118,35.118,0,0,0-18.225-5.8c-5.966-5.364-16.2-10.795-25.2-10.075l-1.2,3.635a31.069,31.069,0,0,1,4.518,4.353,77.085,77.085,0,0,1,8.765,12.844l.505.95a108.019,108.019,0,0,0,7.693,13.008c1.13,1.6,2.157,2.884,2.993,3.906a26.246,26.246,0,0,1-7.449-1.469,32.958,32.958,0,0,1-8.69-4.73A58.852,58.852,0,0,1,34.8,37.272a70.326,70.326,0,0,1-4.529-6.085L29.145,34.6a70.926,70.926,0,0,0,6.162,7.5,26.958,26.958,0,0,1-8.208-1.31l-.88,2.662h.011l.015,0a28.06,28.06,0,0,0,11.893,1.271,43.154,43.154,0,0,0,11.935,7.587l1.11.445a31.6,31.6,0,0,0,10.9,1.709,40.838,40.838,0,0,0,10.476,8.193l.013.007h.011l1.3-2.489Z" transform="translate(-26.219 -12.821)" fill="#002d5d"/>
    </g>
    <g id="Group_155" data-name="Group 155" transform="translate(112.912 7.879)">
      <path id="Path_323" data-name="Path 323" d="M51.573,53.282,29.119,32.238S31.2,30.545,33.884,28.6c2.724-1.887,5.885-4.244,8.482-4.98a36.409,36.409,0,0,1,2.972-4.21A22.588,22.588,0,0,1,51.186,14l1.284-.776C58.363,9.412,64.894,8.5,69.114,8.082A25.173,25.173,0,0,1,75.3,4.37c1.164-.522,2.384-1,3.65-1.428a33.889,33.889,0,0,1,4.038-.721l.02,0,.013,0,4,30.511a13.484,13.484,0,0,1-2.054,1.243A14.148,14.148,0,0,1,82.85,35.2c-1.446.753-3.015.9-4.6,1.585a23.65,23.65,0,0,1-4.945,1.048,35.975,35.975,0,0,1-4.886.948,37.556,37.556,0,0,1-2.35,2.944,26.226,26.226,0,0,1-2.486,2.885c-1.706,1.807-3.89,3.068-5.847,4.592a36.619,36.619,0,0,1-5.965,3.382.847.847,0,0,1-.015.149c-.052.189-.152.351-.188.551Z" transform="translate(-28.571 -1.468)" fill="#d9dfe7"/>
      <path id="Path_324" data-name="Path 324" d="M31.029,34.2l.008-.009c3.427-3.3,8.577-6.738,12.154-7.778a44.5,44.5,0,0,1,8.657-1.9c6.093-.694,10.075.265,14.772,1.263,0,0,.99.232,1,.259,4.946,1.653,10.014,2.983,13.857,4.883a36.776,36.776,0,0,0,3.659,1.328,14.17,14.17,0,0,1-3.823,2.1c-.676.258-1.381.4-2.091.611a19.1,19.1,0,0,1-2.153.724,26.367,26.367,0,0,1-4.516.781,30.551,30.551,0,0,1-4.366.754c-1.658.171-3.206.252-4.674.311a41.176,41.176,0,0,1-4.111.357,76.749,76.749,0,0,1-8.543-.3l-1.333-.016a73.2,73.2,0,0,0-12.539.869l-.035.013c-.391.064-.8.112-1.162.207l2.626,2.461a73.247,73.247,0,0,1,11.035-.659l1.328.016c5.21.1,9.6.489,14.7-.369-2.246,3.466-5.165,5.667-8.422,7.868a34.776,34.776,0,0,1-7.372,3.7L52.47,54.3a5.7,5.7,0,0,1,.176-.556.844.844,0,0,0,.011-.152A34.809,34.809,0,0,0,58.631,50.3c1.95-1.494,4.119-2.741,5.8-4.548a24.969,24.969,0,0,0,2.44-2.9,35.3,35.3,0,0,0,2.286-2.977,34.284,34.284,0,0,0,4.879-.856,22.17,22.17,0,0,0,4.894-.978c1.56-.672,3.095-.808,4.51-1.566a13.308,13.308,0,0,0,2.074-1.25,12.835,12.835,0,0,0,2.008-1.283l-.5-3.8c-.78-.279-1.571-.6-2.383-.961l-2.456-.893c-1.884-.727-4.12-1.78-6.47-2.632L68.56,23.41l-1.041-.335a35.289,35.289,0,0,0-7.113-1.416,42.408,42.408,0,0,0-8.546-.128,44.3,44.3,0,0,0-5.295.989c1.4-1.84,3.2-4.546,6.249-6.3,3.79-2.33,7.384-4.136,11.021-4.547a56.789,56.789,0,0,1,7.053-.7,35.913,35.913,0,0,1,6.609.9,41.727,41.727,0,0,1,4.055,1.186,25.252,25.252,0,0,1,3.463,1.771l-.468-3.569A30.434,30.434,0,0,0,74,8.251,22.554,22.554,0,0,1,83.7,4.8l-.364-2.779-.013,0-.02,0a33.424,33.424,0,0,0-4.08.736c-1.278.436-2.509.924-3.683,1.459A24.88,24.88,0,0,0,69.31,8.038c-4.268.373-10.886,1.251-16.824,5.087l-1.294.783A22.274,22.274,0,0,0,45.328,19.4a35.505,35.505,0,0,0-2.95,4.284C37.3,25.393,32.791,28.75,29,32.25l-.012.014,0,.013,2.05,1.922Z" transform="translate(-28.979 -2.022)" fill="#002d5d"/>
    </g>
    <g id="Group_156" data-name="Group 156" transform="translate(89.136 38.139)">
      <path id="Path_325" data-name="Path 325" d="M53.844,67.25l-30.762.862s.163-2.938.637-6.5a58.558,58.558,0,0,1,3.3-10.145,34.88,34.88,0,0,1-.1-5.505c.2-2.433.333-5.568,1.635-8.345l.616-1.421c2.746-6.869,7.515-11.045,10.661-13.786.93-4.385,3.511-8.423,6.759-12.465l.012-.014.005-.012L69.064,30.964C67.356,38.171,61.2,43.328,57.04,47.66c.051,1.271-.112,2.434-.12,3.6a19.645,19.645,0,0,1-.125,3.379,28.216,28.216,0,0,1-.666,3.172,16.458,16.458,0,0,1-.719,3.16c-.317,1.071-.819,2.065-1.088,3.008a23.251,23.251,0,0,1-.844,2.707.869.869,0,0,1,.1.1l.266.463Z" transform="translate(-22.283 -9.406)" fill="#d9dfe7"/>
      <path id="Path_326" data-name="Path 326" d="M25.733,68.436v-.013c.047-2.575-.032-5.566.936-8.212a35.152,35.152,0,0,1,2.766-6.8c1.126-2.031,2.192-3.636,5.755-7.313a25.292,25.292,0,0,1,6.452-4.808,54.619,54.619,0,0,1,6.315-2.957c-.024-.015.991-.348.991-.348l7.41-2.341,3.456-1.125,3.429-.873a33.02,33.02,0,0,0,3.995-1.32c-.952,3.066-3.136,5.515-4.943,8.042a27.6,27.6,0,0,1-3.341,3.35,33.563,33.563,0,0,1-3.08,3C54.651,47.774,53.4,48.7,52.3,49.584c-.984.918-1.975,1.753-3.008,2.554-2.016,1.617-4.457,3.019-6.7,4.941l-1.046.841c-1.547,1.266-3.138,2.662-4.7,4.2a32.744,32.744,0,0,0-3.923,5.088l-.014.035-.655,1.009,3.6-.1a34.191,34.191,0,0,1,7.469-8.039l1.046-.837c3.864-3.264,7.592-5.444,11.026-8.765.411,3.816-.556,6.856-1.371,10.268-.345,1.167-.99,2.358-1.4,3.534A26.158,26.158,0,0,1,51.29,67.72l3.818-.107-.277-.454a.841.841,0,0,0-.106-.1,22,22,0,0,0,.886-2.662c.28-.926.792-1.9,1.115-2.953a15.25,15.25,0,0,0,.725-3.1,25.366,25.366,0,0,0,.643-3.123,18.5,18.5,0,0,0,.074-3.342c-.013-1.156.125-2.313.046-3.581C62.461,44.073,68.6,39.07,70.147,31.8l-2.794-2.618a29.962,29.962,0,0,1-5.046,1.905c-2.013.624-4.643,1.086-6.9,1.9l-7.191,2.306-1.045.322a31.776,31.776,0,0,0-6.663,2.95,36.054,36.054,0,0,0-7.066,5.044,43.615,43.615,0,0,0-3.74,4.3,36.375,36.375,0,0,1,.185-4.325,14.453,14.453,0,0,1,1.234-4.956c1.753-4.2,3.8-7.928,6.47-10.209A57.181,57.181,0,0,1,42.9,23.9a25.854,25.854,0,0,1,5.682-3.007,43.144,43.144,0,0,1,7.5-2.269l-2.626-2.461a49.321,49.321,0,0,0-9.813,3.813A31.862,31.862,0,0,1,48.7,11.705L46.657,9.788l-.006.012-.012.014c-3.275,4.072-5.847,8.164-6.732,12.616-3.209,2.733-8.063,6.916-10.837,13.85l-.621,1.434c-1.308,2.8-1.426,5.975-1.61,8.436a34.259,34.259,0,0,0,.155,5.568c-2.516,5.092-4.426,11.006-4.075,16.761V68.5l.005.013,2.809-.079Z" transform="translate(-22.877 -9.788)" fill="#002d5d"/>
    </g>
  </g>
</svg>
