<svg id="knot-carrick-bend" xmlns="http://www.w3.org/2000/svg" width="465.483" height="137.602" viewBox="0 0 465.483 137.602">
  <g id="Group_340" data-name="Group 340">
    <g id="Group_292" data-name="Group 292" transform="translate(68.16 65.774)">
      <path id="Path_591" data-name="Path 591" d="M21.554,19.538l20.973,1.788c-.155-.047-.85,4.839-1.766,7.533a19.8,19.8,0,0,1,2.771,6.068l.171.692a31.55,31.55,0,0,1,.529,8.316,18.729,18.729,0,0,1,4.436,4.881l0,.007,0,0L30.756,59.868c-2.835-2.21-4.734-5.749-5.969-9.316a39.882,39.882,0,0,1-1.115-5.342,26.241,26.241,0,0,1,0-4.789,19.83,19.83,0,0,1-2.626-6.577,19.746,19.746,0,0,1-.526-7.183,24.309,24.309,0,0,1,1.219-6.469.851.851,0,0,1-.057-.12l-.125-.534Z" transform="translate(-19.879 -19.498)" fill="#d9dfe7"/>
      <path id="Path_592" data-name="Path 592" d="M41.479,21.234v.006c-.181,1.124-.381,2.439-.636,3.724a17.357,17.357,0,0,1-1.19,3.464,31.339,31.339,0,0,1-1.922,4.784c-1.669,3.488-2.658,5.609-4.354,8.779l-.284.658A30.616,30.616,0,0,0,30.45,53.695a14.331,14.331,0,0,0,.174,3.731c-4.219-4.387-5.843-12.03-5.058-16.834a33.384,33.384,0,0,1,.607-3.842,27.22,27.22,0,0,1,1.105-3.143,23.212,23.212,0,0,1,3.1-5.3L31,27.551c1.9-2.2,3.563-4.285,5.505-6.171l.012-.019.514-.507-2.453-.209a63.972,63.972,0,0,0-5.006,5.538l-.62.756c-.609.758-1.175,1.513-1.7,2.288-.453.762-.871,1.542-1.257,2.367a30.219,30.219,0,0,0-1.975,5.726,25.776,25.776,0,0,1-1.5-4.993q-.249-1.282-.37-2.6a23.557,23.557,0,0,1,.128-2.74,21.661,21.661,0,0,1,1.782-7.24l-2.6-.222.133.538a.881.881,0,0,0,.06.121A24.125,24.125,0,0,0,20.373,26.7a19.475,19.475,0,0,0,.527,7.234,19.57,19.57,0,0,0,2.7,6.608,25.777,25.777,0,0,0-.039,4.83,38.777,38.777,0,0,0,1.1,5.39c1.237,3.6,3.165,7.165,6.06,9.373l2.23-1.374a15.266,15.266,0,0,1-.529-4.641,40.067,40.067,0,0,1,.7-5.445,33.911,33.911,0,0,1,1.754-5.119l.294-.659c1.367-3.048,2.8-5.435,4.286-8.982.566-1.15.989-2.111,1.28-2.875a20.784,20.784,0,0,1,1.786,4.268,24.013,24.013,0,0,1,.7,5.9c0,1.167-.158,2.459-.229,3.666a29.093,29.093,0,0,1-.34,3.552c-.286,1.224-.478,3.815-.706,4.795l2.1-1.292c.163-1.253.308-2.359.432-3.311.179-1.023.3-1.894.389-2.588a11.006,11.006,0,0,1,1.542,1.71,12.8,12.8,0,0,1,1.432,1.851l1.632-1.006,0,0,0-.007A17.393,17.393,0,0,0,44.989,43.8a29.1,29.1,0,0,0-.424-8.266l-.17-.686a18.732,18.732,0,0,0-2.847-6c.409-1.333.986-2.592,1.234-3.842s.408-2.464.615-3.6V21.4l0-.006-1.915-.163Z" transform="translate(-20.234 -19.526)" fill="#002d5d"/>
    </g>
    <g id="Group_293" data-name="Group 293" transform="translate(78.65 94.83)">
      <path id="Path_593" data-name="Path 593" d="M23.464,39.274l17.92-11.042c.044-.036.376,1.156,1.06,2.445s1.331,3.037,1.856,4.186a15.077,15.077,0,0,1,2.348.828,13.089,13.089,0,0,1,3.221,1.557l.505.387a16.928,16.928,0,0,1,3.344,2.7,24.436,24.436,0,0,1,2.614,2.6,19.32,19.32,0,0,1,3.465-.054,35.408,35.408,0,0,1,3.543.651l.009,0h.006L57.6,63.777c-6.635.6-14.744-4.115-18.53-8.938a25.237,25.237,0,0,1-6.724-3.408,22.618,22.618,0,0,1-5.254-5.609A23.345,23.345,0,0,1,24.013,39.7a.917.917,0,0,1-.119-.064l-.429-.36Z" transform="translate(-23.073 -27.962)" fill="#d9dfe7"/>
      <path id="Path_594" data-name="Path 594" d="M40.461,29.16l0,0a10.817,10.817,0,0,1,.8,1.578c.273.542.578,1.069.816,1.641.511,1.11.793,2.379,1.117,3.262.378,1.109.6,1.946,1.367,4.751.537,1.72.917,3.268,1.322,4.732L47.3,49.623l.24.706A31.818,31.818,0,0,0,53.388,60a24.743,24.743,0,0,0,2.6,2.555c-5.781-.178-12.311-4.374-15.395-8.486a25.5,25.5,0,0,1-3.684-6.454,25.811,25.811,0,0,1-1.046-6.2c-.02.013,0-.967,0-.967a64.992,64.992,0,0,1,.695-8.228V32.2c.037-.242.072-.471.108-.7l-2.1,1.291a50.55,50.55,0,0,0-.664,7.45l-.021.99a19.487,19.487,0,0,0,.735,5.563,21.345,21.345,0,0,0,.937,2.838,32.216,32.216,0,0,0,1.583,2.894,16.3,16.3,0,0,1-4.705-2.912A18.022,18.022,0,0,1,28.658,45.4a21.09,21.09,0,0,1-3.086-7.064L23.348,39.7l.439.359a.948.948,0,0,0,.122.063,23.234,23.234,0,0,0,3.07,6.2,22.371,22.371,0,0,0,5.3,5.664A24.854,24.854,0,0,0,39.1,55.388c3.777,4.917,11.949,9.714,18.647,9.02l.716-2.519A15.6,15.6,0,0,1,55.078,58.9a33.311,33.311,0,0,1-3.248-4.334,37.859,37.859,0,0,1-2.4-4.814l-.261-.664C48.131,45.752,47.3,43.4,46.322,39.7c-.329-1.155-.676-2.027-.843-2.819a15.64,15.64,0,0,1,3.9,1.745A20.837,20.837,0,0,1,53.694,42.2a32.481,32.481,0,0,1,2.422,2.72c.813.934,1.648,1.828,2.344,2.786l1.5,2.108a22.752,22.752,0,0,1,1.4,1.913l.673-2.368c-1.535-1.987-2.786-3.827-3.709-4.9a18.592,18.592,0,0,1,4.928.615l.525-1.844h-.007l-.009,0a31.145,31.145,0,0,0-3.518-.621,18.259,18.259,0,0,0-3.459.119,23.434,23.434,0,0,0-2.556-2.633A15.693,15.693,0,0,0,50.942,37.4l-.5-.381a12.169,12.169,0,0,0-3.2-1.5,14.628,14.628,0,0,0-2.358-.769c-.47-1.174-.783-2.435-1.25-3.519-.227-.548-.505-1.042-.772-1.542a11.472,11.472,0,0,0-.757-1.529l0-.007-.006,0L40.461,29.16Z" transform="translate(-23.348 -28.152)" fill="#002d5d"/>
    </g>
    <g id="Group_294" data-name="Group 294" transform="translate(222.451 34.022)">
      <path id="Path_595" data-name="Path 595" d="M107.228,28.147,97.475,46.8s-1.374-.85-2.99-2.1a35.166,35.166,0,0,1-4.622-4.022,22.215,22.215,0,0,1-7.776-2.394l-.775-.444a29.087,29.087,0,0,1-7.57-6.948,19.751,19.751,0,0,1-7.608-2.761l-.009-.005-.007,0,11.056-17.91a20.35,20.35,0,0,1,8.5,3.924,30.2,30.2,0,0,1,6.043,5.916,25.028,25.028,0,0,1,10.819,4.6,42.309,42.309,0,0,1,4.123,3.474.782.782,0,0,1,.115-.018l.458.035Z" transform="translate(-65.848 -9.825)" fill="#d9dfe7"/>
      <path id="Path_596" data-name="Path 596" d="M98.317,45.827l-.007,0a22.935,22.935,0,0,1-6.977-5.751,27.334,27.334,0,0,1-3.243-4.786,38.794,38.794,0,0,1-3.719-9.343l-.206-.695A62.779,62.779,0,0,0,80.3,15.154a24.086,24.086,0,0,0-1.672-2.883,20.014,20.014,0,0,1,7.126,3.823,27.767,27.767,0,0,1,5.034,5.271,34.692,34.692,0,0,1,5.772,11l.311.891a70.1,70.1,0,0,0,3.163,7.908l.014.019.336.687,1.141-2.182a70.09,70.09,0,0,1-2.77-7l-.311-.891A38.886,38.886,0,0,0,93.8,22.242a21.9,21.9,0,0,1,8.01,3.777,33.153,33.153,0,0,1,4.615,4.31l1.21-2.315-.461-.028a.779.779,0,0,0-.116.021,40.169,40.169,0,0,0-4.091-3.514,23.834,23.834,0,0,0-10.833-4.534,28.94,28.94,0,0,0-5.988-5.978A19.6,19.6,0,0,0,77.6,10.1l-1.376,2.228a19.757,19.757,0,0,1,2.264,3.581,62.06,62.06,0,0,1,3.751,9.79l.2.7a42.1,42.1,0,0,0,3.863,9.727,32.279,32.279,0,0,0,1.873,2.987,18.727,18.727,0,0,1-5.255-1.807A21.9,21.9,0,0,1,77.273,32.8a30.534,30.534,0,0,1-4.6-6.745,47.228,47.228,0,0,1-2-4.736l-1.293,2.095a46.333,46.333,0,0,0,2.854,5.931,18.332,18.332,0,0,1-5.2-2.138l-1.007,1.631.007,0,.009.005A18.935,18.935,0,0,0,73.7,31.533a28.013,28.013,0,0,0,7.536,7.028l.777.445a21.5,21.5,0,0,0,7.831,2.327,26.311,26.311,0,0,0,7.569,6.193l.01.005h.008l.891-1.7Z" transform="translate(-66.037 -10.1)" fill="#002d5d"/>
    </g>
    <g id="Group_295" data-name="Group 295" transform="translate(192.523 16.676)">
      <path id="Path_597" data-name="Path 597" d="M98.267,22.391,87.211,40.3A59.052,59.052,0,0,1,80.4,34.19a23.012,23.012,0,0,1-7.291-1.947l-.723-.379A30.126,30.126,0,0,1,64.9,26.02a19.45,19.45,0,0,1-7.678-1.492l-.009,0h-.007l8.05-19.448c6.282.091,12.906,4.515,16.491,8.432a24.634,24.634,0,0,1,11.672,4.938,36.058,36.058,0,0,1,4.247,3.869.776.776,0,0,1,.12-.006l.477.082Z" transform="translate(-57.015 -4.652)" fill="#d9dfe7"/>
      <path id="Path_598" data-name="Path 598" d="M88.088,39.4l-.006,0a24.055,24.055,0,0,1-6.287-5.793,34.223,34.223,0,0,1-3.044-4.65,61.9,61.9,0,0,1-4.1-9.04l-.275-.671A47.8,47.8,0,0,0,69.14,9.6a24.4,24.4,0,0,0-2.149-2.647c5.346.6,10.826,4.5,13.82,7.945a27.871,27.871,0,0,1,6.322,11.088l.3.9c.881,2.636,1.7,5.451,2.72,8l.013.02.271.7,1.293-2.095c-.864-2.286-1.624-4.743-2.379-7.142l-.3-.9a30.007,30.007,0,0,0-5.016-9.725A21.049,21.049,0,0,1,92.591,19.8a29.1,29.1,0,0,1,4.683,4.725L98.646,22.3l-.481-.075a.78.78,0,0,0-.122.009,34.8,34.8,0,0,0-4.227-3.917,23.78,23.78,0,0,0-11.723-4.893c-3.554-3.992-10.18-8.473-16.519-8.473l-1,2.42A17.659,17.659,0,0,1,67.44,10.6,46.134,46.134,0,0,1,72.5,19.883l.269.68a71.186,71.186,0,0,0,4.261,9.319c.661,1.146,1.267,2.1,1.775,2.848a18.506,18.506,0,0,1-4.968-1.468,23.031,23.031,0,0,1-5.493-3.778,41.533,41.533,0,0,1-5.179-6c-.7-1.078-2.219-3.468-2.639-4.352l-.942,2.274a56.089,56.089,0,0,0,3.588,5.382,18.794,18.794,0,0,1-5.292-1.263L57.153,25.3h.007l.009,0a18.563,18.563,0,0,0,7.689,1.409,28.675,28.675,0,0,0,7.426,5.91L73,33a22.024,22.024,0,0,0,7.32,1.865,27.327,27.327,0,0,0,6.737,6.169l.009.005h.008l1.01-1.635Z" transform="translate(-57.153 -4.951)" fill="#002d5d"/>
    </g>
    <g id="Group_296" data-name="Group 296" transform="translate(37.345 24.231)">
      <path id="Path_599" data-name="Path 599" d="M48.6,13.005,44.522,33.655a54.573,54.573,0,0,1-8.489-3.37A22.69,22.69,0,0,1,28.622,31l-.8-.1a29.971,29.971,0,0,1-8.982-2.865,19.28,19.28,0,0,1-7.73,1.23h-.017l.968-21.026c5.817-2.06,13.445-.223,18.149,2.193a24.164,24.164,0,0,1,12.62.591,33.607,33.607,0,0,1,5.2,2.124.748.748,0,0,1,.108-.048l.464-.091Z" transform="translate(-11.07 -6.832)" fill="#d9dfe7"/>
      <path id="Path_600" data-name="Path 600" d="M44.812,32.636H44.8a23.289,23.289,0,0,1-7.892-3.249,34.571,34.571,0,0,1-4.4-3.3A61.962,61.962,0,0,1,25.6,19.042l-.486-.534a49.2,49.2,0,0,0-8.157-7.228A20.327,20.327,0,0,0,14.07,9.551c5.144-1.295,11.545.463,15.528,2.638a27.307,27.307,0,0,1,9.7,8.2l.581.742c1.71,2.166,3.433,4.507,5.281,6.547l.019.014.5.563.478-2.415c-1.6-1.841-3.147-3.884-4.661-5.856l-.582-.742a29.417,29.417,0,0,0-8.019-7.386,20.681,20.681,0,0,1,9.4.845A27.539,27.539,0,0,1,48.2,15.479l.507-2.563-.466.1a.766.766,0,0,0-.109.052,32.366,32.366,0,0,0-5.2-2.175,23.348,23.348,0,0,0-12.655-.531c-4.7-2.5-12.349-4.387-18.185-2.221l-.121,2.616A19.365,19.365,0,0,1,15.717,12.8a47.991,47.991,0,0,1,7.875,6.958l.485.544a71.283,71.283,0,0,0,7.163,7.245c1.008.843,1.894,1.521,2.616,2.051a18.255,18.255,0,0,1-5.106.357,22.6,22.6,0,0,1-6.407-1.624,39.668,39.668,0,0,1-6.9-3.838c-1.02-.774-3.259-2.464-3.949-3.182l-.114,2.459a53.184,53.184,0,0,0,5.2,3.825,18.318,18.318,0,0,1-5.407.627l-.088,1.915.007,0h.01a18.414,18.414,0,0,0,7.716-1.31,28.545,28.545,0,0,0,8.951,2.947l.8.1a21.7,21.7,0,0,0,7.409-.8,26.3,26.3,0,0,0,8.445,3.447l.01,0,.007,0,.373-1.885Z" transform="translate(-11.086 -7.193)" fill="#002d5d"/>
    </g>
    <g id="Group_297" data-name="Group 297" transform="translate(0 23.838)">
      <path id="Path_601" data-name="Path 601" d="M38.255,8.521l-.968,21.027s-1.445-.228-3.249-.594a32.625,32.625,0,0,1-5.4-1.363,21.554,21.554,0,0,1-7.031,2.046l-.788.043a30.242,30.242,0,0,1-9.1-1.011,19.044,19.044,0,0,1-3.209,1.76c-.541.248-1.137.453-1.683.644L5.4,31.508h0v0L.035,11.157a21.419,21.419,0,0,1,9.989-2.977A29.233,29.233,0,0,1,19.3,9.13,23.9,23.9,0,0,1,32,7.477a29.405,29.405,0,0,1,5.684,1.267.766.766,0,0,1,.1-.064Z" transform="translate(0.082 -6.719)" fill="#d9dfe7"/>
      <path id="Path_602" data-name="Path 602" d="M37.433,28.5h-.007a23.354,23.354,0,0,1-8.085-1.95A31.992,31.992,0,0,1,24.478,24.1a71.506,71.506,0,0,1-8.087-5.61l-.584-.435A42.3,42.3,0,0,0,6.15,12.747a18.792,18.792,0,0,0-3.406-.935c5.1-2.645,11.883-2.2,16.273-.823a26.6,26.6,0,0,1,11.11,6.3l.7.641c2.066,1.89,4.135,3.834,6.225,5.615l.021.011.565.483.113-2.459c-1.836-1.6-3.684-3.371-5.527-5.036l-.7-.642a27.912,27.912,0,0,0-9.281-5.858,20.235,20.235,0,0,1,9.525-.821,25.6,25.6,0,0,1,6.472,1.8l.12-2.61-.464.166a.8.8,0,0,0-.1.067,28.67,28.67,0,0,0-5.7-1.318A23.159,23.159,0,0,0,19.352,9.055a28.467,28.467,0,0,0-9.309-1.03,23.115,23.115,0,0,0-5.07.841A21.419,21.419,0,0,0,0,11.07L.667,13.6a14.2,14.2,0,0,1,4.587.931,39.356,39.356,0,0,1,9.315,5.057l.583.433a81.306,81.306,0,0,0,8.353,5.75c1.129.64,2.113,1.18,2.906,1.553a17.938,17.938,0,0,1-4.873,1.266,21.63,21.63,0,0,1-6.449-.354,42.009,42.009,0,0,1-7.346-2.284A44.815,44.815,0,0,1,3.357,23.82L3.984,26.2a38.556,38.556,0,0,0,5.524,2.519A18.858,18.858,0,0,1,5.12,30.511l.488,1.854v0h0c.167-.049.9-.255,1.4-.432.539-.194,1.132-.4,1.667-.657a18.29,18.29,0,0,0,3.183-1.816,28.6,28.6,0,0,0,9.069,1.1l.785-.044a20.619,20.619,0,0,0,7.006-2.13,26.856,26.856,0,0,0,8.605,2.04h.01l.007,0,.089-1.92Z" transform="translate(0 -7.077)" fill="#002d5d"/>
    </g>
    <g id="Group_298" data-name="Group 298" transform="translate(70.699 29.616)">
      <path id="Path_603" data-name="Path 603" d="M60.336,17.5,54.617,37.761s-1.391-.564-3.107-1.35a31.468,31.468,0,0,1-5.068-2.668,21.533,21.533,0,0,1-7.6.051l-.806-.184a29.147,29.147,0,0,1-8.9-3.844,19.31,19.31,0,0,1-8.108.115l-.01,0h-.007L25.1,9.233c5.823-1.2,12.874,1.45,17.254,4.228a24.274,24.274,0,0,1,12.3,1.606,30.541,30.541,0,0,1,5.094,2.526.749.749,0,0,1,.113-.039l.476-.051Z" transform="translate(-20.918 -8.447)" fill="#d9dfe7"/>
      <path id="Path_604" data-name="Path 604" d="M55.07,36.752l-.006,0A23.679,23.679,0,0,1,47.478,32.9,37.43,37.43,0,0,1,43.3,29.262a57.015,57.015,0,0,1-6.262-7.677L36.609,21a58.661,58.661,0,0,0-7.135-8.116A22.983,22.983,0,0,0,26.93,10.8c5.109-.6,11.038,1.846,14.741,4.344a28.988,28.988,0,0,1,8.87,8.979l.521.789c1.539,2.326,3.106,4.713,4.756,6.928l.018.015.446.6.669-2.369c-1.436-1.978-2.825-4.131-4.2-6.189l-.522-.789a30.446,30.446,0,0,0-7.3-8,20.383,20.383,0,0,1,9.155,1.575,26.3,26.3,0,0,1,5.739,3.233l.71-2.514-.479.058a.725.725,0,0,0-.114.042A29.669,29.669,0,0,0,54.85,14.93a23.383,23.383,0,0,0-12.329-1.547c-4.365-2.857-11.416-5.555-17.262-4.256l-.508,2.57a21.221,21.221,0,0,1,3.318,2.539,57.356,57.356,0,0,1,6.9,7.839l.423.595a60.579,60.579,0,0,0,6.5,7.93,32.084,32.084,0,0,0,2.482,2.272,16.727,16.727,0,0,1-5.215-.121,21.184,21.184,0,0,1-6.372-2.293,35.748,35.748,0,0,1-6.554-4.674A42.541,42.541,0,0,1,22.7,22.062l-.478,2.415a43.844,43.844,0,0,0,4.761,4.535,17.619,17.619,0,0,1-5.626-.162l-.372,1.881H21l.01,0a18.547,18.547,0,0,0,8.118-.195,27.921,27.921,0,0,0,8.868,3.925l.805.183a20.7,20.7,0,0,0,7.609-.136A26.794,26.794,0,0,0,54.531,38.6l.01,0h.007l.522-1.85Z" transform="translate(-20.988 -8.792)" fill="#002d5d"/>
    </g>
    <g id="Group_299" data-name="Group 299" transform="translate(230.048 99.834)">
      <path id="Path_605" data-name="Path 605" d="M108.633,40.826l-5.1,20.421s-1.552-.559-3.444-1.355a31.571,31.571,0,0,1-5.446-2.924,21.212,21.212,0,0,1-8.141-.682l-.852-.279a27.693,27.693,0,0,1-8.872-5.317,18.743,18.743,0,0,1-8.4-1.646l-.01,0h-.007L76.8,29.762c5.651.076,11.578,3.486,15.335,6.686a24.7,24.7,0,0,1,11.289,2.108,43.126,43.126,0,0,1,4.66,2.385.684.684,0,0,1,.1-.043l.44-.071Z" transform="translate(-68.147 -29.341)" fill="#d9dfe7"/>
      <path id="Path_606" data-name="Path 606" d="M104.017,60.178l-.007,0a21.727,21.727,0,0,1-8.163-4.049,25.073,25.073,0,0,1-4.2-3.965,37.767,37.767,0,0,1-5.536-8.348l-.34-.635A94.112,94.112,0,0,0,80.274,34.1a28.161,28.161,0,0,0-1.954-2.5c4.882.406,9.9,3.548,13.093,6.4a36.075,36.075,0,0,1,7.838,9.475l.492.8a57.327,57.327,0,0,0,4.85,6.967l.019.015.487.6.6-2.388a63.062,63.062,0,0,1-4.26-6.159l-.491-.8a40.165,40.165,0,0,0-6.459-8.287,21.648,21.648,0,0,1,8.446,1.907,32.861,32.861,0,0,1,5.325,3.093l.633-2.534-.441.08a.714.714,0,0,0-.1.046,40.587,40.587,0,0,0-4.634-2.431,23.449,23.449,0,0,0-11.282-2.038c-3.722-3.273-9.61-6.722-15.295-6.7l-1.051,2.4a22.538,22.538,0,0,1,2.588,3.136,84.145,84.145,0,0,1,5.318,8.853l.337.644a40.9,40.9,0,0,0,5.757,8.694,31.876,31.876,0,0,0,2.464,2.529,18.715,18.715,0,0,1-5.527-.667,22.107,22.107,0,0,1-6.444-3.232,32.892,32.892,0,0,1-5.967-5.852,35.822,35.822,0,0,1-2.767-4.428l-.988,2.255A33.245,33.245,0,0,0,74.8,49.46a16.739,16.739,0,0,1-5.738-1.41l-.77,1.756H68.3l.01,0a18.173,18.173,0,0,0,8.449,1.578,26.825,26.825,0,0,0,8.862,5.4l.854.28a20.61,20.61,0,0,0,8.184.606,24.9,24.9,0,0,0,8.872,4.362l.011,0h.008l.466-1.865Z" transform="translate(-68.293 -29.637)" fill="#002d5d"/>
    </g>
    <g id="Group_300" data-name="Group 300" transform="translate(197.404 84.294)">
      <path id="Path_607" data-name="Path 607" d="M99.722,40.706,91.272,59.984S89.85,59.2,88.15,58.114a34.706,34.706,0,0,1-4.824-3.7,21.117,21.117,0,0,1-7.818-1.8l-.791-.385a28.828,28.828,0,0,1-7.976-6.29,20.061,20.061,0,0,1-8.046-2.5l-.009-.005h-.007l10.416-18.29c5.726.627,11.332,4.92,14.706,8.6a24.689,24.689,0,0,1,11.062,3.836,45.149,45.149,0,0,1,4.3,3.155.68.68,0,0,1,.112-.026l.452,0Z" transform="translate(-58.423 -24.743)" fill="#d9dfe7"/>
      <path id="Path_608" data-name="Path 608" d="M92.016,58.976l-.007,0a22.072,22.072,0,0,1-7.292-5.247A26.136,26.136,0,0,1,81.2,49.206,41.018,41.018,0,0,1,76.89,40.2l-.255-.677A84.359,84.359,0,0,0,72.217,29.8a23.386,23.386,0,0,0-1.712-2.7c4.885.952,9.6,4.756,12.431,8.046a33.636,33.636,0,0,1,6.471,10.545l.364.868a64.321,64.321,0,0,0,3.642,7.651l.016.018.379.664.988-2.255a65.733,65.733,0,0,1-3.2-6.773l-.363-.868A37.754,37.754,0,0,0,86,35.795,21.7,21.7,0,0,1,94.2,39a33.8,33.8,0,0,1,4.835,3.956l1.049-2.392-.455.005a.7.7,0,0,0-.113.028,42.563,42.563,0,0,0-4.266-3.2,23.534,23.534,0,0,0-11.075-3.77c-3.332-3.743-8.9-8.076-14.677-8.608L68.2,27.3a22.277,22.277,0,0,1,2.29,3.381,81.472,81.472,0,0,1,4.274,9.443l.25.686A43.264,43.264,0,0,0,79.5,50.176a31.939,31.939,0,0,0,2.032,2.838A18.2,18.2,0,0,1,76.245,51.6a20.568,20.568,0,0,1-5.853-4,30.5,30.5,0,0,1-5.145-6.473,36.273,36.273,0,0,1-2.272-4.647L61.756,38.62a38.469,38.469,0,0,0,3.284,5.835,17.927,17.927,0,0,1-5.489-1.962L58.6,44.159l.007,0,.009.005A19.347,19.347,0,0,0,66.711,46.6a27.814,27.814,0,0,0,7.948,6.371l.792.385a20.465,20.465,0,0,0,7.866,1.727,25.243,25.243,0,0,0,7.908,5.649l.01,0h.008l.772-1.76Z" transform="translate(-58.602 -25.024)" fill="#002d5d"/>
    </g>
    <g id="Group_301" data-name="Group 301" transform="translate(303.058 109.766)">
      <path id="Path_609" data-name="Path 609" d="M120.954,32.712,128.659,52.3a25.329,25.329,0,0,1-3.785.928,27.739,27.739,0,0,1-6.44.679,20.44,20.44,0,0,1-7.714,3.751l-.93.2a21.956,21.956,0,0,1-6.129.368,23.6,23.6,0,0,1-4.8-.711,18.736,18.736,0,0,1-8.875,2.082h-.012l-.008,0,.078-21.048c4.781-2.139,10.974-1.751,15.586-.87a25.645,25.645,0,0,1,10.056-3.991c1.823-.349,3.448-.417,4.919-.567a.715.715,0,0,1,.055-.1l.293-.312Z" transform="translate(-89.965 -32.285)" fill="#d9dfe7"/>
      <path id="Path_610" data-name="Path 610" d="M128.145,51.291l-.007,0a21.571,21.571,0,0,1-9.393,1.392,30.6,30.6,0,0,1-5.842-1.06,32.538,32.538,0,0,1-9.082-4.455l-.6-.4c-1.434-.98-2.97-1.93-4.475-2.89-1.51-1.009-2.98-1.949-4.3-2.725-.9-.508-1.768-.988-2.655-1.443A17.8,17.8,0,0,1,98.752,38.7a31.593,31.593,0,0,1,6.77.8A43.3,43.3,0,0,1,116.9,43.583l.842.384a47.547,47.547,0,0,0,7.995,2.982h.024l.754.188-.9-2.291a44.036,44.036,0,0,1-7.016-2.648l-.841-.385a50.508,50.508,0,0,0-9.61-3.636,21.538,21.538,0,0,1,7.728-2.779,37.672,37.672,0,0,1,5.872-.382l-.956-2.431-.288.319a.676.676,0,0,0-.053.1,47.839,47.839,0,0,0-4.91.51,24,24,0,0,0-9.983,4.039c-4.608-.964-10.754-1.408-15.5.837l-.01,2.619A24.9,24.9,0,0,1,93.5,42.831c2.578,1.475,5.776,3.719,8.555,5.51l.6.412a33.245,33.245,0,0,0,9.49,4.7,20.912,20.912,0,0,0,3.54.8,15.519,15.519,0,0,1-5.336,2.339,19.466,19.466,0,0,1-7.575.381,27.286,27.286,0,0,1-8.307-2.51A27.235,27.235,0,0,1,90,51.574l-.009,2.462a26.581,26.581,0,0,0,6.151,3.335,15.842,15.842,0,0,1-6.168,1.122l-.007,1.917.008,0h.012A18.3,18.3,0,0,0,98.9,58.244a23.335,23.335,0,0,0,4.827.765,21.484,21.484,0,0,0,6.162-.345l.934-.2a19.987,19.987,0,0,0,7.73-3.844,24.166,24.166,0,0,0,10.278-1.534l.011,0,.006-.006-.7-1.788Z" transform="translate(-89.966 -32.585)" fill="#002d5d"/>
    </g>
    <g id="Group_302" data-name="Group 302" transform="translate(265.307 110.614)">
      <path id="Path_611" data-name="Path 611" d="M116.5,37.914l-.078,21.049a31.71,31.71,0,0,1-3.879-.518,33.639,33.639,0,0,1-6.253-1.757,21.388,21.388,0,0,1-8.126.835l-.891-.125a27.8,27.8,0,0,1-9.788-3.567,19.506,19.506,0,0,1-8.671-.21l-.011,0H78.8L83.9,33.2c5.5-.96,11.808,1.437,16.1,3.776a25.437,25.437,0,0,1,11.291-.109c1.8.412,3.32.878,4.741,1.3a.685.685,0,0,1,.086-.068l.386-.179Z" transform="translate(-78.672 -32.496)" fill="#d9dfe7"/>
      <path id="Path_612" data-name="Path 612" d="M116.517,57.9h-.008a21.874,21.874,0,0,1-9.29-2.18,28.743,28.743,0,0,1-4.882-3.112,39.314,39.314,0,0,1-7-7.157l-.449-.57c-2.147-2.735-4.764-5.657-6.989-7.964a23.04,23.04,0,0,0-2.33-2.078c4.822-.53,10.227,1.746,13.9,3.874a36.871,36.871,0,0,1,9.458,7.836l.637.676a42.826,42.826,0,0,0,6.321,5.745l.022.01.632.457.009-2.462a39.942,39.942,0,0,1-5.533-5.06l-.635-.676a39.421,39.421,0,0,0-7.867-6.858,21.853,21.853,0,0,1,8.515.2,45.057,45.057,0,0,1,5.559,1.826l.01-2.612-.384.188a.712.712,0,0,0-.085.071c-1.413-.44-2.922-.921-4.71-1.345a28.92,28.92,0,0,0-5.478-.582,27.764,27.764,0,0,0-5.784.759c-4.27-2.418-10.545-4.858-16.052-3.793l-.635,2.541a29.782,29.782,0,0,1,3.049,2.622c2.174,2.228,4.7,5.137,6.783,7.756l.448.58a40.976,40.976,0,0,0,7.285,7.5,31.4,31.4,0,0,0,2.9,1.987,16.553,16.553,0,0,1-5.56.382A20.194,20.194,0,0,1,91.4,54.465a28.959,28.959,0,0,1-6.978-4.709A28.2,28.2,0,0,1,80.9,45.885l-.6,2.388A31.78,31.78,0,0,0,85.2,53.008a16.6,16.6,0,0,1-5.973-.41l-.465,1.86h.008l.011,0a18.911,18.911,0,0,0,8.709.136,26.968,26.968,0,0,0,9.8,3.655l.894.125a20.755,20.755,0,0,0,8.154-.917,24.626,24.626,0,0,0,10.155,2.362h.012l.008,0,.007-1.922Z" transform="translate(-78.76 -32.837)" fill="#002d5d"/>
    </g>
    <g id="Group_303" data-name="Group 303" transform="translate(336.109 4.811)">
      <path id="Path_613" data-name="Path 613" d="M99.819,21.627l6.4-20.054s1.625.662,3.56,1.672a28.781,28.781,0,0,1,5.466,3.627,24.853,24.853,0,0,1,3.457.407,22.926,22.926,0,0,1,5.47,2.194,6.987,6.987,0,0,1,.92.574,25.539,25.539,0,0,1,5.029,4.624A35.056,35.056,0,0,1,133,19.033a19.489,19.489,0,0,1,7.418,6.152l.007.01.007.005L123.475,37.663c-4.444-2.3-7.415-6.855-9.618-10.322a21.5,21.5,0,0,1-4.613-1,24.765,24.765,0,0,1-4.8-2.16c-1.577-.942-2.892-1.8-4.1-2.649a.664.664,0,0,1-.1.039l-.418.052Z" transform="translate(-99.68 -1.083)" fill="#d9dfe7"/>
      <path id="Path_614" data-name="Path 614" d="M105.886,3.26l.007,0a21.434,21.434,0,0,1,8.224,4.926A26.3,26.3,0,0,1,118,12.859a23.108,23.108,0,0,1,2.514,4.927,37.8,37.8,0,0,1,1.13,4.7l.125.688c.452,3.471.892,7.147,1.12,10.147.106.989.265,1.892.391,2.854-3.762-2.168-6.3-6.348-8.223-9.5-1.072-1.949-1.991-3.377-2.765-5.087a48.939,48.939,0,0,1-2.579-5.222l-.4-.835a43.146,43.146,0,0,0-4.3-7.375L105,8.143l-.466-.632-.748,2.346a41.17,41.17,0,0,1,3.751,6.491l.4.834c.8,1.611,1.473,3.139,2.256,4.565.382.717.823,1.407,1.24,2.116.35.726.721,1.445,1.127,2.168a21.364,21.364,0,0,1-7.26-2.706,41.572,41.572,0,0,1-4.725-3.4l-.794,2.489.419-.06a.7.7,0,0,0,.1-.041c1.2.867,2.5,1.737,4.059,2.686a22.927,22.927,0,0,0,4.765,2.147,19.859,19.859,0,0,0,4.589.9c2.116,3.509,4.987,8.031,9.491,10.236l2.111-1.551a31.814,31.814,0,0,1-.552-3.737c-.166-1.435-.306-3.1-.441-4.854-.2-1.672-.419-3.43-.628-5.128l-.084-.741a28.239,28.239,0,0,0-1.137-4.869,19.086,19.086,0,0,0-2.607-5.353,23.837,23.837,0,0,0-2.347-3.1,17.58,17.58,0,0,1,6.083,2.117,21.734,21.734,0,0,1,3.55,2.742,12.969,12.969,0,0,1,2.527,2.954,28.77,28.77,0,0,1,2.341,4.157,28.028,28.028,0,0,1,1.332,4.172,22.306,22.306,0,0,1,.477,5.39l1.984-1.458a32.424,32.424,0,0,0-.4-3.989c-.263-1.187-.579-2.245-.859-3.11a15.69,15.69,0,0,1,4.852,4.46l1.545-1.135-.007-.005-.007-.01a19.147,19.147,0,0,0-7.523-6.152,34.255,34.255,0,0,0-2.877-4.43,25.142,25.142,0,0,0-5.061-4.683,7.023,7.023,0,0,0-.929-.579,22.458,22.458,0,0,0-5.537-2.191,24.22,24.22,0,0,0-3.493-.369,24.078,24.078,0,0,0-9.025-5.391l-.011,0h-.009l-.584,1.831Z" transform="translate(-99.778 -1.428)" fill="#002d5d"/>
    </g>
    <g id="Group_304" data-name="Group 304" transform="translate(359.537 28.621)">
      <path id="Path_615" data-name="Path 615" d="M106.842,21.05,123.806,8.587l.623,1.031a19.194,19.194,0,0,1,1.334,2.582A25.546,25.546,0,0,1,128,18.589a25.469,25.469,0,0,1,2.509,2.551,21.16,21.16,0,0,1,2.816,4.663l.386.922a29.649,29.649,0,0,1,1.4,6.32,35.265,35.265,0,0,1-.1,5.129,14.742,14.742,0,0,1,1.953,4.255,17.034,17.034,0,0,1,.888,5.074v.013l0,.009-21.031.849c-2.392-4.141-2.544-9.694-2.317-14.227a22.406,22.406,0,0,1-3.3-4.051,23.653,23.653,0,0,1-2.332-4.458c-.7-1.587-1.087-3.084-1.563-4.382a.662.662,0,0,1-.1-.024l-.361-.183Z" transform="translate(-106.473 -8.282)" fill="#d9dfe7"/>
      <path id="Path_616" data-name="Path 616" d="M122.931,9.635l.005.007a17.068,17.068,0,0,1,2.522,4.608,16.048,16.048,0,0,1,1.231,4.546,24.721,24.721,0,0,1,.191,6.089,32.683,32.683,0,0,1-1.014,5.293,41.1,41.1,0,0,1-1.824,4.485l-.3.645c-.666,1.524-1.583,3.187-2.356,4.745-.751,1.561-1.527,3.05-2.287,4.358a21.753,21.753,0,0,0-1.212,2.565c-1.9-3.784-1.948-8.772-1.632-12.762a42.466,42.466,0,0,1,.7-6.04,52.394,52.394,0,0,1,1.233-5.647l.214-.913a38.089,38.089,0,0,0,.958-8.518l-.005-.024-.021-.792-1.984,1.458a34.678,34.678,0,0,1-.869,7.451l-.186.895c-.329,1.735-.826,3.378-1.08,4.938s-.48,3.157-.7,4.975a21.918,21.918,0,0,1-4.062-6.648,41.943,41.943,0,0,1-1.621-5.356l-2.105,1.547.365.176a.659.659,0,0,0,.106.022c.451,1.3.817,2.8,1.5,4.374a21.717,21.717,0,0,0,2.307,4.418,21.212,21.212,0,0,0,3.346,3.985c-.313,4.534-.23,10.015,2.266,14.1l2.617-.106c.524-1.088.991-2.193,1.579-3.343,1.488-2.575,3.08-5.881,4.686-8.932l.313-.651a29.221,29.221,0,0,0,3.01-10.253,18.487,18.487,0,0,0,.109-3.754,17.062,17.062,0,0,1,3.373,5.045,21.13,21.13,0,0,1,1.647,7.766,24.991,24.991,0,0,1-1.6,8.908,20.018,20.018,0,0,1-2.559,4.787l2.46-.1a24.622,24.622,0,0,0,2.879-6.683,16.356,16.356,0,0,1,1.574,6.5l1.916-.077,0-.009V47.7a16.863,16.863,0,0,0-.913-5.114,14.6,14.6,0,0,0-2.016-4.277,34.532,34.532,0,0,0,.149-5.175,28.921,28.921,0,0,0-1.387-6.371l-.388-.928a20.669,20.669,0,0,0-2.863-4.683A24.849,24.849,0,0,0,128.64,18.6a20.542,20.542,0,0,0-1.5-5.322,18.993,18.993,0,0,0-2.641-4.767l-.007-.01-.008,0-1.549,1.138Z" transform="translate(-106.733 -8.497)" fill="#002d5d"/>
    </g>
    <g id="Group_305" data-name="Group 305" transform="translate(266.198 0.013)">
      <path id="Path_617" data-name="Path 617" d="M85.112,27.036,79.068,6.873s6.508-1.2,9.88-.847a21.538,21.538,0,0,1,7.493-3.51l.9-.17a26.825,26.825,0,0,1,10.594.268A19.649,19.649,0,0,1,116.474.159h.012l.008,0L117.5,21.18c-4.813,2.585-11.343,2.147-16.11,1.37a31.451,31.451,0,0,1-5.155,2.541,27.711,27.711,0,0,1-5.509,1.274,31.788,31.788,0,0,1-5.212.282.712.712,0,0,1-.067.093l-.339.3Z" transform="translate(-78.92 0.357)" fill="#d9dfe7"/>
      <path id="Path_618" data-name="Path 618" d="M79.576,8.583l.007,0a23.436,23.436,0,0,1,9.12-.689A31.069,31.069,0,0,1,94.379,9.2a36.974,36.974,0,0,1,8.974,4.483l.6.379c2.9,1.968,6.272,3.867,9.032,5.425a23.134,23.134,0,0,0,2.783,1.321c-4.327,1.85-10.02,1.417-14.144.584a37.95,37.95,0,0,1-11.466-4.316l-.828-.428A70.814,70.814,0,0,0,81.6,13.114l-.024,0-.721-.253.707,2.358a68.945,68.945,0,0,1,6.813,3.152l.827.429A39.7,39.7,0,0,0,98.9,22.672,20.445,20.445,0,0,1,90.74,25.3a29.112,29.112,0,0,1-6.142.031l.75,2.5.335-.3a.714.714,0,0,0,.066-.1,30.459,30.459,0,0,0,5.211-.229,25.921,25.921,0,0,0,5.491-1.267,29.658,29.658,0,0,0,5.123-2.6c4.77.859,11.269,1.351,16.054-1.338l-.126-2.616a23.084,23.084,0,0,1-3.614-1.577c-2.7-1.548-5.968-3.412-8.784-5.318l-.61-.415A40.254,40.254,0,0,0,95.134,7.36a31.242,31.242,0,0,0-3.423-.9A16.229,16.229,0,0,1,96.9,4.243a20.551,20.551,0,0,1,7.349-.371A28.277,28.277,0,0,1,112.452,6.2,31.956,31.956,0,0,1,117,8.83l-.118-2.459A35.637,35.637,0,0,0,110.7,3.319a19.088,19.088,0,0,1,5.963-1.4L116.573,0l-.008,0h-.012a19.1,19.1,0,0,0-8.563,2.538A26.112,26.112,0,0,0,97.35,2.2l-.9.17a20.933,20.933,0,0,0-7.5,3.6,26.267,26.267,0,0,0-9.909.766l-.011,0-.006.006.552,1.841Z" transform="translate(-79.024 -0.004)" fill="#002d5d"/>
    </g>
    <g id="Group_306" data-name="Group 306" transform="translate(303.747)">
      <path id="Path_619" data-name="Path 619" d="M91.187,21.18,90.178.155s1.7.113,3.81.363a26.554,26.554,0,0,1,6.243,1.349,20.321,20.321,0,0,1,8.42-1.289l.941.081a29.865,29.865,0,0,1,5.948,1.468,37.808,37.808,0,0,1,4.371,2.137,18.908,18.908,0,0,1,9.12.671l.011,0h.008l-6.4,20.053c-5.2.695-10.948-1.6-15.12-3.823a23.014,23.014,0,0,1-5.47.972,19.849,19.849,0,0,1-5.447-.234,29.649,29.649,0,0,1-4.958-.983.644.644,0,0,1-.085.07Z" transform="translate(-90.153 0.367)" fill="#d9dfe7"/>
      <path id="Path_620" data-name="Path 620" d="M90.263,1.928h.007A22.137,22.137,0,0,1,99.494,3.6,23.612,23.612,0,0,1,104.7,6.39a31.726,31.726,0,0,1,7.325,6.932l.456.548c2.163,2.717,4.686,5.615,6.7,7.995A23.374,23.374,0,0,0,121.284,24c-4.573.338-9.579-1.827-13.172-3.867a43.439,43.439,0,0,1-9.65-7.285l-.683-.653a52.867,52.867,0,0,0-6.63-5.355l-.023-.01-.649-.441.118,2.459a66.534,66.534,0,0,1,5.82,4.725l.683.64a47.412,47.412,0,0,0,8.1,6.413,20.86,20.86,0,0,1-8.3.263,26.992,26.992,0,0,1-5.8-1.49l.125,2.609.385-.2a.618.618,0,0,0,.084-.073,28.367,28.367,0,0,0,4.937,1.035,18.772,18.772,0,0,0,5.419.235,21.971,21.971,0,0,0,5.449-1.042c4.144,2.3,9.831,4.635,15.032,3.83l.8-2.5c-.947-.85-1.858-1.752-2.76-2.734-1.976-2.324-4.414-5.186-6.506-7.867l-.452-.581a34.619,34.619,0,0,0-7.646-7.256,28.729,28.729,0,0,0-3.112-1.888,19.3,19.3,0,0,1,5.759-.622,21.4,21.4,0,0,1,7.328,1.9,27.093,27.093,0,0,1,7.183,4.912,23.869,23.869,0,0,1,3.416,4.073l.748-2.346A28.139,28.139,0,0,0,122.4,5.863a16.589,16.589,0,0,1,6.241.779l.583-1.827h-.008l-.011,0a18.477,18.477,0,0,0-9.182-.6,36.651,36.651,0,0,0-4.381-2.2,28.9,28.9,0,0,0-5.972-1.5c-.307-.041-.625-.059-.945-.081A19.861,19.861,0,0,0,100.263,1.8,25.279,25.279,0,0,0,90.19,0h-.011l-.008,0,.092,1.919Z" transform="translate(-90.171 0)" fill="#002d5d"/>
    </g>
    <g id="Group_307" data-name="Group 307" transform="translate(199.307 19.96)">
      <path id="Path_621" data-name="Path 621" d="M68.755,40.365,59.236,21.592s5.853-2.265,9.109-2.6a20.911,20.911,0,0,1,6.079-5.028l.774-.384a28.154,28.154,0,0,1,9.725-2.549,19.048,19.048,0,0,1,6.771-4.959l.01,0,.006-.005,8.511,19.25c-3.919,4.215-10.779,6.181-15.8,6.69a24.6,24.6,0,0,1-10.03,6.473,37.194,37.194,0,0,1-5.283,1.43.728.728,0,0,1-.054.1Z" transform="translate(-59.003 -5.595)" fill="#d9dfe7"/>
      <path id="Path_622" data-name="Path 622" d="M60.036,23.177l.006,0a22.487,22.487,0,0,1,8.487-2.308,30.579,30.579,0,0,1,5.657.023A46.626,46.626,0,0,1,83.94,22.92l.7.2a73.132,73.132,0,0,0,10.457,2.263,23.524,23.524,0,0,0,3.2.246c-3.676,3.357-9.616,4.883-13.969,5.195a32.385,32.385,0,0,1-12.385-1.308l-.909-.254a82.406,82.406,0,0,0-8.21-1.973H62.8l-.746-.134,1.113,2.2c2.413.467,4.874,1.106,7.268,1.777l.908.255a34.717,34.717,0,0,0,10.563,1.478,21.023,21.023,0,0,1-7.721,4.571,30.071,30.071,0,0,1-6.241,1.341l1.181,2.33.3-.36a.731.731,0,0,0,.052-.106,35.687,35.687,0,0,0,5.3-1.384,23.525,23.525,0,0,0,9.995-6.527c5.053-.436,11.926-2.353,15.8-6.661l-1.059-2.4a22.482,22.482,0,0,1-4.1-.188,73.859,73.859,0,0,1-10.137-2.206l-.7-.214a48.094,48.094,0,0,0-10.13-2.108A28.456,28.456,0,0,0,71,18.822a17.017,17.017,0,0,1,4.273-3.3A20.64,20.64,0,0,1,81.92,13.29a32.393,32.393,0,0,1,8.227-.249,36.714,36.714,0,0,1,5.092.965l-1-2.252a38.687,38.687,0,0,0-6.645-.869,17.731,17.731,0,0,1,4.842-3.207l-.775-1.754-.006.005-.01,0a18.4,18.4,0,0,0-6.744,5.035,27.164,27.164,0,0,0-9.769,2.475l-.774.384a20.223,20.223,0,0,0-6.046,5.107,25.617,25.617,0,0,0-9.136,2.516l-.009,0-.005.006.869,1.714Z" transform="translate(-59.166 -5.925)" fill="#002d5d"/>
    </g>
    <g id="Group_308" data-name="Group 308" transform="translate(231.804 6.755)">
      <path id="Path_623" data-name="Path 623" d="M77.387,34.581,68.875,15.33s1.5-.509,3.426-1.016a34.112,34.112,0,0,1,5.912-1.092,20.837,20.837,0,0,1,6.48-4.637l.807-.334A28.933,28.933,0,0,1,95.652,6.424a20.24,20.24,0,0,1,7.542-4.265l.011,0,.007,0,6.044,20.162c-4.233,3.672-10.881,4.85-15.881,4.977A24.778,24.778,0,0,1,83.06,33.047a41.505,41.505,0,0,1-5.3,1.1.735.735,0,0,1-.058.1l-.315.336Z" transform="translate(-68.668 -1.659)" fill="#d9dfe7"/>
      <path id="Path_624" data-name="Path 624" d="M69.591,16.963l.007,0a22.389,22.389,0,0,1,8.682-1.848,27.626,27.626,0,0,1,5.681.384,41.587,41.587,0,0,1,9.6,2.735l.676.262c3.242,1.291,6.974,2.4,10.079,3.284a23.28,23.28,0,0,0,3.076.619c-3.91,2.838-9.692,3.767-14.027,3.714a33.281,33.281,0,0,1-12.218-2.148l-.89-.308a73.808,73.808,0,0,0-8.1-2.44h-.024l-.74-.171,1,2.252c2.382.572,4.812,1.367,7.161,2.186l.89.309a36.653,36.653,0,0,0,10.395,2.181A21.482,21.482,0,0,1,82.916,32a32.312,32.312,0,0,1-6.253.958l1.056,2.389L78.03,35a.753.753,0,0,0,.057-.1A39.5,39.5,0,0,0,83.4,33.851a23.639,23.639,0,0,0,10.277-5.812c5.025-.05,11.664-1.171,15.854-4.94l-.752-2.509a22.057,22.057,0,0,1-3.954-.664c-3.021-.846-6.666-2.01-9.793-3.22l-.68-.272a43.151,43.151,0,0,0-9.993-2.855,32.1,32.1,0,0,0-3.46-.368,18.011,18.011,0,0,1,4.54-3.005A20.168,20.168,0,0,1,92.38,8.459a28.25,28.25,0,0,1,8.379.5,34.688,34.688,0,0,1,4.989,1.506l-.707-2.358a37.443,37.443,0,0,0-6.614-1.558,18.772,18.772,0,0,1,5.334-2.711l-.55-1.837-.007,0-.01,0A19.584,19.584,0,0,0,95.656,6.36a28.011,28.011,0,0,0-10.2,1.755l-.808.334a20.184,20.184,0,0,0-6.456,4.719A25.571,25.571,0,0,0,68.829,15.2l-.01,0-.005.006.777,1.758Z" transform="translate(-68.814 -2.005)" fill="#002d5d"/>
    </g>
    <g id="Group_309" data-name="Group 309" transform="translate(136.462 51.907)">
      <path id="Path_625" data-name="Path 625" d="M50.018,50.5l-9.44-18.814a52.509,52.509,0,0,1,8.943-2.556,21.558,21.558,0,0,1,5.839-5.079l.746-.4a29.08,29.08,0,0,1,9.435-2.833,19.311,19.311,0,0,1,6.314-5.263l.009-.005.005-.005,9.779,18.638c-3.731,4.534-10.688,6.938-15.774,7.609a24.351,24.351,0,0,1-10.118,6.769,33.919,33.919,0,0,1-5.374,1.478.71.71,0,0,1-.056.1l-.309.355Z" transform="translate(-40.348 -15.089)" fill="#d9dfe7"/>
      <path id="Path_626" data-name="Path 626" d="M41.372,33.262l.006,0a23.342,23.342,0,0,1,8.354-2.275,31.364,31.364,0,0,1,5.606-.027,49.213,49.213,0,0,1,9.775,1.763l.7.175a65.7,65.7,0,0,0,10.622,1.727,23.351,23.351,0,0,0,3.254.02C76.15,38.29,70.142,40.15,65.74,40.608a30.292,30.292,0,0,1-12.5-1.011l-.912-.244c-2.688-.713-5.473-1.469-8.2-1.964h-.024l-.741-.139,1.1,2.2c2.4.474,4.876,1.147,7.271,1.78l.912.244a32.693,32.693,0,0,0,10.674,1.263A20.9,20.9,0,0,1,55.545,47.5a28.243,28.243,0,0,1-6.33,1.388l1.172,2.335.306-.362a.764.764,0,0,0,.054-.107,32.737,32.737,0,0,0,5.4-1.433A23.384,23.384,0,0,0,66.237,42.5c5.124-.6,12.105-2.96,15.788-7.587L80.808,32.59a22.529,22.529,0,0,1-4.145.1,63.806,63.806,0,0,1-10.28-1.672l-.706-.183a52.522,52.522,0,0,0-10.135-1.817c-1.346-.092-2.5-.116-3.407-.084a17.648,17.648,0,0,1,4.108-3.354,21.14,21.14,0,0,1,6.446-2.4,33.712,33.712,0,0,1,8.1-.6,38.2,38.2,0,0,1,5.1.658l-1.144-2.18a40.279,40.279,0,0,0-6.6-.491,17.315,17.315,0,0,1,4.532-3.456l-.891-1.7-.005.005-.009,0A18.584,18.584,0,0,0,65.5,20.753,27.936,27.936,0,0,0,56.03,23.51l-.745.4a20.781,20.781,0,0,0-5.8,5.154,26.557,26.557,0,0,0-8.962,2.472l-.009,0,0,.006.862,1.718Z" transform="translate(-40.51 -15.409)" fill="#002d5d"/>
    </g>
    <g id="Group_310" data-name="Group 310" transform="translate(167.743 35.502)">
      <path id="Path_627" data-name="Path 627" d="M59.647,45.712l-9.779-18.64s5.756-2.311,8.971-2.721A21.262,21.262,0,0,1,64.7,19.2l.753-.4a28.5,28.5,0,0,1,9.522-2.867,19.073,19.073,0,0,1,6.44-5.239l.009,0,.005-.005,9.519,18.773C87.2,33.889,80.327,36.222,75.28,36.9a24.461,24.461,0,0,1-9.969,6.8A35.426,35.426,0,0,1,60,45.249a.744.744,0,0,1-.053.1l-.3.359Z" transform="translate(-49.629 -10.217)" fill="#d9dfe7"/>
      <path id="Path_628" data-name="Path 628" d="M50.689,28.642l.006,0a22.92,22.92,0,0,1,8.372-2.427,31.283,31.283,0,0,1,5.627-.1,47.952,47.952,0,0,1,9.8,1.724l.7.174A68.926,68.926,0,0,0,85.775,29.8a24.875,24.875,0,0,0,3.232.068c-3.54,3.585-9.493,5.38-13.865,5.85a31.189,31.189,0,0,1-12.465-.937l-.914-.233c-2.7-.688-5.5-1.395-8.232-1.834h-.023l-.745-.125,1.144,2.18c2.412.431,4.891,1.048,7.3,1.659l.914.233a33.4,33.4,0,0,0,10.647,1.181,20.889,20.889,0,0,1-7.681,4.809,29.076,29.076,0,0,1-6.269,1.472l1.213,2.313.3-.366a.736.736,0,0,0,.052-.107,34.047,34.047,0,0,0,5.335-1.5,23.443,23.443,0,0,0,9.937-6.859c5.085-.606,11.978-2.894,15.673-7.427l-1.184-2.336a22.506,22.506,0,0,1-4.126.03,66.3,66.3,0,0,1-10.248-1.743l-.707-.186A51.16,51.16,0,0,0,64.891,24.17a31.723,31.723,0,0,0-3.423-.046,17.227,17.227,0,0,1,4.124-3.4,21.141,21.141,0,0,1,6.495-2.44,33.77,33.77,0,0,1,8.154-.582,37.111,37.111,0,0,1,5.118.716l-1.113-2.2a38.063,38.063,0,0,0-6.634-.548,17.054,17.054,0,0,1,4.618-3.428l-.867-1.71-.006.005-.009.005a18.385,18.385,0,0,0-6.406,5.312,27.446,27.446,0,0,0-9.563,2.793l-.753.4A20.525,20.525,0,0,0,58.8,24.29a26.091,26.091,0,0,0-8.994,2.639l-.009,0,0,.006.893,1.7Z" transform="translate(-49.797 -10.539)" fill="#002d5d"/>
    </g>
    <g id="Group_311" data-name="Group 311" transform="translate(72.934 83.141)">
      <path id="Path_629" data-name="Path 629" d="M29.245,57.925,21.706,38.273s5.855-1.618,9.045-1.668a21.336,21.336,0,0,1,6.164-4.544l.766-.328a28.556,28.556,0,0,1,9.514-2.083,18.97,18.97,0,0,1,6.54-4.819l.009,0,.006-.005L62.429,44c-4.055,4.345-11.28,6.3-16.438,6.592A24.263,24.263,0,0,1,35.2,56.509a33.289,33.289,0,0,1-5.542,1,.715.715,0,0,1-.067.1l-.348.322Z" transform="translate(-21.522 -24.352)" fill="#d9dfe7"/>
      <path id="Path_630" data-name="Path 630" d="M22.34,39.916l.006,0A23.019,23.019,0,0,1,30.8,38.462a35.05,35.05,0,0,1,5.549.459,54.426,54.426,0,0,1,9.586,2.545l.687.225a59.8,59.8,0,0,0,10.517,2.442,23.538,23.538,0,0,0,3.272.21c-3.8,3.472-10.024,4.9-14.462,5.054a29.593,29.593,0,0,1-12.421-2.045l-.887-.327c-2.621-.973-5.3-1.956-7.956-2.723l-.024,0-.721-.216.882,2.3c2.344.738,4.724,1.588,7.061,2.456l.888.327a31.113,31.113,0,0,0,10.576,2.161,20.474,20.474,0,0,1-8.257,4.108,27.486,27.486,0,0,1-6.484.811l.935,2.439.346-.33a.75.75,0,0,0,.066-.1,32.154,32.154,0,0,0,5.565-.95,23.342,23.342,0,0,0,10.774-5.984c5.191-.221,12.444-2.131,16.459-6.573l-1.08-2.386a22.647,22.647,0,0,1-4.177-.146,56.933,56.933,0,0,1-10.167-2.355l-.69-.234A58.875,58.875,0,0,0,36.7,37.008a31.993,31.993,0,0,0-3.361-.371,16.926,16.926,0,0,1,4.322-2.983,21.69,21.69,0,0,1,6.542-1.882,36.536,36.536,0,0,1,8.067-.024,38.716,38.716,0,0,1,5.037.983L56.3,30.489a40.126,40.126,0,0,0-6.515-.918,16.853,16.853,0,0,1,4.678-3.142l-.791-1.747-.006.005-.009,0a18.238,18.238,0,0,0-6.5,4.89,27.4,27.4,0,0,0-9.541,2l-.765.328a20.54,20.54,0,0,0-6.126,4.621,26.037,26.037,0,0,0-9.052,1.58l-.01,0-.005.006.688,1.794Z" transform="translate(-21.651 -24.681)" fill="#002d5d"/>
    </g>
    <g id="Group_312" data-name="Group 312" transform="translate(104.948 68.045)">
      <path id="Path_631" data-name="Path 631" d="M39.9,54.614,31.218,35.437s5.792-1.966,8.986-2.2a21.7,21.7,0,0,1,5.96-4.87l.753-.37a29.338,29.338,0,0,1,9.45-2.548,19.515,19.515,0,0,1,6.371-5.1l.009,0,.005-.005,9.439,18.813c-3.847,4.5-10.931,6.747-16.055,7.276a24.178,24.178,0,0,1-10.406,6.451,33.668,33.668,0,0,1-5.447,1.294.72.72,0,0,1-.06.1l-.326.342Z" transform="translate(-31.006 -19.877)" fill="#d9dfe7"/>
      <path id="Path_632" data-name="Path 632" d="M31.948,37.043l.006,0a23.022,23.022,0,0,1,8.4-1.945,34.44,34.44,0,0,1,5.584.166,51.117,51.117,0,0,1,9.711,2.072l.7.192a64.243,64.243,0,0,0,10.6,1.981,23.44,23.44,0,0,0,3.264.073c-3.634,3.6-9.745,5.32-14.17,5.659a29.766,29.766,0,0,1-12.484-1.41l-.9-.278c-2.668-.825-5.407-1.661-8.1-2.267h-.024l-.734-.172L34.8,43.351c2.385.592,4.813,1.314,7.191,2.05l.9.278a31.6,31.6,0,0,0,10.65,1.615,20.458,20.458,0,0,1-7.99,4.517,27.8,27.8,0,0,1-6.4,1.165l1.077,2.38.323-.349a.757.757,0,0,0,.059-.1,32.51,32.51,0,0,0,5.471-1.249,23.239,23.239,0,0,0,10.385-6.513c5.161-.457,12.271-2.664,16.073-7.256l-1.174-2.341a22.52,22.52,0,0,1-4.163.03,60.857,60.857,0,0,1-10.253-1.914l-.7-.2A56,56,0,0,0,46.2,33.33a31.934,31.934,0,0,0-3.385-.191A17.1,17.1,0,0,1,47,29.924a21.894,21.894,0,0,1,6.476-2.2,34.4,34.4,0,0,1,8.085-.386,38.226,38.226,0,0,1,5.076.759l-1.1-2.2a40.534,40.534,0,0,0-6.562-.629,17.2,17.2,0,0,1,4.564-3.354l-.86-1.714-.005.005-.009,0a18.749,18.749,0,0,0-6.332,5.174,28.148,28.148,0,0,0-9.483,2.469l-.752.37a20.9,20.9,0,0,0-5.92,4.946,26.1,26.1,0,0,0-9,2.112l-.009,0-.005.006.793,1.751Z" transform="translate(-31.155 -20.2)" fill="#002d5d"/>
    </g>
    <g id="Group_313" data-name="Group 313" transform="translate(7.509 107.554)">
      <path id="Path_633" data-name="Path 633" d="M4.841,59.935,2.248,39.046S3.7,39,5.537,39.038a42.288,42.288,0,0,1,5.576.431,22.277,22.277,0,0,1,6.726-3.178l.79-.173a29.811,29.811,0,0,1,9.5-.335,19.265,19.265,0,0,1,7.052-3.7l.01,0,.006,0,5.745,20.249c-4.74,3.752-12.419,4.533-17.655,3.867a24.157,24.157,0,0,1-12.1,3.706,38.161,38.161,0,0,1-5.821-.285.776.776,0,0,1-.091.082l-.429.241Z" transform="translate(-2.185 -31.581)" fill="#d9dfe7"/>
      <path id="Path_634" data-name="Path 634" d="M2.466,40.791h.007a23.3,23.3,0,0,1,8.3.506,35.475,35.475,0,0,1,5.24,1.618A62.442,62.442,0,0,1,24.9,47.2l.637.342A52.133,52.133,0,0,0,35.58,51.679a23.238,23.238,0,0,0,3.253.718c-4.375,2.849-10.906,3.3-15.382,2.614a27.509,27.509,0,0,1-11.9-4.441l-.8-.5C8.4,48.576,6.021,46.928,3.674,45.6l-.022-.007-.637-.371.3,2.443c2.072,1.223,4.193,2.639,6.3,4.015l.8.519A29.474,29.474,0,0,0,20.465,56.43a20.822,20.822,0,0,1-9.158,2.393,30.719,30.719,0,0,1-6.687-.678l.322,2.592.429-.249a.811.811,0,0,0,.091-.085,36.845,36.845,0,0,0,5.841.334,23.347,23.347,0,0,0,12.119-3.775c5.261.743,12.97.006,17.689-3.849L40.4,50.594a19.708,19.708,0,0,1-4.151-.755,51.444,51.444,0,0,1-9.693-3.978l-.639-.352a70.624,70.624,0,0,0-9.2-4.405c-1.237-.46-2.3-.786-3.153-1.042A17.745,17.745,0,0,1,18.252,38a22.153,22.153,0,0,1,6.619-.636,38.411,38.411,0,0,1,7.847,1.326,49.825,49.825,0,0,1,4.794,1.741l-.672-2.368a48.7,48.7,0,0,0-6.223-1.928,17.947,17.947,0,0,1,5.007-2.36L35.1,31.929l-.006,0-.01,0a18.451,18.451,0,0,0-7.019,3.774,28.458,28.458,0,0,0-9.5.248l-.788.173a21.292,21.292,0,0,0-6.694,3.259,26.493,26.493,0,0,0-8.838-.513h-.01l-.006,0,.236,1.907Z" transform="translate(-2.229 -31.929)" fill="#002d5d"/>
    </g>
    <g id="Group_314" data-name="Group 314" transform="translate(40.379 96.586)">
      <path id="Path_635" data-name="Path 635" d="M17.774,60.044l-5.745-20.25a57.2,57.2,0,0,1,9.052-.876A22.137,22.137,0,0,1,27.5,34.884l.779-.272a29.574,29.574,0,0,1,9.558-1.4,19.177,19.177,0,0,1,6.772-4.385l.01,0,.006,0,7.539,19.652c-4.34,4.1-11.737,5.641-16.95,5.547A24.2,24.2,0,0,1,23.9,59.142a34.542,34.542,0,0,1-5.675.513.775.775,0,0,1-.076.093l-.379.3Z" transform="translate(-11.888 -28.335)" fill="#d9dfe7"/>
      <path id="Path_636" data-name="Path 636" d="M12.512,41.486l.006,0a23.771,23.771,0,0,1,8.463-.709,33.425,33.425,0,0,1,5.47.917,53.789,53.789,0,0,1,9.362,3.23l.669.269A58.437,58.437,0,0,0,46.842,48.3a23.526,23.526,0,0,0,3.267.4c-4.025,3.248-10.38,4.309-14.854,4.122A28.6,28.6,0,0,1,22.987,49.86l-.857-.393c-2.522-1.139-5.13-2.43-7.683-3.409l-.023,0-.694-.275.672,2.368c2.252.908,4.565,2.021,6.825,3.075l.857.393A30.776,30.776,0,0,0,32.5,54.573a20.735,20.735,0,0,1-8.625,3.483,28.276,28.276,0,0,1-6.593.254L18,60.823l.377-.3a.777.777,0,0,0,.075-.1,33.439,33.439,0,0,0,5.7-.467,23.32,23.32,0,0,0,11.309-5.194c5.244.168,12.668-1.325,16.975-5.53l-.938-2.445a22.644,22.644,0,0,1-4.176-.389A55.209,55.209,0,0,1,37.306,43.4l-.672-.279a60.542,60.542,0,0,0-9.691-3.318c-1.3-.3-2.411-.5-3.3-.635a17.919,17.919,0,0,1,4.489-2.644,22.313,22.313,0,0,1,6.608-1.4,36.826,36.826,0,0,1,8.014.508,39.051,39.051,0,0,1,4.957,1.286l-.882-2.3A40.3,40.3,0,0,0,40.4,33.309a16.659,16.659,0,0,1,4.826-2.846l-.687-1.79-.006,0-.01,0a18.411,18.411,0,0,0-6.736,4.457,28.311,28.311,0,0,0-9.577,1.319l-.778.272a21.246,21.246,0,0,0-6.388,4.113A27.064,27.064,0,0,0,12,39.629l-.01,0-.006.005.525,1.849Z" transform="translate(-11.987 -28.673)" fill="#002d5d"/>
    </g>
    <g id="Group_315" data-name="Group 315" transform="translate(380.6 17.069)">
      <path id="Path_637" data-name="Path 637" d="M121.4,37.357l-8.353-19.321s1.487-.483,3.475-.98a33.641,33.641,0,0,1,6.015-1.086,22.235,22.235,0,0,1,6.679-4.569l.83-.313A28.191,28.191,0,0,1,140.2,9.451a19.68,19.68,0,0,1,7.446-4.23l.011,0,.006,0,6.193,20.116c-4.365,3.747-11.328,4.92-16.338,4.962a25.46,25.46,0,0,1-10.41,5.587,38.119,38.119,0,0,1-5.324,1.042.7.7,0,0,1-.061.1Z" transform="translate(-112.842 -4.722)" fill="#d9dfe7"/>
      <path id="Path_638" data-name="Path 638" d="M113.748,19.674l.007,0a23.779,23.779,0,0,1,8.811-1.811,30.668,30.668,0,0,1,5.748.462,41.79,41.79,0,0,1,9.617,2.887l.673.264a84.635,84.635,0,0,0,10.182,3.353,23.63,23.63,0,0,0,3.15.6c-4.028,2.916-10.044,3.786-14.389,3.687a34.279,34.279,0,0,1-12.236-2.355l-.89-.313a79.188,79.188,0,0,0-8.138-2.5h-.024l-.74-.177.977,2.26c2.385.588,4.856,1.43,7.191,2.244l.889.313A37.056,37.056,0,0,0,134.963,30.9a21.426,21.426,0,0,1-7.984,3.921,31.537,31.537,0,0,1-6.29.9l1.036,2.4.323-.344a.76.76,0,0,0,.06-.1,36.558,36.558,0,0,0,5.337-.993,24.249,24.249,0,0,0,10.37-5.64c5.033.036,12-1.084,16.322-4.93l-.771-2.5a23.124,23.124,0,0,1-4.045-.643,82.391,82.391,0,0,1-9.883-3.279l-.68-.284a45.824,45.824,0,0,0-10-3,32.054,32.054,0,0,0-3.484-.39,17.606,17.606,0,0,1,4.66-2.974,21.665,21.665,0,0,1,6.983-1.633,31.77,31.77,0,0,1,8.342.6,35.465,35.465,0,0,1,5,1.51l-.725-2.353a38.222,38.222,0,0,0-6.587-1.575A18.277,18.277,0,0,1,148.221,6.9l-.564-1.833-.006,0-.011,0a19.025,19.025,0,0,0-7.433,4.31,27.255,27.255,0,0,0-10.2,1.563l-.831.314a21.51,21.51,0,0,0-6.658,4.653A27.011,27.011,0,0,0,113,17.9l-.01,0-.005.006.763,1.764Z" transform="translate(-112.985 -5.067)" fill="#002d5d"/>
    </g>
    <g id="Group_316" data-name="Group 316" transform="translate(415.27 8.319)">
      <path id="Path_639" data-name="Path 639" d="M129.516,31.466l-6.194-20.117s6.364-1.272,9.7-.991A21.366,21.366,0,0,1,140.2,6.567l.864-.221a28.327,28.327,0,0,1,10.349-.454,19.228,19.228,0,0,1,8.318-3.265l.014,0,.009,0,2.931,20.843c-4.3,2.953-11.5,3.388-16.4,2.815a25.122,25.122,0,0,1-10.958,4.354,35.335,35.335,0,0,1-5.38.451.744.744,0,0,1-.07.092l-.352.291Z" transform="translate(-123.171 -2.112)" fill="#d9dfe7"/>
      <path id="Path_640" data-name="Path 640" d="M123.843,13.052l.007,0a22.975,22.975,0,0,1,9-.81,28.15,28.15,0,0,1,5.659,1.093,41.065,41.065,0,0,1,9.228,3.975l.638.346a99.848,99.848,0,0,0,9.645,4.566,28.452,28.452,0,0,0,2.966,1.021c-4.2,2.314-10.254,2.478-14.542,1.868a34.783,34.783,0,0,1-11.873-3.724l-.851-.418a71.911,71.911,0,0,0-7.81-3.384l-.024,0-.725-.26.725,2.353c2.331.874,4.662,1.945,6.895,3.017l.85.418a37.157,37.157,0,0,0,10.053,3.488,21.332,21.332,0,0,1-8.369,2.979,29.506,29.506,0,0,1-6.32.193l.769,2.5.349-.3a.73.73,0,0,0,.068-.095,33.863,33.863,0,0,0,5.387-.4,23.933,23.933,0,0,0,10.923-4.411c4.916.653,12.112.27,16.365-2.782l-.365-2.593a39.16,39.16,0,0,1-3.719-1.237,97.276,97.276,0,0,1-9.359-4.469l-.64-.356a43.927,43.927,0,0,0-9.6-4.145,32.172,32.172,0,0,0-3.424-.79,17.7,17.7,0,0,1,4.983-2.417,21.405,21.405,0,0,1,7.159-.824,31.434,31.434,0,0,1,8.281,1.6,34.41,34.41,0,0,1,4.847,2.173l-.343-2.438a38.305,38.305,0,0,0-6.513-2.418,17.041,17.041,0,0,1,5.893-2l-.267-1.9-.009,0-.014,0a18.65,18.65,0,0,0-8.333,3.349,27.427,27.427,0,0,0-10.385.375l-.865.222a20.715,20.715,0,0,0-7.159,3.878,26.2,26.2,0,0,0-9.723.908l-.011,0-.006.005.566,1.837Z" transform="translate(-123.278 -2.47)" fill="#002d5d"/>
    </g>
    <g id="Group_317" data-name="Group 317" transform="translate(315.255 44.537)">
      <path id="Path_641" data-name="Path 641" d="M102.563,47.5l-8.911-19.07s5.914-2.069,9.163-2.339a21.713,21.713,0,0,1,6.147-4.905l.775-.372a29.164,29.164,0,0,1,9.7-2.462,19.555,19.555,0,0,1,6.691-4.979l.01,0,.005-.005L134.891,32.5c-3.99,4.324-11.045,6.383-16.159,6.844a24.848,24.848,0,0,1-10.376,6.384,35.965,35.965,0,0,1-5.415,1.316.74.74,0,0,1-.059.1l-.319.346Z" transform="translate(-93.434 -12.893)" fill="#d9dfe7"/>
      <path id="Path_642" data-name="Path 642" d="M94.4,30.031l.006,0a23.28,23.28,0,0,1,8.547-2.07,31.553,31.553,0,0,1,5.666.145,48.257,48.257,0,0,1,9.769,2.143l.7.2a69.007,69.007,0,0,0,10.57,2.221,23.92,23.92,0,0,0,3.258.188c-3.742,3.458-9.837,5.024-14.261,5.3a31.356,31.356,0,0,1-12.5-1.47l-.908-.273c-2.682-.805-5.459-1.633-8.19-2.189h-.024l-.743-.157,1.042,2.23c2.406.535,4.869,1.258,7.258,1.974l.908.273a33.7,33.7,0,0,0,10.653,1.64,21.266,21.266,0,0,1-7.971,4.482,29.526,29.526,0,0,1-6.376,1.2l1.106,2.366.316-.354a.751.751,0,0,0,.057-.105,34.639,34.639,0,0,0,5.437-1.27,23.822,23.822,0,0,0,10.347-6.442c5.148-.388,12.222-2.4,16.167-6.82l-1.088-2.382a22.769,22.769,0,0,1-4.162-.118,66.52,66.52,0,0,1-10.235-2.157l-.7-.214a51.516,51.516,0,0,0-10.133-2.211,32.354,32.354,0,0,0-3.442-.2,17.722,17.722,0,0,1,4.314-3.222,21.573,21.573,0,0,1,6.645-2.162,34.073,34.073,0,0,1,8.217-.243,37.913,37.913,0,0,1,5.107.912l-1.023-2.239a39.382,39.382,0,0,0-6.634-.809,17.545,17.545,0,0,1,4.782-3.245l-.8-1.744-.006.005-.01,0a18.842,18.842,0,0,0-6.659,5.053,28.063,28.063,0,0,0-9.737,2.386l-.774.372a20.956,20.956,0,0,0-6.111,4.983A26.494,26.494,0,0,0,93.6,28.279l-.01,0-.005.006.814,1.741Z" transform="translate(-93.587 -13.221)" fill="#002d5d"/>
    </g>
    <g id="Group_318" data-name="Group 318" transform="translate(347.748 29.915)">
      <path id="Path_643" data-name="Path 643" d="M112.045,42.779,103.3,23.634s5.965-2.026,9.227-2.26a21.765,21.765,0,0,1,6.246-4.828l.785-.359a29,29,0,0,1,9.769-2.3,19.588,19.588,0,0,1,6.8-4.852l.01,0,.006-.005,8.353,19.32c-4.071,4.245-11.143,6.144-16.246,6.526a24.957,24.957,0,0,1-10.418,6.217,36.473,36.473,0,0,1-5.4,1.25.762.762,0,0,1-.059.1l-.32.343Z" transform="translate(-103.083 -8.549)" fill="#d9dfe7"/>
      <path id="Path_644" data-name="Path 644" d="M104.032,25.246l.006,0a23.27,23.27,0,0,1,8.6-2,31.643,31.643,0,0,1,5.677.218,47.573,47.573,0,0,1,9.739,2.3l.693.216A69.8,69.8,0,0,0,139.265,28.4a23.771,23.771,0,0,0,3.25.255c-3.808,3.376-9.91,4.818-14.327,5.025a31.726,31.726,0,0,1-12.458-1.659l-.9-.283c-2.67-.833-5.443-1.7-8.173-2.271h-.024l-.743-.163,1.023,2.239c2.4.55,4.861,1.3,7.239,2.045l.9.283a34.027,34.027,0,0,0,10.61,1.79,21.244,21.244,0,0,1-8,4.363,29.837,29.837,0,0,1-6.365,1.127l1.086,2.376.317-.35a.8.8,0,0,0,.058-.1,35.051,35.051,0,0,0,5.424-1.2,23.9,23.9,0,0,0,10.388-6.275c5.135-.309,12.225-2.16,16.252-6.5l-1.039-2.4a22.769,22.769,0,0,1-4.155-.2,67.891,67.891,0,0,1-10.188-2.355l-.7-.227a50.858,50.858,0,0,0-10.106-2.373,32.3,32.3,0,0,0-3.446-.238,17.571,17.571,0,0,1,4.378-3.167,21.479,21.479,0,0,1,6.7-2.056,33.675,33.675,0,0,1,8.233-.091,37.764,37.764,0,0,1,5.089,1.012l-.977-2.26a39.73,39.73,0,0,0-6.623-.941,17.716,17.716,0,0,1,4.854-3.15l-.761-1.76-.006.005-.01,0a18.875,18.875,0,0,0-6.772,4.926,27.924,27.924,0,0,0-9.805,2.227l-.785.36a21.009,21.009,0,0,0-6.212,4.907,26.442,26.442,0,0,0-9.248,2.176l-.01,0-.005.006.8,1.748Z" transform="translate(-103.233 -8.881)" fill="#002d5d"/>
    </g>
    <g id="Group_319" data-name="Group 319" transform="translate(250.712 74.627)">
      <path id="Path_645" data-name="Path 645" d="M82.134,55.669,74.482,36.059A57.47,57.47,0,0,1,83.6,34.307a21.843,21.843,0,0,1,6.2-4.589l.767-.342a30.243,30.243,0,0,1,9.551-2.176,19.56,19.56,0,0,1,6.594-4.9l.009,0,.006-.005,8.792,19.124c-3.978,4.353-11.351,6.452-16.534,6.764a24.711,24.711,0,0,1-10.852,6.038,36.929,36.929,0,0,1-5.584,1.021.773.773,0,0,1-.066.1l-.348.329Z" transform="translate(-74.296 -21.826)" fill="#d9dfe7"/>
      <path id="Path_646" data-name="Path 646" d="M75.125,37.7l.007,0a23.683,23.683,0,0,1,8.519-1.525,31.8,31.8,0,0,1,5.594.423,53.635,53.635,0,0,1,9.661,2.461l.694.222A60.579,60.579,0,0,0,110.218,41.6a23.468,23.468,0,0,0,3.288.181c-3.79,3.48-10.089,5.056-14.571,5.2A29.654,29.654,0,0,1,86.42,45.057l-.892-.315c-2.64-.943-5.362-1.952-8.031-2.679l-.024,0-.726-.2.9,2.293c2.353.687,4.768,1.56,7.126,2.413l.9.325a32.711,32.711,0,0,0,10.661,2.076,21.726,21.726,0,0,1-8.311,4.18,30.123,30.123,0,0,1-6.533.848l.95,2.433.345-.337a.72.72,0,0,0,.065-.1,35.528,35.528,0,0,0,5.607-.976,23.769,23.769,0,0,0,10.837-6.1c5.216-.239,12.622-2.3,16.555-6.746l-1.094-2.38a22.827,22.827,0,0,1-4.178-.1,60.9,60.9,0,0,1-10.262-2.237l-.7-.232a55.588,55.588,0,0,0-10-2.527,32.638,32.638,0,0,0-3.392-.362,18.3,18.3,0,0,1,4.346-3.014,20.98,20.98,0,0,1,6.578-1.929,34.086,34.086,0,0,1,8.106-.112,39.843,39.843,0,0,1,5.091.916L109.3,27.946a44.586,44.586,0,0,0-6.589-.841,17.741,17.741,0,0,1,4.727-3.209l-.8-1.742-.006.005-.009,0a18.781,18.781,0,0,0-6.557,4.969,28.959,28.959,0,0,0-9.577,2.1l-.767.342a21.024,21.024,0,0,0-6.16,4.665A27.008,27.008,0,0,0,74.442,35.9l-.01,0-.005.006.7,1.79Z" transform="translate(-74.427 -22.154)" fill="#002d5d"/>
    </g>
    <g id="Group_320" data-name="Group 320" transform="translate(282.925 59.609)">
      <path id="Path_647" data-name="Path 647" d="M92.846,51.974,84.053,32.849s5.908-2.024,9.147-2.282a21.777,21.777,0,0,1,6.127-4.881l.771-.369a29.283,29.283,0,0,1,9.651-2.467,19.6,19.6,0,0,1,6.622-5.006l.009,0,.006-.005L125.3,36.9c-3.976,4.376-11.071,6.477-16.2,6.949a24.819,24.819,0,0,1-10.432,6.38,35.457,35.457,0,0,1-5.438,1.294.746.746,0,0,1-.06.1l-.322.345Z" transform="translate(-83.838 -17.368)" fill="#d9dfe7"/>
      <path id="Path_648" data-name="Path 648" d="M84.792,34.455l.007,0a23.373,23.373,0,0,1,8.535-2.018,32.1,32.1,0,0,1,5.654.165,49.477,49.477,0,0,1,9.762,2.145l.7.2a66.851,66.851,0,0,0,10.6,2.171,23.779,23.779,0,0,0,3.269.159c-3.736,3.5-9.859,5.1-14.294,5.386A30.988,30.988,0,0,1,96.505,41.18L95.6,40.9c-2.678-.813-5.45-1.657-8.176-2.232H87.4l-.742-.162,1.028,2.237c2.4.549,4.861,1.291,7.247,2.014l.907.276a33.271,33.271,0,0,0,10.667,1.66A21.217,21.217,0,0,1,98.5,49.171a29.219,29.219,0,0,1-6.4,1.174l1.091,2.373.319-.352a.758.758,0,0,0,.058-.105,34.09,34.09,0,0,0,5.46-1.248,23.807,23.807,0,0,0,10.406-6.439c5.164-.4,12.281-2.455,16.213-6.927l-1.109-2.372a22.814,22.814,0,0,1-4.174-.08,64.525,64.525,0,0,1-10.256-2.1l-.7-.212a52.855,52.855,0,0,0-10.123-2.211,32.46,32.46,0,0,0-3.432-.2,17.632,17.632,0,0,1,4.3-3.21,21.56,21.56,0,0,1,6.616-2.158,34.353,34.353,0,0,1,8.192-.27,38.233,38.233,0,0,1,5.1.876l-1.042-2.23A40.067,40.067,0,0,0,112.4,22.7a17.539,17.539,0,0,1,4.735-3.269l-.812-1.737-.005.005-.01,0a18.861,18.861,0,0,0-6.588,5.079,28.138,28.138,0,0,0-9.687,2.389l-.771.37A21.006,21.006,0,0,0,93.17,30.5,26.592,26.592,0,0,0,84,32.7l-.01,0-.005.006.8,1.746Z" transform="translate(-83.99 -17.696)" fill="#002d5d"/>
    </g>
    <g id="Group_321" data-name="Group 321" transform="translate(184.362 99.939)">
      <path id="Path_649" data-name="Path 649" d="M58.98,59.16,54.761,38.539s1.5-.16,3.391-.257a42.207,42.207,0,0,1,5.754.035,21.758,21.758,0,0,1,6.741-3.57l.8-.225a30.646,30.646,0,0,1,9.689-.768,19.923,19.923,0,0,1,7.1-3.932l.01,0,.006,0,6.233,20.1c-4.652,3.849-12.235,4.875-17.473,4.441A24.631,24.631,0,0,1,65.228,58.7a37.741,37.741,0,0,1-5.76.1.791.791,0,0,1-.084.088l-.4.268Z" transform="translate(-54.657 -29.323)" fill="#d9dfe7"/>
      <path id="Path_650" data-name="Path 650" d="M55.115,40.263l.007,0a23.962,23.962,0,0,1,8.545-.094,31.818,31.818,0,0,1,5.423,1.288,57.167,57.167,0,0,1,9.173,3.858l.656.32a57.048,57.048,0,0,0,10.206,3.782,21.916,21.916,0,0,0,3.27.624c-4.3,2.95-10.766,3.637-15.265,3.128A28.906,28.906,0,0,1,65.005,49.38l-.831-.449c-2.459-1.353-4.976-2.806-7.466-3.967l-.023-.005-.676-.323.493,2.412c2.193,1.069,4.43,2.33,6.627,3.558l.836.467a32.269,32.269,0,0,0,10.27,3.683,22.079,22.079,0,0,1-8.952,2.868,30.622,30.622,0,0,1-6.664-.227l.524,2.559.4-.277a.826.826,0,0,0,.083-.09,36.413,36.413,0,0,0,5.779-.055,23.737,23.737,0,0,0,11.781-4.409c5.264.51,12.872-.471,17.5-4.422l-.775-2.5a20.5,20.5,0,0,1-4.174-.641,58.19,58.19,0,0,1-9.86-3.639l-.658-.33a57.888,57.888,0,0,0-9.5-3.965,32.818,32.818,0,0,0-3.272-.886,18.589,18.589,0,0,1,4.7-2.308,20.514,20.514,0,0,1,6.734-.939A34.521,34.521,0,0,1,85.9,36.514a46.406,46.406,0,0,1,4.889,1.594l-.729-2.351A47.882,47.882,0,0,0,83.7,34.023,18.537,18.537,0,0,1,88.737,31.5l-.568-1.831-.006,0-.01,0a19.1,19.1,0,0,0-7.065,4.007,29.291,29.291,0,0,0-9.7.682l-.8.225a20.9,20.9,0,0,0-6.71,3.651,27.4,27.4,0,0,0-9.133.133l-.01,0-.006,0,.385,1.883Z" transform="translate(-54.73 -29.668)" fill="#002d5d"/>
    </g>
    <g id="Group_322" data-name="Group 322" transform="translate(217.8 88.386)">
      <path id="Path_651" data-name="Path 651" d="M70.935,58.047,64.7,37.942a59.244,59.244,0,0,1,9.182-1.1,21.7,21.7,0,0,1,6.475-4.155l.787-.291a30.151,30.151,0,0,1,9.661-1.546,19.823,19.823,0,0,1,6.828-4.457l.01,0,.006,0L105.3,45.989c-4.346,4.156-11.77,5.732-16.994,5.721a24.756,24.756,0,0,1-11.262,5.307,37.145,37.145,0,0,1-5.664.631.752.752,0,0,1-.074.095l-.372.3Z" transform="translate(-64.55 -25.902)" fill="#d9dfe7"/>
      <path id="Path_652" data-name="Path 652" d="M65.225,39.623l.007,0A23.819,23.819,0,0,1,73.81,38.7a31.763,31.763,0,0,1,5.543.8,54.942,54.942,0,0,1,9.473,3.091l.678.266a58.91,58.91,0,0,0,10.445,3,22.954,22.954,0,0,0,3.294.388c-4.054,3.247-10.409,4.4-14.909,4.26a29.54,29.54,0,0,1-12.368-2.756l-.868-.374c-2.569-1.12-5.215-2.323-7.82-3.238l-.023,0-.708-.256.729,2.352c2.3.852,4.644,1.893,6.939,2.91l.873.387A32.719,32.719,0,0,0,85.6,52.319,21.9,21.9,0,0,1,77,55.937a30.236,30.236,0,0,1-6.6.39l.773,2.5.37-.312a.78.78,0,0,0,.073-.1,35.783,35.783,0,0,0,5.685-.585,23.825,23.825,0,0,0,11.253-5.372c5.254.086,12.7-1.446,17.017-5.7l-.952-2.44a20.706,20.706,0,0,1-4.2-.346,59.028,59.028,0,0,1-10.095-2.893l-.681-.276a56.5,56.5,0,0,0-9.81-3.177,32.726,32.726,0,0,0-3.354-.592,18.3,18.3,0,0,1,4.527-2.711,20.769,20.769,0,0,1,6.68-1.494,34.827,34.827,0,0,1,8.093.408,44.761,44.761,0,0,1,5,1.237l-.9-2.294A45.511,45.511,0,0,0,93.4,30.915a18.237,18.237,0,0,1,4.866-2.891l-.7-1.786-.006,0-.01,0a19.022,19.022,0,0,0-6.793,4.529,28.864,28.864,0,0,0-9.682,1.463l-.786.291a20.888,20.888,0,0,0-6.44,4.234,27.2,27.2,0,0,0-9.182,1.015l-.01,0-.005.005.569,1.836Z" transform="translate(-64.657 -26.239)" fill="#002d5d"/>
    </g>
    <g id="Group_323" data-name="Group 323" transform="translate(113.048 109.9)">
      <path id="Path_653" data-name="Path 653" d="M33.6,53.019l5.758-20.246s1.232.489,2.762,1.22a30.111,30.111,0,0,1,4.772,2.261,20.642,20.642,0,0,1,7.068-.974l.782.043a32.8,32.8,0,0,1,8.983,2.257,19.786,19.786,0,0,1,7.641-1.8h.01l.007,0,.654,21.038c-5.657,2.476-13.617,1.275-18.662-.941A23.412,23.412,0,0,1,40,55.439a26.645,26.645,0,0,1-5.749-2.5.881.881,0,0,1-.124.037l-.525.043Z" transform="translate(-33.472 -32.276)" fill="#d9dfe7"/>
      <path id="Path_654" data-name="Path 654" d="M39.058,34.475l.006,0a26.244,26.244,0,0,1,7.094,3.383c1.051.834,1.924,1.16,4.318,3.163a93.271,93.271,0,0,1,7.232,6.713l.524.516A49.728,49.728,0,0,0,67,54.882a23.842,23.842,0,0,0,3.039,1.467c-5.05,1.778-11.769.409-16.01-1.557A25.95,25.95,0,0,1,48.06,51.22,23.841,23.841,0,0,1,43.8,46.844l-.587-.756-2.536-3.337-2.4-3.382-.017-.015-.423-.587-.674,2.368c1.4,1.919,2.841,4.144,4.393,6.067l.589.756a26.284,26.284,0,0,0,8.486,7.331,20.463,20.463,0,0,1-9.957-.809,23.885,23.885,0,0,1-6.4-3.184l-.714,2.512.53-.05a.841.841,0,0,0,.125-.04,26.284,26.284,0,0,0,5.769,2.558,22.81,22.81,0,0,0,13.439.382c5.055,2.3,13.045,3.549,18.711.967l-.081-2.618a23.01,23.01,0,0,1-3.921-1.759,47.207,47.207,0,0,1-8.454-6.336l-.524-.5a86.475,86.475,0,0,0-7.482-6.882c-1-.836-1.875-1.489-2.583-1.967A16.628,16.628,0,0,1,54,37.036a20.67,20.67,0,0,1,6.361,1.235,40.166,40.166,0,0,1,7.152,3.31,41.384,41.384,0,0,1,4.216,2.868l-.076-2.461A41.924,41.924,0,0,0,66.128,38.6a16.018,16.018,0,0,1,5.383-1.07l-.06-1.916-.007,0h-.01A18.861,18.861,0,0,0,63.816,37.5a31.017,31.017,0,0,0-8.946-2.34l-.778-.042a19.662,19.662,0,0,0-7.045,1.062A29.106,29.106,0,0,0,39.6,32.627l-.009,0-.007,0-.526,1.849Z" transform="translate(-33.56 -32.625)" fill="#002d5d"/>
    </g>
    <g id="Group_324" data-name="Group 324" transform="translate(150.94 108.656)">
      <path id="Path_655" data-name="Path 655" d="M45.466,57.685l-.653-21.039,3.3.309a30.712,30.712,0,0,1,5.513.955A19.913,19.913,0,0,1,60.608,35.3l.8-.12a30.27,30.27,0,0,1,9.538.386,19.7,19.7,0,0,1,7.356-3.154l.01,0,.006,0,4.219,20.621c-5.068,3.4-12.891,3.582-18.11,2.529a24.1,24.1,0,0,1-12.57,2.651,31.141,31.141,0,0,1-5.843-.78.8.8,0,0,1-.1.07l-.453.188Z" transform="translate(-44.797 -31.902)" fill="#d9dfe7"/>
      <path id="Path_656" data-name="Path 656" d="M44.868,38.407h.007a23.041,23.041,0,0,1,8.246,1.285,37.43,37.43,0,0,1,5.105,2.015,71.5,71.5,0,0,1,8.567,5l.613.394a51.411,51.411,0,0,0,9.777,4.888,24.034,24.034,0,0,0,3.225.966,20.439,20.439,0,0,1-7.921,2.067,29.825,29.825,0,0,1-7.8-.636,27.635,27.635,0,0,1-11.6-5.406l-.758-.585c-2.234-1.744-4.46-3.474-6.7-5.074l-.021-.01-.606-.445.076,2.461,5.952,4.558.758.584a28.709,28.709,0,0,0,9.765,5.1,20.559,20.559,0,0,1-9.473,1.58,25.824,25.824,0,0,1-6.675-1.262l.081,2.611.453-.2a.724.724,0,0,0,.1-.073,30.29,30.29,0,0,0,5.862.83A23.326,23.326,0,0,0,64.5,56.339c5.239,1.131,13.091,1,18.146-2.509l-.525-2.566A19.124,19.124,0,0,1,78,50.205a51.485,51.485,0,0,1-9.436-4.694l-.614-.4a73.689,73.689,0,0,0-8.864-5.131,32.713,32.713,0,0,0-3.066-1.309,16.139,16.139,0,0,1,4.858-1.627,19.988,19.988,0,0,1,6.68-.13,38,38,0,0,1,7.765,1.91c1.2.485,3.83,1.588,4.681,2.093L79.509,38.5a51.994,51.994,0,0,0-6.1-2.391,18.621,18.621,0,0,1,5.2-1.976l-.384-1.878-.006,0-.01,0a18.848,18.848,0,0,0-7.327,3.23,28.856,28.856,0,0,0-9.532-.473l-.8.12a19.166,19.166,0,0,0-6.96,2.695,25.8,25.8,0,0,0-8.77-1.351h-.01l-.006,0,.06,1.921Z" transform="translate(-44.808 -32.256)" fill="#002d5d"/>
    </g>
    <g id="Group_325" data-name="Group 325" transform="translate(88.481 9.795)">
      <path id="Path_657" data-name="Path 657" d="M62.288,3.04l5,20.446-3.125.315a27.133,27.133,0,0,1-5.3.3,20.491,20.491,0,0,1-5.439,4.258l-.647.332A31.3,31.3,0,0,1,44.6,31.162a19.039,19.039,0,0,1-4.184,5.5l-.006.006,0,.005L26.358,21c1.574-3.119,4.567-5.546,7.695-7.456a39.166,39.166,0,0,1,4.859-2.181,26.642,26.642,0,0,1,4.6-1.066,21.209,21.209,0,0,1,5.625-4.057A20.867,20.867,0,0,1,55.645,4a24.682,24.682,0,0,1,6.134-.587.845.845,0,0,1,.087-.091l.423-.286Z" transform="translate(-26.051 -2.594)" fill="#d9dfe7"/>
      <path id="Path_658" data-name="Path 658" d="M67.174,22.432l-.006,0a24.707,24.707,0,0,1-7.972.492,44.873,44.873,0,0,1-5.242-.681c-3.832-.75-6.114-1.268-9.579-2.18l-.705-.133a33.324,33.324,0,0,0-11.258-.324,17.558,17.558,0,0,0-3.565.814c3.4-4.806,10.267-7.921,15.1-8.282a22.121,22.121,0,0,1,7.105.049,23.04,23.04,0,0,1,5.876,1.738l.881.384c2.594,1.145,5.118,2.3,7.611,3.474l.023.005.67.309-.585-2.391c-2.212-1.052-4.508-2.19-6.807-3.158l-.882-.384A25.432,25.432,0,0,0,46.744,9.9a20.865,20.865,0,0,1,9.23-4.159A33.611,33.611,0,0,1,59.6,5.293a29.705,29.705,0,0,1,3.418.152l-.621-2.537-.423.295a.819.819,0,0,0-.086.094,24.3,24.3,0,0,0-6.174.545,20.436,20.436,0,0,0-6.54,2.241,20.886,20.886,0,0,0-5.63,4.133,26.187,26.187,0,0,0-4.65,1.032,37.948,37.948,0,0,0-4.9,2.173c-3.155,1.916-6.163,4.372-7.72,7.547l1.748,1.951a14.961,14.961,0,0,1,4.39-1.3,42.267,42.267,0,0,1,5.412-.37,37.64,37.64,0,0,1,5.361.625l.709.143c3.292.659,5.922,1.5,9.776,2.1,1.271.254,2.332.414,3.166.5a20.216,20.216,0,0,1-3.844,2.822A23.835,23.835,0,0,1,47.289,29.5c-1.173.266-2.474.421-3.707.609a28.862,28.862,0,0,1-3.613.438c-1.258,0-3.926.257-4.9.241l1.643,1.834c2.445-.174,4.637-.27,6.069-.409a22.074,22.074,0,0,1-3.1,3.728l1.279,1.428,0-.005.006-.006a17.818,17.818,0,0,0,4.083-5.521,29.109,29.109,0,0,0,8.167-2.362l.641-.329a19.493,19.493,0,0,0,5.365-4.32,27.153,27.153,0,0,0,8.389-.519l.009,0,.005,0-.457-1.867Z" transform="translate(-26.267 -2.908)" fill="#002d5d"/>
    </g>
    <g id="Group_326" data-name="Group 326" transform="translate(68.809 27.857)">
      <path id="Path_659" data-name="Path 659" d="M40.056,8.371,54.1,24.048,51.73,25.6a26.954,26.954,0,0,1-4.007,2.626,16.907,16.907,0,0,1-.457,2.558,13.2,13.2,0,0,1-.549,1.648,9.849,9.849,0,0,1-.614,1.786l-.291.572c-.8,1.292-1.44,2.522-2.215,3.581-.389.528-.8,1.018-1.2,1.473l-.968,1.337a12.062,12.062,0,0,1,.543,3.2,14.022,14.022,0,0,1,.1,3.376v.014L21.1,45.985a19.621,19.621,0,0,1-.5-5.4,33.578,33.578,0,0,1,1.2-5.652,24.253,24.253,0,0,1,2.434-5.124c.462-.782.934-1.522,1.407-2.211.55-.655,1.1-1.261,1.63-1.812a20.362,20.362,0,0,1,2.463-7.057,32.86,32.86,0,0,1,2.021-3.16,26.076,26.076,0,0,1,2.622-2.7c.954-.861,1.836-1.644,2.716-2.3.919-.6,1.8-1.123,2.657-1.588a.884.884,0,0,1,.038-.127l.262-.478Z" transform="translate(-20.075 -8.029)" fill="#d9dfe7"/>
      <path id="Path_660" data-name="Path 660" d="M53.514,23.24l0,0a24.652,24.652,0,0,1-6.2,3.931,38.362,38.362,0,0,1-4.55,2.09c-1.741.707-3.024,1.4-4.461,1.972A38.384,38.384,0,0,0,33.983,33.2l-.64.344A27.588,27.588,0,0,0,28.6,36.713a41.356,41.356,0,0,0-4.067,4.171A14.462,14.462,0,0,0,22.551,44c-.641-2.966.279-6.312,1.254-9.376,1.424-2.962,2.961-5.741,4.9-7.492a20.557,20.557,0,0,1,5.943-4.447A20.1,20.1,0,0,1,40.589,20.8l.963-.136a75.863,75.863,0,0,1,8.248-.707l.022-.006.714-.032-1.643-1.834a62.959,62.959,0,0,0-7.461.592l-.965.137a18.878,18.878,0,0,0-5.386,1.469,21.555,21.555,0,0,0-5.333,3.2A18.079,18.079,0,0,1,32,18.507a16.022,16.022,0,0,1,3.552-4.222,28.186,28.186,0,0,1,3.069-2.422,31.344,31.344,0,0,1,3.224-1.648L40.1,8.27l-.259.487a.855.855,0,0,0-.037.13c-.871.461-1.762.983-2.693,1.583-.892.652-1.786,1.437-2.751,2.3a25.592,25.592,0,0,0-2.65,2.722,31.918,31.918,0,0,0-2.035,3.191,20.2,20.2,0,0,0-2.436,7.144c-.544.552-1.1,1.16-1.664,1.818-.483.692-.966,1.436-1.438,2.222a24.035,24.035,0,0,0-2.479,5.163,32.659,32.659,0,0,0-1.212,5.7,19.238,19.238,0,0,0,.544,5.452l2.61.223a22.952,22.952,0,0,1,2.28-4.013,32.784,32.784,0,0,1,3.867-3.977,19.8,19.8,0,0,1,4.422-3.078L34.819,35c2.9-1.6,5.5-2.5,8.82-4.1,1.1-.486,2.1-.849,2.785-1.2a13.689,13.689,0,0,1-.515,1.953,13.59,13.59,0,0,1-.727,2.192,26.723,26.723,0,0,1-2.958,4.66c-.81.84-1.545,1.765-2.28,2.69a31.122,31.122,0,0,1-2.47,2.614c-.787.837-2.573,2.837-3.345,3.488l2.453.209c1.826-1.772,3.032-3.34,4.131-4.306a19.509,19.509,0,0,1,.31,4.685l1.91.163,0-.006v-.008a13.049,13.049,0,0,0-.129-3.336,11.612,11.612,0,0,0-.609-3.177l.991-1.31c.414-.445.828-.924,1.222-1.441.784-1.036,1.428-2.242,2.216-3.512l.286-.564a9.2,9.2,0,0,0,.589-1.767,12.426,12.426,0,0,0,.517-1.642,16.383,16.383,0,0,0,.4-2.563,28.253,28.253,0,0,0,6.372-4.049l.006-.006,0-.006L53.514,23.24Z" transform="translate(-20.427 -8.27)" fill="#002d5d"/>
    </g>
    <g id="Group_327" data-name="Group 327" transform="translate(161.42 6.372)">
      <path id="Path_661" data-name="Path 661" d="M87.233,12.27l-8.05,19.449s-1.279-.684-2.842-1.639a37.3,37.3,0,0,1-4.6-3.054,22.153,22.153,0,0,1-7.234-.311l-.752-.2a21.3,21.3,0,0,1-4.719-1.761,34.642,34.642,0,0,1-3.585-1.924,19.26,19.26,0,0,1-7.5.7h-.016L49.955,2.578c6.211-1.7,14.176.912,18.736,3.945A24.247,24.247,0,0,1,81.57,9.133a30.347,30.347,0,0,1,5.043,3.152.834.834,0,0,1,.121-.025l.5.009Z" transform="translate(-47.885 -1.538)" fill="#d9dfe7"/>
      <path id="Path_662" data-name="Path 662" d="M79.755,30.772l-.006,0a25.2,25.2,0,0,1-6.941-4.5,50.566,50.566,0,0,1-3.793-3.883,95.28,95.28,0,0,1-5.965-7.865l-.429-.6a42.243,42.243,0,0,0-7.7-7.979,24.067,24.067,0,0,0-2.9-1.9c5.488-1.092,12.049,1.513,15.889,4.144a25.5,25.5,0,0,1,8.684,9.583l.46.832c1.367,2.415,2.644,5.03,4.025,7.382l.015.017.371.642.942-2.275c-1.211-2.086-2.343-4.451-3.556-6.624l-.461-.832a26.918,26.918,0,0,0-7.051-8.591,20.379,20.379,0,0,1,9.5,2.368,25.9,25.9,0,0,1,5.612,3.918l1-2.414-.5,0a.8.8,0,0,0-.122.027,29.6,29.6,0,0,0-5.041-3.206,23.55,23.55,0,0,0-12.94-2.562C64.282,3.343,56.281.672,50.034,2.475l-.252,2.607A23.3,23.3,0,0,1,53.534,7.4a41.026,41.026,0,0,1,7.437,7.578l.426.606a97.666,97.666,0,0,0,6.169,8.076,32.512,32.512,0,0,0,2.245,2.367,15.346,15.346,0,0,1-4.978-.335,19.508,19.508,0,0,1-5.979-2.307,42.92,42.92,0,0,1-6.378-4.346A45.42,45.42,0,0,1,48.768,15.6l-.236,2.451a44.438,44.438,0,0,0,4.828,4.121,14.681,14.681,0,0,1-5.256.315l-.184,1.909.006,0h.009a18.262,18.262,0,0,0,7.471-.78,33.083,33.083,0,0,0,3.557,1.977,20.2,20.2,0,0,0,4.689,1.783l.748.194a21.126,21.126,0,0,0,7.232.221,25.006,25.006,0,0,0,3.587,2.7A20.937,20.937,0,0,0,79,32.544l.009,0h.007l.735-1.776Z" transform="translate(-47.919 -1.892)" fill="#002d5d"/>
    </g>
    <g id="Group_328" data-name="Group 328" transform="translate(124.608 5.346)">
      <path id="Path_663" data-name="Path 663" d="M75.8,3.3,73.775,24.251l-3.089-.664c-1.715-.453-3.792-.953-5.182-1.484a23.782,23.782,0,0,1-6.837,2.044L57.9,24.2a32.706,32.706,0,0,1-9.047-.788,20.557,20.557,0,0,1-6.81,3.148l-.009,0-.006,0-5-20.445c5.334-3.8,13.719-3.779,19.02-2.449a26.281,26.281,0,0,1,6.491-1.78,27,27,0,0,1,6.74.117,40.51,40.51,0,0,1,5.92,1.48.82.82,0,0,1,.112-.061c.161-.059.328-.088.491-.129Z" transform="translate(-36.915 -1.229)" fill="#d9dfe7"/>
      <path id="Path_664" data-name="Path 664" d="M73.987,23.207h-.006A24.293,24.293,0,0,1,66.2,21.072a41.37,41.37,0,0,1-4.772-2.493,96.5,96.5,0,0,1-8.18-5.468l-.6-.413a40.914,40.914,0,0,0-9.892-5.029,15.428,15.428,0,0,0-3.376-.854,19.71,19.71,0,0,1,8.336-2.188,29.226,29.226,0,0,1,8.051.9,31.331,31.331,0,0,1,6.474,2.591,31.294,31.294,0,0,1,4.886,3.693l.7.634c2.051,1.921,4.051,4.035,6.033,5.8l.019.011.533.508.236-2.451-5.374-5.228-.7-.676a26.753,26.753,0,0,0-9.5-5.859,20.83,20.83,0,0,1,9.9-.808A30.72,30.72,0,0,1,75.666,5.8l.251-2.6c-.164.044-.331.076-.493.137a.826.826,0,0,0-.112.064A39.15,39.15,0,0,0,69.37,1.869,26.121,26.121,0,0,0,62.6,1.75,25.568,25.568,0,0,0,56.088,3.6c-5.323-1.41-13.76-1.472-19.1,2.435l.623,2.544a20.867,20.867,0,0,1,4.3.874,41.22,41.22,0,0,1,9.522,4.8l.6.424c2.8,1.93,4.945,3.533,8.439,5.591,1.121.639,2.083,1.113,2.856,1.528a18.325,18.325,0,0,1-4.759,1.312,23.11,23.11,0,0,1-6.391-.227,43.27,43.27,0,0,1-7.452-2.066C43.567,20.3,41,19.362,40.126,18.84l.585,2.391C43.066,22.284,45.15,23,46.6,23.54a20.179,20.179,0,0,1-4.834,2.02l.456,1.862.005,0,.009,0A19.423,19.423,0,0,0,49,24.2a30.74,30.74,0,0,0,9.016.877l.763-.051a22.516,22.516,0,0,0,6.8-2.129,27.535,27.535,0,0,0,8.209,2.228H73.8l.006,0,.185-1.913Z" transform="translate(-36.991 -1.587)" fill="#002d5d"/>
    </g>
    <g id="Group_329" data-name="Group 329" transform="translate(287.254 66.459)">
      <path id="Path_665" data-name="Path 665" d="M126.306,32.363,119.18,52.169S113.5,49.462,111,47.329a21.462,21.462,0,0,1-7.873-.943l-.817-.3a29.081,29.081,0,0,1-8.632-5.276,19.939,19.939,0,0,1-8.324-1.473l-.01,0h-.007L93.31,19.859c5.81-.09,12.047,3.532,15.933,6.83a24.91,24.91,0,0,1,11.742,2.844,35.557,35.557,0,0,1,4.74,2.883.705.705,0,0,1,.113-.032Z" transform="translate(-85.137 -19.427)" fill="#d9dfe7"/>
      <path id="Path_666" data-name="Path 666" d="M119.794,51.147l-.007,0a23.228,23.228,0,0,1-7.547-4.589,31.473,31.473,0,0,1-3.914-4.128A46.393,46.393,0,0,1,103,33.946l-.338-.644a77.362,77.362,0,0,0-5.679-9.144A23.636,23.636,0,0,0,94.9,21.682c5.024.318,10.286,3.591,13.561,6.537a32.213,32.213,0,0,1,7.7,9.9l.447.836c1.326,2.466,2.71,5.01,4.258,7.336l.017.017.417.637.833-2.317c-1.331-2.078-2.564-4.331-3.748-6.522l-.449-.834a34.538,34.538,0,0,0-6.3-8.7,21.273,21.273,0,0,1,8.735,2.478,29.275,29.275,0,0,1,5.34,3.642l.884-2.458-.472.028a.742.742,0,0,0-.114.035,34.15,34.15,0,0,0-4.721-2.93,23.843,23.843,0,0,0-11.759-2.781c-3.856-3.373-10.067-7.039-15.911-6.849l-.993,2.424a24.114,24.114,0,0,1,2.74,3.087,75.557,75.557,0,0,1,5.5,8.87l.335.653a48.638,48.638,0,0,0,5.538,8.8,30.389,30.389,0,0,0,2.3,2.589,17.4,17.4,0,0,1-5.365-.823,21.092,21.092,0,0,1-6.252-3.273,32.284,32.284,0,0,1-5.928-5.79,35.054,35.054,0,0,1-2.869-4.34l-.933,2.278a37.974,37.974,0,0,0,4.024,5.39A17.647,17.647,0,0,1,86,38.34l-.727,1.774h.008l.01,0a19.228,19.228,0,0,0,8.36,1.4,28.033,28.033,0,0,0,8.608,5.358l.818.3a20.73,20.73,0,0,0,7.907.864,26.45,26.45,0,0,0,8.14,4.915l.01,0h.008l.65-1.808Z" transform="translate(-85.275 -19.729)" fill="#002d5d"/>
    </g>
    <g id="Group_330" data-name="Group 330" transform="translate(253.842 51.934)">
      <path id="Path_667" data-name="Path 667" d="M116.771,30.091l-7.977,19.479s-5.66-2.994-8.062-5.311a21.209,21.209,0,0,1-7.9-1.483l-.806-.359a28.23,28.23,0,0,1-8.324-5.98A19.379,19.379,0,0,1,75.444,34.2l-.01-.005h-.008l9.753-18.652c5.726.418,11.513,4.5,15.122,8.009a25.076,25.076,0,0,1,11.381,3.5,34.573,34.573,0,0,1,4.514,3.072.738.738,0,0,1,.113-.027h.462Z" transform="translate(-75.189 -15.131)" fill="#d9dfe7"/>
      <path id="Path_668" data-name="Path 668" d="M109.495,48.554l-.007,0a23.021,23.021,0,0,1-7.416-5.011,31.491,31.491,0,0,1-3.7-4.373,44.884,44.884,0,0,1-4.754-8.837l-.29-.663a79.823,79.823,0,0,0-4.874-9.558,23.777,23.777,0,0,0-1.811-2.651c4.9.775,9.808,4.4,12.836,7.538a33.672,33.672,0,0,1,6.993,10.349l.4.863a82.4,82.4,0,0,0,3.912,7.54l.016.018.393.659.933-2.278c-1.244-2.146-2.369-4.455-3.434-6.7l-.4-.852a35.516,35.516,0,0,0-5.7-9.039,21.018,21.018,0,0,1,8.462,2.95,28.678,28.678,0,0,1,5.08,3.861l.99-2.417-.465.009a.726.726,0,0,0-.114.03,33.193,33.193,0,0,0-4.489-3.117,23.936,23.936,0,0,0-11.395-3.435c-3.572-3.583-9.323-7.7-15.09-8.022l-1.214,2.321a22.656,22.656,0,0,1,2.417,3.313,82.849,82.849,0,0,1,4.716,9.283l.282.68A47.024,47.024,0,0,0,96.7,40.208a29.765,29.765,0,0,0,2.167,2.733,16.762,16.762,0,0,1-5.361-1.2,20.922,20.922,0,0,1-6.076-3.755,31.734,31.734,0,0,1-5.5-6.289,36.293,36.293,0,0,1-2.483-4.6L78.31,29.283a38.887,38.887,0,0,0,3.565,5.771,18.434,18.434,0,0,1-5.63-1.821l-.889,1.7h.008l.01.005a18.747,18.747,0,0,0,8.306,2.174,27.293,27.293,0,0,0,8.3,6.062l.807.359a20.542,20.542,0,0,0,7.941,1.408,26.178,26.178,0,0,0,8.021,5.386l.01,0h.008l.729-1.779Z" transform="translate(-75.356 -15.417)" fill="#002d5d"/>
    </g>
    <g id="Group_331" data-name="Group 331" transform="translate(356.114 89.645)">
      <path id="Path_669" data-name="Path 669" d="M145.061,33.739l-3.332,20.784s-6.169-1.671-9.031-3.3a22.073,22.073,0,0,1-8,.4l-.864-.152a28.985,28.985,0,0,1-9.481-3.862,19.369,19.369,0,0,1-8.582-.248l-.011,0h-.008l5.138-20.411c5.6-.907,12.239,1.606,16.562,4.242a24.911,24.911,0,0,1,11.938.742A37.121,37.121,0,0,1,144.5,33.9a.716.716,0,0,1,.1-.053l.452-.11Z" transform="translate(-105.628 -26.273)" fill="#d9dfe7"/>
      <path id="Path_670" data-name="Path 670" d="M142.04,53.472h-.007a23.338,23.338,0,0,1-8.34-3.165,29.255,29.255,0,0,1-4.6-3.41,42.438,42.438,0,0,1-6.682-7.48l-.438-.579a89.911,89.911,0,0,0-6.988-8.129,24.448,24.448,0,0,0-2.39-2.118c4.945-.447,10.567,1.929,14.254,4.295a32.916,32.916,0,0,1,9.231,8.424l.588.741a83.164,83.164,0,0,0,5.528,6.458l.02.013.532.545.39-2.431c-1.7-1.776-3.321-3.8-4.872-5.74l-.587-.74a36.276,36.276,0,0,0-7.66-7.468,21.6,21.6,0,0,1,8.948.909,30.724,30.724,0,0,1,5.844,2.609l.413-2.579-.453.119a.719.719,0,0,0-.105.056,35.636,35.636,0,0,0-5.1-2.024,23.8,23.8,0,0,0-11.938-.676c-4.3-2.714-10.914-5.274-16.533-4.262l-.639,2.54a28.76,28.76,0,0,1,3.109,2.655,83.08,83.08,0,0,1,6.769,7.9l.436.589a45.67,45.67,0,0,0,6.945,7.774,32.341,32.341,0,0,0,2.733,2.168,18.257,18.257,0,0,1-5.475.1,21.651,21.651,0,0,1-6.772-2.228,31.742,31.742,0,0,1-6.824-4.818,30.92,30.92,0,0,1-3.5-3.891l-.6,2.387a34.183,34.183,0,0,0,4.837,4.757,16.673,16.673,0,0,1-5.925-.435l-.468,1.859h.008l.011,0a18.732,18.732,0,0,0,8.614.173,27.989,27.989,0,0,0,9.475,3.948l.865.151a21.338,21.338,0,0,0,8.021-.48,26.686,26.686,0,0,0,9.006,3.382l.011,0,.008,0,.3-1.9Z" transform="translate(-105.717 -26.612)" fill="#002d5d"/>
    </g>
    <g id="Group_332" data-name="Group 332" transform="translate(321.124 78.928)">
      <path id="Path_671" data-name="Path 671" d="M135.46,34.509l-5.138,20.412s-6.166-2.206-8.937-4.272a20.748,20.748,0,0,1-8.4-.8l-.87-.292a29.612,29.612,0,0,1-8.5-5.051A19.592,19.592,0,0,1,95.4,43.391l-.01,0h-.007l7.126-19.806c5.889-.307,12.436,3.208,16.445,6.54a24.61,24.61,0,0,1,5.728.421,22.963,22.963,0,0,1,5.465,1.684A40.236,40.236,0,0,1,134.9,34.62a.7.7,0,0,1,.106-.043l.448-.069Z" transform="translate(-95.207 -23.118)" fill="#d9dfe7"/>
      <path id="Path_672" data-name="Path 672" d="M130.787,53.869l-.007,0a22.309,22.309,0,0,1-8.206-4.041,25.663,25.663,0,0,1-4.3-3.991,37.976,37.976,0,0,1-5.557-8.395l-.35-.638a65.784,65.784,0,0,0-5.986-9.019,23.813,23.813,0,0,0-2.2-2.416c5.1.142,10.612,3.34,13.979,6.3a38.371,38.371,0,0,1,7.806,9.5l.5.8a61.648,61.648,0,0,0,4.906,6.963l.019.015.488.6.6-2.387A72.483,72.483,0,0,1,128.162,41l-.5-.8a44.938,44.938,0,0,0-6.418-8.284,21.616,21.616,0,0,1,8.383,1.9,32.355,32.355,0,0,1,5.428,3.1l.638-2.533-.45.077a.71.71,0,0,0-.107.046,38.249,38.249,0,0,0-4.735-2.439,21.747,21.747,0,0,0-5.447-1.682,23.637,23.637,0,0,0-5.73-.351c-3.985-3.409-10.516-6.972-16.44-6.566l-.887,2.464a22.8,22.8,0,0,1,2.9,3,64.2,64.2,0,0,1,5.79,8.724l.346.647c1.707,3.025,2.782,5.409,5.738,8.716a32.121,32.121,0,0,0,2.548,2.588,19.864,19.864,0,0,1-5.719-.788,20.73,20.73,0,0,1-6.2-3.144,34.58,34.58,0,0,1-5.984-5.58,38.032,38.032,0,0,1-3-4.219l-.833,2.317a39.905,39.905,0,0,0,4.158,5.213,17.566,17.566,0,0,1-5.668-1.02l-.649,1.8h.008l.01,0a18.858,18.858,0,0,0,8.251,1.041,28.43,28.43,0,0,0,8.463,5.13l.872.293a20.2,20.2,0,0,0,8.449.726,25.527,25.527,0,0,0,8.917,4.355l.011,0h.008l.469-1.864Z" transform="translate(-95.329 -23.431)" fill="#002d5d"/>
    </g>
    <g id="Group_333" data-name="Group 333" transform="translate(428.113 100.599)">
      <path id="Path_673" data-name="Path 673" d="M164.4,33.583l-1.041,21.024s-6.361-.96-9.366-2.335a21.468,21.468,0,0,1-7.881,1.255l-.87-.063a28.636,28.636,0,0,1-9.745-2.734,19.5,19.5,0,0,1-8.37.873h-.018l2.285-20.924c5.6-1.681,12.615.119,17.229,2.226a25.042,25.042,0,0,1,11.976-.51,34.5,34.5,0,0,1,5.269,1.4.752.752,0,0,1,.1-.063l.434-.154Z" transform="translate(-127.051 -29.505)" fill="#d9dfe7"/>
      <path id="Path_674" data-name="Path 674" d="M163.466,53.559h-.007a23.129,23.129,0,0,1-8.66-2.268,31.571,31.571,0,0,1-4.934-2.885,46.61,46.61,0,0,1-7.449-6.7l-.5-.528a72.653,72.653,0,0,0-7.967-7.251,23.8,23.8,0,0,0-2.686-1.824c4.943-1.055,10.916.656,14.854,2.594a32.737,32.737,0,0,1,10.1,7.4l.663.68a82.125,82.125,0,0,0,6.2,5.819l.021.011.59.491.122-2.459c-1.888-1.614-3.717-3.42-5.463-5.182l-.663-.67a34.992,34.992,0,0,0-8.425-6.62,21.152,21.152,0,0,1,9.008-.04,28.637,28.637,0,0,1,6.065,1.961l.129-2.609-.435.162a.727.727,0,0,0-.1.066,33.145,33.145,0,0,0-5.26-1.455,23.929,23.929,0,0,0-11.971.575c-4.6-2.187-11.612-4.036-17.215-2.25l-.284,2.6a22.741,22.741,0,0,1,3.5,2.224,72.035,72.035,0,0,1,7.717,7.035l.5.539a48.76,48.76,0,0,0,7.737,6.961,29.115,29.115,0,0,0,2.942,1.853,17.112,17.112,0,0,1-5.412.679,21.108,21.108,0,0,1-6.917-1.446,32.907,32.907,0,0,1-7.269-3.949,37.4,37.4,0,0,1-3.942-3.393l-.267,2.447a39.486,39.486,0,0,0,5.329,4.089,17.915,17.915,0,0,1-5.813.341l-.208,1.906h.018a18.806,18.806,0,0,0,8.383-.952,27.6,27.6,0,0,0,9.744,2.819l.87.063A20.766,20.766,0,0,0,154,53.062a26.269,26.269,0,0,0,9.352,2.419h.011l.007,0,.095-1.919Z" transform="translate(-127.09 -29.864)" fill="#002d5d"/>
    </g>
    <g id="Group_334" data-name="Group 334" transform="translate(392.134 96.155)">
      <path id="Path_675" data-name="Path 675" d="M154.672,33.813l-2.286,20.925s-6.218-1.332-9.149-2.825a21.487,21.487,0,0,1-7.906.859l-.864-.1a29.155,29.155,0,0,1-9.6-3.2,19.859,19.859,0,0,1-8.42.457l-.011,0h-.007l3.332-20.783c5.656-1.4,12.57.713,17.087,3.06a25.04,25.04,0,0,1,12.039.092,38.827,38.827,0,0,1,5.232,1.7.762.762,0,0,1,.1-.058l.447-.132Z" transform="translate(-116.352 -28.192)" fill="#d9dfe7"/>
      <path id="Path_676" data-name="Path 676" d="M152.6,53.691h-.007a22.96,22.96,0,0,1-8.46-2.726,29.249,29.249,0,0,1-4.764-3.138,45.274,45.274,0,0,1-7.108-7.058l-.474-.551a76.263,76.263,0,0,0-7.6-7.625,23.761,23.761,0,0,0-2.588-1.948c4.974-.809,10.857,1.168,14.7,3.317a32.441,32.441,0,0,1,9.733,7.893l.627.71a81.457,81.457,0,0,0,5.85,6.158l.02.012.558.519.267-2.448c-1.787-1.694-3.509-3.608-5.16-5.477l-.627-.71a35.432,35.432,0,0,0-8.1-7.038A21.652,21.652,0,0,1,148.5,34a31.128,31.128,0,0,1,5.994,2.3l.284-2.6-.448.14a.761.761,0,0,0-.1.061,37.138,37.138,0,0,0-5.223-1.755,23.95,23.95,0,0,0-12.039-.027c-4.5-2.426-11.4-4.592-17.072-3.084l-.415,2.586a22.645,22.645,0,0,1,3.377,2.386,74.706,74.706,0,0,1,7.363,7.4l.473.561a47.61,47.61,0,0,0,7.383,7.326,32.368,32.368,0,0,0,2.834,2.011,18.033,18.033,0,0,1-5.423.406,21,21,0,0,1-6.831-1.782,32.174,32.174,0,0,1-7.074-4.3,37.114,37.114,0,0,1-3.775-3.576l-.39,2.431a39.319,39.319,0,0,0,5.132,4.338,18,18,0,0,1-5.837.062l-.3,1.893h.008l.011,0a19.147,19.147,0,0,0,8.438-.535,28.085,28.085,0,0,0,9.591,3.283l.865.1a20.776,20.776,0,0,0,7.921-.944A26.194,26.194,0,0,0,152.37,55.6h.011l.007,0,.209-1.911Z" transform="translate(-116.41 -28.545)" fill="#002d5d"/>
    </g>
    <g id="Group_335" data-name="Group 335" transform="translate(359.503 67.844)">
      <path id="Path_677" data-name="Path 677" d="M116.872,21l21.032-.85s-.1,1.913-.374,4.25a30.823,30.823,0,0,1-2.011,6.9,19.83,19.83,0,0,1-.747,9.743l-.374,1.05a25.992,25.992,0,0,1-3.765,6.18,28.937,28.937,0,0,1-3.84,3.494,15.263,15.263,0,0,1-1.733,4.288,17.762,17.762,0,0,1-2.941,4.02l-.009.009,0,.007L106.822,45.619c1.526-4.846,5.606-8.783,8.425-11.079a24.628,24.628,0,0,1,.666-8.957c.488-1.517.8-2.882,1.214-4.175a.6.6,0,0,1-.07-.074Z" transform="translate(-106.488 -20.126)" fill="#d9dfe7"/>
      <path id="Path_678" data-name="Path 678" d="M136.732,20.218v.008a21.352,21.352,0,0,1-2.192,10.085,29.049,29.049,0,0,1-3.7,5.221,28.788,28.788,0,0,1-4.369,3.487,22.769,22.769,0,0,1-4.443,1.992l-.664.235c-1.517.566-3.336,1.03-5.02,1.521-1.654.5-3.27.953-4.764,1.327a22.049,22.049,0,0,0-2.741.924,17.8,17.8,0,0,1,3.539-5.581c.373-.411.767-.806,1.176-1.184l1.006-1.032a22.6,22.6,0,0,1,2.17-1.783c3.111-2.833,5.386-4.591,8.708-7.252l.687-.606c1.016-.91,2.057-1.9,3.075-2.988a27.629,27.629,0,0,0,2.621-3.492l.009-.024.441-.68-2.46.1a28.167,28.167,0,0,1-4.969,5.623l-.687.6c-1.308,1.186-2.52,2.176-3.783,3.143-1.232.966-2.213,2.024-3.588,3.035.036-1.176-.054-2.361.063-3.5a10.478,10.478,0,0,1,.327-1.681,12.854,12.854,0,0,1,.342-1.782c.544-1.641,1.089-3.451,1.74-5.021l-2.61.105.193.333c.021.033.052.049.073.073-.441,1.278-.765,2.626-1.264,4.117a21.891,21.891,0,0,0-.569,8.833c-2.864,2.2-6.936,6.04-8.358,10.931l1.9,1.8c1.181-.443,2.325-.878,3.576-1.248,2.92-.736,6.428-1.782,9.743-2.708l.674-.232a34.677,34.677,0,0,0,4.643-2.033,23.2,23.2,0,0,0,4.729-3.709,15.722,15.722,0,0,0,2.5-3.073,15.184,15.184,0,0,1-.84,6.543,14.471,14.471,0,0,1-2.056,4.2,21.359,21.359,0,0,1-2.521,3.22,24.914,24.914,0,0,1-7.591,4.893,21.237,21.237,0,0,1-5.19,1.411l1.787,1.693a25.479,25.479,0,0,0,6.743-2.427,16.748,16.748,0,0,1-3.506,5.491l1.392,1.318,0-.008.008-.009a17.52,17.52,0,0,0,2.948-4.059,15.107,15.107,0,0,0,1.7-4.347,28.443,28.443,0,0,0,3.908-3.493,25.753,25.753,0,0,0,3.827-6.24l.377-1.062a19.644,19.644,0,0,0,.691-9.856,23.489,23.489,0,0,0,2.476-11.222v-.013l0-.009-1.92.077Z" transform="translate(-106.723 -20.14)" fill="#002d5d"/>
    </g>
    <g id="Group_336" data-name="Group 336" transform="translate(333.877 93.023)">
      <path id="Path_679" data-name="Path 679" d="M124.959,27.709l15.285,14.472s-1.372,1.189-3.143,2.561a34.652,34.652,0,0,1-5.768,3.329,21.138,21.138,0,0,1-5.816,6.512l-.8.537a21.6,21.6,0,0,1-5.6,2.674,23.263,23.263,0,0,1-4.747,1.127,18.76,18.76,0,0,1-7.475,5.216l-.011,0-.007.005L99.165,44.559c3.689-3.77,9.541-5.668,14.08-6.554a34.509,34.509,0,0,1,3.436-4.171,16.87,16.87,0,0,1,1.964-1.682,17.307,17.307,0,0,1,2.086-1.551c1.558-.93,2.806-1.747,4.091-2.4a.629.629,0,0,1,.008-.105l.129-.386Z" transform="translate(-98.997 -27.393)" fill="#d9dfe7"/>
      <path id="Path_680" data-name="Path 680" d="M139.339,41.435l-.005.006a21.4,21.4,0,0,1-8.2,5.305,26.637,26.637,0,0,1-5.873,1.33,30.5,30.5,0,0,1-10.106-.656l-.708-.15C111.09,46.6,107.262,45.8,104.23,45.3c-1.013-.136-2.025-.307-3.008-.373a18.117,18.117,0,0,1,6.1-3.5,32.574,32.574,0,0,1,6.522-1.752,49.737,49.737,0,0,1,11.971-.585l.929.024a36.338,36.338,0,0,0,8.555-.591l.023-.009.782-.148-1.787-1.693a37,37,0,0,1-7.491.5l-.928-.025a57.027,57.027,0,0,0-10.152.35,21.571,21.571,0,0,1,5.849-5.464,43.1,43.1,0,0,1,5.052-2.62l-1.9-1.8-.121.39a.629.629,0,0,0-.005.107c-1.293.632-2.544,1.427-4.1,2.338a16.257,16.257,0,0,0-2.076,1.53,15.877,15.877,0,0,0-1.944,1.676,32.1,32.1,0,0,0-3.369,4.207c-4.563.805-10.389,2.633-14.014,6.491l.959,2.437a22.363,22.363,0,0,1,3.9.407c2.941.429,6.733,1.327,9.981,1.964l.714.159a32.541,32.541,0,0,0,10.609.771,27.781,27.781,0,0,0,3.609-.671,15.806,15.806,0,0,1-4.107,4.264,19.356,19.356,0,0,1-6.947,3.229,27.307,27.307,0,0,1-8.664.754,30.261,30.261,0,0,1-5.223-1.045l.9,2.291a27.608,27.608,0,0,0,6.943.831,16.409,16.409,0,0,1-5.312,3.316l.7,1.784.006-.005.011,0a18.337,18.337,0,0,0,7.481-5.306,22.964,22.964,0,0,0,4.793-1.087,21.167,21.167,0,0,0,5.646-2.667l.806-.54a20.7,20.7,0,0,0,5.8-6.607,24.42,24.42,0,0,0,9-5.856l.009-.009,0-.008-1.4-1.321Z" transform="translate(-99.115 -27.615)" fill="#002d5d"/>
    </g>
    <g id="Group_337" data-name="Group 337" transform="translate(167.003 66.25)">
      <path id="Path_681" data-name="Path 681" d="M90.471,37.832,80.054,56.123S74.9,52.4,72.817,49.876a21.91,21.91,0,0,1-7.539-2.4l-.746-.441a27.515,27.515,0,0,1-7.209-6.479,19.043,19.043,0,0,1-7.656-2.376l-.009-.005h-.007L59.9,19.786c5.982.691,11.905,5.536,15.125,9.516a24.606,24.606,0,0,1,10.84,4.863A34.149,34.149,0,0,1,89.9,37.788a.7.7,0,0,1,.115-.012l.455.055Z" transform="translate(-49.401 -19.385)" fill="#d9dfe7"/>
      <path id="Path_682" data-name="Path 682" d="M80.927,55.181l-.006,0A23.5,23.5,0,0,1,74.282,49.3a29.419,29.419,0,0,1-3.057-4.791,47.364,47.364,0,0,1-3.611-9.261l-.217-.689a55.466,55.466,0,0,0-4.212-9.982,23.547,23.547,0,0,0-1.8-2.774c5.122,1,9.97,5.324,12.685,8.819a32.05,32.05,0,0,1,5.612,11.1l.284.9c.842,2.648,1.739,5.4,2.853,7.968l.013.02.3.7,1.218-2.139c-.942-2.281-1.742-4.717-2.493-7.073l-.284-.9A35.6,35.6,0,0,0,77.1,31.535a21.32,21.32,0,0,1,8,3.975,28.593,28.593,0,0,1,4.488,4.475l1.293-2.27-.459-.048a.7.7,0,0,0-.116.015,32.809,32.809,0,0,0-4-3.665,23.52,23.52,0,0,0-10.865-4.8c-3.179-4.049-9.089-8.945-15.129-9.548l-1.275,2.287a22.673,22.673,0,0,1,2.39,3.468,52.288,52.288,0,0,1,4.08,9.633l.212.7a49.874,49.874,0,0,0,3.747,9.587,31.915,31.915,0,0,0,1.764,2.974,17.844,17.844,0,0,1-5.1-1.8,20.54,20.54,0,0,1-5.37-4.207,38.38,38.38,0,0,1-4.693-6.492,39.555,39.555,0,0,1-2.172-4.627l-1.2,2.15A40.6,40.6,0,0,0,55.753,39.1a16.46,16.46,0,0,1-5.242-1.87L49.577,38.9l.007,0,.009.005a18.283,18.283,0,0,0,7.687,2.3,26.4,26.4,0,0,0,7.158,6.547l.747.441a21.168,21.168,0,0,0,7.589,2.334,26.9,26.9,0,0,0,7.185,6.315l.009.005h.008l.951-1.67Z" transform="translate(-49.577 -19.667)" fill="#002d5d"/>
    </g>
    <g id="Group_338" data-name="Group 338" transform="translate(136.39 50.207)">
      <path id="Path_683" data-name="Path 683" d="M81.461,31.053,71.211,49.438l-2.72-2.027a31.406,31.406,0,0,1-4.3-3.766,22.114,22.114,0,0,1-7.365-1.658l-.737-.357a28.924,28.924,0,0,1-7.71-5.668,18.485,18.485,0,0,1-7.816-1.5l-.009,0h-.007l8.1-19.429c6.049.065,12.528,4.194,16.185,7.937a23.986,23.986,0,0,1,11.664,4.405A30.5,30.5,0,0,1,80.87,31a.75.75,0,0,1,.119-.011l.473.063Z" transform="translate(-40.35 -14.606)" fill="#d9dfe7"/>
      <path id="Path_684" data-name="Path 684" d="M72.035,48.507l-.006,0a23.562,23.562,0,0,1-6.487-5.491,39.066,39.066,0,0,1-3.217-4.5,59.637,59.637,0,0,1-4.358-8.886l-.288-.662a53.274,53.274,0,0,0-5.286-9.478,23.64,23.64,0,0,0-2.106-2.571c5.221.461,10.572,4.2,13.644,7.478a28.327,28.327,0,0,1,6.616,10.783l.325.889c.95,2.639,1.939,5.281,3.028,7.832l.013.019.294.692,1.2-2.15c-.93-2.278-1.8-4.651-2.658-6.987l-.326-.889a29.572,29.572,0,0,0-5.295-9.473,20.069,20.069,0,0,1,8.583,3.654,26.014,26.014,0,0,1,4.839,4.468l1.272-2.282-.477-.056a.753.753,0,0,0-.12.014,29.639,29.639,0,0,0-4.36-3.677,23.139,23.139,0,0,0-11.709-4.356c-3.628-3.818-10.1-8-16.2-7.972l-1.008,2.418a22.788,22.788,0,0,1,2.774,3.2,50.146,50.146,0,0,1,5.114,9.14l.284.671a66.7,66.7,0,0,0,4.53,9.169,31.925,31.925,0,0,0,1.886,2.761,16.55,16.55,0,0,1-5.024-1.275,22.506,22.506,0,0,1-5.637-3.621,39.733,39.733,0,0,1-5.33-5.927,40.22,40.22,0,0,1-2.66-4.364l-.947,2.272a41.156,41.156,0,0,0,3.665,5.391,16.224,16.224,0,0,1-5.379-1.277l-.737,1.77H40.5l.009,0a17.739,17.739,0,0,0,7.836,1.419A27.658,27.658,0,0,0,56,42.394l.736.356a21.214,21.214,0,0,0,7.394,1.576,26.591,26.591,0,0,0,6.952,5.854l.009.005H71.1Z" transform="translate(-40.489 -14.904)" fill="#002d5d"/>
    </g>
    <g id="Group_339" data-name="Group 339" transform="translate(104.26 38.1)">
      <path id="Path_685" data-name="Path 685" d="M71.275,23.516l-8.1,19.43a50.97,50.97,0,0,1-7.6-4.912,20.689,20.689,0,0,1-7.484-.759l-.777-.252a30.216,30.216,0,0,1-8.346-4.663,19.9,19.9,0,0,1-7.964-.55l-.01,0h-.007l5.718-20.256c6-.738,12.909,2.645,17.013,5.891a23.949,23.949,0,0,1,12.152,2.987,37.092,37.092,0,0,1,4.8,3.1A.683.683,0,0,1,70.8,23.5l.479.012Z" transform="translate(-30.853 -10.982)" fill="#d9dfe7"/>
      <path id="Path_686" data-name="Path 686" d="M63.818,41.975l-.006,0a22.247,22.247,0,0,1-7.039-4.69,31.266,31.266,0,0,1-3.726-4.058,60.771,60.771,0,0,1-5.4-8.287l-.364-.628a55.8,55.8,0,0,0-6.394-8.772,21.117,21.117,0,0,0-2.4-2.283c5.216-.17,10.99,2.869,14.436,5.768a28.378,28.378,0,0,1,7.886,9.888l.426.85c1.255,2.507,2.517,5.082,3.909,7.424l.016.017.369.654.947-2.272c-1.192-2.123-2.332-4.384-3.45-6.622l-.426-.85a30.232,30.232,0,0,0-6.4-8.789,20.768,20.768,0,0,1,8.986,2.625,28.786,28.786,0,0,1,5.355,3.884l1-2.411-.483,0a.663.663,0,0,0-.119.027,35.731,35.731,0,0,0-4.791-3.149,23.119,23.119,0,0,0-12.194-2.933c-4.084-3.324-10.993-6.76-17.03-5.923l-.711,2.52a22.541,22.541,0,0,1,3.138,2.8,55.9,55.9,0,0,1,6.185,8.444l.361.638a61.642,61.642,0,0,0,5.6,8.552A32.385,32.385,0,0,0,53.7,36.935a17.3,17.3,0,0,1-5.117-.686,19.946,19.946,0,0,1-6.025-2.914A33.642,33.642,0,0,1,36.535,28.1a39.36,39.36,0,0,1-3.184-3.975L32.683,26.5a46.821,46.821,0,0,0,4.306,4.893,17.743,17.743,0,0,1-5.517-.6l-.521,1.845h.007l.01,0a19.042,19.042,0,0,0,7.975.47,28.849,28.849,0,0,0,8.3,4.739l.776.251a19.9,19.9,0,0,0,7.5.674,25.578,25.578,0,0,0,7.537,4.978l.009,0h.007l.739-1.774Z" transform="translate(-30.951 -11.311)" fill="#002d5d"/>
    </g>
  </g>
</svg>
