<svg id="knot-reef" xmlns="http://www.w3.org/2000/svg" width="480" height="179.527" viewBox="0 0 480 179.527">
  <g id="Group_66" data-name="Group 66">
    <g id="Group_26" data-name="Group 26" transform="translate(174.032 110.087)">
      <path id="Path_70" data-name="Path 70" d="M90.221,34.84,82,62.532l-3.329-1.561a52.548,52.548,0,0,1-5.547-3.042,22.924,22.924,0,0,1-8.357,1.348l-.922-.061a32.9,32.9,0,0,1-10.68-3.149,20.6,20.6,0,0,1-9.406,2.306h-.012l-.008,0-.117-28.884C50.335,26.3,59.9,27.978,66.088,31.034a26.51,26.51,0,0,1,16.481.586,35.8,35.8,0,0,1,6.867,3.332,1.043,1.043,0,0,1,.151-.051l.634-.061Z" transform="translate(-43.621 -27.061)" fill="#d9dfe7"/>
      <path id="Path_71" data-name="Path 71" d="M82.553,61.213l-.007,0a26.531,26.531,0,0,1-8.366-4.493A63.57,63.57,0,0,1,69.2,52.4a119.029,119.029,0,0,1-8.489-9.207l-.623-.687A62.689,62.689,0,0,0,49.655,33.32a26,26,0,0,0-3.6-2.124c6.066-2.159,14.1-.438,19.293,2.335A29.539,29.539,0,0,1,77.534,44.4l.675,1.008,5.588,9.1.02.02.479.806.961-3.239c-1.565-2.717-3.249-5.392-4.98-8.208l-.667-1.057a31.891,31.891,0,0,0-10.074-9.966A23.172,23.172,0,0,1,81.772,33.93a29.372,29.372,0,0,1,7.61,4.276l1.02-3.437-.64.071a.976.976,0,0,0-.153.055,35.1,35.1,0,0,0-6.89-3.409,25.866,25.866,0,0,0-16.575-.511c-6.206-3.168-15.8-4.913-22.522-1.581l.014,3.594a25.32,25.32,0,0,1,4.621,2.519,60.452,60.452,0,0,1,10.056,8.845l.622.7c2.9,3.289,5.14,5.909,8.778,9.4A38.965,38.965,0,0,0,70.7,57.1a16.432,16.432,0,0,1-5.827.782A22.664,22.664,0,0,1,57.321,56.2a46.872,46.872,0,0,1-8.578-4.654A57.185,57.185,0,0,1,43.7,47.488l.014,3.378A62.613,62.613,0,0,0,50.346,55.7a18.951,18.951,0,0,1-6.612,1.284l.011,2.631.008,0h.012A19.761,19.761,0,0,0,53.153,57.2a31.273,31.273,0,0,0,10.628,3.262l.917.061a21.808,21.808,0,0,0,8.322-1.471,29.562,29.562,0,0,0,8.763,4.694l.011,0,.008,0Z" transform="translate(-43.622 -27.594)" fill="#002d5d"/>
    </g>
    <g id="Group_27" data-name="Group 27" transform="translate(85.069 44.435)">
      <path id="Path_72" data-name="Path 72" d="M50.365,60.98,21.5,59.837s.307-1.954.833-4.366a35.015,35.015,0,0,1,2.337-7.31,22.966,22.966,0,0,1-1.1-10.624l.245-1.212a28.943,28.943,0,0,1,6.5-13.011A21.85,21.85,0,0,1,33.992,11.26L34,11.246l0-.011,24.115,15.9a16.14,16.14,0,0,1-1.991,7.6,51.865,51.865,0,0,1-4.534,6.888A24.593,24.593,0,0,1,51.9,54.346a44.013,44.013,0,0,1-1.846,6.017.89.89,0,0,1,.088.113l.221.5Z" transform="translate(-20.792 -10.847)" fill="#d9dfe7"/>
      <path id="Path_73" data-name="Path 73" d="M23.962,60.2V60.2a25.2,25.2,0,0,1,3.048-10.7,31.667,31.667,0,0,1,4.207-6.088,34.12,34.12,0,0,1,10.1-7.992l.812-.437c1.927-1.035,3.932-2.112,5.964-3.013,1.932-.959,3.88-1.738,5.554-2.383l3.11-1.324c-.326,4.686-3.471,8.988-6.51,12.813A64,64,0,0,1,39.6,51.563l-.924.764a77.122,77.122,0,0,0-7.922,7.378l-.015.026-.662.716,3.376.134a82.939,82.939,0,0,1,7.03-6.485l.924-.763A70.039,70.039,0,0,0,50.7,44.41a21.221,21.221,0,0,1-.151,9.775,34.637,34.637,0,0,1-2.6,6.969l3.582.142-.233-.5a.866.866,0,0,0-.093-.113,41.932,41.932,0,0,0,1.915-5.995,22.994,22.994,0,0,0-.406-12.654,47.324,47.324,0,0,0,4.612-6.754,14.682,14.682,0,0,0,1.857-7.506l-3-1.978a35.828,35.828,0,0,1-4.026,1.8,118.478,118.478,0,0,0-11.416,5.259l-.826.436a35.321,35.321,0,0,0-10.686,8.383,29.821,29.821,0,0,0-2.778,3.665,19.5,19.5,0,0,1-.418-7.274,29.711,29.711,0,0,1,1.329-5.043A26.813,26.813,0,0,1,37.712,20.651a26.189,26.189,0,0,1,6.359-2.839l-2.821-1.86a35.058,35.058,0,0,0-4.711,2.229,34.259,34.259,0,0,0-3.415,2.447,19.1,19.1,0,0,1,3.02-8.042l-2.2-1.448,0,.011-.009.014A21.622,21.622,0,0,0,30.3,23.378a28.652,28.652,0,0,0-6.649,13.1L23.4,37.7A22.484,22.484,0,0,0,24.61,48.4a28.745,28.745,0,0,0-3.287,11.682v.014l0,.009,2.635.1Z" transform="translate(-21.323 -11.138)" fill="#002d5d"/>
    </g>
    <g id="Group_28" data-name="Group 28" transform="translate(97.687 13.204)">
      <path id="Path_74" data-name="Path 74" d="M48.75,50.339,24.634,34.44a13.451,13.451,0,0,1,1-1.242c.671-.724,1.612-1.712,2.682-2.768A30.768,30.768,0,0,1,35.4,25.144c.727-1.561,2.892-6.081,6.81-9.03l.985-.749A28.235,28.235,0,0,1,56.013,10.4a21.336,21.336,0,0,1,8.84-6.919l.014-.006.008-.007L76.19,30.048c-3.95,5-10.914,7.242-16.22,8.065a24.279,24.279,0,0,1-7.148,8.855,38.1,38.1,0,0,1-4.117,2.787.824.824,0,0,1,.035.124c0,.161.007.3.01.459Z" transform="translate(-24.044 -2.824)" fill="#d9dfe7"/>
      <path id="Path_75" data-name="Path 75" d="M26.688,35.989l.006-.009a25.06,25.06,0,0,1,4.618-5.111,23.346,23.346,0,0,1,5.212-3.186,26.588,26.588,0,0,1,7.464-2.143,33.3,33.3,0,0,1,12.92.959l.895.213c4.21.951,9.1,2.273,12.8,2.957A27.88,27.88,0,0,0,74.3,30.3c-3.793,3.959-9.926,5.817-14.71,6.394-5.577.842-9.216.675-14.645.606l-1.191.008a36.427,36.427,0,0,0-10.967,1.686l-.027.017-.957.351,2.821,1.86a36.266,36.266,0,0,1,9.48-1.46l1.19,0a115.821,115.821,0,0,0,12.416-.314A20.268,20.268,0,0,1,52.008,46a42.714,42.714,0,0,1-5.283,3.2l2.993,1.973c-.008-.155-.015-.3-.024-.46a.879.879,0,0,0-.039-.126,34.622,34.622,0,0,0,4.121-2.679,22.245,22.245,0,0,0,6.98-8.823c5.334-.707,12.269-2.851,16.122-7.97l-1.408-3.307a25.526,25.526,0,0,1-4.738-.619c-3.7-.81-8.375-1.919-12.554-2.995l-.9-.223a60.194,60.194,0,0,0-6.263-1.181,39.088,39.088,0,0,0-7.3.108,23.64,23.64,0,0,0-4.651,1.035,26.955,26.955,0,0,1,1.925-2.993,21.118,21.118,0,0,1,2.912-2.86,22.51,22.51,0,0,1,8.567-4.321,32.329,32.329,0,0,1,10.772-.765,38.377,38.377,0,0,1,6.556,1.474l-1.324-3.108a37.8,37.8,0,0,0-8.727-1.252,20.489,20.489,0,0,1,6.331-4.376L65.04,3.31l-.008.007-.013.006a20.873,20.873,0,0,0-8.846,7.043,27.709,27.709,0,0,0-12.954,4.907l-.993.755c-3.945,2.978-6.093,7.585-6.8,9.178a33.333,33.333,0,0,0-6.1,3.9A28.748,28.748,0,0,0,24.5,34.511l-.009.014,0,.012Z" transform="translate(-24.486 -3.31)" fill="#002d5d"/>
    </g>
    <g id="Group_29" data-name="Group 29" transform="translate(98.173 126.469)">
      <path id="Path_76" data-name="Path 76" d="M75.11,51.685,65.881,79.058A28.6,28.6,0,0,1,61.349,76.7a27.852,27.852,0,0,1-6.768-5.13,29.245,29.245,0,0,1-4.476-.773,25.275,25.275,0,0,1-6.253-2.9L42.8,67.19a34.273,34.273,0,0,1-5.711-5.828,43.72,43.72,0,0,1-3.162-5.6A19.038,19.038,0,0,1,29,52.66a19.534,19.534,0,0,1-4.227-4.691l-.009-.013-.008-.007L48.7,31.789c5.344,2.463,8.473,7.8,10.8,12.583a21.891,21.891,0,0,1,5.8,1.479,19.607,19.607,0,0,1,4.979,2.677,43.714,43.714,0,0,1,4.236,3.329.841.841,0,0,1,.12-.061l.481-.11Z" transform="translate(-24.17 -31.436)" fill="#d9dfe7"/>
      <path id="Path_77" data-name="Path 77" d="M66.936,77.491l-.01,0a20.4,20.4,0,0,1-5.8-2.964,17.466,17.466,0,0,1-4.4-3.936,27.069,27.069,0,0,1-4.245-6.421,36.363,36.363,0,0,1-2.274-6.455,49.616,49.616,0,0,1-.731-6.155l-.058-.9c-.162-4.432-.279-9.152-.115-12.885.041-1.261-.057-2.361-.112-3.491,4.5,2.415,7.221,7.379,9.2,11.69a53.343,53.343,0,0,1,2.775,6.82c.812,2.075,1.431,4.255,2.2,6.936L63.71,60.9a48.3,48.3,0,0,0,4.606,9.937l.022.022.555.831,1.08-3.2A42.253,42.253,0,0,1,66,59.772l-.378-1.1c-.734-2.16-1.242-4.253-1.912-6.1-.687-1.818-1.358-3.694-2.178-5.713a20.161,20.161,0,0,1,8.118,3.561,39.753,39.753,0,0,1,4.95,4.323l1.145-3.4-.481.122a.865.865,0,0,0-.12.066,40.344,40.344,0,0,0-4.153-3.371,17.944,17.944,0,0,0-4.91-2.645,20.747,20.747,0,0,0-5.79-1.362C58.073,39.317,55.083,34.024,49.656,31.7l-2.979,2.011c.143,1.444.145,2.989.188,4.566.017,1.786-.125,3.964-.087,6.115s.078,4.421.117,6.612l.022.947c.36,4.288.657,8.093,3.133,13.271a22.107,22.107,0,0,0,2.363,4.158,19.947,19.947,0,0,1-7.089-2.85,23.514,23.514,0,0,1-6.882-7.188,43.941,43.941,0,0,1-2.511-5.317,26.379,26.379,0,0,1-1.261-5.343,25.007,25.007,0,0,1-.009-6.858l-2.8,1.89a28.725,28.725,0,0,0,.856,9.1,18.361,18.361,0,0,1-5.926-5.678l-2.181,1.472.008.007.009.013a19.334,19.334,0,0,0,4.283,4.718,18.839,18.839,0,0,0,5.025,3.087,42.665,42.665,0,0,0,3.143,5.689,33.464,33.464,0,0,0,5.74,5.9l1.057.714a24.759,24.759,0,0,0,6.329,2.89,28.7,28.7,0,0,0,4.539.73A22.647,22.647,0,0,0,60,76.935a22.959,22.959,0,0,0,6.068,3.052l.015,0h.011l.843-2.5Z" transform="translate(-24.608 -31.7)" fill="#002d5d"/>
    </g>
    <g id="Group_30" data-name="Group 30" transform="translate(85.073 93.398)">
      <path id="Path_78" data-name="Path 78" d="M58.419,56.816,34.476,72.977l-.707-1.342A26.541,26.541,0,0,1,32.241,68.3c-1.01-2.711-2.152-5.926-2.221-8.3a29.414,29.414,0,0,1-3.057-3.416,27.794,27.794,0,0,1-3.148-6.236,10.407,10.407,0,0,1-.327-1.243,28.8,28.8,0,0,1,.3-14.767,25.61,25.61,0,0,1-1.834-5.643,23.234,23.234,0,0,1-.45-5.252v-.013l0-.009L50.369,24.56a17.191,17.191,0,0,1,1.364,5.126,13.356,13.356,0,0,1,.224,4.065,18.876,18.876,0,0,1-.409,4.06,28.2,28.2,0,0,1-.752,3.914,24.476,24.476,0,0,1,3.538,4.667,20.692,20.692,0,0,1,2.244,5.074c.57,1.864.9,3.55,1.279,5.123a.8.8,0,0,1,.129.024Z" transform="translate(-20.797 -23.39)" fill="#d9dfe7"/>
      <path id="Path_79" data-name="Path 79" d="M36.6,71.916l-.006-.008A23.279,23.279,0,0,1,32.661,60.1c.082-2-.367-3.411.631-7.73,1.2-5.277,3.038-8.169,5.47-11.742l.547-.74,4.106-5.253,4.026-4.55a24.672,24.672,0,0,0,2.195-3.272,18.587,18.587,0,0,1,.907,7.825,18.092,18.092,0,0,1-.517,3.684,25.729,25.729,0,0,1-.748,3.51c-.8,2.651-1.22,4.809-2.113,7-.689,2.133-1.525,4.214-2.585,6.8l-.413,1.117a41.3,41.3,0,0,0-2.415,10.7l0,.031c-.026.349-.05.681-.075,1.015l2.8-1.89a38.174,38.174,0,0,1,2.168-9.328l.387-1.1c1.675-4.346,2.875-7.587,4.086-11.72a20.134,20.134,0,0,1,4.154,7.681A47.429,47.429,0,0,1,56.5,58.49l2.971-2.006-.438-.193a.838.838,0,0,0-.132-.021c-.342-1.573-.643-3.253-1.185-5.1a18.8,18.8,0,0,0-2.208-5A22.962,22.962,0,0,0,51.9,41.6a27.03,27.03,0,0,0,.833-3.879,17.588,17.588,0,0,0,.457-4,12.326,12.326,0,0,0-.23-4,16.594,16.594,0,0,0-1.435-5.122l-3.591-.142a26.346,26.346,0,0,1-2.671,4.3c-2.33,2.915-5.514,6.276-8.059,9.789l-.585.749a32.739,32.739,0,0,0-3.391,5.409,26.632,26.632,0,0,0-2.513,6.968A24.151,24.151,0,0,0,30,56.444a21.4,21.4,0,0,1-3.836-6.712,23.167,23.167,0,0,1-.8-10.105,27.56,27.56,0,0,1,3.853-10.756,43.809,43.809,0,0,1,4.226-4.981l-3.376-.134c-2.259,2.626-4.027,4.738-4.97,6.963a19.626,19.626,0,0,1-1.141-7.205l-2.629-.1,0,.009v.014a22.31,22.31,0,0,0,.479,5.259,25.308,25.308,0,0,0,1.915,5.692,28.512,28.512,0,0,0-.4,14.916,10.366,10.366,0,0,0,.331,1.255,27.146,27.146,0,0,0,3.214,6.28A28.947,28.947,0,0,0,30,60.259a24.49,24.49,0,0,0,1.373,6.916,22.588,22.588,0,0,0,3.022,6.2l.009.013.01.006L36.6,71.916Z" transform="translate(-21.324 -23.411)" fill="#002d5d"/>
    </g>
    <g id="Group_31" data-name="Group 31" transform="translate(390.001 48.363)">
      <path id="Path_80" data-name="Path 80" d="M99.121,44.84,97.765,15.986s7.221.565,10.871,1.783a22.964,22.964,0,0,1,8.612-3.218l.986-.107A31.558,31.558,0,0,1,129.8,15.8a20.936,20.936,0,0,1,9.067-3.5l.012,0,.008,0,3.766,28.638c-6.211,4.01-15.37,3.47-21.464,1.626a26.243,26.243,0,0,1-14.654,3.067,39.628,39.628,0,0,1-6.781-1.161.937.937,0,0,1-.113.1l-.522.272Z" transform="translate(-97.732 -11.599)" fill="#d9dfe7"/>
      <path id="Path_81" data-name="Path 81" d="M97.88,18.44h.008a24.989,24.989,0,0,1,10.133,1.814,36.283,36.283,0,0,1,6.172,3.018,68.984,68.984,0,0,1,10.123,7.438l.715.592A71.062,71.062,0,0,0,136.4,38.953a24.154,24.154,0,0,0,3.754,1.647c-5.621,2.914-13.4,2.188-18.605.426-6.177-2.012-9.456-4.371-13.609-8.011l-.9-.8c-2.656-2.393-5.368-4.921-8.107-7.053l-.026-.012-.742-.59.158,3.375c2.4,1.94,4.818,4.15,7.187,6.307l.9.821a38.73,38.73,0,0,0,11.436,7.395A23.064,23.064,0,0,1,106.8,44.222a32.519,32.519,0,0,1-7.79-1.809l.168,3.581.522-.284a.956.956,0,0,0,.114-.1,38.238,38.238,0,0,0,6.794,1.23,25.291,25.291,0,0,0,14.665-3.157c6.11,1.953,15.292,2.561,21.492-1.593l-.468-3.563a25.437,25.437,0,0,1-4.826-1.913,71.59,71.59,0,0,1-10.989-7.381l-.716-.606a71.013,71.013,0,0,0-10.486-7.671,37.841,37.841,0,0,0-3.7-1.968,19.163,19.163,0,0,1,5.971-1.992,21.453,21.453,0,0,1,8.117.382,38.247,38.247,0,0,1,9.26,3.394,50.607,50.607,0,0,1,5.484,3.38l-.44-3.35a53.981,53.981,0,0,0-7.187-3.94,18.855,18.855,0,0,1,6.39-2.124l-.343-2.609-.008,0-.012,0a20.114,20.114,0,0,0-9.043,3.609,30.236,30.236,0,0,0-11.564-1.478l-.984.107a22.151,22.151,0,0,0-8.591,3.334,28.406,28.406,0,0,0-10.842-1.9h-.012l-.008.006.124,2.634Z" transform="translate(-97.757 -12.123)" fill="#002d5d"/>
    </g>
    <g id="Group_32" data-name="Group 32" transform="translate(347.513 52.002)">
      <path id="Path_82" data-name="Path 82" d="M87.114,42.066l1.367-28.854s1.836.312,4.083.816a33.452,33.452,0,0,1,6.592,1.98A24.213,24.213,0,0,1,107.97,13.6l.985-.014a32.717,32.717,0,0,1,11.337,2.386,21.031,21.031,0,0,1,9.293-2.711h.012l.008,0,1.355,28.853c-6.546,3.451-15.681,2.186-21.616-.252a25.791,25.791,0,0,1-14.975,1.664,32.072,32.072,0,0,1-6.6-1.765.91.91,0,0,1-.12.088l-.535.219Z" transform="translate(-87.085 -12.504)" fill="#d9dfe7"/>
      <path id="Path_83" data-name="Path 83" d="M88.412,15.673h.008a24.678,24.678,0,0,1,9.939,2.751,38.136,38.136,0,0,1,5.828,3.624,65.776,65.776,0,0,1,9.392,8.313l.66.656a71.037,71.037,0,0,0,10.684,8.594,24.061,24.061,0,0,0,3.613,1.972c-5.871,2.381-13.593,1.062-18.645-1.213a33.461,33.461,0,0,1-12.837-9.259l-.819-.891c-2.417-2.628-4.844-5.328-7.4-7.754l-.025-.015-.69-.661-.16,3.375c2.224,2.182,4.4,4.611,6.551,6.936l.819.891a36.743,36.743,0,0,0,10.724,8.457,22.078,22.078,0,0,1-11.24.7,27.964,27.964,0,0,1-7.54-2.505l-.17,3.581L87.643,43a.886.886,0,0,0,.12-.092,31.064,31.064,0,0,0,6.6,1.835,24.9,24.9,0,0,0,15-1.753c5.943,2.548,15.1,3.883,21.646.286l-.169-3.59a23.447,23.447,0,0,1-4.658-2.314,71.708,71.708,0,0,1-10.322-8.291l-.66-.659a70.8,70.8,0,0,0-9.728-8.607c-1.352-.95-2.531-1.722-3.486-2.288a19.736,19.736,0,0,1,6.094-1.46,22.018,22.018,0,0,1,8,1.123,38,38,0,0,1,8.9,4.178,55.848,55.848,0,0,1,5.171,3.833l-.158-3.375a57.954,57.954,0,0,0-6.81-4.538,19.472,19.472,0,0,1,6.523-1.572l-.123-2.628-.008,0h-.012A20.191,20.191,0,0,0,120.3,15.91a31.268,31.268,0,0,0-11.321-2.5l-.983.014a23.264,23.264,0,0,0-8.8,2.524,27.746,27.746,0,0,0-10.636-2.911h-.012l-.009,0-.125,2.635Z" transform="translate(-87.107 -13.035)" fill="#002d5d"/>
    </g>
    <g id="Group_33" data-name="Group 33" transform="translate(348.984 98.507)">
      <path id="Path_84" data-name="Path 84" d="M132.216,27.746,129.488,56.5s-6.889-1.551-10.277-3.173a23.965,23.965,0,0,1-8.688,2.228l-.962,0a32.394,32.394,0,0,1-11.074-2.438,21.032,21.032,0,0,1-9.038,2.825h-.012l-.008,0L87.486,27.132c6.627-3.615,16.053-2.4,22.048.154a26.358,26.358,0,0,1,15.275-1.352,40.364,40.364,0,0,1,6.712,2.091.961.961,0,0,1,.129-.083l.567-.2Z" transform="translate(-87.444 -24.159)" fill="#d9dfe7"/>
      <path id="Path_85" data-name="Path 85" d="M129.7,55.113h-.008A25.326,25.326,0,0,1,120.1,52a36.724,36.724,0,0,1-5.669-3.754,72,72,0,0,1-9.234-8.448l-.658-.665a67.886,67.886,0,0,0-10.8-8.564,27.105,27.105,0,0,0-3.7-1.871,19.608,19.608,0,0,1,9.811-1.249,28.128,28.128,0,0,1,9.161,2.387c6.055,2.627,9.071,5.371,12.754,9.511l.794.907c2.338,2.662,4.67,5.6,7.057,8.065l.024.016.644.685.319-3.363c-2.091-2.251-4.181-4.773-6.26-7.238l-.794-.914a36.276,36.276,0,0,0-10.626-8.7,23,23,0,0,1,11.43-.444,32.139,32.139,0,0,1,7.619,2.861l.339-3.569-.569.208a.943.943,0,0,0-.129.087,39.041,39.041,0,0,0-6.722-2.162,25.5,25.5,0,0,0-15.314,1.44c-6-2.66-15.464-3.948-22.1-.188l.242,3.586a25.89,25.89,0,0,1,4.765,2.233A61.832,61.832,0,0,1,102.907,41.1l.657.655a79.95,79.95,0,0,0,9.553,8.695c1.313.971,2.456,1.814,3.384,2.379a20.585,20.585,0,0,1-6.009,1.336,22.934,22.934,0,0,1-7.837-1.175,41.166,41.166,0,0,1-8.778-4.157,49.847,49.847,0,0,1-5.184-3.738l.227,3.371a52.789,52.789,0,0,0,6.77,4.406,17.5,17.5,0,0,1-6.358,1.7l.177,2.625.008,0h.012a20.128,20.128,0,0,0,9.009-2.933,30.871,30.871,0,0,0,11.045,2.554l.959,0a22.978,22.978,0,0,0,8.67-2.346,28.688,28.688,0,0,0,10.222,3.285h.012l.008,0,.249-2.625Z" transform="translate(-87.475 -24.691)" fill="#002d5d"/>
    </g>
    <g id="Group_34" data-name="Group 34" transform="translate(304.359 100.195)">
      <path id="Path_86" data-name="Path 86" d="M120.841,25.889l1.943,28.821-3.974-.359a32.643,32.643,0,0,1-6.689-1.131,23.749,23.749,0,0,1-8.248,3.6l-.955.143a30.543,30.543,0,0,1-11.383-.681A18.6,18.6,0,0,1,83.469,60.5l-.012,0-.007,0L76.329,32.511a23.06,23.06,0,0,1,11.118-4.128,33.651,33.651,0,0,1,10.968.663,25.972,25.972,0,0,1,14.83-3.717,31.063,31.063,0,0,1,6.955.94.887.887,0,0,1,.114-.1l.528-.278Z" transform="translate(-76.173 -24.598)" fill="#d9dfe7"/>
      <path id="Path_87" data-name="Path 87" d="M122.771,53.3h-.008a25.435,25.435,0,0,1-9.975-1.535,47.825,47.825,0,0,1-6.2-2.766A79.789,79.789,0,0,1,96.12,42.11l-.75-.537a54.9,54.9,0,0,0-12.077-6.733A27.58,27.58,0,0,0,79.2,33.606c5.793-3.659,13.734-3.38,19.1-1.975a32.893,32.893,0,0,1,14.095,7.389l.93.778c2.741,2.3,5.5,4.643,8.261,6.8l.026.012.747.582-.227-3.371c-2.43-1.94-4.9-4.086-7.341-6.1l-.931-.778a34.686,34.686,0,0,0-11.866-6.894,21.643,21.643,0,0,1,11.188-2.254,27.314,27.314,0,0,1,7.975,1.565l-.241-3.577-.528.29a.97.97,0,0,0-.114.105,30.349,30.349,0,0,0-6.976-1.008,25.124,25.124,0,0,0-14.853,3.81,32.666,32.666,0,0,0-11.009-.77A22.382,22.382,0,0,0,76.29,32.416l.886,3.483a25.525,25.525,0,0,1,5.22,1.4,51.142,51.142,0,0,1,11.665,6.453l.752.551a90.837,90.837,0,0,0,10.822,7.077,37.281,37.281,0,0,0,3.723,1.749,17.362,17.362,0,0,1-5.736,2.306,23.65,23.65,0,0,1-7.959.1,44.765,44.765,0,0,1-9.23-2.709,59.939,59.939,0,0,1-5.681-2.874l.833,3.274a56.24,56.24,0,0,0,7.242,3.292,15.823,15.823,0,0,1-5.734,2.635l.649,2.55.007-.005.011,0a17.8,17.8,0,0,0,8-4.311,29.219,29.219,0,0,0,11.377.8l.952-.143a22.8,22.8,0,0,0,8.212-3.715,28.575,28.575,0,0,0,10.627,1.609h.012l.008-.006-.177-2.631Z" transform="translate(-76.29 -25.115)" fill="#002d5d"/>
    </g>
    <g id="Group_35" data-name="Group 35" transform="translate(390.962 100.42)">
      <path id="Path_88" data-name="Path 88" d="M144.641,33.828l-6.9,28.05s-6.677-2.449-9.778-4.686a21.6,21.6,0,0,1-8.985.837l-.957-.138a31.276,31.276,0,0,1-10.6-4.149,20.79,20.79,0,0,1-9.39,1.331h-.012l-.008,0,2.728-28.756c7.13-2.523,16.178.29,21.688,3.65a26.153,26.153,0,0,1,15.2,1.049,40.3,40.3,0,0,1,6.291,2.993.927.927,0,0,1,.139-.064l.586-.116Z" transform="translate(-97.947 -24.647)" fill="#d9dfe7"/>
      <path id="Path_89" data-name="Path 89" d="M138.254,60.526l-.008,0a23.24,23.24,0,0,1-9.092-4.531,36.1,36.1,0,0,1-5.065-4.518,81.446,81.446,0,0,1-7.809-9.8l-.545-.752a61.676,61.676,0,0,0-9.284-10.189,25.3,25.3,0,0,0-3.338-2.508c6.274-1.515,13.853,1.1,18.5,4.166a33.6,33.6,0,0,1,11.1,11.357l.642,1.036c1.892,3.058,3.79,6.2,5.8,9l.021.019.541.768.807-3.281c-1.749-2.516-3.449-5.3-5.136-8.021l-.643-1.036a35.831,35.831,0,0,0-9.126-10.233A22.338,22.338,0,0,1,136.91,33.33a32.859,32.859,0,0,1,7.075,3.892l.857-3.481-.59.127a1.006,1.006,0,0,0-.14.068,38.914,38.914,0,0,0-6.288-3.064,25.278,25.278,0,0,0-15.243-.967c-5.5-3.47-14.57-6.356-21.729-3.69l-.34,3.578a21.7,21.7,0,0,1,4.339,2.975,61.978,61.978,0,0,1,8.964,9.808l.542.766a84.1,84.1,0,0,0,8.088,10.093,38.121,38.121,0,0,0,3,2.863,17.514,17.514,0,0,1-6.172.339,20.557,20.557,0,0,1-7.593-2.373,41.275,41.275,0,0,1-8.02-5.493c-1.169-1.1-3.735-3.541-4.514-4.544l-.319,3.364a63.587,63.587,0,0,0,5.974,5.48,19.514,19.514,0,0,1-6.552.609L98,56.3l.008,0h.012a19.9,19.9,0,0,0,9.379-1.442,29.869,29.869,0,0,0,10.553,4.26l.955.137a20.842,20.842,0,0,0,8.988-.955,26.588,26.588,0,0,0,9.71,4.79l.012,0,.009,0,.63-2.561Z" transform="translate(-97.998 -25.171)" fill="#002d5d"/>
    </g>
    <g id="Group_36" data-name="Group 36" transform="translate(43.542 112.65)">
      <path id="Path_90" data-name="Path 90" d="M54.524,29.275l1.482,28.848s-7.419-.5-11.149-1.773a23.706,23.706,0,0,1-8.873,3.155L34.97,59.6a32.077,32.077,0,0,1-11.832-1.573,21.4,21.4,0,0,1-9.414,3.251h-.012l-.008,0L10.929,32.529c6.339-3.777,15.427-3.026,21.5-1.092A26.728,26.728,0,0,1,47.111,28.5a39.763,39.763,0,0,1,6.779,1.145.937.937,0,0,1,.113-.1l.521-.274Z" transform="translate(-10.869 -27.717)" fill="#d9dfe7"/>
      <path id="Path_91" data-name="Path 91" d="M55.952,56.714h-.008a25.413,25.413,0,0,1-10.373-1.8A36.719,36.719,0,0,1,39.3,51.856a64.55,64.55,0,0,1-10.158-7.577l-.711-.6a77.474,77.474,0,0,0-11.254-7.918A26.368,26.368,0,0,0,13.467,34c5.713-2.733,13.445-1.82,18.642.013a35.98,35.98,0,0,1,13.614,8.145l.906.809c2.677,2.395,5.427,4.908,8.224,7.033l.026.012.758.587-.173-3.374c-2.449-1.933-4.9-4.135-7.283-6.286l-.908-.817a39.724,39.724,0,0,0-11.436-7.476,23.169,23.169,0,0,1,11.079-1.689,32.744,32.744,0,0,1,7.8,1.791l-.184-3.58-.521.285a.909.909,0,0,0-.113.1,38.324,38.324,0,0,0-6.788-1.214,25.706,25.706,0,0,0-14.682,3.024c-6.088-2.043-15.19-2.864-21.52,1.058L11.259,36a26.263,26.263,0,0,1,4.779,2.077,76,76,0,0,1,10.883,7.649l.712.618a67.6,67.6,0,0,0,10.531,7.829,38.19,38.19,0,0,0,3.764,1.992,19.452,19.452,0,0,1-6.143,1.944,22.624,22.624,0,0,1-8.306-.506,38.768,38.768,0,0,1-9.365-3.62,47.43,47.43,0,0,1-5.462-3.549l.324,3.363a50.472,50.472,0,0,0,7.2,4.149,18.993,18.993,0,0,1-6.616,1.939l.253,2.619.008,0h.013a20.6,20.6,0,0,0,9.4-3.36,30.8,30.8,0,0,0,11.834,1.69l1.014-.092a22.88,22.88,0,0,0,8.858-3.271,28.894,28.894,0,0,0,11.126,1.89h.013l.008-.006-.136-2.634Z" transform="translate(-10.914 -28.237)" fill="#002d5d"/>
    </g>
    <g id="Group_37" data-name="Group 37" transform="translate(0 116.314)">
      <path id="Path_92" data-name="Path 92" d="M43.533,29.793l2.775,28.753s-7.461-.139-11.248-1.287a23.626,23.626,0,0,1-8.748,3.527l-1.01.133a31.665,31.665,0,0,1-11.88-1.084A21.3,21.3,0,0,1,4.3,63.479l-.012,0-.007,0L.023,34.915C6.4,30.825,15.428,31.2,21.6,32.889a26.638,26.638,0,0,1,14.518-3.534,37,37,0,0,1,6.8.837.907.907,0,0,1,.108-.1Z" transform="translate(0.07 -28.64)" fill="#d9dfe7"/>
      <path id="Path_93" data-name="Path 93" d="M46.192,57.138h-.008a25.36,25.36,0,0,1-10.468-1.344,38.4,38.4,0,0,1-6.4-2.787,64.627,64.627,0,0,1-10.467-7.156l-.735-.573A75.752,75.752,0,0,0,6.519,37.844a26.989,26.989,0,0,0-3.81-1.593c5.652-2.993,13.411-2.4,18.677-.78a36.039,36.039,0,0,1,13.937,7.575l.941.773c2.777,2.28,5.633,4.637,8.528,6.656l.027.011.785.555-.324-3.363c-2.536-1.831-5.079-3.928-7.553-5.952l-.941-.773a39.084,39.084,0,0,0-11.732-6.993,22.678,22.678,0,0,1,10.979-2.148,31.152,31.152,0,0,1,7.853,1.437l-.344-3.568-.506.306a.916.916,0,0,0-.108.109,35.756,35.756,0,0,0-6.811-.906A25.627,25.627,0,0,0,21.6,32.813c-6.189-1.8-15.23-2.241-21.6,1.994l.53,3.555a23.69,23.69,0,0,1,4.947,1.854A72.3,72.3,0,0,1,16.688,47.4l.736.584a69.115,69.115,0,0,0,10.849,7.389,37.935,37.935,0,0,0,3.848,1.82,18.885,18.885,0,0,1-6.064,2.2,22.917,22.917,0,0,1-8.319-.153,39.927,39.927,0,0,1-9.489-3.227A47.655,47.655,0,0,1,2.668,52.7l.5,3.341a47.661,47.661,0,0,0,7.309,3.836,18.851,18.851,0,0,1-6.407,2.214l.388,2.6.007,0,.012,0a20.5,20.5,0,0,0,9.093-3.751,30.42,30.42,0,0,0,11.886,1.2l1.009-.134a22.813,22.813,0,0,0,8.729-3.643A28.739,28.739,0,0,0,46.425,59.77h.013l.008-.006-.253-2.625Z" transform="translate(0 -29.155)" fill="#002d5d"/>
    </g>
    <g id="Group_38" data-name="Group 38" transform="translate(130.916 110.492)">
      <path id="Path_94" data-name="Path 94" d="M75.931,29.2l.117,28.886s-1.807-.215-4.1-.6a35.6,35.6,0,0,1-6.916-1.677,23.621,23.621,0,0,1-9.14,2.727l-1.04.033a31.442,31.442,0,0,1-11.967-2.322,21.1,21.1,0,0,1-9.9,2.469h-.013l-.009,0L32.816,29.84c6.468-3.136,15.175-1.79,21.053.476A26.544,26.544,0,0,1,68.521,28.11a37.438,37.438,0,0,1,6.751,1.434.98.98,0,0,1,.119-.094l.54-.247Z" transform="translate(-32.813 -27.173)" fill="#d9dfe7"/>
      <path id="Path_95" data-name="Path 95" d="M76.043,56.68h-.008a25.564,25.564,0,0,1-10.247-2.264,37.649,37.649,0,0,1-6.167-3.344,60.129,60.129,0,0,1-9.762-8.126l-.671-.644a87.92,87.92,0,0,0-10.555-8.7,30.02,30.02,0,0,0-3.474-2.07c5.781-2.219,13.211-.773,18.239,1.331a37.338,37.338,0,0,1,13.112,8.815l.87.853c2.563,2.52,5.217,5.1,7.889,7.383l.026.014.725.624L76,47.177c-2.343-2.061-4.7-4.367-6.985-6.6l-.87-.853a40.26,40.26,0,0,0-11.01-8.009A22.613,22.613,0,0,1,68.2,30.554a31.441,31.441,0,0,1,7.746,2.126L75.931,29.1l-.541.259a.95.95,0,0,0-.119.1,36.332,36.332,0,0,0-6.758-1.5,25.493,25.493,0,0,0-14.653,2.295c-5.88-2.376-14.582-3.792-21.044-.511l.018,3.594a26.353,26.353,0,0,1,4.5,2.505,83.224,83.224,0,0,1,10.222,8.431l.671.658a63.986,63.986,0,0,0,10.137,8.415,37.82,37.82,0,0,0,3.7,2.16,19.006,19.006,0,0,1-6.311,1.639,23.228,23.228,0,0,1-8.415-.986,38.849,38.849,0,0,1-9.234-4.3A44.731,44.731,0,0,1,32.9,47.827l.017,3.378a45.122,45.122,0,0,0,6.949,4.752,18.631,18.631,0,0,1-6.918,1.364l.013,2.631.009,0h.013a20.383,20.383,0,0,0,9.9-2.58,30.326,30.326,0,0,0,11.973,2.438l1.041-.034a22.841,22.841,0,0,0,9.137-2.844,28.989,28.989,0,0,0,10.99,2.392h.012l.008,0-.011-2.637Z" transform="translate(-32.815 -27.696)" fill="#002d5d"/>
    </g>
    <g id="Group_39" data-name="Group 39" transform="translate(87.164 111.06)">
      <path id="Path_96" data-name="Path 96" d="M65.579,29.418,65.722,58.3s-7.674-.837-11.2-2.347a24,24,0,0,1-8.968,2.66l-1.011.039a32.409,32.409,0,0,1-11.674-2.163A21.354,21.354,0,0,1,23.359,59.3h-.013l-.008,0L21.857,30.459c6.526-3.48,15.626-2.319,21.626-.057A26.729,26.729,0,0,1,58.4,28.281a36.549,36.549,0,0,1,6.544,1.479.869.869,0,0,1,.115-.094Z" transform="translate(-21.824 -27.315)" fill="#d9dfe7"/>
      <path id="Path_97" data-name="Path 97" d="M65.737,56.9h-.009a24.863,24.863,0,0,1-10.4-2.33,36.84,36.84,0,0,1-6.062-3.417,65.524,65.524,0,0,1-9.734-8.09l-.68-.64A74.844,74.844,0,0,0,27.97,33.973a26.015,26.015,0,0,0-3.635-1.939c5.855-2.446,13.575-1.194,18.694.923a35.3,35.3,0,0,1,13.185,8.88l.858.86c2.524,2.533,5.133,5.171,7.867,7.436l.026.014.74.624-.017-3.378c-2.378-2.051-4.7-4.376-6.946-6.639l-.859-.86a39.046,39.046,0,0,0-11.042-8.111,23.19,23.19,0,0,1,11.228-1.061A30.63,30.63,0,0,1,65.618,32.9L65.6,29.312l-.517.259a.914.914,0,0,0-.115.1,35.17,35.17,0,0,0-6.541-1.548,25.737,25.737,0,0,0-14.934,2.21c-6.008-2.372-15.121-3.6-21.645.022l.185,3.589a24.8,24.8,0,0,1,4.69,2.292,74.793,74.793,0,0,1,10.518,8.154l.68.654A68.323,68.323,0,0,0,48.012,53.4a40.052,40.052,0,0,0,3.628,2.2,19.875,19.875,0,0,1-6.2,1.61,22.3,22.3,0,0,1-8.225-.938,38.7,38.7,0,0,1-9.152-4.051,51.9,51.9,0,0,1-5.287-3.8L22.95,51.8a53.113,53.113,0,0,0,6.987,4.48,19.378,19.378,0,0,1-6.674,1.628l.135,2.628.008,0h.013a20.544,20.544,0,0,0,9.5-2.918,31.094,31.094,0,0,0,11.668,2.28l1.01-.039a23.139,23.139,0,0,0,8.957-2.777,28.037,28.037,0,0,0,11.173,2.464h.013l.009,0Z" transform="translate(-21.848 -27.838)" fill="#002d5d"/>
    </g>
    <g id="Group_40" data-name="Group 40" transform="translate(212.214 117.121)">
      <path id="Path_98" data-name="Path 98" d="M102.5,47.462,90.9,73.918S89.172,72.9,87.09,71.506a30.865,30.865,0,0,1-5.862-4.756,26.3,26.3,0,0,1-4.023-.345,28.21,28.21,0,0,1-2.781-.6,16.275,16.275,0,0,1-2.615-.866l-.856-.4a32.6,32.6,0,0,1-8.784-6.658,20.578,20.578,0,0,1-8.908-.559l-.011,0h-.008l8.22-27.691c4.033-.476,8.3.65,12.13,2.432a33.12,33.12,0,0,1,9.317,6.853c5.821.574,9.833,1.878,13.843,4.665a35.194,35.194,0,0,1,5.057,3.946.855.855,0,0,1,.138-.04l.553-.018Z" transform="translate(-53.043 -28.885)" fill="#d9dfe7"/>
      <path id="Path_99" data-name="Path 99" d="M91.829,72.621l-.008,0a24.825,24.825,0,0,1-8.859-6.74,36,36,0,0,1-4.109-5.9c-2.379-4.347-3.305-7.423-4.889-11.593l-.341-.864a62.135,62.135,0,0,0-3-6.443,57.342,57.342,0,0,0-3.863-5.858,19.829,19.829,0,0,0-2.971-3.208c6.963-.105,14.181,4.627,17.9,8.948,4.608,5.159,5.823,8.551,7.682,13.9l.387,1.158A84.3,84.3,0,0,0,93.836,66.1l.019.024.433.884,1.356-3.094c-1.352-2.875-2.509-5.959-3.564-8.935l-.4-1.134c-1.589-4.59-2.856-7.984-5.914-12.089a21.591,21.591,0,0,1,10.012,3.884,30,30,0,0,1,5.681,5l1.439-3.283-.556.029a.919.919,0,0,0-.14.044,33.773,33.773,0,0,0-5.012-4c-3.987-2.814-7.988-4.078-13.876-4.582a32.293,32.293,0,0,0-9.312-6.974c-3.845-1.8-8.141-2.918-12.215-2.379l-1.023,3.445a26.111,26.111,0,0,1,3.922,3.866,49.848,49.848,0,0,1,6.62,11.814l.334.876a104.009,104.009,0,0,0,5.024,11.9,30.367,30.367,0,0,0,2.343,3.652,23.962,23.962,0,0,1-3.124-.465,15.074,15.074,0,0,1-3.16-.944,23.966,23.966,0,0,1-6.493-4.27,48.345,48.345,0,0,1-6.2-7.2c-.86-1.3-2.828-4.148-3.388-5.332l-.961,3.239c1.694,2.817,3.316,4.981,4.44,6.534a18.947,18.947,0,0,1-6.18-.671l-.749,2.523H53.2l.01,0A19.531,19.531,0,0,0,62.1,58.9a30.8,30.8,0,0,0,8.69,6.744l.853.4a15.465,15.465,0,0,0,2.612.846,27.368,27.368,0,0,0,2.8.574,25.631,25.631,0,0,0,4.061.287,28.222,28.222,0,0,0,9.63,7.276l.013.006h.01l1.059-2.416Z" transform="translate(-53.193 -29.357)" fill="#002d5d"/>
    </g>
    <g id="Group_41" data-name="Group 41" transform="translate(294.583 144.771)">
      <path id="Path_100" data-name="Path 100" d="M113.822,36.435l10.657,26.849-1.494.464c-.942.2-2.248.45-3.7.689s-3.038.484-4.553.58a28.939,28.939,0,0,1-4.116-.2,23.7,23.7,0,0,1-3.989,2.235,28.246,28.246,0,0,1-6.59,1.764,8.422,8.422,0,0,1-1.232.093,34.747,34.747,0,0,1-7.856-.7,43.269,43.269,0,0,1-5.8-2.035,22.472,22.472,0,0,1-11.26,1.04l-.014,0h-.01l4.772-28.488c6.26-2.171,13.2-.109,18.262,1.964a24.084,24.084,0,0,1,5.694-2.544,17.465,17.465,0,0,1,5.626-1.064,30.03,30.03,0,0,1,5.275-.12.84.84,0,0,1,.048-.124l.277-.393Z" transform="translate(-73.752 -35.849)" fill="#d9dfe7"/>
      <path id="Path_101" data-name="Path 101" d="M123.854,61.926l-.01,0c-3.929,1.558-9.4,2.1-12.6,1.263-1.922-.509-3.424-.3-7.4-2.283-4.885-2.282-7.322-4.586-10.468-7.7l-.647-.645c-3.094-3.234-6.5-6.684-9.274-9.461a27.462,27.462,0,0,0-2.839-2.485c5.493-1.325,11.558.51,16.021,2.525a74.571,74.571,0,0,1,12.883,7.424l1.017.679a43.279,43.279,0,0,0,10.04,4.729l.031,0,.982.259-1.246-3.14a42.219,42.219,0,0,1-8.715-4.113l-.992-.606a89.6,89.6,0,0,0-10.861-6.544,20.112,20.112,0,0,1,8.757-2.383A31.844,31.844,0,0,1,115,39.62l-1.323-3.332-.267.4a.874.874,0,0,0-.045.128,28.086,28.086,0,0,0-5.229.032,16.132,16.132,0,0,0-5.552,1.045,22.875,22.875,0,0,0-5.623,2.631c-5.03-2.185-11.88-4.311-18.128-1.99l-.594,3.545a28.817,28.817,0,0,1,3.743,3.057c2.728,2.8,6.062,6.079,9.061,9.348l.648.7c3.135,2.955,5.761,5.739,10.958,8.1a34.785,34.785,0,0,0,4.453,1.76,23.737,23.737,0,0,1-7.228,2.289,24.766,24.766,0,0,1-9.627-1,30.9,30.9,0,0,1-9.635-5.211,35.128,35.128,0,0,1-4.769-4.744l-.558,3.332A39.748,39.748,0,0,0,82,65.462a21.478,21.478,0,0,1-7.722.281l-.435,2.6h.01l.014,0A21.968,21.968,0,0,0,85.195,67.2a42.067,42.067,0,0,0,5.828,2.115,33.778,33.778,0,0,0,7.911.741,8.389,8.389,0,0,0,1.242-.095,27.472,27.472,0,0,0,6.637-1.818,23.523,23.523,0,0,0,4.01-2.308,26.975,26.975,0,0,0,13.981-1.44l.015-.006.008-.009-.973-2.452Z" transform="translate(-73.84 -36.288)" fill="#002d5d"/>
    </g>
    <g id="Group_42" data-name="Group 42" transform="translate(249.794 135.083)">
      <path id="Path_102" data-name="Path 102" d="M112.077,45.974l-4.772,28.489s-2.032-.609-4.507-1.512A29.3,29.3,0,0,1,95.722,69.5a23.071,23.071,0,0,1-10.314-.3l-1.08-.321a31.022,31.022,0,0,1-11.115-6.608,22.244,22.244,0,0,1-10.507-1.789l-.013-.006h-.009l11.6-26.455A20.408,20.408,0,0,1,84.362,36.37,35.156,35.156,0,0,1,92.6,41.852a25.784,25.784,0,0,1,13.374,1.737,31.494,31.494,0,0,1,5.482,2.607.846.846,0,0,1,.118-.072l.5-.15Z" transform="translate(-62.401 -33.414)" fill="#d9dfe7"/>
      <path id="Path_103" data-name="Path 103" d="M107.837,73l-.009,0c-3.73-.695-8.285-2.633-10.591-4.692A31.116,31.116,0,0,1,91.871,63.3,44.838,44.838,0,0,1,85.1,52.387l-.4-.843c-1.913-4.017-4.278-8.422-6.364-11.9a27.223,27.223,0,0,0-2.264-3.187c5.969.159,11.854,4.076,15.656,7.619A41.208,41.208,0,0,1,97.1,49.943a54.877,54.877,0,0,1,4.111,6.252l.62,1.052a64.543,64.543,0,0,0,6.345,8.931l.024.019.652.765.558-3.332a78.4,78.4,0,0,1-5.549-7.878l-.622-1.03a52.716,52.716,0,0,0-7.815-10.631,21.859,21.859,0,0,1,10.034,1.737,28.78,28.78,0,0,1,6.346,3.506l.592-3.535-.5.161a.854.854,0,0,0-.118.076,30.149,30.149,0,0,0-5.436-2.669,24.392,24.392,0,0,0-13.341-1.636,33.508,33.508,0,0,0-8.168-5.576,19.445,19.445,0,0,0-10.083-2.261L73.3,37.185A32.262,32.262,0,0,1,76.309,41.2c2.05,3.344,4.314,7.731,6.175,11.595l.4.856a45.854,45.854,0,0,0,7.051,11.391,25.532,25.532,0,0,0,3.128,3.238,18.98,18.98,0,0,1-6.966-.505,22.051,22.051,0,0,1-8.073-3.96,32.983,32.983,0,0,1-7.28-7.573,35.645,35.645,0,0,1-3.259-5.777L66.124,53.56a39.033,39.033,0,0,0,4.713,7.179,18.846,18.846,0,0,1-7.168-1.577l-1.056,2.41h.01l.012.006a21.582,21.582,0,0,0,10.575,1.7,30.144,30.144,0,0,0,11.114,6.732l1.084.322a22.561,22.561,0,0,0,10.382.193A28.32,28.32,0,0,0,107.376,75.6l.014,0,.01,0,.436-2.6Z" transform="translate(-62.613 -33.86)" fill="#002d5d"/>
    </g>
    <g id="Group_43" data-name="Group 43" transform="translate(358.792 87.241)">
      <path id="Path_104" data-name="Path 104" d="M97.148,23.7l28.829-1.821-.047,1.427c-.071.891-.216,2.132-.4,3.495a29.358,29.358,0,0,1-1.968,8.054,23.79,23.79,0,0,1,1.25,11.115l-.261,1.232a30.626,30.626,0,0,1-6.352,13,22.464,22.464,0,0,1-3.048,11.728l-.008.014,0,.011L90.077,57.6c-.123-5.965,3.52-11.189,6.675-15.606a27.2,27.2,0,0,1-1.05-6.131,20.179,20.179,0,0,1,.448-6.024,35.315,35.315,0,0,1,1.383-5.607.878.878,0,0,1-.1-.095l-.283-.438Z" transform="translate(-89.515 -21.835)" fill="#d9dfe7"/>
      <path id="Path_105" data-name="Path 105" d="M124.468,22.034v.01a24.248,24.248,0,0,1-2.335,11.816,25.609,25.609,0,0,1-4.074,6.473c-3.376,4.149-6.33,5.975-10.047,8.217l-.787.456c-4.006,2.107-8.184,4.34-11.623,5.887-1.147.538-2.059,1.143-3.124,1.672.16-5.186,3.694-9.856,6.572-13.7A76.63,76.63,0,0,1,109.487,32.24l.916-.806a53.9,53.9,0,0,0,7.379-8.167l.012-.028.563-.818-3.372.213a55.2,55.2,0,0,1-6.468,7.128l-.861.807a83.345,83.345,0,0,0-9.072,8.969,20.361,20.361,0,0,1-.091-9.334,33.371,33.371,0,0,1,2.025-6.656l-3.578.226.294.434a.853.853,0,0,0,.106.094,33.384,33.384,0,0,0-1.453,5.562,18.737,18.737,0,0,0-.448,5.962,25.57,25.57,0,0,0,1.151,6.084c-3.258,4.353-6.923,9.433-6.639,15.413l3.119,1.786c1.192-.813,2.7-1.461,4.072-2.225l5.562-2.676,5.854-3.086.851-.44a36.726,36.726,0,0,0,5.361-3.475,29.182,29.182,0,0,0,5.3-5.121,36.347,36.347,0,0,0,2.789-3.868,23.314,23.314,0,0,1,.447,7.557,23.607,23.607,0,0,1-3.549,9.3,34.577,34.577,0,0,1-3.652,4.63,32.586,32.586,0,0,1-4.258,3.532,26,26,0,0,1-6.2,3.072l2.932,1.678a32.3,32.3,0,0,0,4.571-2.359c1.27-.873,2.371-1.741,3.252-2.483a23.027,23.027,0,0,1-.73,3.98,24.68,24.68,0,0,1-1.785,3.9l2.284,1.307,0-.011.008-.014a22.115,22.115,0,0,0,2.991-11.863,30.162,30.162,0,0,0,6.495-13.073l.263-1.243a23.4,23.4,0,0,0-1.356-11.207,27.907,27.907,0,0,0,2.529-13.033v-.015l-.006-.01-2.632.166Z" transform="translate(-89.934 -21.868)" fill="#002d5d"/>
    </g>
    <g id="Group_44" data-name="Group 44" transform="translate(334.419 122.697)">
      <path id="Path_106" data-name="Path 106" d="M108.59,30.833l25.068,14.352-.894,1.239a25.288,25.288,0,0,1-2.317,2.864c-2.018,2.073-4.388,4.559-6.425,5.69a29.068,29.068,0,0,1-1.709,4.167,30.913,30.913,0,0,1-1.617,2.849,24.427,24.427,0,0,1-2.334,2.693l-.9.851a35.552,35.552,0,0,1-3.235,2.652,33.112,33.112,0,0,1-3.546,1.959,25.127,25.127,0,0,1-6.249,2.246,25.76,25.76,0,0,1-4.169,4.417,31.6,31.6,0,0,1-5.7,3.2l-.015.006-.009.007L83.883,53.175c3.61-4.6,8.812-6.431,14.148-8.174a42.453,42.453,0,0,1,2.759-5.59,29.8,29.8,0,0,1,3.725-4.447c1.484-1.37,2.871-2.458,4.115-3.518a.794.794,0,0,1-.035-.128c0-.17,0-.322-.006-.485Z" transform="translate(-83.65 -30.521)" fill="#d9dfe7"/>
      <path id="Path_107" data-name="Path 107" d="M132.156,44.46l0,.009c-1.876,3.736-6.063,7.252-8.821,8.839a35.1,35.1,0,0,1-7.18,2.892,35.224,35.224,0,0,1-12.983.694l-.929-.127-6.606-.988-6.007-1.293c-1.162-.208-2.363-.574-3.442-.721a16.543,16.543,0,0,1,6.023-4.209c2.156-1.192,4.739-1.723,7.035-2.527a73.667,73.667,0,0,1,14.72-2.425l1.174-.152a41.063,41.063,0,0,0,10.735-2.629l.026-.018.945-.389-2.932-1.679a40.238,40.238,0,0,1-4.6,1.44c-1.625.338-3.232.6-4.783.809l-1.173.149c-2.256.319-4.3.512-6.375.75s-3.878.715-6.106,1.175a26.049,26.049,0,0,1,2.207-4.106,40.5,40.5,0,0,1,2.994-3.4,22,22,0,0,1,2.625-2.1c.892-.679,1.73-1.362,2.629-1.919l-3.111-1.781c.006.164.012.315.018.486a.843.843,0,0,0,.039.129c-1.26,1.029-2.655,2.086-4.138,3.426a26.612,26.612,0,0,0-3.682,4.389A38.961,38.961,0,0,0,97.8,44.8c-5.39,1.635-10.493,3.315-13.98,8.028l1.326,3.34a26.188,26.188,0,0,1,4.485.8c3.451.722,8.22,1.845,12.451,2.32l.94.136a36.411,36.411,0,0,0,13.732-.6,29,29,0,0,0,4.456-1.587,17.468,17.468,0,0,1-4.1,6.369,30.832,30.832,0,0,1-3.989,3.368,26.692,26.692,0,0,1-4.369,2.155,28.682,28.682,0,0,1-11.413,1.937A34.733,34.733,0,0,1,90.5,69.642l1.246,3.14a28.74,28.74,0,0,0,9.278.932C99.266,75.83,96.766,77.178,94,78.467l.971,2.446.009-.007L95,80.9a30.874,30.874,0,0,0,5.745-3.249,25.252,25.252,0,0,0,4.177-4.513,25.1,25.1,0,0,0,6.342-2.214,32.7,32.7,0,0,0,3.593-1.961A34.472,34.472,0,0,0,118.12,66.3l.906-.858a23.749,23.749,0,0,0,2.341-2.723,30.1,30.1,0,0,0,1.61-2.889,28.445,28.445,0,0,0,1.679-4.236,27.349,27.349,0,0,0,9.779-9.794l.008-.014V45.77l-2.289-1.31Z" transform="translate(-83.825 -30.755)" fill="#002d5d"/>
    </g>
    <g id="Group_45" data-name="Group 45" transform="translate(332.247 4.91)">
      <path id="Path_108" data-name="Path 108" d="M83.331,28.737,92.658,1.4l1.378.618c.84.427,1.987,1.068,3.235,1.793a31.521,31.521,0,0,1,6.9,5.253,24.3,24.3,0,0,1,10.931,4.143l1.028.825A28.886,28.886,0,0,1,124.9,26.305a22.353,22.353,0,0,1,8.779,9.1l.008.015.008.009-25.53,13.511c-4.857-2.8-7.4-7.912-9.513-12.688a24.426,24.426,0,0,1-10.5-4.321,47.68,47.68,0,0,1-4.217-3.359.788.788,0,0,1-.12.06l-.483.1Z" transform="translate(-83.128 -0.729)" fill="#d9dfe7"/>
      <path id="Path_109" data-name="Path 109" d="M92.187,3.728l.01,0a24.4,24.4,0,0,1,10.38,7.059,27.525,27.525,0,0,1,4.26,6.609,29.18,29.18,0,0,1,2.716,12.814l.006.922a107.855,107.855,0,0,1-.739,12.748,31.693,31.693,0,0,0-.327,3.437c-4.054-2.687-6.3-7.543-8.093-11.863a120.85,120.85,0,0,1-4.639-13.853L95.4,20.462a42.013,42.013,0,0,0-4.611-10.074l-.023-.022-.561-.841-1.091,3.2a42.7,42.7,0,0,1,4,8.761l.355,1.143,1.866,6.1c.63,1.873,1.273,3.724,2.023,5.73a20.734,20.734,0,0,1-8-3.628,45.259,45.259,0,0,1-4.929-4.382L83.28,29.835l.482-.116a.832.832,0,0,0,.121-.065,43.68,43.68,0,0,0,4.131,3.4,22.218,22.218,0,0,0,10.41,4.163c2,4.83,4.386,9.872,9.333,12.523l3.177-1.681c.093-1.446.078-2.847.307-4.468a116.469,116.469,0,0,0,.873-12.66l0-.934a30.992,30.992,0,0,0-2.781-13.575,23.555,23.555,0,0,0-2.383-4.258,19.78,19.78,0,0,1,7.224,3.153,24.089,24.089,0,0,1,6.866,7.748,28.554,28.554,0,0,1,3.287,11.225,26.633,26.633,0,0,1-.578,6.988l2.986-1.58a28.21,28.21,0,0,0-.174-9.418,19.432,19.432,0,0,1,5.58,6.558l2.326-1.231-.008-.009-.008-.015a22.1,22.1,0,0,0-8.937-9.145,28.614,28.614,0,0,0-8.78-12.456l-1.039-.833a24,24,0,0,0-11.08-4.1A27.99,27.99,0,0,0,93.066,1.236l-.015-.005h-.012l-.851,2.5Z" transform="translate(-83.28 -1.231)" fill="#002d5d"/>
    </g>
    <g id="Group_46" data-name="Group 46" transform="translate(356.728 39.28)">
      <path id="Path_110" data-name="Path 110" d="M89.556,23.44,115.088,9.929l.588,1.493a27.819,27.819,0,0,1,1.2,3.685,26.786,26.786,0,0,1,1.159,8.226,23.567,23.567,0,0,1,5.352,8.93c.1.378.2.753.3,1.115a30.2,30.2,0,0,1,.239,13.414,23.16,23.16,0,0,1,2.471,4.936,27.483,27.483,0,0,1,1.128,5.853V57.6l0,.01-28.827,1.82C95.333,54.064,95.469,46.6,96.4,40.82a25.873,25.873,0,0,1-5.741-12.1,45.84,45.84,0,0,1-.582-5.016.728.728,0,0,1-.122-.034l-.393-.233Z" transform="translate(-89 -9.599)" fill="#d9dfe7"/>
      <path id="Path_111" data-name="Path 111" d="M113.8,11.079l0,.01a21.954,21.954,0,0,1,2.276,6.552,16.957,16.957,0,0,1,.28,5.735,29.214,29.214,0,0,1-1.331,7.235A41.748,41.748,0,0,1,109.469,42.2l-.514.781c-1.242,1.862-2.489,3.851-3.661,5.781-1.26,1.938-2.431,3.809-3.389,5.476-.62,1.132-1.294,2.213-1.787,3.3-2.566-4.874-2.162-11.473-1.234-16.51a50.724,50.724,0,0,1,5.128-14.44l.543-1.088A36.555,36.555,0,0,0,108.208,15v-.032c.061-.353.118-.69.177-1.028l-2.986,1.58a36.74,36.74,0,0,1-3.2,9.08l-.537,1.078a54.437,54.437,0,0,0-4.686,12.276,21.837,21.837,0,0,1-4-9.339,37.584,37.584,0,0,1-.391-6.314l-3.168,1.677.4.222a.8.8,0,0,0,.126.031,41.084,41.084,0,0,0,.486,4.97,24.412,24.412,0,0,0,5.808,12.01C95.2,47,94.98,54.408,98.48,59.713l3.587-.227a26.117,26.117,0,0,1,2.182-4.3c1.9-3.253,4.592-7.364,6.919-10.975l.528-.785a43.338,43.338,0,0,0,5.875-12.119,36.828,36.828,0,0,0,1.015-4.411,19.867,19.867,0,0,1,3.375,6.219,22.881,22.881,0,0,1,.947,9.211A32.972,32.972,0,0,1,120.118,52.8a37.614,37.614,0,0,1-3.58,5.776l3.372-.213a34.864,34.864,0,0,0,4.043-7.92,19.191,19.191,0,0,1,2.061,7.534l2.626-.166,0-.01v-.015a26.668,26.668,0,0,0-1.161-5.885,22.633,22.633,0,0,0-2.554-4.952,29.542,29.542,0,0,0-.138-13.5l-.3-1.121a23.015,23.015,0,0,0-5.476-8.935,22.5,22.5,0,0,0-.427-6.65,24.653,24.653,0,0,0-2.437-6.872l-.008-.015-.009-.008L113.8,11.079Z" transform="translate(-89.417 -9.846)" fill="#002d5d"/>
    </g>
    <g id="Group_47" data-name="Group 47" transform="translate(247.364 2.429)">
      <path id="Path_112" data-name="Path 112" d="M74.7,43.746,62.081,17.761s7.215-2.548,11.346-2.754a23.447,23.447,0,0,1,7.8-6.275l1.009-.452a31.546,31.546,0,0,1,13-2.225A22.049,22.049,0,0,1,105.374.79l.015,0L105.4.781l6.322,28.185c-4.648,4.173-12.114,5.259-18.162,5.22a26.077,26.077,0,0,1-11.93,7.521,41.7,41.7,0,0,1-6.5,1.456.946.946,0,0,1-.063.134l-.363.449Z" transform="translate(-61.773 -0.093)" fill="#d9dfe7"/>
      <path id="Path_113" data-name="Path 113" d="M63.156,20.014l.008,0A25.458,25.458,0,0,1,73.713,17.6a35.722,35.722,0,0,1,7.16.53,46.617,46.617,0,0,1,12.2,3.906l.846.371c4.063,1.834,8.67,3.722,12.257,5.183,1.221.459,2.382.849,3.528,1.217-4.339,3.309-10.993,4.051-16.247,3.848a43.007,43.007,0,0,1-15.206-3.131L77.114,29.1A106.022,106.022,0,0,0,66.8,25.767h-.03l-.936-.243,1.476,3.039c3.022.821,6.135,1.9,9.135,3l1.139.417a47.8,47.8,0,0,0,13.013,3.08,22.564,22.564,0,0,1-9.25,5.285A33.744,33.744,0,0,1,73.638,41.6L75.2,44.828l.357-.459a.886.886,0,0,0,.061-.138,40.073,40.073,0,0,0,6.53-1.391,24.83,24.83,0,0,0,11.865-7.59c6.08.146,13.506-.851,18.071-5.154l-.787-3.507a30.1,30.1,0,0,1-4.559-1.479c-3.522-1.406-8-3.312-11.951-5.1l-.86-.405A49.78,49.78,0,0,0,81.21,15.544a33.208,33.208,0,0,0-4.385-.486,18.934,18.934,0,0,1,5.492-4.078,23.453,23.453,0,0,1,8.771-2.263,30.791,30.791,0,0,1,17.04,3.724l-.74-3.3A34.227,34.227,0,0,0,98.9,6.422a18.842,18.842,0,0,1,7.151-3.246L105.474.609l-.009.005-.015,0A21.561,21.561,0,0,0,95.282,6.006,30.773,30.773,0,0,0,82.193,8.14l-1.012.453a22.788,22.788,0,0,0-7.774,6.391,29,29,0,0,0-11.386,2.643l-.012.006L62,17.641l1.152,2.373Z" transform="translate(-62.004 -0.609)" fill="#002d5d"/>
    </g>
    <g id="Group_48" data-name="Group 48" transform="translate(290.833)">
      <path id="Path_114" data-name="Path 114" d="M79.26,30.765,72.938,2.579a41.259,41.259,0,0,1,4.99-.344,31.356,31.356,0,0,1,8.356.718,18.706,18.706,0,0,1,4.139-1.705A21.229,21.229,0,0,1,97.082.183L98.3.22a29.576,29.576,0,0,1,13.475,4.117,21.942,21.942,0,0,1,11.928.711l.015.005h.011L114.4,32.39c-5.875,1.229-12.1-1.317-17.077-3.916-4.3,1.733-7.788,2.667-11.949,2.352A38.485,38.485,0,0,1,79.72,30.3a.859.859,0,0,1-.077.115l-.383.345Z" transform="translate(-72.784 0.532)" fill="#d9dfe7"/>
      <path id="Path_115" data-name="Path 115" d="M73.477,5l.01,0a24.3,24.3,0,0,1,12.16.485,25.649,25.649,0,0,1,7.03,3.093,34.344,34.344,0,0,1,9.582,8.746l.577.722c1.376,1.694,2.818,3.543,4.176,5.357,1.38,1.738,2.656,3.493,3.773,5.02.759,1.027,1.533,1.879,2.271,2.79-5.164.661-10.74-1.755-15.059-4.2a68.028,68.028,0,0,1-6.378-4.1c-1.867-1.441-3.607-2.92-5.721-4.665l-.93-.776a48.463,48.463,0,0,0-9.219-6.055l-.03-.007-.9-.43.74,3.3a52.958,52.958,0,0,1,8.036,5.275l.928.776c1.819,1.539,3.4,2.825,5.01,4.039a46.916,46.916,0,0,0,5.142,3.588,20.345,20.345,0,0,1-9.15,1.484,38.24,38.24,0,0,1-6.793-1.017l.785,3.5.377-.355a.877.877,0,0,0,.075-.119,36.1,36.1,0,0,0,5.614.6c4.124.356,7.547-.607,11.827-2.435,4.94,2.71,11.045,5.307,16.9,3.918l1.161-3.4a38.464,38.464,0,0,1-3-3.561c-2.2-2.987-5.093-6.808-7.757-10.257l-.578-.736A37.98,37.98,0,0,0,94.123,6.3a35.655,35.655,0,0,0-4.229-2.121A19.458,19.458,0,0,1,97.25,2.65a23.625,23.625,0,0,1,9.489,1.923,30.655,30.655,0,0,1,9.255,6.346,29.02,29.02,0,0,1,4.16,5.476l1.091-3.2A30.856,30.856,0,0,0,115.1,6.447a18.9,18.9,0,0,1,8.123.961l.85-2.49h-.011l-.015-.005A21.572,21.572,0,0,0,112,4.285,29.112,29.112,0,0,0,98.447.041L97.224,0a20.9,20.9,0,0,0-6.708,1.113,18.643,18.643,0,0,0-4.165,1.775,28.118,28.118,0,0,0-13.427-.481l-.015,0-.009.007L73.477,5Z" transform="translate(-72.9 0)" fill="#002d5d"/>
    </g>
    <g id="Group_49" data-name="Group 49" transform="translate(170.143 36.716)">
      <path id="Path_116" data-name="Path 116" d="M49.681,49.8l-6.99-28.028s7.2-.939,11.037-.426A23.784,23.784,0,0,1,61.461,16.4l.937-.308a32.2,32.2,0,0,1,11.536-1.2,21.016,21.016,0,0,1,7.945-5.515l.011,0,.007-.006,10.514,26.9c-5.254,5.466-14.608,7.137-21.1,6.652a26.562,26.562,0,0,1-14.061,6.125,35.9,35.9,0,0,1-7.005.268.921.921,0,0,1-.094.12l-.469.368Z" transform="translate(-42.52 -8.711)" fill="#d9dfe7"/>
      <path id="Path_117" data-name="Path 117" d="M43.286,24.144l.008,0A25.27,25.27,0,0,1,53.628,23.9a36.914,36.914,0,0,1,6.681,1.673,73.8,73.8,0,0,1,11.557,5.074l.834.411a64.953,64.953,0,0,0,13,4.807,24.559,24.559,0,0,0,4.126.7c-4.934,4.216-12.909,5.354-18.486,4.772A34.036,34.036,0,0,1,56.128,36.4l-1.058-.614c-3.125-1.83-6.282-3.664-9.423-5.259l-.028-.008-.851-.436.817,3.278c2.769,1.459,5.59,3.108,8.371,4.72l1.058.614a36.638,36.638,0,0,0,12.916,4.83,22.773,22.773,0,0,1-10.7,4.07,30.38,30.38,0,0,1-8.133-.168l.868,3.478.467-.379a.96.96,0,0,0,.093-.124,34.813,34.813,0,0,0,7.034-.2,25.665,25.665,0,0,0,14.062-6.218c6.535.588,15.936-1.027,21.15-6.633L91.46,34a23.722,23.722,0,0,1-5.246-.684,63.53,63.53,0,0,1-12.545-4.631l-.838-.424a80.992,80.992,0,0,0-11.947-5.2c-1.587-.52-2.956-.913-4.038-1.147A19.84,19.84,0,0,1,62.258,18.7a23.558,23.558,0,0,1,7.981-1.4,43.079,43.079,0,0,1,9.79,1.207A58.332,58.332,0,0,1,86.182,20.5l-1.23-3.147a59.284,59.284,0,0,0-7.914-2.139,19.448,19.448,0,0,1,5.687-3.557L81.768,9.2l-.006.006-.011,0a20.158,20.158,0,0,0-7.888,5.612A30.774,30.774,0,0,0,62.312,15.9l-.935.308a22.893,22.893,0,0,0-7.683,5.06,28.8,28.8,0,0,0-11.027.3l-.012,0-.007.006.638,2.559Z" transform="translate(-42.648 -9.203)" fill="#002d5d"/>
    </g>
    <g id="Group_50" data-name="Group 50" transform="translate(209.261 19.467)">
      <path id="Path_118" data-name="Path 118" d="M63.032,49.21l-10.514-26.9s1.745-.455,3.979-.892a34.9,34.9,0,0,1,6.874-.943,23.336,23.336,0,0,1,7.092-5.923l.9-.435A31.981,31.981,0,0,1,82.9,11.459a21.041,21.041,0,0,1,7.752-6.408l.012-.006.006-.006L103.29,31.023c-4.5,5.662-13.247,8.27-19.73,8.6a26.549,26.549,0,0,1-13.089,7.851,35.018,35.018,0,0,1-6.941,1.178.958.958,0,0,1-.079.131l-.421.429Z" transform="translate(-52.261 -4.404)" fill="#d9dfe7"/>
      <path id="Path_119" data-name="Path 119" d="M53.413,24.58l.008,0A25.671,25.671,0,0,1,63.6,23a42.725,42.725,0,0,1,6.857.784,71,71,0,0,1,12.128,3.593l.88.316a78.37,78.37,0,0,0,13.319,3.414,28.1,28.1,0,0,0,4.071.353c-4.331,4.529-11.882,6.462-17.468,6.581a34.411,34.411,0,0,1-15.677-2.97L66.583,34.6c-3.318-1.362-6.712-2.822-10.016-4l-.029,0-.9-.322,1.23,3.147c2.916,1.066,5.956,2.4,8.91,3.6l1.127.466A37.064,37.064,0,0,0,80.32,40.631a22.7,22.7,0,0,1-10.059,5.407,30.035,30.035,0,0,1-8.113.894l1.3,3.339.418-.44a.924.924,0,0,0,.077-.135,34.08,34.08,0,0,0,6.979-1.118A25.626,25.626,0,0,0,84,40.637c6.536-.232,15.317-2.781,19.756-8.572l-1.569-3.233a27.11,27.11,0,0,1-5.166-.3A75.424,75.424,0,0,1,84.146,25.23l-.882-.322A75.049,75.049,0,0,0,70.71,21.224a38.14,38.14,0,0,0-4.163-.6,18.568,18.568,0,0,1,5-3.891,22.9,22.9,0,0,1,7.874-2.417,40.825,40.825,0,0,1,10.041.066,47.829,47.829,0,0,1,6.391,1.4L94.38,12.749a49.3,49.3,0,0,0-8.253-1.33,18.681,18.681,0,0,1,5.581-4.172L90.559,4.88l-.006.007-.012.006a20.28,20.28,0,0,0-7.7,6.506,30.707,30.707,0,0,0-11.576,2.544l-.9.435A22.47,22.47,0,0,0,63.328,20.4,28.925,28.925,0,0,0,52.47,22.112l-.012,0-.006.008Z" transform="translate(-52.453 -4.88)" fill="#002d5d"/>
    </g>
    <g id="Group_51" data-name="Group 51" transform="translate(87.691 57.336)">
      <path id="Path_120" data-name="Path 120" d="M24.515,49.213,22,20.437s7.091.2,10.793,1.236a22.549,22.549,0,0,1,8.493-3.781l1.018-.167a31.582,31.582,0,0,1,12.008.712,21.318,21.318,0,0,1,9.184-3.884l.013,0,.008,0,4.708,28.5c-6.1,4.193-15.142,4.049-21.283,2.572A26.341,26.341,0,0,1,32.244,49.6a36.356,36.356,0,0,1-7.082-.778.928.928,0,0,1-.114.1l-.533.29Z" transform="translate(-21.934 -13.85)" fill="#d9dfe7"/>
      <path id="Path_121" data-name="Path 121" d="M22.211,22.883h.008a25.583,25.583,0,0,1,10.1,1.31,37.151,37.151,0,0,1,6.346,2.626,61.44,61.44,0,0,1,10.727,6.788l.751.549A78.344,78.344,0,0,0,61.9,41.279a26.149,26.149,0,0,0,3.816,1.507C60.191,45.9,52.468,45.5,47.2,44.064a36.315,36.315,0,0,1-14.2-7.125l-.958-.757c-2.827-2.277-5.673-4.568-8.5-6.62l-.026-.012-.764-.567.294,3.366c2.492,1.9,5.031,3.906,7.552,5.933l.96.766a38.141,38.141,0,0,0,12.064,6.645,22.806,22.806,0,0,1-11.183,2.483A30.451,30.451,0,0,1,24.3,46.79l.313,3.571.533-.3a.941.941,0,0,0,.114-.108,35.394,35.394,0,0,0,7.106.846,25.4,25.4,0,0,0,14.7-4.073c6.158,1.586,15.217,1.8,21.3-2.538l-.586-3.546a26.222,26.222,0,0,1-4.911-1.752A76.075,76.075,0,0,1,51.5,32l-.754-.563a65.668,65.668,0,0,0-11.125-7.021c-1.554-.733-2.821-1.319-3.858-1.71a18.753,18.753,0,0,1,5.954-2.395,23.01,23.01,0,0,1,8.392-.117,39.205,39.205,0,0,1,9.621,2.967,47.921,47.921,0,0,1,5.689,3.179L64.87,23A49.426,49.426,0,0,0,57.4,19.347a18.978,18.978,0,0,1,6.474-2.379l-.429-2.6-.008,0-.012,0a20.533,20.533,0,0,0-9.162,3.991,30.378,30.378,0,0,0-12.022-.827l-1.018.168a21.7,21.7,0,0,0-8.465,3.9A29.182,29.182,0,0,0,22,20.249h-.012l-.008.005.23,2.627Z" transform="translate(-21.98 -14.372)" fill="#002d5d"/>
    </g>
    <g id="Group_52" data-name="Group 52" transform="translate(129.154 49.104)">
      <path id="Path_122" data-name="Path 122" d="M37.111,49.218,32.4,20.718s7.431-.364,11.261.515a23.836,23.836,0,0,1,8.366-4.156l.983-.207a32.034,32.034,0,0,1,11.757.11,21.217,21.217,0,0,1,8.661-4.493l.012,0,.007,0,6.99,28.026c-5.874,4.736-15.211,5.2-21.524,4.017a26.654,26.654,0,0,1-14.351,4.62,37.242,37.242,0,0,1-6.866-.365.893.893,0,0,1-.1.111l-.486.328Z" transform="translate(-32.287 -11.796)" fill="#d9dfe7"/>
      <path id="Path_123" data-name="Path 123" d="M32.8,23.137l.008,0a25.169,25.169,0,0,1,10.5.631,36.743,36.743,0,0,1,6.554,2.321,68.4,68.4,0,0,1,10.968,6.305l.781.506a69.168,69.168,0,0,0,12.278,6.353,24.4,24.4,0,0,0,3.978,1.2c-5.383,3.571-13.331,3.687-18.746,2.5a35.274,35.274,0,0,1-14.523-6.5l-.993-.708c-2.934-2.1-5.934-4.235-8.959-6.059l-.028-.01-.821-.5.551,3.333c2.654,1.662,5.328,3.563,7.94,5.421l.993.708a38.171,38.171,0,0,0,12.262,6.112,22.738,22.738,0,0,1-10.877,2.955,31.209,31.209,0,0,1-7.956-.892l.584,3.537.484-.339a.933.933,0,0,0,.1-.116,35.979,35.979,0,0,0,6.882.432,25.673,25.673,0,0,0,14.35-4.71c6.34,1.292,15.71.89,21.561-3.989l-.87-3.487A26.17,26.17,0,0,1,74.714,36.8a67.861,67.861,0,0,1-11.862-6.133l-.783-.52a74.032,74.032,0,0,0-11.355-6.5,40.283,40.283,0,0,0-3.947-1.542,19.591,19.591,0,0,1,5.818-2.644,23.2,23.2,0,0,1,8.2-.5,41.119,41.119,0,0,1,9.646,2.375A51.3,51.3,0,0,1,76.3,24.074L75.481,20.8a54.651,54.651,0,0,0-7.622-3.108A19.045,19.045,0,0,1,74,14.861l-.637-2.553-.008,0-.012,0a20.376,20.376,0,0,0-8.62,4.6,30.687,30.687,0,0,0-11.765-.227l-.982.207a22.992,22.992,0,0,0-8.334,4.269,28.634,28.634,0,0,0-11.25-.635l-.013,0-.008.006.43,2.6Z" transform="translate(-32.373 -12.308)" fill="#002d5d"/>
    </g>
    <g id="Group_53" data-name="Group 53" transform="translate(0.183 54.052)">
      <path id="Path_124" data-name="Path 124" d="M.088,41.587l7.6-27.867s6.85,2.748,9.937,5.09a23.814,23.814,0,0,1,9.2-.422l.962.193A31.927,31.927,0,0,1,38.3,23.234a20.885,20.885,0,0,1,9.423-.978l.012,0,.008,0L44.081,50.908c-7.42,2.265-16.555-.966-21.931-4.622a26.809,26.809,0,0,1-15.192-1.66,39.245,39.245,0,0,1-6.147-3.2.89.89,0,0,1-.14.059l-.584.1Z" transform="translate(0.078 -13.037)" fill="#d9dfe7"/>
      <path id="Path_125" data-name="Path 125" d="M7.307,16.1l.008,0a25.1,25.1,0,0,1,9.218,4.884,40.515,40.515,0,0,1,4.984,4.782,74.992,74.992,0,0,1,7.491,10.175l.521.769a61.692,61.692,0,0,0,9.012,10.6,23.815,23.815,0,0,0,3.334,2.6c-6.491,1.321-14.112-1.676-18.647-4.968A33.836,33.836,0,0,1,12.5,33.083l-.616-1.05c-1.818-3.082-3.645-6.341-5.632-9.218L6.23,22.8,5.7,22l-.889,3.259c1.719,2.592,3.36,5.446,4.971,8.228l.616,1.05a36.977,36.977,0,0,0,8.78,10.6A22.874,22.874,0,0,1,7.911,43.371,32.154,32.154,0,0,1,.99,39.248L.046,42.707.634,42.6a.933.933,0,0,0,.141-.063A37.882,37.882,0,0,0,6.911,45.8a25.88,25.88,0,0,0,15.237,1.579c5.361,3.765,14.517,7.071,21.978,4.665l.455-3.565a26.448,26.448,0,0,1-4.334-3.143,59.7,59.7,0,0,1-8.7-10.206l-.517-.782a83.09,83.09,0,0,0-7.761-10.47,38.084,38.084,0,0,0-2.94-2.989,18.557,18.557,0,0,1,6.3-.084A22.814,22.814,0,0,1,34.2,23.542,42.918,42.918,0,0,1,42.035,29.4a52.732,52.732,0,0,1,4.382,4.7l.428-3.352a59.442,59.442,0,0,0-5.791-5.693,18.513,18.513,0,0,1,6.565-.374l.334-2.61-.008,0-.012,0a19.989,19.989,0,0,0-9.41,1.091A30.46,30.46,0,0,0,28.065,18.4l-.96-.191a22.928,22.928,0,0,0-9.209.54,28.351,28.351,0,0,0-9.874-5.194l-.012,0-.009,0L7.307,16.1Z" transform="translate(-0.046 -13.549)" fill="#002d5d"/>
    </g>
    <g id="Group_54" data-name="Group 54" transform="translate(44.264 62.561)">
      <path id="Path_126" data-name="Path 126" d="M11.115,44.511l3.659-28.653s6.785,1.678,10.115,3.421a23.686,23.686,0,0,1,8.63-2.142l.952,0A32.86,32.86,0,0,1,45.5,19.507a20.868,20.868,0,0,1,9.007-2.981h.012l.008,0L57.044,45.3c-6.664,3.8-16.418,2.634-22.586.11a26.778,26.778,0,0,1-15.763,1.122,39.936,39.936,0,0,1-6.86-2.26,1,1,0,0,1-.134.076l-.586.167Z" transform="translate(-11.036 -15.154)" fill="#d9dfe7"/>
      <path id="Path_127" data-name="Path 127" d="M14.589,18.3H14.6a25.475,25.475,0,0,1,9.465,3.349,48.174,48.174,0,0,1,5.61,3.8,91.789,91.789,0,0,1,9.287,8.485l.67.644a59.717,59.717,0,0,0,11.088,8.444,23.714,23.714,0,0,0,3.8,1.827c-6.013,2.683-14.2,1.4-19.427-.927a31.623,31.623,0,0,1-12.934-9.657l-.787-.929c-2.316-2.727-4.594-5.689-6.911-8.222l-.023-.017-.624-.719-.428,3.351c2.031,2.353,4.081,4.873,6.138,7.4l.787.933A34.484,34.484,0,0,0,31.071,44.93a23.066,23.066,0,0,1-11.771.247,31.107,31.107,0,0,1-7.751-3.069L11.1,45.663l.588-.178a.9.9,0,0,0,.135-.08,38.713,38.713,0,0,0,6.875,2.333A25.972,25.972,0,0,0,34.51,46.528c6.183,2.635,15.98,3.872,22.649-.077l-.314-3.58a26.3,26.3,0,0,1-4.885-2.133,58.576,58.576,0,0,1-10.689-8.123l-.669-.657A102.067,102.067,0,0,0,31,23.269a38.779,38.779,0,0,0-3.348-2.386,18.442,18.442,0,0,1,5.978-1.288,23.17,23.17,0,0,1,7.8,1.133,44.829,44.829,0,0,1,8.848,4.053,53.942,53.942,0,0,1,5.3,3.644l-.295-3.366A62.891,62.891,0,0,0,48.4,20.746a18.779,18.779,0,0,1,6.354-1.779l-.229-2.621-.008,0H54.5a19.954,19.954,0,0,0-8.971,3.088,31.255,31.255,0,0,0-10.989-2.491l-.948,0a22.7,22.7,0,0,0-8.6,2.261,28.571,28.571,0,0,0-10.047-3.53l-.012,0-.008,0L14.589,18.3Z" transform="translate(-11.095 -15.682)" fill="#002d5d"/>
    </g>
    <g id="Group_55" data-name="Group 55" transform="translate(431.065 41.329)">
      <path id="Path_128" data-name="Path 128" d="M111.839,46.214l-3.767-28.64s7.264-.095,11.009.881a23.051,23.051,0,0,1,8.326-3.909l.972-.186a30.884,30.884,0,0,1,11.593.412,20.826,20.826,0,0,1,8.391-4.234l.01,0,.006,0L155.21,38.6c-6.281,4.695-15.3,4.884-21.588,3.546a26.1,26.1,0,0,1-14.349,4.23,35.212,35.212,0,0,1-6.833-.58.843.843,0,0,1-.1.108l-.5.313Z" transform="translate(-107.981 -9.846)" fill="#d9dfe7"/>
      <path id="Path_129" data-name="Path 129" d="M108.394,20h.008a25.025,25.025,0,0,1,10.271.967,40.187,40.187,0,0,1,6.4,2.5,69.2,69.2,0,0,1,10.7,6.6l.762.531a68.55,68.55,0,0,0,12.018,6.649,26.08,26.08,0,0,0,3.954,1.286c-5.48,3.457-13.305,3.366-18.646,2.04a34.477,34.477,0,0,1-14.221-6.891l-.964-.733c-2.841-2.15-5.749-4.41-8.665-6.338l-.027-.01-.791-.529.44,3.35c2.56,1.737,5.154,3.77,7.685,5.679l.964.733a37.255,37.255,0,0,0,12,6.443,22.1,22.1,0,0,1-10.864,2.659,29.919,29.919,0,0,1-7.892-1.141l.468,3.554.5-.324a.946.946,0,0,0,.1-.113,34.125,34.125,0,0,0,6.85.648,25.164,25.164,0,0,0,14.353-4.321c6.312,1.445,15.357,1.323,21.635-3.52l-.85-3.492a21.078,21.078,0,0,1-5.162-1.428A64.835,64.835,0,0,1,137.8,28.4l-.763-.537a74.21,74.21,0,0,0-11.076-6.8,37.445,37.445,0,0,0-3.85-1.635,17.934,17.934,0,0,1,5.789-2.478,22.1,22.1,0,0,1,8.1-.3,40.41,40.41,0,0,1,9.46,2.612,48.35,48.35,0,0,1,5.692,2.884l-.8-3.283a46.9,46.9,0,0,0-7.353-3.3,18.4,18.4,0,0,1,5.907-2.642l-.622-2.556-.006,0-.01,0a20,20,0,0,0-8.341,4.336,29.6,29.6,0,0,0-11.6-.53l-.97.186a22.233,22.233,0,0,0-8.3,4.023,28.291,28.291,0,0,0-10.991-1l-.012,0-.008.006L108.394,20Z" transform="translate(-108.05 -10.359)" fill="#002d5d"/>
    </g>
    <g id="Group_56" data-name="Group 56" transform="translate(304.004 48.961)">
      <path id="Path_130" data-name="Path 130" d="M76.22,41.122l3.5-28.673s6.881,1.683,10.305,3.488a23.433,23.433,0,0,1,9.018-1.83l.994.058a31.286,31.286,0,0,1,11.3,3.23,20.765,20.765,0,0,1,9.685-1.893h.013l.008,0-1.366,28.852c-6.7,2.824-15.481.839-21.192-1.955a26.073,26.073,0,0,1-14.968.71,38.614,38.614,0,0,1-6.6-2.247.92.92,0,0,1-.13.079l-.569.182Z" transform="translate(-76.144 -11.745)" fill="#d9dfe7"/>
      <path id="Path_131" data-name="Path 131" d="M79.547,14.894h.008a25.087,25.087,0,0,1,9.593,3.4,39.4,39.4,0,0,1,5.6,3.96,65.8,65.8,0,0,1,8.823,8.952l.61.694a76.689,76.689,0,0,0,9.892,9.42,27.324,27.324,0,0,0,3.368,2.262c-5.943,1.913-13.393-.092-18.238-2.637A34.592,34.592,0,0,1,87.045,30.88l-.761-.938c-2.25-2.741-4.505-5.711-6.83-8.249l-.024-.016-.628-.7-.41,3.354c2.033,2.3,4.053,4.887,6.054,7.387l.761.938a37.536,37.536,0,0,0,10.129,9.1,22.251,22.251,0,0,1-11.216.01,31.589,31.589,0,0,1-7.487-3.044L76.2,42.275l.571-.193A.971.971,0,0,0,76.9,42a37.4,37.4,0,0,0,6.609,2.318,25.134,25.134,0,0,0,14.994-.8c5.709,2.9,14.5,4.959,21.2,1.99l.17-3.59a25.885,25.885,0,0,1-4.368-2.738,73.2,73.2,0,0,1-9.563-9.108l-.609-.708a72.375,72.375,0,0,0-9.148-9.248c-1.292-1.063-2.44-1.875-3.356-2.5a18.663,18.663,0,0,1,6.23-1.05,23.128,23.128,0,0,1,8.01,1.67,39.922,39.922,0,0,1,8.644,4.9,46.6,46.6,0,0,1,4.846,4.294l.16-3.375a47.45,47.45,0,0,0-6.473-5.122,18.183,18.183,0,0,1,6.763-.987l.124-2.628-.008,0h-.013a20,20,0,0,0-9.685,2,30.04,30.04,0,0,0-11.285-3.346l-.993-.057a22.563,22.563,0,0,0-9.016,1.948,28.453,28.453,0,0,0-10.252-3.6l-.012,0-.009,0-.32,2.618Z" transform="translate(-76.201 -12.273)" fill="#002d5d"/>
    </g>
    <g id="Group_57" data-name="Group 57" transform="translate(219.976 21.819)">
      <path id="Path_132" data-name="Path 132" d="M55.207,31.672,67.7,5.629s6.53,4.124,9.087,7.17a23.614,23.614,0,0,1,9.223,1.781l.906.439A30.566,30.566,0,0,1,96,22.179a20.8,20.8,0,0,1,9.244,1.44l.011,0h.008l-10.9,26.749c-7.754.24-15.466-5.117-19.631-9.841a26.269,26.269,0,0,1-13.787-4.75,37.389,37.389,0,0,1-5.038-4.143.852.852,0,0,1-.141.036h-.561Z" transform="translate(-54.935 -4.992)" fill="#d9dfe7"/>
      <path id="Path_133" data-name="Path 133" d="M67.072,7.847l.008,0a24.37,24.37,0,0,1,8.343,6.771,33.823,33.823,0,0,1,3.858,5.81,65.854,65.854,0,0,1,4.775,11.643l.3.878a62.359,62.359,0,0,0,5.852,12.474,27.58,27.58,0,0,0,2.494,3.38c-6.582-.413-12.906-5.193-16.4-9.38a35.848,35.848,0,0,1-7.415-13.851l-.366-1.153A96.224,96.224,0,0,0,64.828,14.28l-.017-.024-.388-.886-1.461,3.046c1.216,2.89,2.262,5.979,3.23,9l.366,1.153a38.962,38.962,0,0,0,5.882,12.139,22.209,22.209,0,0,1-10.133-4.012,31.261,31.261,0,0,1-5.617-5.209l-1.551,3.232.565-.01a.876.876,0,0,0,.143-.039,35.837,35.837,0,0,0,5,4.2,25.225,25.225,0,0,0,13.827,4.671C78.791,46.364,86.5,51.8,94.33,51.432L95.687,48.1a21.63,21.63,0,0,1-3.335-4.149,60.523,60.523,0,0,1-5.676-12.016l-.294-.89a69.882,69.882,0,0,0-4.955-12.043,37.417,37.417,0,0,0-2.194-3.6,18.345,18.345,0,0,1,6.215,1.426A21.892,21.892,0,0,1,92.174,21.4a40.846,40.846,0,0,1,6.034,7.623,62.285,62.285,0,0,1,2.95,5.656l1.275-3.129A57.621,57.621,0,0,0,98.4,24.6a18.316,18.316,0,0,1,6.343,1.285l.993-2.437h-.008l-.011,0a19.91,19.91,0,0,0-9.261-1.327,29.25,29.25,0,0,0-9.016-7.257l-.906-.438a22.871,22.871,0,0,0-9.273-1.675,27.69,27.69,0,0,0-9.026-7.27l-.012-.006h-.01L67.072,7.847Z" transform="translate(-55.139 -5.469)" fill="#002d5d"/>
    </g>
    <g id="Group_58" data-name="Group 58" transform="translate(259.169 39.789)">
      <path id="Path_134" data-name="Path 134" d="M65.022,36.888l10.9-26.75s1.484.829,3.3,1.991A35.828,35.828,0,0,1,84.5,15.861a22.7,22.7,0,0,1,8.52-.2l.879.219a31.926,31.926,0,0,1,9.95,4.562,19.944,19.944,0,0,1,9.325-1.071h.012l.008,0-3.5,28.671c-7.157,2.3-16.44-.768-22-4.574a26.23,26.23,0,0,1-15.8-2.7,32.048,32.048,0,0,1-6.11-3.934.968.968,0,0,1-.15.041Z" transform="translate(-64.785 -9.483)" fill="#d9dfe7"/>
      <path id="Path_135" data-name="Path 135" d="M75.373,12.417l.008,0A24.344,24.344,0,0,1,83.4,17.953a40.805,40.805,0,0,1,4.369,4.95,113.935,113.935,0,0,1,7.023,10.249l.508.782a57.75,57.75,0,0,0,8.992,10.529,27.553,27.553,0,0,0,3.3,2.584c-6.327,1.4-14.075-1.57-18.716-4.941A30.161,30.161,0,0,1,78.509,29.73l-.522-1.106c-1.536-3.251-2.979-6.57-4.5-9.674l-.018-.022-.409-.839-1.275,3.129,3.99,8.666L76.3,30.99a31.438,31.438,0,0,0,8.4,11.165,21.986,21.986,0,0,1-11.632-2.582,28.058,28.058,0,0,1-6.754-4.932l-1.353,3.32.62-.028a.923.923,0,0,0,.152-.044A31.325,31.325,0,0,0,71.846,41.9a25.535,25.535,0,0,0,15.888,2.635c5.559,3.918,14.874,7.064,22.064,4.62l.436-3.567a23.691,23.691,0,0,1-4.269-3.116A57.146,57.146,0,0,1,97.3,32.377l-.508-.78a121.031,121.031,0,0,0-7.257-10.545c-1-1.244-1.877-2.261-2.585-3.056a18.208,18.208,0,0,1,5.876.046A21.593,21.593,0,0,1,99.94,20.78a46.118,46.118,0,0,1,7.681,5.734,61.519,61.519,0,0,1,4.37,4.678l.41-3.354A57.592,57.592,0,0,0,106.62,22.2a17.648,17.648,0,0,1,6.524-.437l.319-2.612-.008,0-.012,0a19.094,19.094,0,0,0-9.313,1.184,30.321,30.321,0,0,0-9.88-4.667l-.874-.217a21.677,21.677,0,0,0-8.51.33,27.622,27.622,0,0,0-8.477-5.809l-.011,0h-.009l-1,2.442Z" transform="translate(-64.963 -9.973)" fill="#002d5d"/>
    </g>
    <g id="Group_59" data-name="Group 59" transform="translate(138.238 5.856)">
      <path id="Path_136" data-name="Path 136" d="M46.036,35.512,34.72,8.935l1.335-.426c.854-.224,2.061-.494,3.392-.769a28.677,28.677,0,0,1,8.161-.814,28.7,28.7,0,0,1,3.631-2.531,26.02,26.02,0,0,1,6.343-2.311L58.8,1.85a32.739,32.739,0,0,1,8.036.079A43.228,43.228,0,0,1,72.952,3.54a22.032,22.032,0,0,1,11.632-1.3l.015,0h.01L80.239,30.79c-5.778,2.2-11.972.678-17.082-.987a22.737,22.737,0,0,1-5.333,3.045,19.968,19.968,0,0,1-5.73,1.595,35.652,35.652,0,0,1-5.688.527.867.867,0,0,1-.055.128l-.316.415Z" transform="translate(-34.443 -0.944)" fill="#d9dfe7"/>
      <path id="Path_137" data-name="Path 137" d="M35.684,11.236l.009,0A21.808,21.808,0,0,1,41.734,9.62a17.876,17.876,0,0,1,5.735-.093,27.464,27.464,0,0,1,7.392,1.682,35,35,0,0,1,6.116,3A51.527,51.527,0,0,1,65.852,18l.685.591c3.284,3,6.759,6.238,9.434,8.906.913.894,1.793,1.566,2.7,2.355-5.048,1.585-10.651.024-15.157-1.565a54.089,54.089,0,0,1-6.877-2.87,72.721,72.721,0,0,1-6.461-3.442l-1.058-.605A57.73,57.73,0,0,0,39.06,17.133l-.03,0-.947-.26,1.323,3.109a54.17,54.17,0,0,1,8.8,3.763l1.038.541a89.142,89.142,0,0,0,11.342,5.588,20.32,20.32,0,0,1-8.622,3.178,33.976,33.976,0,0,1-6.881.269l1.4,3.3.308-.423a.925.925,0,0,0,.053-.132,33.664,33.664,0,0,0,5.669-.445,18.522,18.522,0,0,0,5.672-1.574,21.581,21.581,0,0,0,5.254-3.124c5.083,1.783,11.157,3.376,16.905,1.02l.544-3.553a39.864,39.864,0,0,1-3.587-3.011l-4.42-4.3-4.829-4.5-.691-.661c-3.3-2.764-6.21-5.213-11.536-7.163A24.569,24.569,0,0,0,51.3,7.42,20.411,20.411,0,0,1,58.21,4.493a23.232,23.232,0,0,1,9.813.2A43.776,43.776,0,0,1,73.51,6.577a31.959,31.959,0,0,1,4.651,2.791,27.654,27.654,0,0,1,4.927,4.684l.511-3.34a29.061,29.061,0,0,0-7.046-5.595,18.111,18.111,0,0,1,7.972-.451l.4-2.6-.011,0-.015,0a21.651,21.651,0,0,0-11.724,1.4A42.27,42.27,0,0,0,67.007,1.78a31.993,31.993,0,0,0-8.1-.111l-1.224.235a25.39,25.39,0,0,0-6.385,2.369,28.088,28.088,0,0,0-3.641,2.6,23.671,23.671,0,0,0-6.736.211A24.624,24.624,0,0,0,34.671,8.8l-.014.006-.007.008,1.033,2.426Z" transform="translate(-34.65 -1.468)" fill="#002d5d"/>
    </g>
    <g id="Group_60" data-name="Group 60" transform="translate(183.94 6.444)">
      <path id="Path_138" data-name="Path 138" d="M46.13,30.345,50.5,1.791l1.408.372a25.3,25.3,0,0,1,3.316,1.1,29.958,29.958,0,0,1,7.232,3.6,23.443,23.443,0,0,1,10.437.682l1.08.363a29.979,29.979,0,0,1,10.662,7.108A21.353,21.353,0,0,1,94.816,17.1l.012.006h.009l-12.5,26.042c-7.035.087-13.723-4.528-17.844-8.593a25.421,25.421,0,0,1-12.722-1.919,48.344,48.344,0,0,1-5.07-2.55.827.827,0,0,1-.11.079l-.466.179Z" transform="translate(-46.035 -1.09)" fill="#d9dfe7"/>
      <path id="Path_139" data-name="Path 139" d="M50.279,4.225l.01,0A20.026,20.026,0,0,1,56.331,6.05a18.635,18.635,0,0,1,4.843,2.936,28.886,28.886,0,0,1,5.256,5.2,41.5,41.5,0,0,1,6.238,11.156l.356.846a123.787,123.787,0,0,0,5.73,12.146,27.176,27.176,0,0,0,2.132,3.3c-6-.447-11.642-4.586-15.165-8.273a49.733,49.733,0,0,1-8.774-12.359l-.585-1.061a50.83,50.83,0,0,0-6.3-8.912l-.025-.018-.68-.736-.511,3.34a48.029,48.029,0,0,1,5.485,7.851l.592,1.018a58.723,58.723,0,0,0,7.207,10.737,21.524,21.524,0,0,1-9.545-1.865,37.1,37.1,0,0,1-5.932-3.413l-.542,3.543.463-.191a.86.86,0,0,0,.109-.083,44.338,44.338,0,0,0,5.01,2.609A23.892,23.892,0,0,0,64.36,35.639c4.062,4.161,10.691,8.826,17.78,8.6L83.7,41a27.244,27.244,0,0,1-2.857-4.132,112.775,112.775,0,0,1-5.557-11.848l-.345-.873c-1.731-3.994-3.073-7.325-6.5-11.635a26.176,26.176,0,0,0-3.034-3.36,20.01,20.01,0,0,1,7.008.768,23.192,23.192,0,0,1,7.846,4.309,34.089,34.089,0,0,1,6.768,7.838,39.449,39.449,0,0,1,2.941,5.859l1.461-3.046a42.261,42.261,0,0,0-4.266-7.3,19.1,19.1,0,0,1,6.912,1.786L95.213,17H95.2l-.012-.006A20.717,20.717,0,0,0,84.947,15,29.129,29.129,0,0,0,74.291,7.766L73.206,7.4a22.982,22.982,0,0,0-10.52-.586A24.264,24.264,0,0,0,56.98,3.471,22.392,22.392,0,0,0,50.7,1.618l-.015,0-.011,0-.4,2.607Z" transform="translate(-46.106 -1.615)" fill="#002d5d"/>
    </g>
    <g id="Group_61" data-name="Group 61" transform="translate(184.204 136.37)">
      <path id="Path_140" data-name="Path 140" d="M84.964,34.331l9.7,27.208s-7.474,1.753-11.557,1.427a24.011,24.011,0,0,1-8.247,5.3l-1.037.311a30.165,30.165,0,0,1-12.616.812,20.348,20.348,0,0,1-9.756,4.543l-.014,0-.009,0L46.2,45.528c5.139-4.04,13.171-4.655,19.175-3.942A25.621,25.621,0,0,1,78.013,35.52a36.209,36.209,0,0,1,6.481-.667.858.858,0,0,1,.075-.125l.4-.4Z" transform="translate(-46.087 -33.738)" fill="#d9dfe7"/>
      <path id="Path_141" data-name="Path 141" d="M94.1,60.164l-.008,0a24.853,24.853,0,0,1-10.723,1.182,35.7,35.7,0,0,1-6.966-1.4,48.629,48.629,0,0,1-11.555-5.239l-.8-.455c-3.823-2.117-8.293-4.565-11.883-6.128-1.218-.559-2.411-.919-3.577-1.359,4.771-3.218,11.763-3.393,16.973-2.669a40.792,40.792,0,0,1,14.681,4.892l1.073.553a102.555,102.555,0,0,0,9.8,4.5l.029,0,.9.349-1.135-3.182C88,50.045,85.067,48.6,82.247,47.176l-1.071-.543a43.418,43.418,0,0,0-12.49-4.578A21.349,21.349,0,0,1,78.4,37.889a30.446,30.446,0,0,1,7.642-.33l-1.2-3.376-.391.408a.9.9,0,0,0-.073.129,34.813,34.813,0,0,0-6.5.6A24.438,24.438,0,0,0,65.292,41.46c-6.026-.821-14.04-.284-19.12,3.893l.651,3.535a39.1,39.1,0,0,1,4.6,1.689,124.274,124.274,0,0,1,11.554,5.993l.8.468A53.426,53.426,0,0,0,75.817,62.49a36.515,36.515,0,0,0,4.218.991,18.848,18.848,0,0,1-5.749,3.407,24.494,24.494,0,0,1-8.638,1.272A36.285,36.285,0,0,1,55.415,66.1a33.19,33.19,0,0,1-5.966-2.954l.612,3.322a34.9,34.9,0,0,0,7.991,3.248,16.75,16.75,0,0,1-6.883,2.768l.476,2.588.009,0,.014,0a19.83,19.83,0,0,0,9.769-4.658A29.33,29.33,0,0,0,74.115,69.7l1.039-.312a23.3,23.3,0,0,0,8.227-5.413A28.144,28.144,0,0,0,94.97,62.66l.012,0,.007-.007L94.1,60.164Z" transform="translate(-46.172 -34.182)" fill="#002d5d"/>
    </g>
    <g id="Group_62" data-name="Group 62" transform="translate(139.661 145.769)">
      <path id="Path_142" data-name="Path 142" d="M79.5,38.436l5.231,28.409s-2.076.15-4.659.184a31.584,31.584,0,0,1-7.944-.864A25.573,25.573,0,0,1,68.206,68a27.676,27.676,0,0,1-6.681,1.078l-1.241.006a28.506,28.506,0,0,1-13.412-4.1,23.429,23.429,0,0,1-5.7.59,30.29,30.29,0,0,1-6.079-1.213l-.015,0h-.011l9.228-27.372c5.772-1.079,12.017,1.127,16.8,3.858a19.038,19.038,0,0,1,5.776-2,17.921,17.921,0,0,1,6.177-.541,51.66,51.66,0,0,1,5.95.566.855.855,0,0,1,.086-.11l.417-.322Z" transform="translate(-34.838 -36.04)" fill="#d9dfe7"/>
      <path id="Path_143" data-name="Path 143" d="M84.546,65.443l-.009,0a27.131,27.131,0,0,1-5.988.356A23.147,23.147,0,0,1,73,64.676c-1.787-.715-3.087-.677-6.857-3.008a31.859,31.859,0,0,1-9.579-8.656L56,52.291c-2.752-3.322-5.615-7.421-7.855-10.281-.766-.977-1.463-2-2.222-2.841a17.306,17.306,0,0,1,7.719.962,29.5,29.5,0,0,1,7.094,3.231,40.982,40.982,0,0,1,6.235,4.019c1.881,1.359,3.654,2.732,5.751,4.542l.922.78a54.266,54.266,0,0,0,8.907,6.224l.029.009.861.485L82.825,56.1a63.135,63.135,0,0,1-7.809-5.469l-.92-.78A92.667,92.667,0,0,0,63.9,42.269a21.1,21.1,0,0,1,9.253-1.54A39.878,39.878,0,0,1,80.2,41.84l-.649-3.526-.413.333a.862.862,0,0,0-.085.114,48.324,48.324,0,0,0-5.928-.64A16.869,16.869,0,0,0,67,38.654a18.221,18.221,0,0,0-5.711,2.093c-4.738-2.842-10.869-5.1-16.625-3.861l-1.148,3.405a25.92,25.92,0,0,1,2.967,3.565l3.662,4.9c1.3,1.794,2.676,3.664,4,5.283l.571.735a57.7,57.7,0,0,0,4.208,4.809,34.224,34.224,0,0,0,5.823,4.329,29.015,29.015,0,0,0,4.212,2.171,21.323,21.323,0,0,1-7.331,1.571,21.759,21.759,0,0,1-9.487-1.886,31.652,31.652,0,0,1-9.162-6.228,36.2,36.2,0,0,1-4.092-5.5l-1.08,3.2a30.913,30.913,0,0,0,6.06,6.717,18.778,18.778,0,0,1-8.014-.921l-.841,2.493h.011l.015,0a29.43,29.43,0,0,0,6.135,1.2,22.982,22.982,0,0,0,5.759-.66,28.076,28.076,0,0,0,13.5,4.231l1.251-.006a26.938,26.938,0,0,0,6.733-1.127,25.176,25.176,0,0,0,3.937-1.909,33.084,33.084,0,0,0,6.5,1.191,30.733,30.733,0,0,0,6.153-.4l.014,0,.008-.006-.478-2.594Z" transform="translate(-35.007 -36.538)" fill="#002d5d"/>
    </g>
    <g id="Group_63" data-name="Group 63" transform="translate(262.466 107.501)">
      <path id="Path_144" data-name="Path 144" d="M107.672,27.1l7.122,27.994s-1.711.257-3.893.438a43.125,43.125,0,0,1-6.735.091,22.3,22.3,0,0,1-7.5,5.093l-.929.338a31.6,31.6,0,0,1-11.565,1.427,20.654,20.654,0,0,1-8.107,5.554l-.012,0-.007.006L65.845,41.023c5.025-5.255,13.968-6.925,20.372-6.589a26.009,26.009,0,0,1,13.795-6.422,41.45,41.45,0,0,1,7.094-.406.965.965,0,0,1,.095-.123l.472-.385Z" transform="translate(-65.622 -26.489)" fill="#d9dfe7"/>
      <path id="Path_145" data-name="Path 145" d="M114.485,53.678l-.008,0a23.556,23.556,0,0,1-9.977.344A36.253,36.253,0,0,1,97.872,52.5,73.793,73.793,0,0,1,86.3,47.658l-.835-.4A72.878,72.878,0,0,0,72.639,42.5a26.961,26.961,0,0,0-4.012-.75c4.738-4.1,12.4-5.241,17.916-4.778A34.157,34.157,0,0,1,101.7,41.568l1.063.593c3.141,1.78,6.3,3.645,9.36,5.156l.027.007.83.419-.833-3.274c-2.71-1.385-5.525-3.022-8.326-4.605l-1.067-.6a36.826,36.826,0,0,0-12.933-4.554,22.794,22.794,0,0,1,10.545-4.3,33.548,33.548,0,0,1,8.206.012l-.884-3.474-.471.4a.957.957,0,0,0-.094.128,40.036,40.036,0,0,0-7.131.343,25.125,25.125,0,0,0-13.8,6.515c-6.447-.438-15.426,1.171-20.4,6.563l1.27,3.362a25.037,25.037,0,0,1,5.1.779,72.6,72.6,0,0,1,12.394,4.582l.84.418a74.2,74.2,0,0,0,11.981,4.975,38.136,38.136,0,0,0,4.014,1.067,18.593,18.593,0,0,1-5.266,3.3,21.334,21.334,0,0,1-7.952,1.558,38.807,38.807,0,0,1-9.843-1.092,50.994,50.994,0,0,1-6.147-2.024l1.194,3.161a52.144,52.144,0,0,0,7.959,2.154,18.608,18.608,0,0,1-5.8,3.568l.93,2.462.007-.006.012,0A19.881,19.881,0,0,0,84.547,63.5a30.309,30.309,0,0,0,11.59-1.313l.927-.338a21.484,21.484,0,0,0,7.444-5.2,27,27,0,0,0,10.609-.4l.011,0,.006-.006-.65-2.556Z" transform="translate(-65.789 -26.946)" fill="#002d5d"/>
    </g>
    <g id="Group_64" data-name="Group 64" transform="translate(222.869 121.451)">
      <path id="Path_146" data-name="Path 146" d="M95.527,30.59l10.206,27.024S98.565,59.4,94.591,59.276a23.121,23.121,0,0,1-7.6,5.629l-.96.379a30.722,30.722,0,0,1-11.943,1.8,20.863,20.863,0,0,1-8.454,5.618l-.012,0-.007.006-9.7-27.207c4.92-5.076,13.438-6.66,19.663-6.5a26.007,26.007,0,0,1,12.79-6.956,38.365,38.365,0,0,1,6.678-.923.9.9,0,0,1,.075-.129l.4-.415Z" transform="translate(-55.705 -30.001)" fill="#d9dfe7"/>
      <path id="Path_147" data-name="Path 147" d="M105.208,56.248l-.008,0a24.7,24.7,0,0,1-10.393,1.4,35.961,35.961,0,0,1-6.882-1.073A58.81,58.81,0,0,1,76.1,52.185l-.841-.383a92.174,92.174,0,0,0-12.723-4.7,27.1,27.1,0,0,0-3.908-.794c4.6-4.007,11.976-5.074,17.359-4.782a37.247,37.247,0,0,1,15.155,3.913l1.1.507c3.244,1.5,6.593,3.056,9.884,4.242l.029,0,.9.331-1.194-3.161c-2.9-1.1-5.872-2.468-8.764-3.8l-1.1-.509A40.063,40.063,0,0,0,79.065,39.2a22.124,22.124,0,0,1,9.824-4.786,31.743,31.743,0,0,1,7.841-.615l-1.267-3.354-.4.426A.909.909,0,0,0,94.99,31a36.973,36.973,0,0,0-6.705.859A24.955,24.955,0,0,0,75.526,38.9c-6.264-.267-14.8,1.249-19.663,6.459l1.207,3.385a29.261,29.261,0,0,1,5,.879A86.87,86.87,0,0,1,74.4,54.192l.846.4A62.734,62.734,0,0,0,87.52,59.13a37.226,37.226,0,0,0,4.175.794,18.526,18.526,0,0,1-5.328,3.656,22.8,22.8,0,0,1-8.177,1.879,37.675,37.675,0,0,1-10.064-.985A41.371,41.371,0,0,1,61.941,62.4l1.135,3.182a43.651,43.651,0,0,0,8.079,2.173,18.058,18.058,0,0,1-6.025,3.588l.884,2.478.007-.006.013,0a20.166,20.166,0,0,0,8.424-5.725,29.64,29.64,0,0,0,11.99-1.7l.959-.379a22.366,22.366,0,0,0,7.555-5.739,28.109,28.109,0,0,0,11.159-1.545l.012,0,.006-.007-.932-2.467Z" transform="translate(-55.864 -30.443)" fill="#002d5d"/>
    </g>
    <g id="Group_65" data-name="Group 65" transform="translate(430.589 108.668)">
      <path id="Path_148" data-name="Path 148" d="M157,40.748,146.96,67.834s-6.444-3.214-9.275-5.862a22,22,0,0,1-9.124-.307l-.937-.292a29.834,29.834,0,0,1-10.057-5.593,19.391,19.391,0,0,1-9.573-.056l-.012,0h-.009l6.9-28.049a22.643,22.643,0,0,1,11.289,1.23,36.311,36.311,0,0,1,9.489,5.352,26.289,26.289,0,0,1,14.784,2.91,39.663,39.663,0,0,1,5.829,3.68.923.923,0,0,1,.144-.048l.59-.05Z" transform="translate(-107.804 -26.745)" fill="#d9dfe7"/>
      <path id="Path_149" data-name="Path 149" d="M147.757,66.516l-.008,0a23.473,23.473,0,0,1-8.6-5.6,38.65,38.65,0,0,1-4.5-5.134,77.322,77.322,0,0,1-6.488-10.742l-.44-.815a63.332,63.332,0,0,0-7.742-11.362,27.507,27.507,0,0,0-2.924-2.936c6.4-.657,13.425,3.023,17.615,6.6A34.533,34.533,0,0,1,144.178,49.2l.513,1.1c1.512,3.253,3.034,6.6,4.722,9.62l.019.022.454.827,1.174-3.168c-1.457-2.707-2.823-5.668-4.171-8.566l-.513-1.1a36.241,36.241,0,0,0-7.724-11.259,22,22,0,0,1,10.94,2.67,32.484,32.484,0,0,1,6.506,4.664l1.246-3.361-.594.06a1.006,1.006,0,0,0-.146.052,38.275,38.275,0,0,0-5.815-3.748,25.356,25.356,0,0,0-14.834-2.833,35.077,35.077,0,0,0-9.475-5.466,21.833,21.833,0,0,0-11.33-1.16l-.858,3.49a25.9,25.9,0,0,1,3.823,3.61A61.4,61.4,0,0,1,125.6,45.608l.435.828a81.768,81.768,0,0,0,6.73,11.081,37.635,37.635,0,0,0,2.645,3.216,17.678,17.678,0,0,1-6.233-.447,22.162,22.162,0,0,1-7.288-3.387,43.712,43.712,0,0,1-7.237-6.581,50.593,50.593,0,0,1-3.822-5.194l-.807,3.281a50.171,50.171,0,0,0,5.162,6.32,17.247,17.247,0,0,1-6.623-.381l-.628,2.555h.009l.012,0a18.669,18.669,0,0,0,9.583-.055,28.607,28.607,0,0,0,10,5.7l.935.291a21.24,21.24,0,0,0,9.146.191,26.441,26.441,0,0,0,9.2,5.959l.012,0,.009,0,.916-2.473Z" transform="translate(-107.931 -27.238)" fill="#002d5d"/>
    </g>
  </g>
</svg>
