<svg id="knot-figure-eight" xmlns="http://www.w3.org/2000/svg" width="146" height="49.39" viewBox="0 0 146 49.39">
  <g id="Group_87" data-name="Group 87">
    <g id="Group_67" data-name="Group 67" transform="translate(84.216 17.217)">
      <path id="Path_151" data-name="Path 151" d="M92.576,15.55l1.938,10.925s-.762.057-1.733.072a24.045,24.045,0,0,1-2.942-.022,12.4,12.4,0,0,1-3.453,2l-.413.137a17.933,17.933,0,0,1-5.088.75,10.773,10.773,0,0,1-3.53,2.423l-.005,0,0,0L72.71,21.707c2.348-2.345,6.61-3.323,9.571-3.289a13.309,13.309,0,0,1,6.646-2.605,16.843,16.843,0,0,1,3.358-.078.446.446,0,0,1,.05-.046l.24-.139Z" transform="translate(-72.609 -15.312)" fill="#d9dfe7"/>
      <path id="Path_152" data-name="Path 152" d="M94.4,25.77h0a13.867,13.867,0,0,1-4.405-.015,22.216,22.216,0,0,1-2.925-.582,42.244,42.244,0,0,1-5.1-1.738l-.371-.14a28.013,28.013,0,0,0-5.808-1.466,13.609,13.609,0,0,0-1.843-.116c2.211-1.849,5.846-2.547,8.375-2.459a14.96,14.96,0,0,1,6.818,1.671l.466.236,4.025,2.109.012,0,.354.18-.227-1.278c-1.161-.588-2.377-1.3-3.594-1.9l-.466-.236a15.837,15.837,0,0,0-5.8-1.715,11.621,11.621,0,0,1,5.047-1.728,14.674,14.674,0,0,1,3.844.1l-.241-1.356-.24.144a.446.446,0,0,0-.05.047,16.469,16.469,0,0,0-3.378.055,12.915,12.915,0,0,0-6.658,2.644c-2.981-.073-7.267.886-9.6,3.284l.577,1.261a11.958,11.958,0,0,1,2.344.075,27.156,27.156,0,0,1,5.592,1.392l.372.142a44.506,44.506,0,0,0,5.269,1.771c.7.185,1.29.307,1.762.385a9.668,9.668,0,0,1-2.417,1.324,12.452,12.452,0,0,1-3.528.718,22.582,22.582,0,0,1-4.335-.166,26.388,26.388,0,0,1-2.733-.553l.542,1.185a28.106,28.106,0,0,0,3.509.553,9.717,9.717,0,0,1-2.528,1.593l.422.923,0,0,.005,0a10.277,10.277,0,0,0,3.5-2.458,17.018,17.018,0,0,0,5.089-.7l.412-.136a11.813,11.813,0,0,0,3.428-2.043,16.1,16.1,0,0,0,4.653,0h.005l0,0-.177-1Z" transform="translate(-72.623 -15.338)" fill="#002d5d"/>
    </g>
    <g id="Group_68" data-name="Group 68" transform="translate(66.421 23.393)">
      <path id="Path_153" data-name="Path 153" d="M75.158,21.037l4.636,10.136a32.482,32.482,0,0,1-4.826,1.156A11.82,11.82,0,0,1,71.8,34.965l-.4.21a16.953,16.953,0,0,1-5.137,1.545,10.511,10.511,0,0,1-3.517,2.867l-.005,0,0,0-5.356-9.8c1.952-2.365,5.839-3.77,8.678-4.16a13.559,13.559,0,0,1,5.787-3.624,19.213,19.213,0,0,1,3.091-.735.409.409,0,0,1,.035-.055l.188-.184Z" transform="translate(-57.262 -20.816)" fill="#d9dfe7"/>
      <path id="Path_154" data-name="Path 154" d="M79.5,30.519h0a13.692,13.692,0,0,1-4.526,1.026,20.019,20.019,0,0,1-3.045-.023,31.561,31.561,0,0,1-5.363-.9l-.387-.087a36.483,36.483,0,0,0-5.864-.8,13.455,13.455,0,0,0-1.773.011c1.883-1.934,5.246-3.019,7.692-3.292a16.365,16.365,0,0,1,6.93.519l.5.136c1.474.407,2.981.84,4.447,1.17h.013l.4.092-.542-1.185c-1.3-.313-2.639-.7-3.957-1.063l-.5-.138a17.43,17.43,0,0,0-5.929-.676,11.683,11.683,0,0,1,4.449-2.54,15.921,15.921,0,0,1,3.611-.67l-.575-1.258-.187.188a.413.413,0,0,0-.035.056,18.643,18.643,0,0,0-3.108.713,13.066,13.066,0,0,0-5.78,3.659c-2.862.354-6.766,1.738-8.686,4.149l.666,1.219a14.076,14.076,0,0,1,2.257-.07,36.37,36.37,0,0,1,5.665.78l.39.091a33.866,33.866,0,0,0,5.553.92c.733.051,1.356.066,1.849.058a9.665,9.665,0,0,1-2.233,1.748,12.166,12.166,0,0,1-3.507,1.291,20.1,20.1,0,0,1-4.454.4,20.426,20.426,0,0,1-2.831-.3l.626,1.146a22.361,22.361,0,0,0,3.673.184,9.544,9.544,0,0,1-2.539,1.89l.488.893,0,0,.005,0a10.117,10.117,0,0,0,3.5-2.905,16.257,16.257,0,0,0,5.155-1.5l.4-.21a11.34,11.34,0,0,0,3.142-2.674,15.536,15.536,0,0,0,4.828-1.108l.005,0,0,0-.423-.925Z" transform="translate(-57.278 -20.84)" fill="#002d5d"/>
    </g>
    <g id="Group_69" data-name="Group 69" transform="translate(20.456 19.716)">
      <path id="Path_155" data-name="Path 155" d="M33.048,32.243l-7.467,8.4a12.864,12.864,0,0,1-1.658-1.861A12.425,12.425,0,0,1,21.9,35.208a14.022,14.022,0,0,1-1.6-1.517,10.55,10.55,0,0,1-1.71-2.942l-.2-.594a11.8,11.8,0,0,1-.522-3.934,15.478,15.478,0,0,1,.532-2.969,11.445,11.445,0,0,1-.518-2.637,14.5,14.5,0,0,1,.316-2.979l0-.007v-.005l11.107,2.7a4.734,4.734,0,0,1,.294,1.69,6.81,6.81,0,0,1-.027,1.721,28.084,28.084,0,0,1-.489,3.179,15.092,15.092,0,0,1,2.708,3.454c.143.356.382.63.529.947a10.1,10.1,0,0,0,.477.9.35.35,0,0,1,.054,0l.194.037Z" transform="translate(-17.603 -17.557)" fill="#d9dfe7"/>
      <path id="Path_156" data-name="Path 156" d="M26.116,40.092l0,0a10.65,10.65,0,0,1-3.3-4.895c-.105-.451-.209-.839-.309-1.359a7.574,7.574,0,0,1-.136-2.16,8.909,8.909,0,0,1,.573-2.956,9.838,9.838,0,0,1,1.187-2.309l.206-.317A31.341,31.341,0,0,1,27.73,22c.344-.369.728-.7,1.018-1.034a14.481,14.481,0,0,1-.448,6c-.46,2.154-.715,3.575-1.065,5.8l-.049.486a12.272,12.272,0,0,0,.383,4.619l.006.012.125.421.873-.983a12.281,12.281,0,0,1-.347-3.969l.051-.485.156-1.314.221-1.218c.1-.763.309-1.554.428-2.352A12.359,12.359,0,0,1,30.253,29.3a4.689,4.689,0,0,1,.457.7,4.977,4.977,0,0,1,.462.748c.163.392.408.757.59,1.166s.381.81.558,1.2l.927-1.043-.2-.032a.363.363,0,0,0-.054,0c-.164-.283-.31-.582-.453-.9s-.37-.587-.5-.938a12.75,12.75,0,0,0-2.692-3.352,23.3,23.3,0,0,0,.543-3.119,6.17,6.17,0,0,0,.022-1.686,4.466,4.466,0,0,0-.328-1.662L28.2,20.051a13.332,13.332,0,0,1-1.279,1.381c-.564.531-1.092,1.177-1.741,1.865-.609.688-1.139,1.434-1.718,2.174,0,0-.247.322-.237.322a16.554,16.554,0,0,0-1.295,2.4,11.443,11.443,0,0,0-.674,3.193,11.014,11.014,0,0,0,.089,2.205,8.431,8.431,0,0,1-1.074-1.32,6.56,6.56,0,0,1-.945-1.8,9.78,9.78,0,0,1-.564-4.752,12.483,12.483,0,0,1,.678-2.631,13.178,13.178,0,0,1,1.129-2.173A13.56,13.56,0,0,1,22.629,18.7l-1.3-.316a12.317,12.317,0,0,0-2.455,3.267,9.01,9.01,0,0,1,.1-3.838l-1.012-.246v.005l0,.007a14.228,14.228,0,0,0-.311,3.014,11.246,11.246,0,0,0,.548,2.664,15.307,15.307,0,0,0-.561,3,11.754,11.754,0,0,0,.517,3.983l.2.6A10.492,10.492,0,0,0,20.1,33.814a13.816,13.816,0,0,0,1.636,1.525,11.835,11.835,0,0,0,3.687,5.514l.006,0,.005,0,.682-.767Z" transform="translate(-17.64 -17.564)" fill="#002d5d"/>
    </g>
    <g id="Group_70" data-name="Group 70" transform="translate(20.72 21.885)">
      <path id="Path_157" data-name="Path 157" d="M36.368,19.708,38.6,30.581s-.916.083-2.058.129a17.666,17.666,0,0,1-3.446-.174,12.113,12.113,0,0,1-4.307,1.457l-.5.041a15.933,15.933,0,0,1-5.729-.657,11.093,11.093,0,0,1-4.677.94h-.01l.152-11.084c2.852-1.161,6.568-.679,9.151,0a14.5,14.5,0,0,1,6.087-1.447,24.423,24.423,0,0,1,2.863.1.376.376,0,0,1,.042-.044Z" transform="translate(-17.868 -19.471)" fill="#d9dfe7"/>
      <path id="Path_158" data-name="Path 158" d="M38.448,29.879h0a12.561,12.561,0,0,1-5.075-.1,13.737,13.737,0,0,1-3.044-.973A20.551,20.551,0,0,1,25.643,26l-.313-.231a57.42,57.42,0,0,0-4.766-3.247,13.726,13.726,0,0,0-1.521-.79c2.54-.843,5.743-.331,7.974.319a21.463,21.463,0,0,1,6.072,2.838l.432.274A30.533,30.533,0,0,0,37.578,27.4l.013,0,.385.175L37.715,26.3a34.457,34.457,0,0,1-3.57-1.978l-.431-.274A23.54,23.54,0,0,0,28.6,21.5a12.423,12.423,0,0,1,4.631-.94,19.085,19.085,0,0,1,3.362.284L36.32,19.5l-.2.136a.384.384,0,0,0-.041.046,23.021,23.021,0,0,0-2.859-.123,13.715,13.715,0,0,0-6.064,1.479c-2.581-.723-6.283-1.232-9.128-.015L18.008,22.4a15.408,15.408,0,0,1,1.979.977c1.456.886,3.178,2.058,4.629,3.166l.314.245a22.042,22.042,0,0,0,4.875,2.941,17.953,17.953,0,0,0,1.831.67,10.539,10.539,0,0,1-2.968.888,12.161,12.161,0,0,1-4.017-.183,16.631,16.631,0,0,1-4.343-1.579,16.393,16.393,0,0,1-2.378-1.561l-.018,1.3A18.226,18.226,0,0,0,21.137,31.1a9.717,9.717,0,0,1-3.255.508l-.014,1.01h.01a10.749,10.749,0,0,0,4.687-.983,15.454,15.454,0,0,0,5.746.7l.5-.041a11.776,11.776,0,0,0,4.314-1.5,17.316,17.316,0,0,0,2.8.319,15.766,15.766,0,0,0,2.714-.231h.006l0,0-.2-.993Z" transform="translate(-17.868 -19.496)" fill="#002d5d"/>
    </g>
    <g id="Group_71" data-name="Group 71" transform="translate(0 21.411)">
      <path id="Path_159" data-name="Path 159" d="M20.868,21.286,20.716,32.37s-.9-.09-2.014-.276a18.017,18.017,0,0,1-3.288-.832,12.229,12.229,0,0,1-4.445.653l-.493-.042A15.877,15.877,0,0,1,5,30.25a10.9,10.9,0,0,1-4.931.1l-.008,0H.051L2.5,19.517c2.747-.672,6.491.4,8.9,1.541a14.518,14.518,0,0,1,6.367-.3,25.02,25.02,0,0,1,2.828.659.376.376,0,0,1,.051-.035l.229-.091Z" transform="translate(0.008 -19.045)" fill="#d9dfe7"/>
      <path id="Path_160" data-name="Path 160" d="M20.734,31.657h0a12.8,12.8,0,0,1-4.887-1.075,16.39,16.39,0,0,1-2.766-1.514A21.51,21.51,0,0,1,9.012,25.48l-.266-.286c-1.27-1.364-2.81-2.859-4.108-3.99a15.555,15.555,0,0,0-1.324-1.043c2.581-.38,5.694.625,7.783,1.673a19.7,19.7,0,0,1,5.455,3.9l.369.347a34.029,34.029,0,0,0,3.5,2.976l.012.005.337.246.018-1.3a34.616,34.616,0,0,1-3.078-2.641l-.368-.347a21.694,21.694,0,0,0-4.56-3.45,12.414,12.414,0,0,1,4.807-.062,18.894,18.894,0,0,1,3.276.938l.019-1.376-.228.095a.4.4,0,0,0-.051.037,23.617,23.617,0,0,0-2.821-.685,13.782,13.782,0,0,0-6.355.34c-2.395-1.181-6.128-2.28-8.867-1.55l-.3,1.347c.5.366,1.118.8,1.668,1.289C5.18,23.056,6.675,24.51,7.9,25.839l.265.291A22.332,22.332,0,0,0,12.4,29.874a14.707,14.707,0,0,0,1.65.985A10.107,10.107,0,0,1,11,31.2a12.13,12.13,0,0,1-3.886-.863,16.933,16.933,0,0,1-4-2.285,18.217,18.217,0,0,1-2.092-1.961L.74,27.359a20.328,20.328,0,0,0,2.913,2.385,9.658,9.658,0,0,1-3.431-.092L0,30.639H.006l.008,0A10.576,10.576,0,0,0,4.97,30.5a15.387,15.387,0,0,0,5.487,1.668l.494.042a11.867,11.867,0,0,0,4.458-.7,14.463,14.463,0,0,0,5.3,1.153h.006l0,0,.014-1.012Z" transform="translate(0 -19.074)" fill="#002d5d"/>
    </g>
    <g id="Group_72" data-name="Group 72" transform="translate(56.858 8.69)">
      <path id="Path_161" data-name="Path 161" d="M66.083,7.929,71.689,17.6a27.86,27.86,0,0,1-5.06,1.611,11.691,11.691,0,0,1-3.4,2.768l-.436.213A15.8,15.8,0,0,1,57.314,23.6a10.826,10.826,0,0,1-3.9,2.6l-.006,0,0,0L49.111,15.929c2.181-2.141,5.861-3.124,8.588-3.405a13.972,13.972,0,0,1,5.363-3.5A20.567,20.567,0,0,1,65.9,8.178a.382.382,0,0,1,.027-.056l.155-.193Z" transform="translate(-49.018 -7.719)" fill="#d9dfe7"/>
      <path id="Path_162" data-name="Path 162" d="M71.327,16.972l0,0a12.945,12.945,0,0,1-4.705,1.437,16.44,16.44,0,0,1-3.152.084,23.225,23.225,0,0,1-5.4-.993l-.382-.106a51.983,51.983,0,0,0-5.7-1.236,13.436,13.436,0,0,0-1.735-.172,14.246,14.246,0,0,1,7.607-2.648,19.723,19.723,0,0,1,6.783.559l.5.117a41.9,41.9,0,0,0,4.565.858h.013l.415.049-.656-1.131c-1.342-.181-2.714-.471-4.034-.771l-.5-.118a21.048,21.048,0,0,0-5.782-.645A11.832,11.832,0,0,1,63.3,9.765a17.359,17.359,0,0,1,3.369-.824l-.7-1.2-.153.2A.388.388,0,0,0,65.8,8a19.683,19.683,0,0,0-2.848.821,13.3,13.3,0,0,0-5.338,3.524c-2.743.242-6.425,1.2-8.578,3.387l.534,1.279a12.8,12.8,0,0,1,2.223.153,51.587,51.587,0,0,1,5.538,1.219l.384.11a24.811,24.811,0,0,0,5.618,1.04,18.2,18.2,0,0,0,1.92.011,9.49,9.49,0,0,1-2.386,1.814A11.911,11.911,0,0,1,59.127,22.6a17.832,17.832,0,0,1-4.6.123,20.168,20.168,0,0,1-2.808-.553l.5,1.2a20.87,20.87,0,0,0,3.689.5,10.111,10.111,0,0,1-2.78,1.674l.391.936,0,0,.006,0a10.473,10.473,0,0,0,3.893-2.644,15.3,15.3,0,0,0,5.51-1.374l.437-.214a11.321,11.321,0,0,0,3.382-2.811,14.784,14.784,0,0,0,5.08-1.57l.005,0,0,0-.512-.883Z" transform="translate(-49.031 -7.741)" fill="#002d5d"/>
    </g>
    <g id="Group_73" data-name="Group 73" transform="translate(39.172 16.678)">
      <path id="Path_163" data-name="Path 163" d="M51.553,15.057l4.292,10.277a26.36,26.36,0,0,1-5.324.959,11.893,11.893,0,0,1-3.848,2.28l-.475.144a15.949,15.949,0,0,1-5.736.54,10.977,10.977,0,0,1-4.4,1.888h-.006l0,0L33.822,20.276c2.5-1.7,6.209-2.012,8.91-1.88a14.057,14.057,0,0,1,5.732-2.658,19.332,19.332,0,0,1,2.88-.459.383.383,0,0,1,.033-.051l.176-.17Z" transform="translate(-33.773 -14.833)" fill="#d9dfe7"/>
      <path id="Path_164" data-name="Path 164" d="M55.565,24.672h0a12.913,12.913,0,0,1-4.931.831,15.125,15.125,0,0,1-3.16-.353,21.511,21.511,0,0,1-5.185-1.789l-.357-.161c-1.719-.814-3.714-1.586-5.365-2.184a13.122,13.122,0,0,0-1.65-.465c2.278-1.324,5.5-1.511,7.843-1.329a20.735,20.735,0,0,1,6.578,1.545l.481.186a37.235,37.235,0,0,0,4.418,1.437h.013l.409.1-.5-1.2c-1.314-.347-2.637-.815-3.895-1.277l-.48-.186A22.3,22.3,0,0,0,44.2,18.355a12.049,12.049,0,0,1,4.4-1.855A16.848,16.848,0,0,1,52,16.133l-.533-1.275-.173.174a.369.369,0,0,0-.032.052,18.528,18.528,0,0,0-2.884.432A13.342,13.342,0,0,0,42.67,18.2c-2.709-.174-6.409.1-8.89,1.861l.277,1.353a16.406,16.406,0,0,1,2.132.551c1.61.579,3.549,1.352,5.215,2.142l.361.175a23.109,23.109,0,0,0,5.4,1.868,18.244,18.244,0,0,0,1.922.293A10.6,10.6,0,0,1,46.4,27.905a12.378,12.378,0,0,1-3.953.651,16.876,16.876,0,0,1-4.6-.645,16.455,16.455,0,0,1-2.671-1.038l.261,1.272a18.766,18.766,0,0,0,3.57,1.137,9.8,9.8,0,0,1-3.1,1.165l.2.99,0,0h.006a10.645,10.645,0,0,0,4.4-1.932,15.475,15.475,0,0,0,5.762-.5l.476-.144a11.54,11.54,0,0,0,3.842-2.325,14.744,14.744,0,0,0,5.342-.917l.006,0,0,0-.392-.938Z" transform="translate(-33.78 -14.858)" fill="#002d5d"/>
    </g>
    <g id="Group_74" data-name="Group 74" transform="translate(93.776)">
      <path id="Path_165" data-name="Path 165" d="M103.987,7.6l-8.593,7.327s-.283-.384-.607-.913a7.139,7.139,0,0,1-.551-.774,4.88,4.88,0,0,1-.636-.8,10.977,10.977,0,0,1-2.975-.006l-.321-.055a15.211,15.211,0,0,1-2.128-.613c-.693-.186-1.3-.495-1.844-.675a10.615,10.615,0,0,1-3.568,1.254h0l0,0L80.9,1.4A11.357,11.357,0,0,1,86.663.251a14.75,14.75,0,0,1,5.7,1.457A11.844,11.844,0,0,1,100.8,4.262a20.857,20.857,0,0,1,1.678,1.579c.431.54.8,1.058,1.134,1.563a.625.625,0,0,1,.078.026l.3.167Z" transform="translate(-80.861 0.03)" fill="#d9dfe7"/>
      <path id="Path_166" data-name="Path 166" d="M95.974,14.464l0,0a16.38,16.38,0,0,1-1.8-2.523c-.286-.538-.563-.784-1.408-2.046-.569-.756-1.072-1.419-1.591-2.012a23.32,23.32,0,0,0-1.673-1.9L89.223,5.7a16.785,16.785,0,0,0-5.151-3.39A13.677,13.677,0,0,0,82.19,1.7c2.9-1.276,7.225-.637,9.746.743,2.98,1.6,4.209,3.2,5.054,5.433l.171.478a14.231,14.231,0,0,1,.626,4.2l0,.01c0,.118,0,.23.006.343l1.005-.857c-.032-.587-.07-1.226-.135-1.9a15.9,15.9,0,0,0-.421-1.986L98.1,7.641a10.04,10.04,0,0,0-4-5.138,10.6,10.6,0,0,1,6.1,2.267,16.118,16.118,0,0,1,1.753,1.752,16.665,16.665,0,0,1,1.169,1.854l1.066-.909-.308-.167a.615.615,0,0,0-.08-.026c-.33-.514-.706-1.042-1.141-1.59a20.659,20.659,0,0,0-1.7-1.608,11.8,11.8,0,0,0-8.536-2.561,14.638,14.638,0,0,0-5.751-1.5,11.14,11.14,0,0,0-5.8,1.185L81.1,2.556a10.061,10.061,0,0,1,2.388.667A16.353,16.353,0,0,1,88.4,6.371l.278.272a40.359,40.359,0,0,1,3.355,3.933c.374.487.669.877.872,1.208a9.423,9.423,0,0,1-2.138-.054,12.706,12.706,0,0,1-2.807-.812c-1.142-.472-2.444-1.029-3.576-1.6-.573-.3-1.909-1-2.359-1.268l.217,1.279c1.215.637,2.259,1.187,2.955,1.507a9.56,9.56,0,0,1-2.562.809l.169,1,0,0h0a9.881,9.881,0,0,0,3.528-1.293c.541.19,1.138.511,1.821.7a13.521,13.521,0,0,0,2.088.623l.315.053a9.908,9.908,0,0,0,2.931-.058,16.107,16.107,0,0,0,1.687,2.465l0,0h0l.785-.669Z" transform="translate(-80.867 0)" fill="#002d5d"/>
    </g>
    <g id="Group_75" data-name="Group 75" transform="translate(73.8 1.196)">
      <path id="Path_167" data-name="Path 167" d="M83.641,1.278,85.5,12.217l-1.635.056a28.365,28.365,0,0,1-2.854,0,12.757,12.757,0,0,1-3.17,2.089l-.384.151a18.345,18.345,0,0,1-4.8,1.069A8.462,8.462,0,0,1,71.3,17.063,12.172,12.172,0,0,1,69.36,18.4l-.005,0,0,0L63.746,8.743A8.157,8.157,0,0,1,65.512,7.1a13.785,13.785,0,0,1,2.457-1.344,16.483,16.483,0,0,1,5.105-1.233,13.21,13.21,0,0,1,6.791-2.949,16.709,16.709,0,0,1,3.469-.114.464.464,0,0,1,.053-.045l.253-.138Z" transform="translate(-63.624 -1.04)" fill="#d9dfe7"/>
      <path id="Path_168" data-name="Path 168" d="M85.388,11.511h0a15.458,15.458,0,0,1-4.261,0c-.711-.134-1.213-.132-2.858-.514-2.066-.452-3.351-.892-5.164-1.429l-.384-.111a23.429,23.429,0,0,0-6-.855c-.669,0-1.235.009-1.812.06a7.431,7.431,0,0,1,.75-.7,11.341,11.341,0,0,1,.967-.659,11.216,11.216,0,0,1,2.162-1.041,14.92,14.92,0,0,1,4.373-.908,13.631,13.631,0,0,1,7,1.345l.467.217C82.005,7.6,83.358,8.305,84.638,9l.012,0,.345.186-.217-1.279c-1.147-.633-2.36-1.284-3.6-1.9l-.474-.235a14.492,14.492,0,0,0-5.97-1.467,11.612,11.612,0,0,1,5.157-1.962,14.511,14.511,0,0,1,3.954.069l-.23-1.357-.254.142a.467.467,0,0,0-.053.047,16.463,16.463,0,0,0-3.494.092A12.889,12.889,0,0,0,73,4.339a16.113,16.113,0,0,0-5.144,1.2,13.393,13.393,0,0,0-2.467,1.352,7.845,7.845,0,0,0-1.751,1.665l.7,1.2a12.891,12.891,0,0,1,2.25-.121,23.42,23.42,0,0,1,5.76.8l.382.11c1.794.526,3.176.98,5.313,1.434.69.164,1.268.275,1.725.339a10.073,10.073,0,0,1-2.234,1.4,12.766,12.766,0,0,1-3.33.916,25.44,25.44,0,0,1-4.219.219,23.914,23.914,0,0,1-2.832-.238l.656,1.13c1.465.164,2.814.127,3.613.153a9.248,9.248,0,0,1-2.426,1.894l.511.88,0,0,.005,0a11.634,11.634,0,0,0,1.939-1.349,8.164,8.164,0,0,0,1.321-1.5,17.245,17.245,0,0,0,4.8-1.018l.382-.15a12.024,12.024,0,0,0,3.134-2.124,17.519,17.519,0,0,0,4.46-.008h0l0,0-.169-1Z" transform="translate(-63.641 -1.066)" fill="#002d5d"/>
    </g>
    <g id="Group_76" data-name="Group 76" transform="translate(103.466 27.733)">
      <path id="Path_169" data-name="Path 169" d="M92.194,44.729,89.285,34.007s2-.185,3.2-.429c.11-.192.239-.64.449-1.077a9.582,9.582,0,0,1,.826-1.4l.2-.214a21.51,21.51,0,0,1,2.8-2.77,12.975,12.975,0,0,1-.1-1.667,14,14,0,0,1,.19-1.684v-.007l11.221,2.212a10.15,10.15,0,0,1-1.256,5.926,15.857,15.857,0,0,1-1.784,2.589,18.432,18.432,0,0,1-2.092,1.9,11.618,11.618,0,0,1-6.313,6.17c-.768.276-1.482.5-2.149.678a13.023,13.023,0,0,1-1.932.263.6.6,0,0,1-.059.054l-.288.179Z" transform="translate(-89.214 -24.701)" fill="#d9dfe7"/>
      <path id="Path_170" data-name="Path 170" d="M89.489,34.73h0c.473-.147,1.055-.177,1.6-.285.584-.027,1.137-.125,1.626-.13.631.022.951-.117,2.5-.227l2.56-.448c.771-.192,1.552-.366,2.494-.622,0,0,.391-.114.384-.119a16.383,16.383,0,0,0,2.817-1.306,15.7,15.7,0,0,0,2.531-1.936,13.192,13.192,0,0,0,1.34-1.544c.112,3.3-2.441,7.041-4.875,8.58a12.952,12.952,0,0,1-2.018,1.154,6.942,6.942,0,0,1-1.825.633,11.9,11.9,0,0,1-1.721.256,12.486,12.486,0,0,1-1.784-.117l-.516-.075a16.422,16.422,0,0,1-4.167-1.383l-.011,0L90.106,37l.34,1.254c.56.243,1.178.525,1.824.762.629.194,1.3.383,2.011.548,0,0,.546.128.542.116a10.3,10.3,0,0,0,6.59-1.123,10.246,10.246,0,0,1-4.941,4.261,20.611,20.611,0,0,1-2.345.665,13.487,13.487,0,0,1-2.221.152l.361,1.331.291-.184a.59.59,0,0,0,.059-.056,13.005,13.005,0,0,0,1.96-.256c.678-.178,1.4-.4,2.181-.679a11.583,11.583,0,0,0,6.373-6.263,18.129,18.129,0,0,0,2.131-1.911,15.692,15.692,0,0,0,1.813-2.61,10.037,10.037,0,0,0,1.245-5.989l-1.4-.275a8.157,8.157,0,0,1-1.55,2.005c-.345.333-.7.667-1.092.981-.416.307-.845.6-1.275.872a11.762,11.762,0,0,1-2.646,1.272L99.99,32a24.1,24.1,0,0,1-2.484.657c-.775.223-1.668.329-2.6.491-.577.136-1.129.1-1.487.168a8.467,8.467,0,0,1,.408-.835,3.581,3.581,0,0,1,.556-.928,13.112,13.112,0,0,1,1.925-2.01c.226-.187.468-.374.723-.561l.706-.606c.5-.4,1.021-.787,1.479-1.167l1.084-.8c.4-.309.764-.629.99-.771l-1.312-.259c-1,.831-1.976,1.468-2.494,1.93a8.031,8.031,0,0,1,.118-2.4l-1.022-.2v.007a12.177,12.177,0,0,0-.172,1.66,11.89,11.89,0,0,0,.143,1.656,18.917,18.917,0,0,0-2.8,2.691l-.195.209a8.2,8.2,0,0,0-.782,1.387c-.195.436-.309.888-.412,1.082-.635.009-1.158.109-1.7.112-.5.088-.99.112-1.44.238h0l0,0,.266.979Z" transform="translate(-89.223 -24.707)" fill="#002d5d"/>
    </g>
    <g id="Group_77" data-name="Group 77" transform="translate(108.1 7.466)">
      <path id="Path_171" data-name="Path 171" d="M107.409,29.166,96.187,26.955c-.028-.007.264-.567.476-1.332.279-.753.539-1.689.844-2.336A12.215,12.215,0,0,1,96.2,20.3l-.058-.333a17.82,17.82,0,0,1-.342-3.927,10.013,10.013,0,0,1-2.391-1.914l0,0h0l8.593-7.327a10.616,10.616,0,0,1,4.1,5.022,12.807,12.807,0,0,1,.962,5.721,11.846,11.846,0,0,1,1.364,7.793,14.169,14.169,0,0,1-1.073,3.472.489.489,0,0,1,.024.068l.038.3Z" transform="translate(-93.191 -6.633)" fill="#d9dfe7"/>
      <path id="Path_172" data-name="Path 172" d="M96.967,27.12v0a5.69,5.69,0,0,1,.256-.894,7.632,7.632,0,0,1,.3-.943,16.978,16.978,0,0,1,.763-1.694c.353-.576.441-.983,1.26-2.352.446-.857.847-1.586,1.242-2.293.352-.7.74-1.394,1.144-2.246l.146-.355a12.462,12.462,0,0,0,.932-6.093,6.891,6.891,0,0,0-.464-2.064,9.625,9.625,0,0,1,3.086,4.469,11.6,11.6,0,0,1,.6,4.8,10.966,10.966,0,0,1-1,3.83,10.18,10.18,0,0,1-1.909,2.749l-.349.374a21.878,21.878,0,0,1-1.651,1.55c-.542.493-1.1.955-1.669,1.389l-.007.009-.3.233,1.312.259A34.608,34.608,0,0,0,103.7,25.2l.37-.374a11.107,11.107,0,0,0,2.953-5.5,10.283,10.283,0,0,1,.675,5.792,12.234,12.234,0,0,1-1.413,3.842l1.393.275-.042-.3a.471.471,0,0,0-.026-.069,14.054,14.054,0,0,0,1.105-3.5,11.7,11.7,0,0,0-1.4-7.858,12.708,12.708,0,0,0-.937-5.787,10.563,10.563,0,0,0-4.169-5.067l-1.069.912a10.189,10.189,0,0,1,.755,2.54,11.961,11.961,0,0,1-.795,5.779l-.152.356a24.573,24.573,0,0,1-1.1,2.26c-.348.718-.791,1.48-1.251,2.355-.266.558-.586,1.035-.751,1.4a9.562,9.562,0,0,1-.462-.969,4.732,4.732,0,0,1-.41-1.144,11.3,11.3,0,0,1-.348-2.837c.03-1.165.041-2.417.112-3.581.074-.6.037-1.941.091-2.483l-1.005.857-.071,1.69c-.019.483-.081.941-.095,1.27A8.255,8.255,0,0,1,94,13.649l-.783.667h0l0,0a9.057,9.057,0,0,0,2.389,1.836,15.76,15.76,0,0,0,.277,3.881l.058.327A11.3,11.3,0,0,0,97.3,23.307c-.346.635-.553,1.257-.824,1.853a6.758,6.758,0,0,0-.285.891,6.714,6.714,0,0,0-.25.86v.007l1.025.2Z" transform="translate(-93.219 -6.651)" fill="#002d5d"/>
    </g>
    <g id="Group_78" data-name="Group 78" transform="translate(68.561 20.791)">
      <path id="Path_173" data-name="Path 173" d="M59.279,26.312l8.312-7.625a27.488,27.488,0,0,1,2.8,4.218,12.149,12.149,0,0,1,3.58,2.223l.324.316a14.251,14.251,0,0,1,1.8,2.225,15.039,15.039,0,0,1,1.029,1.846,10.7,10.7,0,0,1,3.583,1.574l0,0h0l-6.6,9.058a11.147,11.147,0,0,1-4.83-2.929A18.683,18.683,0,0,1,67.505,35.1a17.3,17.3,0,0,1-1.129-1.981,13.6,13.6,0,0,1-5.183-4.193,19.087,19.087,0,0,1-1.617-2.5.429.429,0,0,1-.063-.012l-.233-.1Z" transform="translate(-59.098 -18.501)" fill="#d9dfe7"/>
      <path id="Path_174" data-name="Path 174" d="M67.061,19.218l0,0a12.305,12.305,0,0,1,2.558,3.954,16.817,16.817,0,0,1,.906,2.854,27.507,27.507,0,0,1,.649,5.241l.024.385a19.3,19.3,0,0,0,1.356,5.766,8.422,8.422,0,0,0,.876,1.693,12.271,12.271,0,0,1-6.29-6.347,15.489,15.489,0,0,1-1.482-6.541l-.017-.5c-.05-1.48-.1-3.011-.291-4.477l0-.012-.05-.4-.972.892c.146,1.3.2,2.655.24,3.972l.016.5a16.7,16.7,0,0,0,1.045,5.642,11.6,11.6,0,0,1-3.749-3.288,15.587,15.587,0,0,1-1.724-3l-1.031.946.237.1a.414.414,0,0,0,.064.011,18.313,18.313,0,0,0,1.6,2.519,13.073,13.073,0,0,0,5.21,4.171,16.7,16.7,0,0,0,1.11,2,18.1,18.1,0,0,0,1.787,2.143A10.911,10.911,0,0,0,74,40.369l.821-1.127a9.643,9.643,0,0,1-1.214-2.075,23.252,23.252,0,0,1-.892-2.714,22.35,22.35,0,0,1-.431-2.811l-.028-.381a30.288,30.288,0,0,0-.686-5.414,16.823,16.823,0,0,0-.5-1.743,9.561,9.561,0,0,1,2.4,1.591,11.593,11.593,0,0,1,2.237,2.812c.321.577.614,1.214.889,1.842a15.173,15.173,0,0,1,.748,1.831c.18.647.686,1.984.785,2.514l.772-1.059c-.19-.654-.393-1.237-.581-1.751-.173-.54-.339-1-.481-1.365a12.525,12.525,0,0,1,2.46,1.2l.6-.825h0l0,0a10.082,10.082,0,0,0-3.587-1.524,14.439,14.439,0,0,0-1-1.859,13.473,13.473,0,0,0-1.79-2.232l-.324-.315a11.717,11.717,0,0,0-3.612-2.191,13.988,13.988,0,0,0-2.763-4.241l0,0h0l-.759.7Z" transform="translate(-59.123 -18.522)" fill="#002d5d"/>
    </g>
    <g id="Group_79" data-name="Group 79" transform="translate(83.444 33.159)">
      <path id="Path_175" data-name="Path 175" d="M72.081,38.8l6.6-9.059s.514.509,1.189,1.057c.332.288.693.618,1.03.955a7.958,7.958,0,0,1,.914.89,14.993,14.993,0,0,1,3.435.307l.336.093a13.8,13.8,0,0,1,2.078.8,15.029,15.029,0,0,1,1.6.787,6.686,6.686,0,0,1,1.4-.726,7.6,7.6,0,0,1,1.363-.5h0l0,0L94.94,44.12a9.978,9.978,0,0,1-3.123,1.157,13.911,13.911,0,0,1-3.45.127,13.6,13.6,0,0,1-5.716-1.89,12.815,12.815,0,0,1-7.606-2.339,15.518,15.518,0,0,1-2.616-2.3.493.493,0,0,1-.07,0l-.278-.077Z" transform="translate(-71.937 -29.516)" fill="#d9dfe7"/>
      <path id="Path_176" data-name="Path 176" d="M78.26,30.367l0,0A16.977,16.977,0,0,1,79.9,31.721a17.245,17.245,0,0,1,1.32,1.462c.406.545.727.895,1.638,2.179.567.853,1.056,1.471,1.517,2.145a24.024,24.024,0,0,0,1.507,2.032l.253.3a13.073,13.073,0,0,0,5.183,3.646A10.963,10.963,0,0,0,93.453,44a10.133,10.133,0,0,1-5.592.6,10.589,10.589,0,0,1-2.614-.7,10.2,10.2,0,0,1-2.092-1.044,18.793,18.793,0,0,1-1.77-1.313,14.192,14.192,0,0,1-1.229-1.335,10.921,10.921,0,0,1-1.628-2.888l-.189-.466c-.517-1.423-.955-2.836-1.367-4.2l-.006-.011-.108-.372-.772,1.06c.342,1.256.76,2.5,1.2,3.8l.174.492a15.61,15.61,0,0,0,1.361,2.617,13.676,13.676,0,0,0,2.25,2.437A11.2,11.2,0,0,1,75.6,40.652a13.306,13.306,0,0,1-2.822-2.759l-.819,1.124.282.074a.5.5,0,0,0,.071,0,15.274,15.274,0,0,0,2.62,2.331,12.639,12.639,0,0,0,7.676,2.331A13.5,13.5,0,0,0,88.373,45.7a13.815,13.815,0,0,0,3.492-.13,9.925,9.925,0,0,0,3.159-1.191l-.362-1.334a8.793,8.793,0,0,1-2.694-.484,12.918,12.918,0,0,1-2.762-1.387,14.8,14.8,0,0,1-2.2-1.92l-.251-.308c-.583-.726-1.054-1.346-1.538-2-.475-.71-.979-1.368-1.564-2.195-.375-.55-.7-.983-.963-1.3a10.58,10.58,0,0,1,2.384.242,11.7,11.7,0,0,1,2.731,1.06c.507.23,1.051.577,1.583.859.526.254,1.074.592,1.584.883.49.252,1.783.985,2.228,1.172l-.34-1.254c-.552-.238-1.086-.6-1.515-.823a11.609,11.609,0,0,1-1.1-.643c.339-.145.657-.329.983-.473s.687-.19,1.012-.331l-.265-.977,0,0h0a6.63,6.63,0,0,0-1.32.5,6.4,6.4,0,0,0-1.362.755,14.1,14.1,0,0,0-1.57-.814,12.22,12.22,0,0,0-2.037-.8l-.331-.091a13.884,13.884,0,0,0-3.415-.251c-.472-.577-.97-1.078-1.472-1.6a18.155,18.155,0,0,0-1.6-1.317l0,0h0l-.6.827Z" transform="translate(-71.957 -29.54)" fill="#002d5d"/>
    </g>
    <g id="Group_80" data-name="Group 80" transform="translate(38.21 1.54)">
      <path id="Path_177" data-name="Path 177" d="M36.386,13.115l-3.365-10.6.709-.143a12.078,12.078,0,0,1,1.738-.221,14.612,14.612,0,0,1,4.088.165,15.373,15.373,0,0,1,2.1-.567A11.222,11.222,0,0,1,45.1,1.735l.635.129a12.322,12.322,0,0,1,3.785,1.488,13.607,13.607,0,0,1,2.319,1.814,11.012,11.012,0,0,1,4.872,1.944l.005,0,0,0L49.961,16.06a10.894,10.894,0,0,1-3.79-1.577,22.661,22.661,0,0,1-2.741-2,14.51,14.51,0,0,1-4.621.556c-.821.008-1.56-.091-2.254-.108a.32.32,0,0,1-.027.046l-.142.14Z" transform="translate(-32.939 -1.343)" fill="#d9dfe7"/>
      <path id="Path_178" data-name="Path 178" d="M33.257,3.257h0a11.521,11.521,0,0,1,9.206,1.221c.528.331.972.642,1.361.942a12.356,12.356,0,0,1,1.014.99,9.913,9.913,0,0,1,1.5,2.131l.185.329c.434.773.831,1.705,1.219,2.5l1.041,2.409a12.069,12.069,0,0,0,.694,1.413,14.9,14.9,0,0,1-5.69-3.4c-1.7-1.42-2.917-2.378-4.721-3.765l-.409-.294a12.543,12.543,0,0,0-1.99-1.2,11.668,11.668,0,0,0-2.257-.9H34.4L33.971,5.5l.394,1.239a14.961,14.961,0,0,1,3.67,1.794l.407.295c.792.587,1.455,1.053,2.1,1.6l.971.74c.319.274.643.538.981.794a11.745,11.745,0,0,1-3.664.364c-.9-.032-1.9-.167-2.78-.268l.418,1.315.138-.143a.313.313,0,0,0,.026-.047c.687.031,1.417.141,2.223.142a12.537,12.537,0,0,0,4.53-.594,19.274,19.274,0,0,0,2.665,2.02,10.123,10.123,0,0,0,3.772,1.532l.841-1.113a16.3,16.3,0,0,1-.955-1.819c-.623-1.481-1.388-3.273-2.2-4.9l-.173-.361a15.44,15.44,0,0,0-1.525-2.263,11.574,11.574,0,0,0-2.547-2.13,10.242,10.242,0,0,0-1.993-1,7.291,7.291,0,0,1,1.685-.267,7.7,7.7,0,0,1,2.075.079,10.485,10.485,0,0,1,4.538,1.845A12.105,12.105,0,0,1,52.933,8.04a12.656,12.656,0,0,1,1.128,2.641l.791-1.046a13.978,13.978,0,0,0-1.786-3.391,9.973,9.973,0,0,1,3.218,1.5l.616-.815,0,0-.005,0a10.83,10.83,0,0,0-4.924-1.926,13.457,13.457,0,0,0-2.329-1.852,12.275,12.275,0,0,0-3.827-1.516l-.644-.13a11.142,11.142,0,0,0-3.488.033,15.049,15.049,0,0,0-2.122.593,13.037,13.037,0,0,0-6.595.162l-.007,0,0,0,.307.967Z" transform="translate(-32.95 -1.372)" fill="#002d5d"/>
    </g>
    <g id="Group_81" data-name="Group 81" transform="translate(55.086 7.092)">
      <path id="Path_179" data-name="Path 179" d="M47.63,15.458l6.763-8.946s.743.622,1.566,1.454a15.6,15.6,0,0,1,2.177,2.672,12.021,12.021,0,0,1,3.943,2.191l.354.329a15.009,15.009,0,0,1,3.208,4.489,10.888,10.888,0,0,1,3.8,2.527l0,0,0,0L61.138,27.8c-2.946-1.274-5.2-4.375-6.378-6.735a14.35,14.35,0,0,1-5.113-3.506A25.363,25.363,0,0,1,47.916,15.5a.374.374,0,0,1-.059,0l-.226-.047Z" transform="translate(-47.483 -6.294)" fill="#d9dfe7"/>
      <path id="Path_180" data-name="Path 180" d="M53.961,7.135l0,0a11.552,11.552,0,0,1,3.4,3.829A13.638,13.638,0,0,1,58.6,13.834a20.459,20.459,0,0,1,.881,5.258l.026.384a40.154,40.154,0,0,0,.778,5.638,12.613,12.613,0,0,0,.482,1.656A13.412,13.412,0,0,1,55.5,20.693a19.016,19.016,0,0,1-1.768-6.322l-.067-.5a24.162,24.162,0,0,0-1-4.433l-.007-.012-.135-.4-.791,1.046a23.348,23.348,0,0,1,.86,3.9l.073.488a21.1,21.1,0,0,0,1.348,5.413,11.981,11.981,0,0,1-3.75-2.769,18.6,18.6,0,0,1-1.924-2.545l-.839,1.11.228.043a.386.386,0,0,0,.06,0,23.318,23.318,0,0,0,1.7,2.073,13.583,13.583,0,0,0,5.122,3.468c1.139,2.386,3.373,5.5,6.361,6.738l1.034-.949a11.847,11.847,0,0,1-.68-2.1,38.43,38.43,0,0,1-.752-5.471l-.022-.388a21.549,21.549,0,0,0-.905-5.474,15.8,15.8,0,0,0-.664-1.775A10.286,10.286,0,0,1,61.6,13.42a11.416,11.416,0,0,1,2.462,2.985,16.784,16.784,0,0,1,1.669,4.1,19.158,19.158,0,0,1,.449,2.716l.972-.892a19.262,19.262,0,0,0-.787-3.47,9.647,9.647,0,0,1,2.547,1.855l.757-.695,0,0,0,0a10.515,10.515,0,0,0-3.835-2.5,14.494,14.494,0,0,0-3.181-4.526l-.355-.329a11.706,11.706,0,0,0-3.983-2.165,13.028,13.028,0,0,0-3.723-4.169l-.005,0h0l-.618.817Z" transform="translate(-47.503 -6.318)" fill="#002d5d"/>
    </g>
    <g id="Group_82" data-name="Group 82" transform="translate(20.779 2.46)">
      <path id="Path_181" data-name="Path 181" d="M29.26,22.182l-11.107-2.7s.4-1.047.993-2.288a12.868,12.868,0,0,1,2.428-3.322,10.117,10.117,0,0,1,2.492-4.793l.431-.434A12.808,12.808,0,0,1,30.579,5.4a10.308,10.308,0,0,1,4.8-2.976l.007,0,0,0,3.365,10.6a9.536,9.536,0,0,1-3.014,1.969,26.289,26.289,0,0,1-3.241,1.25,15.122,15.122,0,0,1-2.041,4.053c-.5.6-.821,1.167-1.269,1.672a.282.282,0,0,1,.024.043l.041.178Z" transform="translate(-17.881 -2.163)" fill="#d9dfe7"/>
      <path id="Path_182" data-name="Path 182" d="M18.933,19.693l0,0a11.844,11.844,0,0,1,1.272-2.882A9.3,9.3,0,0,1,22.03,14.65a11.483,11.483,0,0,1,5.946-2.805,12.053,12.053,0,0,1,2.657-.1l.387.018c.912.042,1.935.207,2.829.3.944.169,1.807.322,2.565.491a12.565,12.565,0,0,0,1.464.285,15.623,15.623,0,0,1-5.769,2.736l-5.9,1.8-.462.178a22.324,22.324,0,0,0-2.13.982A16.515,16.515,0,0,0,21.65,19.96l-.009.011-.352.294,1.3.316a13.4,13.4,0,0,1,3.553-2.06l.46-.177c1.8-.665,3.258-1,4.9-1.574a10.787,10.787,0,0,1-1.646,3.142c-.553.658-1.075,1.4-1.7,2.023l1.378.335-.046-.175a.29.29,0,0,0-.026-.043c.455-.491.782-1.044,1.28-1.624a12.985,12.985,0,0,0,1.959-4,22.815,22.815,0,0,0,3.219-1.18,8.589,8.589,0,0,0,2.945-1.972l-.419-1.318c-.626-.114-1.25-.209-1.926-.354a38.745,38.745,0,0,0-5.364-.865l-.409-.045a19.5,19.5,0,0,0-2.778.054,13.641,13.641,0,0,0-3.2.88,16.734,16.734,0,0,0-1.964,1.049,9.657,9.657,0,0,1,3.829-4.746A8.876,8.876,0,0,1,28.624,6.9a12.4,12.4,0,0,1,5.155-.853c.4.031,1.023.105,1.6.2a7.788,7.788,0,0,1,1.387.39L36.369,5.4a13.021,13.021,0,0,0-4.117-.433,9.514,9.514,0,0,1,3.4-1.811l-.306-.965,0,0-.007,0A10.207,10.207,0,0,0,30.5,5.232a12.739,12.739,0,0,0-6.165,3.25l-.436.439a10.065,10.065,0,0,0-2.491,4.866,11.965,11.965,0,0,0-3.487,5.647l0,.007v.005l1.014.246Z" transform="translate(-17.919 -2.191)" fill="#002d5d"/>
    </g>
    <g id="Group_83" data-name="Group 83" transform="translate(50.165 32.16)">
      <path id="Path_183" data-name="Path 183" d="M59.63,28.84l5.356,9.8s-.813.328-1.88.679a17.661,17.661,0,0,1-3.318.822A11.389,11.389,0,0,1,56,42.8c-.16.071-.332.128-.493.187a14.7,14.7,0,0,1-6.135.82,10.792,10.792,0,0,1-4.953,1.731H44.41l-1.13-11.03a10.678,10.678,0,0,1,3.938-1.323,24.2,24.2,0,0,1,4.151-.285,14.09,14.09,0,0,1,5.25-3.061,23.452,23.452,0,0,1,2.822-.752.378.378,0,0,1,.028-.055l.16-.189Z" transform="translate(-43.256 -28.627)" fill="#d9dfe7"/>
      <path id="Path_184" data-name="Path 184" d="M64.631,38.006l0,0a12.907,12.907,0,0,1-4.811,1.333,15.629,15.629,0,0,1-3.23-.037,17.709,17.709,0,0,1-5.346-1.448l-.362-.151c-1.733-.733-3.662-1.56-5.158-2.244-.508-.221-1-.409-1.484-.59a15.579,15.579,0,0,1,7.218-1.154A24.8,24.8,0,0,1,58.03,34.76l.5.133a37.714,37.714,0,0,0,4.543.977h.013l.414.06-.626-1.146a40.164,40.164,0,0,1-4.009-.878l-.5-.133a26.935,26.935,0,0,0-5.612-.988,12.145,12.145,0,0,1,4.074-2.2,18.841,18.841,0,0,1,3.354-.716l-.665-1.216-.158.192a.384.384,0,0,0-.027.056,22.3,22.3,0,0,0-2.829.726,13.244,13.244,0,0,0-5.212,3.082,22.465,22.465,0,0,0-4.136.235,9.9,9.9,0,0,0-3.895,1.346L43.4,35.66a15.354,15.354,0,0,1,1.937.73l5.048,2.241.366.163a18.691,18.691,0,0,0,5.6,1.536,15.66,15.66,0,0,0,1.986.1,9.614,9.614,0,0,1-2.659,1.716,11.88,11.88,0,0,1-4.158.909,14.612,14.612,0,0,1-4.87-.647A14.052,14.052,0,0,1,43.967,41.2l.132,1.29a15.19,15.19,0,0,0,3.7,1.331,9.916,9.916,0,0,1-3.462,1l.1,1h.012a10.588,10.588,0,0,0,4.979-1.778,14.437,14.437,0,0,0,6.182-.787c.162-.059.335-.117.5-.188a11.091,11.091,0,0,0,3.784-2.7,14.705,14.705,0,0,0,5.22-1.462l.005,0,0,0-.489-.895Z" transform="translate(-43.259 -28.65)" fill="#002d5d"/>
    </g>
    <g id="Group_84" data-name="Group 84" transform="translate(28.252 34.217)">
      <path id="Path_185" data-name="Path 185" d="M46.275,34.286,47.4,45.317s-1.019.011-2.27-.09a15.926,15.926,0,0,1-3.666-.7,11.714,11.714,0,0,1-5.278.255l-.576-.142A13.228,13.228,0,0,1,29.731,41.4a10.382,10.382,0,0,1-5.2-2.346l-.006,0,0,0,7.467-8.4a9.7,9.7,0,0,1,3.319,1.376,30.305,30.305,0,0,1,2.96,2.072,14.854,14.854,0,0,1,5.254-.126c.954.133,1.763.289,2.523.465a.335.335,0,0,1,.041-.039l.191-.108Z" transform="translate(-24.338 -30.463)" fill="#d9dfe7"/>
      <path id="Path_186" data-name="Path 186" d="M47.354,44.6h0a12.067,12.067,0,0,1-5.41-.773,12.759,12.759,0,0,1-3.046-1.615A11.565,11.565,0,0,1,36.7,40.174a12.422,12.422,0,0,1-1.454-2.148l-.186-.333a36.443,36.443,0,0,1-2.221-4.841,11.557,11.557,0,0,0-.529-1.341,15.561,15.561,0,0,1,5.588,3.3c1.87,1.513,2.964,2.573,4.665,4.146l.374.343a19.962,19.962,0,0,0,3.779,2.739l.013,0,.382.213-.132-1.29a20.72,20.72,0,0,1-3.3-2.4l-.373-.329c-1.483-1.357-2.565-2.315-3.975-3.519a12.177,12.177,0,0,1,4.073,0,20.42,20.42,0,0,1,3,.709l-.14-1.369-.188.112c-.019.012-.027.029-.04.04-.755-.188-1.557-.353-2.5-.492a13.361,13.361,0,0,0-5.193.168A26.375,26.375,0,0,0,35.458,31.8a8.712,8.712,0,0,0-3.283-1.317l-.929,1.046c.224.561.467,1.124.7,1.749a39.3,39.3,0,0,0,2.128,4.855l.185.341a12.877,12.877,0,0,0,3.812,4.467A9.661,9.661,0,0,0,39.9,44.064a9.68,9.68,0,0,1-3.568,0,11.394,11.394,0,0,1-4.264-1.811,12.363,12.363,0,0,1-3.477-3.742c-.189-.343-.463-.894-.688-1.416a7.467,7.467,0,0,1-.408-1.349l-.873.983a11.928,11.928,0,0,0,1.858,3.606,9.353,9.353,0,0,1-3.439-1.827l-.68.766,0,0,.006,0a10.288,10.288,0,0,0,5.271,2.342,13.116,13.116,0,0,0,5.924,3.3l.581.144a11.575,11.575,0,0,0,5.331-.293,13.847,13.847,0,0,0,5.965.836h.007l0,0-.1-1.007Z" transform="translate(-24.363 -30.483)" fill="#002d5d"/>
    </g>
    <g id="Group_85" data-name="Group 85" transform="translate(123.828 16.478)">
      <path id="Path_187" data-name="Path 187" d="M128.823,21.534l-5.8,9.557a41.726,41.726,0,0,1-3.48-2.7,12.823,12.823,0,0,1-3.785-.314l-.4-.11a19.506,19.506,0,0,1-2.491-1c-.737-.369-1.373-.774-1.916-1.081a9.028,9.028,0,0,1-2,.319,9.926,9.926,0,0,1-2.133-.043h-.009l1.4-11c3.389-.862,7.755.647,10.255,2.376a13.152,13.152,0,0,1,7.235,1.9,18.268,18.268,0,0,1,2.76,2.053.5.5,0,0,1,.072,0l.289.045Z" transform="translate(-106.777 -14.651)" fill="#d9dfe7"/>
      <path id="Path_188" data-name="Path 188" d="M123.414,30.481h0a8.935,8.935,0,0,1-1.779-1.221,11.454,11.454,0,0,1-1.494-1.385c-.45-.55-.841-.845-1.858-2.144-1.284-1.639-2.015-2.718-3.066-4.268l-.228-.313a23.569,23.569,0,0,0-1.912-2.3,27.206,27.206,0,0,0-2.21-2.016,11.2,11.2,0,0,0-1.558-1.036c2.985-.471,6.6.907,8.687,2.441a13.263,13.263,0,0,1,2.824,2.551,12,12,0,0,1,1.735,2.783l.217.458c.651,1.317,1.158,2.8,1.72,4.066l.007.01.147.349.679-1.118c-.495-1.142-.969-2.443-1.524-3.671l-.217-.459a16.454,16.454,0,0,0-1.476-2.527,16.327,16.327,0,0,0-2.191-2.3,14.27,14.27,0,0,1,2.733.507,12.773,12.773,0,0,1,2.571,1.177,14.943,14.943,0,0,1,3.016,2.48l.72-1.186-.292-.042a.518.518,0,0,0-.073,0,17.9,17.9,0,0,0-2.765-2.086,12.857,12.857,0,0,0-7.283-1.882c-2.5-1.773-6.885-3.313-10.293-2.4l-.174,1.369a12.75,12.75,0,0,1,2.018,1.25,21.494,21.494,0,0,1,3.972,4.122l.226.318c1.065,1.459,1.83,2.7,3.182,4.342.423.548.8.985,1.1,1.312a10.334,10.334,0,0,1-2.621-.279,9.84,9.84,0,0,1-1.7-.59,9.9,9.9,0,0,1-1.463-.711,25.333,25.333,0,0,1-3.421-2.4,23.814,23.814,0,0,1-2-1.839l-.164,1.287a34.3,34.3,0,0,0,2.6,2.241,9.943,9.943,0,0,1-2.9.088l-.128,1h.009a9.424,9.424,0,0,0,2.124.031,8.7,8.7,0,0,0,2-.351c.538.317,1.168.732,1.9,1.108a17.912,17.912,0,0,0,2.471,1.006l.393.109a12.1,12.1,0,0,0,3.778.264,15.355,15.355,0,0,0,1.683,1.53,9.087,9.087,0,0,0,1.74,1.194l0,0h0l.53-.873Z" transform="translate(-106.782 -14.679)" fill="#002d5d"/>
    </g>
    <g id="Group_86" data-name="Group 86" transform="translate(104.14 15.707)">
      <path id="Path_189" data-name="Path 189" d="M110.921,15.249l-1.4,11-1.7-.413a25.175,25.175,0,0,1-2.856-.88,12.651,12.651,0,0,1-3.857.911l-.429.018a18.334,18.334,0,0,1-4.988-.678,11.02,11.02,0,0,1-3.9,1.422h-.005l0,0L89.841,15.71c3.025-1.745,7.536-1.543,10.384-.663a13.72,13.72,0,0,1,7.185-.588,21.078,21.078,0,0,1,3.181.877.455.455,0,0,1,.061-.028l.269-.059Z" transform="translate(-89.798 -13.963)" fill="#d9dfe7"/>
      <path id="Path_190" data-name="Path 190" d="M109.62,25.544h0a14.022,14.022,0,0,1-4.277-1.271,26.3,26.3,0,0,1-2.587-1.407,45.5,45.5,0,0,1-4.344-3.112l-.315-.232a24.684,24.684,0,0,0-5.223-2.951,13.516,13.516,0,0,0-1.8-.558c2.73-1.276,6.515-.97,8.93-.155a14.092,14.092,0,0,1,6.031,3.561l.37.351c1.087,1.037,2.152,2.18,3.218,3.153l.01.007.285.282.164-1.287-2.861-2.849-.37-.358a15.215,15.215,0,0,0-5.029-3.306,11.949,11.949,0,0,1,5.371-.2,15.775,15.775,0,0,1,3.592,1.192l.174-1.365-.27.063a.436.436,0,0,0-.062.03,20.412,20.412,0,0,0-3.19-.9,13.323,13.323,0,0,0-7.21.621c-2.857-.922-7.392-1.149-10.421.653l.241,1.359a11.959,11.959,0,0,1,2.306.641,22.973,22.973,0,0,1,5.031,2.81l.315.237a52.716,52.716,0,0,0,4.485,3.17c.6.376,1.126.665,1.548.872a9.436,9.436,0,0,1-2.678.568,12.643,12.643,0,0,1-3.53-.287,24.741,24.741,0,0,1-4.044-1.314c-.616-.264-2.008-.929-2.461-1.213l.227,1.278a30.339,30.339,0,0,0,3.165,1.418,9.505,9.505,0,0,1-2.755.9l.177,1,0,0h.005a10.457,10.457,0,0,0,3.874-1.462,17.285,17.285,0,0,0,4.971.724l.427-.018a12.035,12.035,0,0,0,3.842-.957,15.858,15.858,0,0,0,4.528,1.334h.009l.128-1Z" transform="translate(-89.804 -13.992)" fill="#002d5d"/>
    </g>
  </g>
</svg>
