<svg id="knot-bowline" xmlns="http://www.w3.org/2000/svg" width="439.395" height="212.35" viewBox="0 0 439.395 212.35">
  <g id="Group_124" data-name="Group 124">
    <g id="Group_88" data-name="Group 88" transform="translate(222.251 59.1)">
      <path id="Path_191" data-name="Path 191" d="M103.472,16.282,105,42.927a85.767,85.767,0,0,1-10.371-1.3,26.485,26.485,0,0,1-7.952,3.556l-.918.183a36.205,36.205,0,0,1-11.017.014,22.4,22.4,0,0,1-7.921,4.561l-.011,0-.007,0-8.21-25.4c5.841-4.913,15.566-6.016,22.017-4.8a27.876,27.876,0,0,1,15.094-4.006,42.8,42.8,0,0,1,7.1.889.922.922,0,0,1,.118-.095Z" transform="translate(-58.418 -15.122)" fill="#d9dfe7"/>
      <path id="Path_192" data-name="Path 192" d="M105.033,41.609h-.008a28.337,28.337,0,0,1-9.738-1.359A37.872,37.872,0,0,1,89.162,37.8a77.123,77.123,0,0,1-10.531-5.884l-.77-.469a59.474,59.474,0,0,0-12.336-5.333,27.774,27.774,0,0,0-4.067-.785,20.341,20.341,0,0,1,9.514-3.417,27.759,27.759,0,0,1,9.583.243c6.5,1.155,9.981,3.183,14.295,6.305l.93.689c2.733,2,5.483,4.387,8.174,6.271l.025.011.729.531-.179-3.116c-2.381-1.745-4.827-3.737-7.281-5.675l-.931-.693a34.54,34.54,0,0,0-12.044-6.021A24.72,24.72,0,0,1,95.65,18.023a33.561,33.561,0,0,1,8.109,1.449l-.19-3.307-.544.275a.934.934,0,0,0-.118.1,41.451,41.451,0,0,0-7.132-.951,27.043,27.043,0,0,0-15.132,4.094c-6.486-1.313-16.271-.262-22.1,4.787l1.022,3.16a26.84,26.84,0,0,1,5.192.851,52.242,52.242,0,0,1,11.879,5.1l.765.451a90.51,90.51,0,0,0,10.866,6.013c1.435.618,2.687,1.222,3.676,1.569a24.049,24.049,0,0,1-5.542,2.3,25.7,25.7,0,0,1-7.721.466,47.978,47.978,0,0,1-9.223-1.85,52.35,52.35,0,0,1-5.771-2.152l.961,2.97a51.455,51.455,0,0,0,7.367,2.384,17.109,17.109,0,0,1-5.629,2.993l.748,2.313.006,0,.011,0a21.314,21.314,0,0,0,7.857-4.649,34.224,34.224,0,0,0,11,.1l.914-.183a25.219,25.219,0,0,0,7.9-3.658,32.258,32.258,0,0,0,10.322,1.408h.012l.008,0-.14-2.433Z" transform="translate(-58.549 -15.586)" fill="#002d5d"/>
    </g>
    <g id="Group_89" data-name="Group 89" transform="translate(267.271 57.664)">
      <path id="Path_193" data-name="Path 193" d="M116.2,20.836l-5.889,26.033s-1.59-.508-3.562-1.281a60.563,60.563,0,0,1-5.9-2.7,22.6,22.6,0,0,1-8.493,1.378l-.928-.036c-4.344-.226-7.981-1.776-10.614-2.711a22.762,22.762,0,0,1-8.846,2.441h-.012l-.008,0L70.418,17.315c6.829-3.383,16.537-1.827,22.532.838a28.1,28.1,0,0,1,15.782.116,45.586,45.586,0,0,1,6.721,2.738,1.063,1.063,0,0,1,.142-.06l.6-.111Z" transform="translate(-70.385 -14.723)" fill="#d9dfe7"/>
      <path id="Path_194" data-name="Path 194" d="M110.729,45.612l-.008,0a25.183,25.183,0,0,1-8.863-3.9,37.046,37.046,0,0,1-5.238-3.865,115.433,115.433,0,0,1-8.664-8.356l-.628-.642a52.5,52.5,0,0,0-10.609-8.272,22.037,22.037,0,0,0-3.729-1.854,23.25,23.25,0,0,1,10.055-.92A31.7,31.7,0,0,1,92.3,20.467c6.026,2.761,8.894,5.718,12.247,9.735l.712.931c2.081,2.814,4.1,5.7,6.149,8.244l.021.017.551.7.689-3.045c-1.8-2.292-3.62-4.845-5.478-7.351l-.709-.954a33.9,33.9,0,0,0-10.13-8.984,24.881,24.881,0,0,1,11.74.669,36.527,36.527,0,0,1,7.533,3.557l.731-3.23-.609.12a1,1,0,0,0-.143.064,44.128,44.128,0,0,0-6.736-2.807,27.295,27.295,0,0,0-15.849-.041c-6.007-2.769-15.761-4.389-22.606-.871l.191,3.315a20.5,20.5,0,0,1,4.791,2.1,55.451,55.451,0,0,1,10.224,7.909l.626.655A102.187,102.187,0,0,0,95.2,39.751a39.441,39.441,0,0,0,3.113,2.465,19.849,19.849,0,0,1-5.877.746,20.628,20.628,0,0,1-7.544-1.474,43.125,43.125,0,0,1-8.467-4.06c-1.283-.9-4.14-2.715-5.054-3.521l.18,3.117c2.574,1.8,4.933,3.273,6.556,4.2a22.992,22.992,0,0,1-6.232,1.438l.14,2.427.008,0h.011a21.631,21.631,0,0,0,8.808-2.541c2.624.985,6.243,2.593,10.566,2.817l.923.035a21.652,21.652,0,0,0,8.469-1.49c3.1,1.848,6.209,3.512,9.375,4.079l.011,0,.008,0,.538-2.377Z" transform="translate(-70.409 -15.207)" fill="#002d5d"/>
    </g>
    <g id="Group_90" data-name="Group 90" transform="translate(83.893 76.925)">
      <path id="Path_195" data-name="Path 195" d="M59.3,51.568,41.709,71.658s-1.652-1.821-3.512-4.188c-1.731-2.475-3.629-5.506-4.26-7.853a22.8,22.8,0,0,1-7.76-9.063l-.537-1.248a27.2,27.2,0,0,1-1.953-8.591,30.905,30.905,0,0,1,.5-6.971A21.646,21.646,0,0,1,22.722,20.35l0-.018V20.32L48.93,25.512a14.22,14.22,0,0,1,1.262,6.57,55.431,55.431,0,0,1-.431,7.152,26.933,26.933,0,0,1,6.792,7.913c.8,1.635,1.627,2.895,2.2,4.34a.674.674,0,0,1,.117-.005c.145.022.271.077.424.086Z" transform="translate(-21.63 -20.193)" fill="#d9dfe7"/>
      <path id="Path_196" data-name="Path 196" d="M43.354,70.408l-.008-.007c-3.271-2.863-6.2-7.652-6.945-10.908-.392-1.985-1.185-3.311-1.094-7.761A24.675,24.675,0,0,1,38.573,39.5l.406-.766c.926-1.8,2.3-3.693,3.372-5.336,1.252-1.662,2.517-3.124,3.583-4.31a28.446,28.446,0,0,0,2.122-2.213c1.466,3.83.8,8.379.285,12.775-.65,5.114-1.023,8.458-1.907,13.687l-.11,1.119c-.142,1.664-.228,3.435-.2,5.27a39.6,39.6,0,0,0,.731,5.4l.012.03c.068.334.125.68.219.994L49.14,63.8a32.989,32.989,0,0,1-.415-9.258l.11-1.113c.482-4.339,1.154-7.669,1.5-11.575A20.963,20.963,0,0,1,55.5,48.18a46.889,46.889,0,0,1,2.468,5.536l2.183-2.493c-.154-.006-.28-.057-.426-.074a.678.678,0,0,0-.118.009c-.538-1.449-1.327-2.7-2.1-4.323a23.834,23.834,0,0,0-6.765-7.71,48.17,48.17,0,0,0,.569-7.027,12.488,12.488,0,0,0-1.341-6.379l-3.261-.646c-.94.9-1.681,1.9-2.73,2.956A50.347,50.347,0,0,0,36.85,37.58l-.486.789a40.826,40.826,0,0,0-2.486,5.716,30.3,30.3,0,0,0-1.129,7.271,35.356,35.356,0,0,0,.317,4.873,20.314,20.314,0,0,1-4.832-6.411A22.491,22.491,0,0,1,26.019,39.4a25.178,25.178,0,0,1,3.11-11.544c.943-1.634,3.241-4.679,4.428-5.388l-3.065-.607a18.519,18.519,0,0,0-3.237,4.163,23.025,23.025,0,0,0-2,3.9,16.968,16.968,0,0,1-.67-4.366,15.5,15.5,0,0,1,.357-4.8l-2.387-.473V20.3l0,.018a21.581,21.581,0,0,0,1.56,13.57,30.8,30.8,0,0,0-.563,7.061,27.057,27.057,0,0,0,1.95,8.7l.543,1.262a22.643,22.643,0,0,0,7.914,9.117,27.26,27.26,0,0,0,7.767,12.2l.013.011.012,0,1.605-1.835Z" transform="translate(-22.101 -20.286)" fill="#002d5d"/>
    </g>
    <g id="Group_91" data-name="Group 91" transform="translate(84.341 35.705)">
      <path id="Path_197" data-name="Path 197" d="M48.594,55.515,22.388,50.323,22.9,48.65a21.418,21.418,0,0,1,1.562-3.913,45.621,45.621,0,0,1,2.5-4.5,32.242,32.242,0,0,1,2.98-3.483A16.726,16.726,0,0,1,31.5,32.013a35.086,35.086,0,0,1,1.684-3.252,23.027,23.027,0,0,1,2.088-2.822l.8-.892a29.852,29.852,0,0,1,12.255-7.555,22,22,0,0,1,9.592-7.9l.015-.006.009-.007L68.658,34.021a19.307,19.307,0,0,1-5.968,5.246,54.5,54.5,0,0,1-7.471,3.561,24.262,24.262,0,0,1-1.179,3.016c-.434.937-.516,1.6-.9,2.3A18.658,18.658,0,0,1,50.85,51.8c-.771,1.226-1.761,2.2-2.476,3.27l.069.088.151.356Z" transform="translate(-21.746 -8.977)" fill="#d9dfe7"/>
      <path id="Path_198" data-name="Path 198" d="M24.613,51.109l0-.011a32.042,32.042,0,0,1,.964-3.556,28.223,28.223,0,0,1,1.713-3.426A17.514,17.514,0,0,1,31.439,39a20.217,20.217,0,0,1,6.851-4.4c4.982-1.906,8.136-1.9,12.365-1.942l.891.033a98.073,98.073,0,0,1,12.247,1.1c1.133.121,2.265.368,3.291.43-2.957,3.653-7.912,5.682-12.427,7.449a52.329,52.329,0,0,1-6.78,2.167l-3.2.716-3.409.986-1.106.347A23.684,23.684,0,0,0,35.395,48.1a19.3,19.3,0,0,0-4.455,3.355l-.019.027-.751.726,3.065.607a24.592,24.592,0,0,1,7.883-4.786s.98-.4,1.011-.382l5.648-1.567a45.183,45.183,0,0,0,5.416-1.374,20.94,20.94,0,0,1-1.5,3.645,11.411,11.411,0,0,1-1.922,2.963c-.9,1.383-2.293,2.748-3.385,4.107l3.252.644-.164-.349-.074-.087c.735-1.031,1.734-1.962,2.5-3.136a15.653,15.653,0,0,0,2.227-3.539c.366-.682.42-1.336.838-2.274a23.442,23.442,0,0,0,1.122-3.034,49.57,49.57,0,0,0,7.462-3.415,17.453,17.453,0,0,0,5.814-5.24l-1.333-3.042a43.41,43.41,0,0,1-4.318-.485,105.2,105.2,0,0,0-12.1-1.18l-.9-.045a35,35,0,0,0-13.045,1.8,29.953,29.953,0,0,0-4.419,2.364,30.366,30.366,0,0,1,1.557-3.531,17.727,17.727,0,0,1,2.32-3.37,23.433,23.433,0,0,1,7.784-5.933,28.125,28.125,0,0,1,11.014-2.736c1.813.018,5.513.306,6.727.84L61.4,16.82a27.21,27.21,0,0,0-9.136-.206,19.562,19.562,0,0,1,6.867-4.971l-.976-2.227-.009.007-.015.006a21.776,21.776,0,0,0-9.646,8.051A29.521,29.521,0,0,0,36.07,25.032l-.81.9a22.561,22.561,0,0,0-2.094,2.852,34.4,34.4,0,0,0-1.689,3.306,16.851,16.851,0,0,0-1.527,4.827,23.731,23.731,0,0,0-4.919,6.229,33.41,33.41,0,0,0-1.771,3.63c-.41,1.265-.758,2.55-1.037,3.829l0,.018,0,.013,2.393.474Z" transform="translate(-22.219 -9.416)" fill="#002d5d"/>
    </g>
    <g id="Group_92" data-name="Group 92" transform="translate(45.336 52.5)">
      <path id="Path_199" data-name="Path 199" d="M58.566,24.736,48.2,49.333l-3.346-1.968a40.188,40.188,0,0,1-5.015-3.507,24.221,24.221,0,0,1-8.23.356l-.871-.16a41.2,41.2,0,0,1-5.56-1.707c-1.673-.651-3.108-1.521-4.349-2.1a21.618,21.618,0,0,1-8.859,1.7h-.012l-.008,0,.609-26.681c7.144-2.847,16.98-.422,22.8,3.069a24.719,24.719,0,0,1,8.263,0,24.518,24.518,0,0,1,7.965,2.544,29.889,29.889,0,0,1,6.257,3.888.883.883,0,0,1,.142-.034h.58Z" transform="translate(-11.932 -13.365)" fill="#d9dfe7"/>
      <path id="Path_200" data-name="Path 200" d="M48.9,48.168l-.008,0A19.926,19.926,0,0,1,46.567,47a21.284,21.284,0,0,1-2.079-1.248,20.642,20.642,0,0,1-3.442-2.92A37.343,37.343,0,0,1,36.6,38.3c-3.128-3.442-4.9-5.948-7.511-9.319l-.56-.687a49.125,49.125,0,0,0-9.866-9.252,20.7,20.7,0,0,0-3.607-2.131c6.368-1.79,14.534.526,19.4,3.632A28.357,28.357,0,0,1,45.484,31.938l.551,1.051,4.616,9.13.018.022.43.812,1.213-2.877-4.113-8.2-.553-1.052A29.675,29.675,0,0,0,38.683,20.37a22.812,22.812,0,0,1,6.08.474A19.555,19.555,0,0,1,50.636,22.9a26.155,26.155,0,0,1,6.88,4.835L58.8,24.68l-.585.009a.86.86,0,0,0-.144.037,29.135,29.135,0,0,0-6.266-3.96A24.047,24.047,0,0,0,43.8,18.2a24.3,24.3,0,0,0-8.322.076c-5.83-3.6-15.719-6.093-22.893-3.111l-.076,3.319a24.217,24.217,0,0,1,4.644,2.485,48.6,48.6,0,0,1,9.5,8.867l.557.7c2.622,3.174,4.507,6.015,7.776,9.469C36,41.186,36.872,42.161,37.6,42.861a22.689,22.689,0,0,1-5.7.069,27.288,27.288,0,0,1-7.085-2.26,54.7,54.7,0,0,1-7.893-4.863c-1.183-.99-3.873-3-4.714-3.925L12.128,35c2.4,2.064,4.606,3.64,6.1,4.73a20.877,20.877,0,0,1-6.233.92l-.056,2.431.008,0h.011a20.528,20.528,0,0,0,8.822-1.807c1.234.6,2.656,1.5,4.317,2.17a37.638,37.638,0,0,0,5.517,1.736l.864.158a22.953,22.953,0,0,0,8.2-.475,39.57,39.57,0,0,0,3.879,3.172,19.363,19.363,0,0,0,2.012,1.2,24.688,24.688,0,0,0,2.357,1.178l.011,0h.009l.947-2.246Z" transform="translate(-11.943 -13.845)" fill="#002d5d"/>
    </g>
    <g id="Group_93" data-name="Group 93" transform="translate(0 52.529)">
      <path id="Path_201" data-name="Path 201" d="M45.846,15.261l-.609,26.682-3.768-.623a43.305,43.305,0,0,1-6.377-1.472A24.656,24.656,0,0,1,26.92,42.82l-.93.1a34.139,34.139,0,0,1-11-.753A22.723,22.723,0,0,1,7.154,46.08l-.007,0,0,0L.041,20.359c6.828-4.77,16.192-4.86,22.643-3.346a27.48,27.48,0,0,1,15.392-2.83,34.226,34.226,0,0,1,7.076,1.372.912.912,0,0,1,.126-.083l.569-.212Z" transform="translate(0.114 -13.379)" fill="#d9dfe7"/>
      <path id="Path_202" data-name="Path 202" d="M45.392,40.632h-.008a27.744,27.744,0,0,1-9.525-2.114,42.054,42.054,0,0,1-5.916-2.836,91.448,91.448,0,0,1-10.084-6.63l-.733-.514A54.236,54.236,0,0,0,7.195,22.313a23.529,23.529,0,0,0-4.062-1.1c5.768-3.429,13.935-3.3,19.338-1.81a31.315,31.315,0,0,1,13.814,7.315l.878.781,7.655,6.861.024.014.679.6.071-3.12-6.815-6.163-.88-.785A32.8,32.8,0,0,0,26.3,18.016a23.4,23.4,0,0,1,11.559-1.583,29.533,29.533,0,0,1,8.036,2.03l.076-3.311-.571.222a.953.953,0,0,0-.127.087,33.543,33.543,0,0,0-7.1-1.436,26.679,26.679,0,0,0-15.438,2.916C16.252,15.328,6.853,15.357,0,20.271l.884,3.2a19.372,19.372,0,0,1,5.371,1.116,51.9,51.9,0,0,1,11.5,5.963l.733.515A104.479,104.479,0,0,0,28.9,37.854c1.392.761,2.587,1.337,3.547,1.79a19.668,19.668,0,0,1-5.689,1.883,24.15,24.15,0,0,1-7.743-.064,48.137,48.137,0,0,1-9.057-2.515,53.867,53.867,0,0,1-5.506-2.562L5.28,39.4a49.618,49.618,0,0,0,7,2.97,20.055,20.055,0,0,1-5.5,2.478l.647,2.344,0,0,.006,0a21.615,21.615,0,0,0,7.757-4,32.367,32.367,0,0,0,10.978.866l.926-.1a23.562,23.562,0,0,0,8.131-3.078,31.9,31.9,0,0,0,10.084,2.2h.011l.008,0,.056-2.436Z" transform="translate(0 -13.853)" fill="#002d5d"/>
    </g>
    <g id="Group_94" data-name="Group 94" transform="translate(119.444 81.278)">
      <path id="Path_203" data-name="Path 203" d="M81.049,38.41l-9.7,24.868s-6.9-3.6-9.766-6.381a24.826,24.826,0,0,1-9.477-1.573l-.958-.416a32.481,32.481,0,0,1-9.829-7.049,22.331,22.331,0,0,1-9.76-2.15l-.011-.006h-.009L42.953,21.573c7.09.141,14.254,5.041,18.514,9.33a28.334,28.334,0,0,1,13.606,3.939,44.259,44.259,0,0,1,5.295,3.641.887.887,0,0,1,.134-.041l.547-.033Z" transform="translate(-31.261 -21.047)" fill="#d9dfe7"/>
      <path id="Path_204" data-name="Path 204" d="M72.2,62l-.008,0a25.987,25.987,0,0,1-8.974-6.017,36.668,36.668,0,0,1-4.374-5.376,53.952,53.952,0,0,1-5.553-10.893l-.338-.824a86.176,86.176,0,0,0-5.892-11.744,27.816,27.816,0,0,0-2.274-3.207c6.073.627,12.071,5.027,15.66,8.85a39.172,39.172,0,0,1,8.221,12.732l.467,1.057A86.125,86.125,0,0,0,73.762,55.9l.019.021.478.8,1.134-2.908a87.013,87.013,0,0,1-4.056-8.27l-.467-1.057A42.806,42.806,0,0,0,64.2,33.379a23.838,23.838,0,0,1,10.093,3.36,35.573,35.573,0,0,1,5.97,4.6l1.2-3.086-.55.043a.847.847,0,0,0-.136.045,42.1,42.1,0,0,0-5.26-3.7A27.043,27.043,0,0,0,61.9,30.789c-4.213-4.38-11.344-9.334-18.49-9.355l-1.42,3a26.573,26.573,0,0,1,3.026,4A83.606,83.606,0,0,1,50.719,39.82l.333.836a57.668,57.668,0,0,0,5.76,11.322,37.474,37.474,0,0,0,2.558,3.355,19.663,19.663,0,0,1-6.427-1.293,23.854,23.854,0,0,1-7.193-4.421A37.809,37.809,0,0,1,39.258,42.1a43.9,43.9,0,0,1-3-5.55l-1.335,2.822a46.037,46.037,0,0,0,4.258,6.9,19.908,19.908,0,0,1-6.674-1.794l-1.039,2.2h.009l.011.005a21.542,21.542,0,0,0,9.806,2.06A31.322,31.322,0,0,0,51.085,55.9l.958.416a24.047,24.047,0,0,0,9.531,1.477A29.362,29.362,0,0,0,71.3,64.268l.013,0h.01L72.2,62Z" transform="translate(-31.466 -21.434)" fill="#002d5d"/>
    </g>
    <g id="Group_95" data-name="Group 95" transform="translate(81.35 63.325)">
      <path id="Path_205" data-name="Path 205" d="M71.028,34.785,59.614,58.915s-6.393-3.908-9.044-6.742a24.921,24.921,0,0,1-9.161-1.707l-.92-.416a33.231,33.231,0,0,1-9.471-6.877,22.463,22.463,0,0,1-9.5-1.727l-.011,0H21.5l10.368-24.6c7.364-.084,14.915,4.913,19.274,9.345a27.986,27.986,0,0,1,13.906,4.57A40.173,40.173,0,0,1,70.322,34.8a.918.918,0,0,1,.141-.029l.565.017Z" transform="translate(-21.244 -16.301)" fill="#d9dfe7"/>
      <path id="Path_206" data-name="Path 206" d="M60.564,57.7l-.008,0a26.215,26.215,0,0,1-8.333-6.383,37.177,37.177,0,0,1-4.075-5.46A62.523,62.523,0,0,1,42.821,34.91l-.34-.823a70.6,70.6,0,0,0-6.175-11.73,24.571,24.571,0,0,0-2.472-3.172c6.3.478,12.589,4.942,16.239,8.876A36.038,36.038,0,0,1,58.1,41.092l.419,1.084c1.237,3.2,2.522,6.508,4.035,9.552l.017.022.407.833,1.335-2.822c-1.289-2.717-2.44-5.645-3.542-8.493l-.419-1.084A38.838,38.838,0,0,0,53.9,28.75,23.823,23.823,0,0,1,64.162,32.61a33.183,33.183,0,0,1,5.885,5.042l1.416-2.995-.569-.007a.92.92,0,0,0-.142.033,38.7,38.7,0,0,0-5.248-4.1,26.881,26.881,0,0,0-13.946-4.5c-4.319-4.525-11.853-9.586-19.28-9.383l-1.29,3.06a26.522,26.522,0,0,1,3.279,3.924,68.792,68.792,0,0,1,5.976,11.333l.334.835a67,67,0,0,0,5.532,11.325,38.217,38.217,0,0,0,2.369,3.391,19.845,19.845,0,0,1-6.22-1.37,24.1,24.1,0,0,1-6.94-4.361,40.439,40.439,0,0,1-6.41-7.33,48.529,48.529,0,0,1-3.125-5.4l-1.213,2.877A52.258,52.258,0,0,0,28.9,41.681,20.03,20.03,0,0,1,22.375,40.2l-.944,2.241h.009l.011.005a21.557,21.557,0,0,0,9.53,1.629A31.839,31.839,0,0,0,40.4,51.044l.92.416a24.058,24.058,0,0,0,9.2,1.608A29.775,29.775,0,0,0,59.5,59.9l.011.005h.009l1.042-2.2Z" transform="translate(-21.431 -16.7)" fill="#002d5d"/>
    </g>
    <g id="Group_96" data-name="Group 96" transform="translate(203.853 103.07)">
      <path id="Path_207" data-name="Path 207" d="M90.1,27.313l13.56,23a13.125,13.125,0,0,1-1.4.672l-3.531,1.278a28.72,28.72,0,0,1-8.475,1.7,17.029,17.029,0,0,1-3.718,2.54,21.351,21.351,0,0,1-6.38,2.441l-1.223.208A24.292,24.292,0,0,1,71,59.271a25.086,25.086,0,0,1-5.993-1.365,23.105,23.105,0,0,1-5.35,1.506,30.509,30.509,0,0,1-5.91.042l-.015,0-.01,0,3.063-26.511c5.889-2.081,12.549-.923,17.609.475,3.636-2.346,6.7-4.02,10.445-4.665a32.222,32.222,0,0,1,5.016-.906.813.813,0,0,1,.029-.123l.212-.41Z" transform="translate(-53.648 -26.812)" fill="#d9dfe7"/>
      <path id="Path_208" data-name="Path 208" d="M102.8,49.14l-.009.006c-3.632,2.17-8.944,3.455-12.182,3.192a22.272,22.272,0,0,1-7.531-1.106,24.91,24.91,0,0,1-6.147-2.6A32.8,32.8,0,0,1,72.055,45.3l-.694-.561-9.74-7.967a36.1,36.1,0,0,0-2.886-2.19,19.669,19.669,0,0,1,8.054-.451A38.175,38.175,0,0,1,74.31,35.7c2.657.883,4.78,1.591,6.82,2.4l6.419,2.848,1.059.465A37.014,37.014,0,0,0,98.92,44.2l.031,0,.979.066-1.586-2.69a39.6,39.6,0,0,1-8.91-2.365l-1.057-.467c-2.07-.928-3.828-1.717-5.576-2.4a42.19,42.19,0,0,0-5.568-2.1,15.848,15.848,0,0,1,3.951-2.117,16.8,16.8,0,0,1,4.138-1.275,40.307,40.307,0,0,1,6.216-.811l-1.683-2.854c-.068.14-.13.269-.2.416a.86.86,0,0,0-.026.126,29.936,29.936,0,0,0-4.978.816c-3.7.593-6.7,2.278-10.286,4.7-5.032-1.508-11.6-2.731-17.458-.51l-.381,3.3a25.969,25.969,0,0,1,3.8,2.693c2.8,2.229,6.328,5.389,9.535,7.9l.7.574a32.828,32.828,0,0,0,11.578,6.4,35.738,35.738,0,0,0,4.582.962,19.6,19.6,0,0,1-6.947,3.007,30.335,30.335,0,0,1-5.186.583,28.5,28.5,0,0,1-4.522-.541,30.235,30.235,0,0,1-10.041-4.05,37.88,37.88,0,0,1-5.032-4.223l-.358,3.1a32.527,32.527,0,0,0,7.091,4.989,20.2,20.2,0,0,1-7.739.625L53.7,60.471l.01,0,.015,0a29.551,29.551,0,0,0,5.949-.065,22.665,22.665,0,0,0,5.385-1.58A24.884,24.884,0,0,0,71.1,60.261a23.976,23.976,0,0,0,7.989-.1l1.233-.21a21.088,21.088,0,0,0,6.426-2.5,17.055,17.055,0,0,0,3.733-2.611,27.46,27.46,0,0,0,13.544-3.589l.014-.009.007-.009-1.238-2.1Z" transform="translate(-53.703 -27.181)" fill="#002d5d"/>
    </g>
    <g id="Group_97" data-name="Group 97" transform="translate(159.298 98.056)">
      <path id="Path_209" data-name="Path 209" d="M89.483,36.6,86.42,63.108l-1.386-.281-3.261-.967a28.8,28.8,0,0,1-7.212-3.068,24.031,24.031,0,0,1-10.1-.141l-1.068-.282a31.354,31.354,0,0,1-11.084-6.018A22.047,22.047,0,0,1,42.049,50.9l-.013,0h-.009l9.7-24.867c6.859-.342,13.992,3.484,18.575,7.152A28,28,0,0,1,83.557,34.6,37.707,37.707,0,0,1,88.9,36.858a.79.79,0,0,1,.109-.077l.471-.186Z" transform="translate(-41.79 -25.447)" fill="#d9dfe7"/>
      <path id="Path_210" data-name="Path 210" d="M86.8,61.748h-.01c-3.8-.446-8.547-2.223-10.846-4.076a31.511,31.511,0,0,1-5.461-4.584A43.625,43.625,0,0,1,63.36,43.024l-.434-.774a120.8,120.8,0,0,0-6.9-10.992,29.889,29.889,0,0,0-2.427-3c5.914.159,11.98,3.673,15.89,6.994a45.75,45.75,0,0,1,9.866,11.139l.652.97a58.645,58.645,0,0,0,6.714,8.1l.025.016.7.648.358-3.1A54.666,54.666,0,0,1,81.943,45.9l-.654-.919a51.635,51.635,0,0,0-8.153-9.757A23.8,23.8,0,0,1,83.1,36.7a35.233,35.233,0,0,1,6.245,3.023l.38-3.29-.468.2a.823.823,0,0,0-.109.081,35.588,35.588,0,0,0-5.3-2.321,26.444,26.444,0,0,0-13.22-1.322c-4.54-3.761-11.62-7.637-18.518-7.167l-1.207,3.094a26.416,26.416,0,0,1,3.216,3.733A112.293,112.293,0,0,1,60.812,43.45l.43.786a45.732,45.732,0,0,0,7.413,10.492,26.269,26.269,0,0,0,3.2,2.964,19.971,19.971,0,0,1-6.835-.375,23.845,23.845,0,0,1-8.043-3.569,36.612,36.612,0,0,1-7.456-6.926,42.933,42.933,0,0,1-3.483-5.349L44.9,44.383A40.208,40.208,0,0,0,49.855,51a19.768,19.768,0,0,1-7.006-1.347l-.884,2.265h.009l.013.005A21.392,21.392,0,0,0,52.3,53.283a30.446,30.446,0,0,0,11.083,6.131l1.072.283a23.473,23.473,0,0,0,10.158.044A27.805,27.805,0,0,0,86.495,64.17l.015,0,.01,0,.28-2.421Z" transform="translate(-41.965 -25.859)" fill="#002d5d"/>
    </g>
    <g id="Group_98" data-name="Group 98" transform="translate(240.004 77.466)">
      <path id="Path_211" data-name="Path 211" d="M81.784,20.469l25.811,6.893-.482,1.362-1.536,3.244c-.624,1.256-1.337,2.615-2.066,3.871a27.989,27.989,0,0,1-2.491,3.211,25.23,25.23,0,0,1-.621,4.478,30.7,30.7,0,0,1-2.722,6.451,9.689,9.689,0,0,1-.744,1.063,29.369,29.369,0,0,1-11.479,9.426A26.466,26.466,0,0,1,82,65.364,29.212,29.212,0,0,1,76.886,69.4l-.014.008-.008.008L63.3,46.42c2.71-4.847,7.662-7.533,12.017-10.118a24.725,24.725,0,0,1,1.322-5.587A18.747,18.747,0,0,1,79,25.619a34.159,34.159,0,0,1,2.968-4.551.854.854,0,0,1-.063-.117c-.044-.17-.082-.32-.123-.482Z" transform="translate(-63.008 -20.319)" fill="#d9dfe7"/>
      <path id="Path_212" data-name="Path 212" d="M106.086,27.012l0,.009a22.936,22.936,0,0,1-2.522,5.911,17.317,17.317,0,0,1-3.544,4.653c-1.509,1.272-2.118,2.579-5.969,4.723C89.493,45,86.191,45.56,82.086,46.142c0,0-.842.12-.858.1L74.8,46.61c-2.1.061-4.184-.075-5.865-.065L65.586,46.5c2.551-4.077,7.3-6.435,11.222-8.679A127.5,127.5,0,0,1,89.643,31.99l1.085-.441a47.387,47.387,0,0,0,9.127-5.366l.019-.024.74-.61-3.019-.806A45.826,45.826,0,0,1,89.636,29.4l-1,.474c-4.245,1.671-7.207,3.077-10.988,4.911a21.611,21.611,0,0,1,3.142-8.156,35.576,35.576,0,0,1,3.856-5.347l-3.2-.855.135.481a.822.822,0,0,0,.066.117A32.149,32.149,0,0,0,78.628,25.5,17.269,17.269,0,0,0,76.3,30.529a23.08,23.08,0,0,0-1.208,5.565c-4.412,2.479-9.293,5.01-11.865,9.935l1.687,2.861a25.886,25.886,0,0,1,4.383-.031A111.91,111.91,0,0,0,81.422,48.6l.917-.056a29.617,29.617,0,0,0,6.065-1.1,24.362,24.362,0,0,0,6.668-2.824,29.868,29.868,0,0,0,3.95-2.671A24.263,24.263,0,0,1,96.346,49.2c-2.207,3.119-4.575,5.76-7.216,7.226a27.644,27.644,0,0,1-10.646,4.065,30.755,30.755,0,0,1-6.764-.061l1.586,2.69a27.356,27.356,0,0,0,9.053-.856,19.636,19.636,0,0,1-6.181,5.725l1.235,2.095.008-.008.014-.009a28.693,28.693,0,0,0,5.152-4.092,25.884,25.884,0,0,0,3.449-4.988A29.089,29.089,0,0,0,97.689,51.53a9.8,9.8,0,0,0,.751-1.074,29.952,29.952,0,0,0,2.716-6.529,24.859,24.859,0,0,0,.579-4.537,27.748,27.748,0,0,0,6.7-11.723l0-.015,0-.011-2.357-.629Z" transform="translate(-63.226 -20.429)" fill="#002d5d"/>
    </g>
    <g id="Group_99" data-name="Group 99" transform="translate(189.099)">
      <path id="Path_213" data-name="Path 213" d="M69.226,36.3,49.94,17.826s1.838-1.521,4.212-3.234c2.513-1.613,5.566-3.409,7.97-3.983a22.522,22.522,0,0,1,9.561-7.483l1.3-.493a26.4,26.4,0,0,1,15.571-.539A22.5,22.5,0,0,1,94.051.39a33.485,33.485,0,0,1,6.384-.124h.016l.011,0-3.21,26.494A11.73,11.73,0,0,1,93.2,27.9a17.118,17.118,0,0,1-4.31.234,22.37,22.37,0,0,1-3.606-.372c-1.148-.045-2.36-.435-3.464-.548a26.054,26.054,0,0,1-7.936,6.38c-1.652.751-3.035,1.59-4.529,2.158a.721.721,0,0,1,0,.121Z" transform="translate(-49.469 0.475)" fill="#d9dfe7"/>
      <path id="Path_214" data-name="Path 214" d="M51.577,19.536l.008-.007c2.9-3.026,7.724-5.779,11.032-6.443,2.011-.341,3.368-1.09,7.863-.859a23.828,23.828,0,0,1,12.113,3.835l.737.442c1.772,1.171,3.513,2.471,5.137,3.717l4.719,3.691c.939.774,1.811,1.515,2.7,2.12a18.493,18.493,0,0,1-7.5.75,47.334,47.334,0,0,1-6.461-1c-4.947-.952-8.263-1.428-13.464-2.484l-1.117-.144c-1.661-.193-3.428-.333-5.263-.367a41.166,41.166,0,0,0-5.387.5l-.03.011-1,.16,2.256,2.16a35.572,35.572,0,0,1,9.265-.062l1.111.143c4.331.611,7.628,1.389,11.422,1.963a20.762,20.762,0,0,1-6.381,4.856,48.991,48.991,0,0,1-5.738,2.37l2.393,2.292c.038-.145.073-.278.113-.43a.68.68,0,0,0,0-.122c1.5-.535,2.878-1.342,4.513-2.059,3.179-1.513,5.271-3.533,7.721-6.356,1.093.143,2.286.562,3.41.631a19.666,19.666,0,0,0,3.525.421,15.852,15.852,0,0,0,4.253-.239,11.162,11.162,0,0,0,4-1.207l.4-3.3a25,25,0,0,1-3.569-2.582c-2.746-2.18-6.337-5.14-9.736-7.435l-.757-.526a25.942,25.942,0,0,0-12.89-4.3,35.181,35.181,0,0,0-4.947.17,20.248,20.248,0,0,1,6.756-4.621,19.265,19.265,0,0,1,5.6-1.521,17.356,17.356,0,0,1,5.1-.126,20.77,20.77,0,0,1,5.926,1.3,27.115,27.115,0,0,1,4.854,2.208,34.333,34.333,0,0,1,5.268,4.127l.375-3.1a31.936,31.936,0,0,0-7.529-4.842,21.24,21.24,0,0,1,8.209-.768l.293-2.413-.011,0-.016,0A32.612,32.612,0,0,0,94.417.24,22.1,22.1,0,0,0,88.88,2.019a26.288,26.288,0,0,0-15.762.467l-1.318.5a22.386,22.386,0,0,0-9.63,7.639,27.788,27.788,0,0,0-12.337,7.2l-.012.011,0,.011,1.761,1.686Z" transform="translate(-49.816 0)" fill="#002d5d"/>
    </g>
    <g id="Group_100" data-name="Group 100" transform="translate(164.283 62.619)">
      <path id="Path_215" data-name="Path 215" d="M73.674,57.575l-25.431,8.18-.31-1.365A23.585,23.585,0,0,1,47.419,61a36.272,36.272,0,0,1-.2-8.066c-.8-1.47-3.254-5.359-3.629-10.27-.023-.417-.046-.83-.068-1.229-.467-5.744,1.5-10.816,2.778-13.91a22.426,22.426,0,0,1-.289-10.955l0-.014v-.01l26.1,5.682a21.806,21.806,0,0,1-.044,9.553,49.663,49.663,0,0,1-2.449,8.01,22.365,22.365,0,0,1,1.275,2.84,19.515,19.515,0,0,1,1.129,2.844,37.915,37.915,0,0,1,1.059,5.945c.213,2.116.035,3.984.107,5.725a.831.831,0,0,1,.116.068l.364.357Z" transform="translate(-42.795 -16.411)" fill="#d9dfe7"/>
      <path id="Path_216" data-name="Path 216" d="M50.427,65.31l0-.009c-1.376-3.572-1.307-8.761-.846-11.7a35.118,35.118,0,0,1,2.175-7.118,33.6,33.6,0,0,1,7.1-10.233l.652-.623,9.137-8.741c.923-.9,1.636-1.834,2.44-2.742a21.22,21.22,0,0,1-.429,8.3,56.312,56.312,0,0,1-2.432,7.109c-.549,1.268-1.1,2.424-1.674,3.508-.484,1.088-.945,2.1-1.481,3.087-1.015,1.968-2.392,3.852-3.726,6.072l-.585.973a50.217,50.217,0,0,0-4.631,9.457l0,.03-.3.9,2.975-.957a45.109,45.109,0,0,1,4.089-8.268l.585-.972c2.175-3.787,4.327-6.788,5.872-10.747a20.212,20.212,0,0,1,1.708,4.382c.3,1.478.543,3,.726,4.632a51.949,51.949,0,0,1-.219,6.869L74.712,57.5l-.373-.351a.871.871,0,0,0-.119-.066c-.043-1.739.161-3.6-.033-5.7a33.949,33.949,0,0,0-1.045-5.89,18.523,18.523,0,0,0-1.158-2.812,21.472,21.472,0,0,0-1.327-2.806,45.214,45.214,0,0,0,2.549-7.91,20.482,20.482,0,0,0-.037-9.5l-3.248-.707a39.712,39.712,0,0,1-3.1,3.58c-1.286,1.319-2.8,2.761-4.413,4.223l-4.57,4.365-.665.625A34.187,34.187,0,0,0,49.494,45.3a35.6,35.6,0,0,0-1.467,4.289,17.763,17.763,0,0,1-2.177-7.053A21.944,21.944,0,0,1,46.9,32.818a30.294,30.294,0,0,1,2.253-5.263,33.321,33.321,0,0,1,2.968-4.167,30.8,30.8,0,0,1,4.7-4.489l-3.053-.665a33.135,33.135,0,0,0-5.7,6.334,18.458,18.458,0,0,1,.17-7.538l-2.378-.518v.01l0,.014a21.878,21.878,0,0,0,.38,11.022c-1.33,3.107-3.359,8.227-2.889,14.015.023.4.046.818.07,1.239.385,4.95,2.915,8.855,3.745,10.328a28.855,28.855,0,0,0,.93,12.893l0,.014.007.008,2.322-.747Z" transform="translate(-43.278 -16.514)" fill="#002d5d"/>
    </g>
    <g id="Group_101" data-name="Group 101" transform="translate(166.856 17.853)">
      <path id="Path_217" data-name="Path 217" d="M70.229,54.963l-26.1-5.683a45,45,0,0,1,1.623-4.44c1.115-2.423,2.374-5.283,3.8-6.981a23.949,23.949,0,0,1,1.625-10.566l.466-1.1a30.846,30.846,0,0,1,8.845-10.8,25.46,25.46,0,0,1,1.967-5.4,31.628,31.628,0,0,1,3.732-5.139l.011-.011.006-.009L85.488,23.3C84.148,28.728,79.6,33.373,75.455,36.98a27.315,27.315,0,0,1-2.65,12.2c-.943,1.97-1.865,3.616-2.762,5.166a.835.835,0,0,1,.063.118l.123.5Z" transform="translate(-43.485 -4.376)" fill="#d9dfe7"/>
      <path id="Path_218" data-name="Path 218" d="M46.342,49.992l0-.009a25.145,25.145,0,0,1,5.06-10.4,32.486,32.486,0,0,1,5.259-5.111,39.493,39.493,0,0,1,5.585-3.48,53.337,53.337,0,0,1,5.546-2.135l.827-.276c4.068-1.26,8.562-2.532,12.018-3.395,1.141-.334,2.3-.553,3.31-.912-1.516,4.683-5.779,8.761-9.5,11.849A61.481,61.481,0,0,1,62.3,44.093l-.992.563a52.99,52.99,0,0,0-8.684,5.9l-.018.024-.73.622,3.053.665a50.035,50.035,0,0,1,7.65-5.143l.992-.561c1.913-1.119,3.715-2.069,5.405-3.122,1.667-1.063,3.256-2.219,5.055-3.538a33.278,33.278,0,0,1-.706,4.727,29.963,29.963,0,0,1-1.669,4.5,47.061,47.061,0,0,1-3.627,5.986l3.24.706c-.046-.168-.087-.322-.134-.5a.8.8,0,0,0-.067-.119c.921-1.535,1.861-3.163,2.815-5.114a25.417,25.417,0,0,0,2.539-12.14c4.229-3.533,8.768-8.048,9.958-13.518l-2.4-2.3a27.083,27.083,0,0,1-4.236,1.294c-3.425.843-7.872,2.046-11.85,3.254l-.882.248a36.22,36.22,0,0,0-11.708,5.86,23,23,0,0,0-3.4,2.982,19.559,19.559,0,0,1,1.415-7.115,23.478,23.478,0,0,1,5.356-7.947,30.412,30.412,0,0,1,9.148-6.143,33.473,33.473,0,0,1,6.478-1.7L72.044,10.3a30.85,30.85,0,0,0-8.389,3.081,20.3,20.3,0,0,1,4.3-6.991L66.2,4.708l-.006.01-.011.011a30.855,30.855,0,0,0-3.75,5.2,24.888,24.888,0,0,0-1.932,5.48,30.352,30.352,0,0,0-8.988,10.836l-.469,1.107A23.492,23.492,0,0,0,49.5,38.016a28.28,28.28,0,0,0-5.541,11.432l0,.014,0,.01,2.383.519Z" transform="translate(-43.956 -4.708)" fill="#002d5d"/>
    </g>
    <g id="Group_102" data-name="Group 102" transform="translate(192.413 136.14)">
      <path id="Path_219" data-name="Path 219" d="M100.317,61.579,85.691,83.914s-.415-.291-1.041-.834l-2.381-2.227a41.991,41.991,0,0,1-5.1-5.7,25.505,25.505,0,0,1-9.137-4.478l-.868-.711a34.136,34.136,0,0,1-7.617-10.5,25.556,25.556,0,0,1-8.7-6.47l-.009-.011-.008-.005L71.429,36a19.515,19.515,0,0,1,7.64,6.141,34.085,34.085,0,0,1,5.12,8.017,28.027,28.027,0,0,1,11.416,6.788,38.807,38.807,0,0,1,4.042,4.593.885.885,0,0,1,.138-.017Z" transform="translate(-50.318 -35.629)" fill="#d9dfe7"/>
      <path id="Path_220" data-name="Path 220" d="M87.04,82.693l-.008,0a27.425,27.425,0,0,1-7.738-8.165,26.533,26.533,0,0,1-3-6.5,38.124,38.124,0,0,1-2.17-12.139l-.046-.889c-.216-4.253-.706-8.931-1.053-12.793a26.987,26.987,0,0,0-.653-3.644c2.575,1.276,4.492,3.518,6.353,5.768a30.7,30.7,0,0,1,4.225,7.2c2.637,5.22,3.244,9.089,4.2,14.177l.2,1.129A75.09,75.09,0,0,0,89.8,77.056l.016.024.323.877,1.711-2.612a67.238,67.238,0,0,1-2.119-9.01l-.2-1.128a60.6,60.6,0,0,0-3.269-12.228,25.838,25.838,0,0,1,8.415,5.488,36.7,36.7,0,0,1,4.513,5.67l1.815-2.772-.536-.048a.9.9,0,0,0-.14.021,36.966,36.966,0,0,0-3.983-4.631A26.432,26.432,0,0,0,84.926,50.02a32.443,32.443,0,0,0-5.016-8.062,18.528,18.528,0,0,0-7.66-6.056l-2.564,2.114a25.24,25.24,0,0,1,1,4.623c.221,1.85.389,3.956.513,6.141.182,2.13.376,4.284.465,6.353l.038.9a39.785,39.785,0,0,0,2.227,12.7,37.251,37.251,0,0,0,1.657,4.071A21.357,21.357,0,0,1,63.664,62.673,29.661,29.661,0,0,1,60,52.919a38.941,38.941,0,0,1-.657-6.377l-2.41,1.987a42.477,42.477,0,0,0,1.438,8.3,22.812,22.812,0,0,1-5.8-4.7l-1.877,1.547.008,0,.01.011a24.776,24.776,0,0,0,8.808,6.435,33.169,33.169,0,0,0,7.579,10.611l.872.714A24.832,24.832,0,0,0,77.2,75.865a31.852,31.852,0,0,0,8.482,8.858l.012.008h.011l1.335-2.039Z" transform="translate(-50.689 -35.902)" fill="#002d5d"/>
    </g>
    <g id="Group_103" data-name="Group 103" transform="translate(169.115 103.603)">
      <path id="Path_221" data-name="Path 221" d="M88.5,60.1,67.891,77.085s-4.5-6.986-5.531-11.1a25.9,25.9,0,0,1-7.38-7.254l-.562-1a35.407,35.407,0,0,1-2.839-6.853,41.777,41.777,0,0,1-.91-5.87,21.3,21.3,0,0,1-5.943-9.44l0-.014-.006-.009,25.43-8.179a22.431,22.431,0,0,1,4.814,8.108A46.952,46.952,0,0,1,76.98,44.51a40.065,40.065,0,0,1,4.9,4.476,34.187,34.187,0,0,1,3.594,5.362,33.306,33.306,0,0,1,2.438,5.5.786.786,0,0,1,.13.028l.46.228Z" transform="translate(-44.094 -27.19)" fill="#d9dfe7"/>
      <path id="Path_222" data-name="Path 222" d="M69.727,76.08l-.006-.007A28.235,28.235,0,0,1,64.74,65.84a36.239,36.239,0,0,1-.847-7.18c-.173-5,.822-8.217,1.863-12.226l.233-.842c1.152-4.048,2.616-8.694,3.413-12.248a28.272,28.272,0,0,0,.829-3.571c3.448,4.128,4.907,10.434,5.359,15.376a51.255,51.255,0,0,1-.67,14.739l-.146,1.128a73.132,73.132,0,0,0-.7,10.467l.006.03c.005.333.01.649.016.968l2.41-1.986a77.029,77.029,0,0,1,.7-9.238l.147-1.126c.543-4.4,1.163-8.07.745-12.528a22.548,22.548,0,0,1,6.217,7.679,29.43,29.43,0,0,1,2.538,6.689l2.558-2.108-.467-.219a.8.8,0,0,0-.132-.025,31.846,31.846,0,0,0-2.368-5.512,31.471,31.471,0,0,0-3.57-5.333,37.344,37.344,0,0,0-4.952-4.4,43.76,43.76,0,0,0-1.9-9.029,20.964,20.964,0,0,0-4.857-8.02L67.993,28.34a26.024,26.024,0,0,1-.886,4.6c-1.018,3.568-2.113,7.965-3.484,12l-.258.856a44.008,44.008,0,0,0-1.979,12.8,36.243,36.243,0,0,0,.377,4.384,19.229,19.229,0,0,1-4.836-5.1,26.4,26.4,0,0,1-3.361-8.528,35.325,35.325,0,0,1-.131-10.6,38.278,38.278,0,0,1,1.793-6.3l-2.975.957a36.679,36.679,0,0,0-1.705,8.453,21.039,21.039,0,0,1-3.68-6.721l-2.317.745.006.008,0,.014a20.875,20.875,0,0,0,6.059,9.459,40.678,40.678,0,0,0,.856,5.926,34.286,34.286,0,0,0,2.825,6.9l.566,1.007a25.255,25.255,0,0,0,7.5,7.235,31.351,31.351,0,0,0,5.462,11.185l.009.011.009,0,1.882-1.551Z" transform="translate(-44.551 -27.322)" fill="#002d5d"/>
    </g>
    <g id="Group_104" data-name="Group 104" transform="translate(269.337 178.084)">
      <path id="Path_223" data-name="Path 223" d="M117.194,53.446l-.152,26.688s-2.061-.212-4.6-.617a32.446,32.446,0,0,1-7.421-2.192,22.352,22.352,0,0,1-10.161,1.117l-1.111-.175a32.271,32.271,0,0,1-6.982-2A43.359,43.359,0,0,1,81.749,73.4a20.872,20.872,0,0,1-10.72-.755l-.013,0h-.01l8.155-25.414A23.744,23.744,0,0,1,89,48.361a50.045,50.045,0,0,1,8.625,4.068c4.6-.96,8.807-1.329,13.183-.229,2.217.621,4.084.889,5.812,1.555a.787.787,0,0,1,.1-.086Z" transform="translate(-70.807 -46.525)" fill="#d9dfe7"/>
      <path id="Path_224" data-name="Path 224" d="M117.2,78.788h-.009a28.914,28.914,0,0,1-5.933-.686,25.583,25.583,0,0,1-5.081-2.02,35.393,35.393,0,0,1-6.056-3.755,47.764,47.764,0,0,1-8.3-9.2l-.517-.7c-2.452-3.456-5.3-7.466-7.748-10.306-.825-.993-1.682-1.8-2.538-2.723,5.708-.53,11.752,2.636,15.98,5.23a53.047,53.047,0,0,1,11.089,9.824l.773.872a50.465,50.465,0,0,0,7.595,7.208l.027.013.754.585.017-3.121a56.644,56.644,0,0,1-6.66-6.32l-.772-.872a53.673,53.673,0,0,0-9.271-8.591,23.274,23.274,0,0,1,9.987.151,47.366,47.366,0,0,1,6.792,2.238l.019-3.312-.469.234a.846.846,0,0,0-.1.09c-1.719-.693-3.575-.982-5.78-1.618-4.351-1.13-8.531-.731-13.13.318A46.58,46.58,0,0,0,89.3,48.164a22.361,22.361,0,0,0-9.813-1.057l-1.015,3.162a41.476,41.476,0,0,1,3.324,3.514,112.7,112.7,0,0,1,7.532,10.068l.506.762A50.212,50.212,0,0,0,98.5,74.15a21.793,21.793,0,0,0,3.592,2.5,17.058,17.058,0,0,1-6.918.446,24.452,24.452,0,0,1-8.6-2.627,39.749,39.749,0,0,1-8.275-6.3,29.539,29.539,0,0,1-3.925-5.144L73.423,66a29.849,29.849,0,0,0,5.6,6.289A16.654,16.654,0,0,1,71.7,71.38L70.954,73.7h.01l.013,0a20.385,20.385,0,0,0,10.785.667,42.085,42.085,0,0,0,5.025,2.95,31.226,31.226,0,0,0,7.005,2.037l1.116.175a21.907,21.907,0,0,0,10.213-1.219,36.2,36.2,0,0,0,5.941,2.239,31.937,31.937,0,0,0,6.1.68h.014l.009,0Z" transform="translate(-70.954 -46.964)" fill="#002d5d"/>
    </g>
    <g id="Group_105" data-name="Group 105" transform="translate(227.433 161.599)">
      <path id="Path_225" data-name="Path 225" d="M109.909,59.444l-8.155,25.415s-1.864-.838-4.12-2.005a27.639,27.639,0,0,1-6.4-4.131,27.534,27.534,0,0,1-9.955-1.689,8.007,8.007,0,0,1-1.009-.463,35.281,35.281,0,0,1-10.14-7.89,25.123,25.123,0,0,1-10.1-3.593l-.012-.007-.01,0L74.633,42.745a19.569,19.569,0,0,1,9.2,3.759,31.445,31.445,0,0,1,7.3,6.289,26.413,26.413,0,0,1,12.946,3.536,34.2,34.2,0,0,1,5.183,3.225.824.824,0,0,1,.127-.048l.521-.062Z" transform="translate(-59.651 -42.258)" fill="#d9dfe7"/>
      <path id="Path_226" data-name="Path 226" d="M102.562,83.518l-.009,0c-3.465-1.194-7.631-3.492-9.628-5.743a36.5,36.5,0,0,1-4.61-5.437A38.568,38.568,0,0,1,82.889,61.27l-.3-.836c-1.436-3.975-3.24-8.37-4.731-11.976a27.264,27.264,0,0,0-1.721-3.32A20.444,20.444,0,0,1,83.977,48.9a29.638,29.638,0,0,1,6.188,5.719A42.976,42.976,0,0,1,98.11,67.208l.483,1.069a76.824,76.824,0,0,0,5.141,9.039l.022.021.535.793.954-2.973a81.97,81.97,0,0,1-4.48-8.025l-.5-1.015a47.371,47.371,0,0,0-6.51-10.949,22.08,22.08,0,0,1,9.669,3.077,29.586,29.586,0,0,1,5.917,4.158l1.012-3.154-.522.072a.857.857,0,0,0-.127.052,32.762,32.762,0,0,0-5.138-3.278,25.042,25.042,0,0,0-12.93-3.44,30.115,30.115,0,0,0-7.213-6.364,18.618,18.618,0,0,0-9.2-3.674L73.4,45.4a25.508,25.508,0,0,1,2.345,4.16c1.5,3.458,3.147,7.908,4.566,11.708l.293.848C82.064,66,83.159,69.471,86.235,73.7a36.769,36.769,0,0,0,2.7,3.4,22.439,22.439,0,0,1-6.741-1.358,26.413,26.413,0,0,1-7.417-4.968,30.1,30.1,0,0,1-6.248-8.255,39.674,39.674,0,0,1-2.475-5.9l-1.71,2.612A43.141,43.141,0,0,0,68.1,66.713a22.43,22.43,0,0,1-6.849-2.765l-1.332,2.034.009,0,.012.007a24.338,24.338,0,0,0,10.185,3.525,34.188,34.188,0,0,0,10.13,8.006,7.982,7.982,0,0,0,1.012.465,26.711,26.711,0,0,0,10.028,1.6,28.409,28.409,0,0,0,10.5,6.245l.013,0h.01l.744-2.321Z" transform="translate(-59.914 -42.616)" fill="#002d5d"/>
    </g>
    <g id="Group_106" data-name="Group 106" transform="translate(353.003 159.488)">
      <path id="Path_227" data-name="Path 227" d="M124.922,42.172,143.155,61.68s-1.717,1.308-3.926,2.8a36.19,36.19,0,0,1-7.168,3.5,23.325,23.325,0,0,1-7.217,7.641l-.976.63a31.569,31.569,0,0,1-12.688,3.964A22.882,22.882,0,0,1,102,86.274l-.014,0-.008.006L93.046,61.132a20.4,20.4,0,0,1,8.2-4.98,33.927,33.927,0,0,1,8.988-2.175,23.275,23.275,0,0,1,4.295-4.917,23.926,23.926,0,0,1,5.055-3.689c2-.964,3.493-1.947,5.147-2.6a.767.767,0,0,1,.015-.13Z" transform="translate(-92.851 -41.747)" fill="#d9dfe7"/>
      <path id="Path_228" data-name="Path 228" d="M142.08,60.688l-.007.006a22.576,22.576,0,0,1-10.22,5.653,23.87,23.87,0,0,1-7.2,1.142,35.308,35.308,0,0,1-12.309-1.633l-.856-.238c-2.048-.584-4.206-1.125-6.3-1.637-2.152-.622-4.227-1.179-6.061-1.6a26.366,26.366,0,0,0-3.588-.584,17.826,17.826,0,0,1,7.409-4.009,29.041,29.041,0,0,1,7.986-1.643c5.686-.77,9.448-.291,14.605.229l1.151.13a43.6,43.6,0,0,0,10.529.153l.029-.009.964-.1-2.132-2.282a46.558,46.558,0,0,1-9.212-.143L125.721,54a71.342,71.342,0,0,0-12.48-.5,23.166,23.166,0,0,1,3.411-3.47,18.277,18.277,0,0,1,3.942-2.778,51.064,51.064,0,0,1,6.338-2.769l-2.263-2.421-.167.474a.816.816,0,0,0-.011.133c-1.664.625-3.165,1.582-5.158,2.524a22.316,22.316,0,0,0-5.019,3.658,22.278,22.278,0,0,0-4.214,4.967,32.149,32.149,0,0,0-8.986,2.056,19.252,19.252,0,0,0-8.12,5.025l1.111,3.13c1.563.2,3.082.381,4.674.72,3.569.784,8.161,2.209,12.08,3.212l.864.249a36.911,36.911,0,0,0,12.888,1.76,37.441,37.441,0,0,0,4.487-.409,23.4,23.4,0,0,1-5.133,4.915,22.9,22.9,0,0,1-8.536,3.483,30.278,30.278,0,0,1-10.557.3,27.036,27.036,0,0,1-6.284-1.6l1.045,2.942a31.44,31.44,0,0,0,8.389,1.471,18.361,18.361,0,0,1-6.5,3.856l.814,2.291.008-.006.013,0a22.33,22.33,0,0,0,9.191-6.168,30.854,30.854,0,0,0,12.8-3.9l.982-.634a22.894,22.894,0,0,0,7.2-7.761,37.129,37.129,0,0,0,6.052-2.465,28.975,28.975,0,0,0,5.147-3.785l.011-.01,0-.01-1.665-1.781Z" transform="translate(-92.994 -42.06)" fill="#002d5d"/>
    </g>
    <g id="Group_107" data-name="Group 107" transform="translate(315.569 178.329)">
      <path id="Path_229" data-name="Path 229" d="M120.761,47.173l8.931,25.153s-2.048.468-4.614.906a26.779,26.779,0,0,1-7.795.481c-1.326.9-4.871,3.657-9.356,4.383l-1.123.189a30.912,30.912,0,0,1-7.344.308,43.678,43.678,0,0,1-5.733-1.139,23.58,23.58,0,0,1-4.948,1.975,28.254,28.254,0,0,1-5.622.553h-.014l-.01,0L83.285,53.3a15.955,15.955,0,0,1,4.655-1.384,21.371,21.371,0,0,1,4.912-.512,50.042,50.042,0,0,1,9.34,1.166c4-2.354,7.77-4.132,12.219-4.449a32.19,32.19,0,0,1,5.915-.475.842.842,0,0,1,.069-.113l.366-.356Z" transform="translate(-83.13 -46.624)" fill="#d9dfe7"/>
      <path id="Path_230" data-name="Path 230" d="M129.1,71.048l-.009,0c-3.57,1.17-8.386,1.839-11.4,1.155a35.81,35.81,0,0,1-7.014-1.617,43.068,43.068,0,0,1-10.834-6.007l-.713-.5c-3.421-2.545-7.343-5.427-10.508-7.356-1.075-.648-2.138-1.373-3.214-1.913A22.452,22.452,0,0,1,93.866,53.6a47.865,47.865,0,0,1,8.162,1.281,53.393,53.393,0,0,1,13.62,5.727l1.021.579a59.875,59.875,0,0,0,9.589,4.212l.03,0,.917.309-1.045-2.942a74.016,74.016,0,0,1-8.413-3.73l-1-.525a50.791,50.791,0,0,0-11.515-5.133,21.015,21.015,0,0,1,9.38-3.065,28.343,28.343,0,0,1,7.069-.171l-1.108-3.122-.36.366a.806.806,0,0,0-.067.117,30.739,30.739,0,0,0-5.9.4c-4.433.278-8.166,2.077-12.132,4.513a46.483,46.483,0,0,0-9.3-1.275,20.2,20.2,0,0,0-4.884.516,15.267,15.267,0,0,0-4.629,1.449l-.019,3.321a26.879,26.879,0,0,1,4.192,2.367c3.108,2,6.909,4.616,10.239,7.228l.721.568a48.348,48.348,0,0,0,11.315,6.3,30.05,30.05,0,0,0,4.238,1.146,17.085,17.085,0,0,1-6.463,2.707,24.1,24.1,0,0,1-9.086.223,39.438,39.438,0,0,1-9.9-3.368,40.679,40.679,0,0,1-5.33-3.779l-.017,3.122a32.712,32.712,0,0,0,7.311,4.34,18.2,18.2,0,0,1-7.343,1.312l-.014,2.431.01,0h.014a27.306,27.306,0,0,0,5.647-.58,22.985,22.985,0,0,0,4.965-2.05,42.48,42.48,0,0,0,5.763,1.208,30.027,30.027,0,0,0,7.383-.277l1.128-.19c4.506-.738,8.055-3.569,9.378-4.5a28.076,28.076,0,0,0,12.472-1.293l.014,0,.008-.007-.815-2.3Z" transform="translate(-83.133 -47.028)" fill="#002d5d"/>
    </g>
    <g id="Group_108" data-name="Group 108" transform="translate(404.611 91.989)">
      <path id="Path_231" data-name="Path 231" d="M113.593,25.164l26.7-.9s-.2,2.156-.608,4.806c-.2,1.325-.453,2.771-.749,4.134a26.433,26.433,0,0,1-1.285,3.588,23.136,23.136,0,0,1,.98,10.456l-.193,1.141c-.835,5.413-3.583,9.42-5.286,12.151a23.843,23.843,0,0,1-1.5,10.876l-.005.013v.01l-24.84-9.823c-.592-6.4,2.861-12.986,5.866-17.676a27.59,27.59,0,0,1-.22-12.684A29.915,29.915,0,0,1,113.9,25.7a.736.736,0,0,1-.085-.1l-.22-.44Z" transform="translate(-106.168 -24.243)" fill="#d9dfe7"/>
      <path id="Path_232" data-name="Path 232" d="M138.931,24.341v.01c-.049,3.849-.884,8.786-2.533,11.439a34.4,34.4,0,0,1-3.833,6.173,40.354,40.354,0,0,1-9.375,8.159l-.754.484c-3.619,2.311-7.418,5.008-10.6,7.169a26.73,26.73,0,0,0-2.832,2.31c-.13-5.566,3.059-11.283,5.842-15.324a56.347,56.347,0,0,1,9.909-10.808l.88-.776a57.6,57.6,0,0,0,7.034-7.828l.013-.028.585-.791-3.123.105a66.636,66.636,0,0,1-6.225,6.839l-.807.776a60.243,60.243,0,0,0-8.653,9.037,22.494,22.494,0,0,1,.183-9.637,27.055,27.055,0,0,1,2.1-6.564l-3.314.111.23.436c.025.043.063.064.089.1a28.518,28.518,0,0,0-1.508,5.512,25.787,25.787,0,0,0,.311,12.609c-3.1,4.644-6.6,11.152-5.868,17.565l3.091,1.222a44.348,44.348,0,0,1,3.6-3.05c1.5-1.084,3.241-2.252,5.082-3.429,1.739-1.205,3.539-2.431,5.3-3.544l.767-.482a39.1,39.1,0,0,0,9.847-8.509,21.292,21.292,0,0,0,2.56-3.655,17.862,17.862,0,0,1,.346,7.1,28.167,28.167,0,0,1-1.091,4.788,26.867,26.867,0,0,1-1.894,3.911,31,31,0,0,1-12.043,11.807l2.906,1.149a34.759,34.759,0,0,0,6.629-5.343,19.675,19.675,0,0,1-1.369,7.423l2.263.895v-.01l.006-.013a23.214,23.214,0,0,0,1.42-10.957c1.754-2.73,4.565-6.744,5.406-12.188.063-.373.128-.758.194-1.148a22.713,22.713,0,0,0-1.081-10.524,28.82,28.82,0,0,0,2.752-12.572v-.015l0-.009-2.438.082Z" transform="translate(-106.59 -24.259)" fill="#002d5d"/>
    </g>
    <g id="Group_109" data-name="Group 109" transform="translate(384.675 129.15)">
      <path id="Path_233" data-name="Path 233" d="M121.625,34.115l24.842,9.824s-3.855,7.453-7.152,10.284a22.637,22.637,0,0,1-2.987,10.01l-.6.994a26.236,26.236,0,0,1-5.025,5.813,23.933,23.933,0,0,1-4.892,3.611,21.866,21.866,0,0,1-6.123,9.5l-.011.01-.006.009L101.442,64.661a21.069,21.069,0,0,1,5.18-7.622,39.246,39.246,0,0,1,6.9-5.585,26.028,26.028,0,0,1,1.654-6.325,20.615,20.615,0,0,1,2.978-5.637,34.638,34.638,0,0,1,3.542-4.742.786.786,0,0,1-.04-.126c-.01-.179-.019-.337-.029-.509Z" transform="translate(-101.045 -33.901)" fill="#d9dfe7"/>
      <path id="Path_234" data-name="Path 234" d="M145.1,43.44l0,.009c-1.425,3.484-4.2,7.5-6.662,9.359a29,29,0,0,1-5.881,4.21,35.748,35.748,0,0,1-11.765,4.032l-.875.16L113.546,62.4c-2.2.327-4.281.664-6.078,1.018-1.236.223-2.29.569-3.479.831a17.769,17.769,0,0,1,4.906-6.465,31.108,31.108,0,0,1,6.249-4.763,41.106,41.106,0,0,1,6.605-3.671,55.786,55.786,0,0,1,6.607-2.668l1.1-.388a55.332,55.332,0,0,0,9.516-4.427l.023-.02.836-.488-2.905-1.149a73.225,73.225,0,0,1-8.342,3.875l-1.1.388a63.219,63.219,0,0,0-11.442,5.158,23.273,23.273,0,0,1,3.864-8.953,31.827,31.827,0,0,1,4.551-5.4l-3.083-1.219c.013.172.026.33.04.51a.772.772,0,0,0,.044.127,33.01,33.01,0,0,0-3.587,4.685,19.447,19.447,0,0,0-2.961,5.6,24.771,24.771,0,0,0-1.56,6.334,36.731,36.731,0,0,0-6.938,5.463,19.674,19.674,0,0,0-5.076,7.617l2.268,2.427c1.406-.491,3.029-.753,4.547-1.117,3.46-.749,8.274-1.289,12.214-2.116l.886-.154a57.956,57.956,0,0,0,6.025-1.4,43.648,43.648,0,0,0,6.337-2.792,24.211,24.211,0,0,0,3.781-2.389,19.808,19.808,0,0,1-2.349,6.686,22.89,22.89,0,0,1-6.222,7.078,29.6,29.6,0,0,1-9.589,4.911,26.742,26.742,0,0,1-6.478,1.082l2.133,2.282a27.788,27.788,0,0,0,8.39-2.142,22.569,22.569,0,0,1-1.835,3.33,24.009,24.009,0,0,1-2.695,2.943l1.661,1.777.005-.009.011-.01a21.453,21.453,0,0,0,6.1-9.616,23.769,23.769,0,0,0,4.972-3.594,25.807,25.807,0,0,0,5.082-5.833l.6-1A22.211,22.211,0,0,0,140.1,54.632a28.389,28.389,0,0,0,7.264-10.272l.006-.013v-.01l-2.269-.9Z" transform="translate(-101.338 -34.059)" fill="#002d5d"/>
    </g>
    <g id="Group_110" data-name="Group 110" transform="translate(371.79 15.114)">
      <path id="Path_235" data-name="Path 235" d="M98,28.784,108.269,4.145a32.13,32.13,0,0,1,4.041,2.413,34.34,34.34,0,0,1,6.083,4.821,24.356,24.356,0,0,1,9.858,2.974l1.031.687a38.668,38.668,0,0,1,6.08,5.167,43.857,43.857,0,0,1,3.53,5.3c3.618,1.156,6.745,3.8,9.531,7.2l.01.012.009.006-21.2,16.239a11.98,11.98,0,0,1-3.652-2.212,30.678,30.678,0,0,1-3.183-2.844,63.7,63.7,0,0,1-5.042-6.745,34.891,34.891,0,0,1-6.288-1.653,33.192,33.192,0,0,1-5.754-3.114A48.489,48.489,0,0,1,98.644,28.7a.821.821,0,0,1-.128.043L98,28.784Z" transform="translate(-97.778 -3.542)" fill="#d9dfe7"/>
      <path id="Path_236" data-name="Path 236" d="M107.748,6.236l.009,0a26.142,26.142,0,0,1,9.238,6.731,36.429,36.429,0,0,1,4.037,5.92,35.52,35.52,0,0,1,4.005,11.788l.16.848c.71,4.122,1.078,8.922,1.54,12.3a29.082,29.082,0,0,0,.334,3.48,17.325,17.325,0,0,1-3.052-2.18,15.217,15.217,0,0,1-2.755-2.668,65.923,65.923,0,0,1-4.357-6.155c-1.26-2.468-2.584-4.51-3.582-6.581a63.078,63.078,0,0,1-2.6-6.746l-.39-1.073a61.523,61.523,0,0,0-4.254-9.6l-.02-.022-.489-.816-1.2,2.882a54.612,54.612,0,0,1,3.708,8.459l.388,1.072c1.548,4.139,2.762,7.689,5.285,11.484a23.289,23.289,0,0,1-9.2-3.965,40.855,40.855,0,0,1-5.33-4.684l-1.274,3.057.515-.053a.873.873,0,0,0,.129-.047,45.313,45.313,0,0,0,4.622,3.75,30.677,30.677,0,0,0,5.722,3.1,31.89,31.89,0,0,0,6.3,1.558,56.73,56.73,0,0,0,4.9,6.769,27.231,27.231,0,0,0,3.145,2.8,11.426,11.426,0,0,0,3.668,2.129l2.638-2.021a25.6,25.6,0,0,1-.626-4.426c-.17-3.627-.937-7.907-1.333-12.245.016-.017-.133-.886-.133-.886a40.3,40.3,0,0,0-4.233-12.426,36.674,36.674,0,0,0-2.343-3.678,17.668,17.668,0,0,1,6.657,2.288,27.136,27.136,0,0,1,7.312,6.484c2.1,3.337,4.039,6.789,4.7,10.075a35.138,35.138,0,0,1,.646,6.662l2.48-1.9a34.263,34.263,0,0,0-1.651-8.809,22.449,22.449,0,0,1,6.14,5.371l1.931-1.479-.009-.006-.01-.013c-2.811-3.429-5.989-6.081-9.67-7.206a42.946,42.946,0,0,0-3.519-5.391,37.556,37.556,0,0,0-6.111-5.233l-1.04-.692a23.736,23.736,0,0,0-9.95-2.9,29.087,29.087,0,0,0-10.1-7.346l-.014-.006h-.011l-.938,2.25Z" transform="translate(-97.943 -3.986)" fill="#002d5d"/>
    </g>
    <g id="Group_111" data-name="Group 111" transform="translate(400.793 43.904)">
      <path id="Path_237" data-name="Path 237" d="M105.706,27.925l21.2-16.241c.228-.162,4.655,8,5.309,12.493,1.162,1.2,4.742,4.492,6.369,9.148l.382,1.172a29.3,29.3,0,0,1,.954,13.929,23.9,23.9,0,0,1,3.258,10.944v.015l0,.01-26.7.9c-3.275-5.346-2.61-12.227-2.275-17.376a23.577,23.577,0,0,1-1.955-2.406,17.713,17.713,0,0,1-1.816-2.3,44.239,44.239,0,0,1-2.523-5.06c-.794-1.764-1.033-3.586-1.635-5.032a.842.842,0,0,1-.128-.017l-.445-.177Z" transform="translate(-105.243 -11.288)" fill="#d9dfe7"/>
      <path id="Path_238" data-name="Path 238" d="M125.83,13.061l.006.008a18.376,18.376,0,0,1,3.189,5.724,24.593,24.593,0,0,1,1.576,5.642,35.492,35.492,0,0,1-.081,7.586c-.692,5.163-2.325,8.12-4.143,11.765l-.44.768c-2.374,3.739-4.381,7.643-6.5,10.843a26.93,26.93,0,0,0-1.673,3.15c-1.261-2.407-1.46-5.17-1.748-7.81a23.483,23.483,0,0,1,.146-4.019,27.665,27.665,0,0,1,.3-3.662c.207-1.369.447-2.63.724-3.828.172-1.149.353-2.222.6-3.3.454-2.132,1.271-4.316,1.94-6.819l.267-1.089a41.51,41.51,0,0,0,1.4-10.518l-.008-.029c-.015-.334-.03-.65-.044-.969l-2.48,1.9a34.968,34.968,0,0,1-1.247,9.155l-.269,1.087c-.263,1.064-.509,2.058-.742,3l-.85,2.9a46.965,46.965,0,0,0-1.153,5.816,18.943,18.943,0,0,1-2.779-3.595,14.289,14.289,0,0,1-.938-1.983c-.325-.656-.678-1.3-.952-2.015-.827-1.92-1.119-4.36-1.71-6.219l-2.631,2.015.45.166a.789.789,0,0,0,.13.014c.569,1.448.779,3.264,1.546,5.014a37.9,37.9,0,0,0,2.486,5,16.735,16.735,0,0,0,1.832,2.257,22.519,22.519,0,0,0,2,2.36c-.448,5.137-1.192,11.933,2.217,17.228l3.322-.112a29.057,29.057,0,0,1,2.006-4.117c2.019-3.141,4.241-7.02,6.414-10.618l.482-.78a35.414,35.414,0,0,0,4.567-12.395,35.2,35.2,0,0,0,.2-4.614,17.781,17.781,0,0,1,4.038,6.342c1.187,3.44,1.884,6.756,1.533,9.56a27.683,27.683,0,0,1-2.525,10.555,32.845,32.845,0,0,1-3.315,5.617l3.123-.105a38.316,38.316,0,0,0,3.823-7.785,23.123,23.123,0,0,1,1.831,7.595l2.432-.082,0-.01v-.015a23.392,23.392,0,0,0-3.366-11.006c.47-3.377,1.088-8.464-.872-14.049l-.386-1.182c-1.647-4.693-5.308-7.993-6.5-9.185a26.13,26.13,0,0,0-1.9-6.663,20.559,20.559,0,0,0-3.365-5.959l-.01-.013-.01-.006-1.936,1.483Z" transform="translate(-105.584 -11.578)" fill="#002d5d"/>
    </g>
    <g id="Group_112" data-name="Group 112" transform="translate(289.534 7.436)">
      <path id="Path_239" data-name="Path 239" d="M84.442,38.112,76.326,12.684s7.379-1.519,11.42-1.22a24.315,24.315,0,0,1,8.473-4.881c.341-.114.713-.2,1.057-.285a32.488,32.488,0,0,1,12.848-.52,22.135,22.135,0,0,1,10.45-3.641h.015l.009,0,2.439,26.576c-5.26,3.337-12.833,3.43-18.744,2.762a27.672,27.672,0,0,1-12.8,5.553,40.456,40.456,0,0,1-6.547.6.946.946,0,0,1-.082.116l-.421.37Z" transform="translate(-76.128 -1.483)" fill="#d9dfe7"/>
      <path id="Path_240" data-name="Path 240" d="M77.015,14.862l.008,0a26.313,26.313,0,0,1,10.6-.994,33.661,33.661,0,0,1,6.839,1.326,46.083,46.083,0,0,1,11.227,4.992l.766.435c3.681,2.2,7.911,4.391,11.25,6.179,1.134.6,2.24,1.019,3.333,1.48-4.815,2.628-11.5,2.473-16.606,1.748a42.913,42.913,0,0,1-14.294-4.64L89.1,24.864a100.8,100.8,0,0,0-9.469-4.274l-.028,0-.87-.333.949,2.974c2.8,1.112,5.64,2.474,8.377,3.817l1.039.521A45.908,45.908,0,0,0,101.265,31.9a23.709,23.709,0,0,1-9.833,3.811,33.669,33.669,0,0,1-7.674.276l1.007,3.156.417-.38a.874.874,0,0,0,.08-.12,38.821,38.821,0,0,0,6.563-.54,26.333,26.333,0,0,0,12.751-5.624c5.928.771,13.456.752,18.659-2.714l-.3-3.307a45.91,45.91,0,0,1-4.313-1.865c-3.276-1.72-7.379-3.958-10.951-6.064l-.776-.474a48.746,48.746,0,0,0-11.708-5.214,37.638,37.638,0,0,0-4.179-.969A21.422,21.422,0,0,1,96.93,8.755a24.551,24.551,0,0,1,8.814-1.037,32.683,32.683,0,0,1,10.227,2.3,29.918,29.918,0,0,1,5.737,3.1l-.285-3.109a33.479,33.479,0,0,0-7.831-3.488,18.713,18.713,0,0,1,7.314-2.139l-.222-2.421-.01,0h-.015a21.625,21.625,0,0,0-10.49,3.749,31.647,31.647,0,0,0-12.916.425c-.344.09-.718.172-1.06.287a23.578,23.578,0,0,0-8.46,4.99,30.086,30.086,0,0,0-11.44,1.114l-.012,0-.007.007.741,2.321Z" transform="translate(-76.274 -1.961)" fill="#002d5d"/>
    </g>
    <g id="Group_113" data-name="Group 113" transform="translate(333.943 7.308)">
      <path id="Path_241" data-name="Path 241" d="M90.428,28.711,87.989,2.134A43.4,43.4,0,0,1,92.8,2.35c2.7.363,5.877.712,7.939,1.619a23.868,23.868,0,0,1,10.72-1.35l1.192.155a29.384,29.384,0,0,1,12.554,5.358,22,22,0,0,1,11.034,1.637l.013.005h.01L126,34.413c-6.376.322-12.633-2.762-17.181-5.808a27.968,27.968,0,0,1-12.251.864c-2.1-.334-3.9-.734-5.618-1.12a.758.758,0,0,1-.092.1l-.429.266Z" transform="translate(-87.929 -1.362)" fill="#d9dfe7"/>
      <path id="Path_242" data-name="Path 242" d="M88.2,4.476h.009A25.1,25.1,0,0,1,99.834,6.247a33.764,33.764,0,0,1,6.459,3.6,34.214,34.214,0,0,1,8.477,9.186l.495.732c2.383,3.39,4.92,7.578,7.061,10.489a28.3,28.3,0,0,0,2.205,2.957c-5.482-.159-10.972-2.976-14.92-5.822a62.537,62.537,0,0,1-11-9.422l-.823-.784a48.859,48.859,0,0,0-8.227-6.554l-.028-.011-.82-.508L89,13.219A45.591,45.591,0,0,1,96.185,19l.821.784,4.493,4.289c1.466,1.326,3,2.461,4.756,3.863a36.826,36.826,0,0,1-4.68.642,32.57,32.57,0,0,1-4.689-.317,51.37,51.37,0,0,1-6.664-1.7l.3,3.3.424-.276a.794.794,0,0,0,.091-.1c1.71.414,3.5.836,5.577,1.187a25.9,25.9,0,0,0,12.152-.954c4.5,3.142,10.652,6.264,17.048,5.8L127.1,32.45a26.029,26.029,0,0,1-2.956-3.671c-2.074-3.029-4.6-6.914-6.864-10.391l-.493-.745a35.25,35.25,0,0,0-8.862-9.659,21.665,21.665,0,0,0-3.847-2.43,18.753,18.753,0,0,1,7.286-.59,23.539,23.539,0,0,1,9.027,2.874,32.6,32.6,0,0,1,8.26,6.8,38.769,38.769,0,0,1,3.6,5.443l1.2-2.882a35.965,35.965,0,0,0-5.289-6.771,20.968,20.968,0,0,1,7.463,1.554l.935-2.244h-.01l-.013-.005a21.545,21.545,0,0,0-11.124-1.561A28.857,28.857,0,0,0,112.8,2.69l-1.2-.156a23.456,23.456,0,0,0-10.8,1.452A28.133,28.133,0,0,0,88,2.043h-.014l-.01.005L88.2,4.476Z" transform="translate(-87.973 -1.927)" fill="#002d5d"/>
    </g>
    <g id="Group_114" data-name="Group 114" transform="translate(210.344 28.2)">
      <path id="Path_243" data-name="Path 243" d="M55.794,38.032l-.379-26.686s7.059.662,10.612,1.857a24.51,24.51,0,0,1,8.456-2.933l.959-.11a33.8,33.8,0,0,1,11.284,1.049,21.827,21.827,0,0,1,8.731-3.6l.012,0,.008,0,4.648,26.281c-6.23,4.04-15.667,3.924-21.853,2.241A27.834,27.834,0,0,1,63.3,38.91,40.393,40.393,0,0,1,56.452,37.7a.981.981,0,0,1-.118.089l-.539.24Z" transform="translate(-55.406 -6.964)" fill="#d9dfe7"/>
      <path id="Path_244" data-name="Path 244" d="M55.448,13.6h.008a26.628,26.628,0,0,1,9.913,1.871A45.361,45.361,0,0,1,71.4,18.306a78,78,0,0,1,10.026,6.8l.717.537a61.453,61.453,0,0,0,11.543,6.7A28.076,28.076,0,0,0,97.541,33.7c-5.656,2.987-13.64,2.571-18.91.989a32.735,32.735,0,0,1-13.61-7.43L64.14,26.5c-2.6-2.207-5.228-4.642-7.871-6.665l-.025-.013-.716-.562.044,3.121c2.323,1.844,4.668,3.956,6.986,5.981l.883.758a35.218,35.218,0,0,0,11.417,6.9A23.713,23.713,0,0,1,63.6,37.6a32.952,32.952,0,0,1-7.834-1.821l.047,3.312.539-.25a.932.932,0,0,0,.119-.093,39.047,39.047,0,0,0,6.865,1.271,26.9,26.9,0,0,0,15-2.867c6.205,1.784,15.68,1.959,21.9-2.215l-.578-3.27a23.444,23.444,0,0,1-4.938-1.545,59.417,59.417,0,0,1-11.137-6.434l-.716-.533a82.675,82.675,0,0,0-10.37-7,38.121,38.121,0,0,0-3.615-1.8,18.492,18.492,0,0,1,5.866-1.842,23.488,23.488,0,0,1,7.931.222,45.112,45.112,0,0,1,9.136,2.848,59,59,0,0,1,5.51,2.889L96.778,15.4a56.257,56.257,0,0,0-7.156-3.331,19.5,19.5,0,0,1,6.172-2.233L95.37,7.437l-.008,0-.012,0a20.883,20.883,0,0,0-8.693,3.694,32.232,32.232,0,0,0-11.269-1.16l-.957.11A23.531,23.531,0,0,0,66,13.128a30.094,30.094,0,0,0-10.571-1.966h-.012l-.008,0,.035,2.437Z" transform="translate(-55.413 -7.437)" fill="#002d5d"/>
    </g>
    <g id="Group_115" data-name="Group 115" transform="translate(250.301 18.021)">
      <path id="Path_245" data-name="Path 245" d="M70.617,41.393,65.969,15.111s7.037-.472,10.737.137a24.365,24.365,0,0,1,7.852-4.275l.929-.267A34.167,34.167,0,0,1,96.81,9.894a21.888,21.888,0,0,1,8.459-4.969l.012,0,.008-.005L113.4,30.343c-5.15,4.694-14.48,6.166-20.872,5.52a27.725,27.725,0,0,1-14.336,5.186,37.584,37.584,0,0,1-6.98-.083.946.946,0,0,1-.1.107l-.5.322Z" transform="translate(-65.855 -4.295)" fill="#d9dfe7"/>
      <path id="Path_246" data-name="Path 246" d="M66.363,17.326l.008,0a27.123,27.123,0,0,1,10.055.261,47.094,47.094,0,0,1,6.409,1.81,78.462,78.462,0,0,1,11,5.073l.8.413a69.046,69.046,0,0,0,12.415,4.788,27.835,27.835,0,0,0,3.88.8c-4.78,3.669-12.869,4.622-18.281,3.91A32.658,32.658,0,0,1,78,29.267l-.995-.606C74.084,26.9,71.1,24.947,68.17,23.348l-.027-.008-.8-.442.544,3.074c2.584,1.445,5.246,3.191,7.859,4.78l1,.606a34.939,34.939,0,0,0,12.4,4.952A23.578,23.578,0,0,1,78.274,39.7a31.474,31.474,0,0,1-8.05-.534l.577,3.262.495-.332a.954.954,0,0,0,.1-.111,36.466,36.466,0,0,0,7.007.144,26.8,26.8,0,0,0,14.349-5.273c6.429.743,15.807-.678,20.909-5.5l-1.01-3.164a26.8,26.8,0,0,1-4.967-.866A68.813,68.813,0,0,1,95.73,22.716l-.794-.408a81.6,81.6,0,0,0-11.378-5.215A38.262,38.262,0,0,0,79.7,15.9a18.605,18.605,0,0,1,5.482-2.771,23.294,23.294,0,0,1,7.871-1.075,44.908,44.908,0,0,1,9.567,1.336,45.756,45.756,0,0,1,5.962,2.033l-.949-2.974a47.407,47.407,0,0,0-7.778-2.181,19.612,19.612,0,0,1,6.059-3.2l-.739-2.317-.008.005-.012,0A21.023,21.023,0,0,0,96.73,9.826a32.563,32.563,0,0,0-11.328.7l-.927.266A23.386,23.386,0,0,0,76.67,15.17a30.613,30.613,0,0,0-10.712-.251l-.012,0-.007.006.424,2.4Z" transform="translate(-65.939 -4.752)" fill="#002d5d"/>
    </g>
    <g id="Group_116" data-name="Group 116" transform="translate(120.275 29.552)">
      <path id="Path_247" data-name="Path 247" d="M42.469,38.506,31.754,14.057l1.5-.465a28.976,28.976,0,0,1,3.654-.914,31.125,31.125,0,0,1,8.553-.659A25.357,25.357,0,0,1,55.638,8.151a11.392,11.392,0,0,1,1.17-.111,30.481,30.481,0,0,1,13,1.982A22.582,22.582,0,0,1,80.227,8.27h.013l.009,0-1.8,26.627c-6.357,2.421-14,.923-19.2-.837a27.83,27.83,0,0,1-11.4,3.658,50.276,50.276,0,0,1-5.061.323.688.688,0,0,1-.046.113l-.27.354Z" transform="translate(-31.493 -7.312)" fill="#d9dfe7"/>
      <path id="Path_248" data-name="Path 248" d="M32.663,16.174l.009,0a23.624,23.624,0,0,1,12.451-1.729,26.276,26.276,0,0,1,7.239,1.938,36.668,36.668,0,0,1,10.4,6.834l.665.6c3.173,2.824,6.836,5.934,9.914,8.237a29.156,29.156,0,0,0,3.173,2.114c-5.6,1.666-12.208.142-16.751-1.51a66.825,66.825,0,0,1-12.929-6.531l-1-.581a34.684,34.684,0,0,0-9.888-3.962h-.032l-.983-.22,1.253,2.86a36.149,36.149,0,0,1,8.571,3.437l.988.567A84.238,84.238,0,0,0,56.57,33.943a23.591,23.591,0,0,1-8.744,2.487,42.832,42.832,0,0,1-6.26.056l1.33,3.034.26-.361a.69.69,0,0,0,.043-.115,44.816,44.816,0,0,0,5.011-.238,25.7,25.7,0,0,0,11.275-3.718c5.173,1.865,12.766,3.425,19.118.87l.224-3.313a26.294,26.294,0,0,1-4.14-2.571c-3.017-2.254-6.584-5.328-9.661-8.067l-.667-.611A37.286,37.286,0,0,0,53.5,14.17a22.228,22.228,0,0,0-4.337-1.462A20.516,20.516,0,0,1,56.108,10.4a23.719,23.719,0,0,1,9.173.628,33.136,33.136,0,0,1,9.467,4.219,41.72,41.72,0,0,1,4.981,4.035l.21-3.114a39.061,39.061,0,0,0-6.825-4.79,20.321,20.321,0,0,1,7.207-.848L80.486,8.1l-.009,0h-.014A21.955,21.955,0,0,0,70,9.954,29.742,29.742,0,0,0,56.948,7.866a11.337,11.337,0,0,0-1.177.112A24.923,24.923,0,0,0,45.54,11.964a27.229,27.229,0,0,0-13.831,1.963l-.015.006-.008.008.978,2.232Z" transform="translate(-31.685 -7.793)" fill="#002d5d"/>
    </g>
    <g id="Group_117" data-name="Group 117" transform="translate(167.192 29.848)">
      <path id="Path_249" data-name="Path 249" d="M44.055,34.672l1.8-26.628s1.951.334,4.332.921A32.48,32.48,0,0,1,56.946,11.2a25.132,25.132,0,0,1,8.889-1.7l.977.052a33.647,33.647,0,0,1,11.095,2.739,21.935,21.935,0,0,1,9.251-2.161h.012l.008,0,.379,26.685c-6.766,2.995-15.97,1.371-21.792-1.157a28.055,28.055,0,0,1-15.029.643,37.717,37.717,0,0,1-6.063-1.906.888.888,0,0,1-.114.08l-.5.2Z" transform="translate(-44.016 -7.39)" fill="#d9dfe7"/>
      <path id="Path_250" data-name="Path 250" d="M45.765,10.306h.009a25.471,25.471,0,0,1,10.284,3.065,41.443,41.443,0,0,1,5.618,3.663,74.233,74.233,0,0,1,8.935,8.2l.627.636a63.425,63.425,0,0,0,10.336,8.414,27.921,27.921,0,0,0,3.572,1.935c-6.034,2.1-13.778.374-18.724-1.917A33.693,33.693,0,0,1,54.079,25l-.769-.87a91.485,91.485,0,0,0-7.2-7.54l-.025-.014-.7-.621-.211,3.114a89.992,89.992,0,0,1,6.331,6.7l.758.868a36.267,36.267,0,0,0,10.264,8.426,23.946,23.946,0,0,1-11.266-.009,32.883,32.883,0,0,1-6.992-2.616l-.223,3.3.5-.209a.853.853,0,0,0,.114-.084A36.132,36.132,0,0,0,50.7,37.41a27.067,27.067,0,0,0,15.059-.723c5.825,2.63,15.052,4.318,21.831,1.19l-.047-3.32a25.553,25.553,0,0,1-4.612-2.317,61.79,61.79,0,0,1-9.982-8.081l-.627-.648a78.353,78.353,0,0,0-9.252-8.456c-1.291-.983-2.424-1.729-3.348-2.3a19.246,19.246,0,0,1,6.131-.984A23.47,23.47,0,0,1,73.734,13.2a42.963,42.963,0,0,1,8.629,4.226,51.981,51.981,0,0,1,4.994,3.732l-.044-3.122a51.136,51.136,0,0,0-6.565-4.422,18.7,18.7,0,0,1,6.485-1.229L87.2,9.959l-.008,0h-.012a21.014,21.014,0,0,0-9.231,2.262A32.136,32.136,0,0,0,66.877,9.378L65.9,9.326a24.136,24.136,0,0,0-8.881,1.807A28.558,28.558,0,0,0,45.952,7.872h-.014l-.009,0-.164,2.431Z" transform="translate(-44.045 -7.872)" fill="#002d5d"/>
    </g>
    <g id="Group_118" data-name="Group 118" transform="translate(146.366 88.188)">
      <path id="Path_251" data-name="Path 251" d="M73.561,23.386,87.846,45.94s-6.5,3.206-10.283,3.995a24.309,24.309,0,0,1-6.2,6.945l-.84.578a33.385,33.385,0,0,1-11.314,4.635,21.54,21.54,0,0,1-8.156,7.32l-.013.007-.008.007L38.63,45.792c3.339-4.988,10.963-8.423,17.011-9.812a27.652,27.652,0,0,1,11.174-9.546A39.788,39.788,0,0,1,73.176,24a.913.913,0,0,1,.054-.135l.331-.474Z" transform="translate(-38.359 -22.895)" fill="#d9dfe7"/>
      <path id="Path_252" data-name="Path 252" d="M87.089,44.794l-.007,0a26.519,26.519,0,0,1-9.642,3.6,37.183,37.183,0,0,1-6.756.636A57.765,57.765,0,0,1,58.536,47.9l-.876-.147c-4.2-.734-9.088-1.167-12.877-1.494-1.283-.118-2.524-.052-3.677-.093,3.395-4.2,10.116-6.956,15.349-7.989a36.517,36.517,0,0,1,15.3-.117l1.147.209c3.392.627,6.864,1.27,10.217,1.635l.028,0,.915.112-1.67-2.638c-2.983-.4-6.055-.934-9.08-1.5l-1.149-.21A38.981,38.981,0,0,0,59,35.274a23.7,23.7,0,0,1,8.687-6.805,32.48,32.48,0,0,1,7.535-2.414l-1.772-2.8-.326.483a.93.93,0,0,0-.052.139,38.422,38.422,0,0,0-6.4,2.387,26.576,26.576,0,0,0-11.135,9.619c-6.106,1.307-13.749,4.675-16.975,9.754L40.1,48.579a41.458,41.458,0,0,1,4.667.069c3.706.3,8.42.785,12.5,1.5l.884.157a61.81,61.81,0,0,0,12.61,1.158c1.655-.038,3.041-.133,4.132-.268a19.879,19.879,0,0,1-4.409,4.62,24.593,24.593,0,0,1-7.533,3.739,37.124,37.124,0,0,1-10.136,1.539,33.872,33.872,0,0,1-6.49-.65l1.451,2.764a38.006,38.006,0,0,0,8.553.222,19.012,19.012,0,0,1-5.926,4.783l1.13,2.153.007-.008.013-.007a20.988,20.988,0,0,0,8.147-7.432,32.3,32.3,0,0,0,11.386-4.553l.84-.578a23.434,23.434,0,0,0,6.132-7.033,30.277,30.277,0,0,0,10.314-3.887l.011-.006,0-.008-1.3-2.059Z" transform="translate(-38.558 -23.257)" fill="#002d5d"/>
    </g>
    <g id="Group_119" data-name="Group 119" transform="translate(103.545 107.859)">
      <path id="Path_253" data-name="Path 253" d="M70.055,31.352,82.462,54.988l-1.319.543c-.863.319-2.133.732-3.51,1.155a30.556,30.556,0,0,1-4.62,1.078,18.552,18.552,0,0,1-4.485.355A18.687,18.687,0,0,1,63.8,60.387a35.987,35.987,0,0,1-3.9.975,31.191,31.191,0,0,1-4.568.129c-.534-.033-1.083-.048-1.58-.127a26.448,26.448,0,0,1-14.7-7.34,22.912,22.912,0,0,1-11.642-5.358l-.013-.01-.011-.005L44.977,28.56c5.319.865,9.19,4.2,12.027,6.859,2.842-1.547,4.247-2.341,7.683-2.813,1.66-.19,3.384-.577,5.038-.717a.83.83,0,0,1,.046-.124l.283-.412Z" transform="translate(-26.961 -28.122)" fill="#d9dfe7"/>
      <path id="Path_254" data-name="Path 254" d="M81.949,53.73l-.009,0a25.562,25.562,0,0,1-6.157,2.236,23.6,23.6,0,0,1-6.339.516c-2.154-.305-3.814-.008-8.241-1.865a19.07,19.07,0,0,1-9.5-8.808l-.414-.787a45.536,45.536,0,0,1-2.6-5.762,52.977,52.977,0,0,1-1.8-5.411l-.964-3.093c4.5,1.043,8.068,4.262,10.8,6.752a52.254,52.254,0,0,0,10.456,7.4l1.012.49a36.48,36.48,0,0,0,10.142,3.171l.03,0,.952.145-1.451-2.764A36.648,36.648,0,0,1,69.085,43.2L68.077,42.7a39.932,39.932,0,0,1-9.055-5.966,17.6,17.6,0,0,1,6.365-2.071c.9-.064,1.946-.208,3.027-.348l3.226-.229L70.1,31.159l-.275.42a.873.873,0,0,0-.044.127c-1.651.109-3.369.468-5,.629-3.381.414-4.628,1.211-7.384,2.863-2.7-2.751-6.383-6.051-11.724-6.753l-2.188,2.5a26.275,26.275,0,0,1,1.362,4.044,69.3,69.3,0,0,0,4.316,11.188l.414.8a21.353,21.353,0,0,0,10.01,9.795,27.424,27.424,0,0,0,5.133,1.668,19.912,19.912,0,0,1-9.061,1.588,25.19,25.19,0,0,1-6.242-1.316,25.949,25.949,0,0,1-4.663-2.454,30.73,30.73,0,0,1-4.691-4.162,26.227,26.227,0,0,1-3.189-4.638,27.268,27.268,0,0,1-2.216-6.428L32.6,43.378a26.6,26.6,0,0,0,3.922,8.375,20.478,20.478,0,0,1-7.646-4.121l-1.6,1.83.011,0,.013.011a22.724,22.724,0,0,0,11.812,5.353A26.405,26.405,0,0,0,53.98,62.338c.505.081,1.063.1,1.606.13a30.875,30.875,0,0,0,4.644-.142,35.445,35.445,0,0,0,3.957-1.009,18.731,18.731,0,0,0,4.79-2.343,28.528,28.528,0,0,0,7.668-.7A29.011,29.011,0,0,0,83.062,55.9l.013-.007.007-.008L81.949,53.73Z" transform="translate(-27.278 -28.444)" fill="#002d5d"/>
    </g>
    <g id="Group_120" data-name="Group 120" transform="translate(181.255 67.986)">
      <path id="Path_255" data-name="Path 255" d="M88.7,18.075l8.211,25.4s-1.706.239-3.767.659a33.884,33.884,0,0,1-6.468.65,22.274,22.274,0,0,1-6.419,5.5l-.774.428A27.136,27.136,0,0,1,74,52.785a37.619,37.619,0,0,1-5.038,1.181,22.144,22.144,0,0,1-6.833,6.785l-.011.006-.006.007L47.831,38.211a22.747,22.747,0,0,1,8.638-7.129,34.775,34.775,0,0,1,5.28-2.164,40.876,40.876,0,0,1,5.425-1.255,25.672,25.672,0,0,1,6.363-5.07A23.776,23.776,0,0,1,81,19.633a32.743,32.743,0,0,1,7.144-1.06.915.915,0,0,1,.092-.118l.466-.38Z" transform="translate(-47.52 -17.521)" fill="#d9dfe7"/>
      <path id="Path_256" data-name="Path 256" d="M96.587,42.182l-.007,0a26.156,26.156,0,0,1-9.665,1.108,44.287,44.287,0,0,1-6.425-.678c-4.739-.912-7.492-1.53-11.72-2.683l-.882-.218a69.1,69.1,0,0,0-13.2-1.657,27.787,27.787,0,0,0-4.015.22c4.034-4.892,11.113-7.541,17.091-8.285a27.7,27.7,0,0,1,8.483.049,29.913,29.913,0,0,1,7.162,2.02l1.089.449,9.476,3.935.027.005.843.348-.96-2.97-8.462-3.564-1.09-.449a31.566,31.566,0,0,0-13.38-2.574A23.7,23.7,0,0,1,81.5,21.827a28.217,28.217,0,0,1,8.265-.746l-1.019-3.152-.464.391a.957.957,0,0,0-.091.122A32.024,32.024,0,0,0,81,19.45a23.22,23.22,0,0,0-7.492,2.971,25.19,25.19,0,0,0-6.358,5.163,39.722,39.722,0,0,0-5.48,1.208,33.707,33.707,0,0,0-5.308,2.138,21.933,21.933,0,0,0-8.613,7.2l1.777,2.806a26.676,26.676,0,0,1,5.1-.432,65.972,65.972,0,0,1,12.731,1.577l.871.2c4.144,1.055,7.224,1.887,12.035,2.7,1.561.282,2.866.451,3.892.53a19.794,19.794,0,0,1-4.548,3.627,23.466,23.466,0,0,1-7.047,2.624,42.088,42.088,0,0,1-9.63,1.024,47.652,47.652,0,0,1-6.232-.528l1.671,2.638a48.569,48.569,0,0,0,7.965.262,18.812,18.812,0,0,1-4.94,4.514l1.3,2.054.006-.007.01-.006a21.247,21.247,0,0,0,6.768-6.864,36.469,36.469,0,0,0,5.069-1.115A25.6,25.6,0,0,0,80.009,51.7l.768-.426A21.342,21.342,0,0,0,87.11,45.7,29.173,29.173,0,0,0,97.32,44.51l.011,0,.006-.006-.75-2.319Z" transform="translate(-47.749 -17.929)" fill="#002d5d"/>
    </g>
    <g id="Group_121" data-name="Group 121" transform="translate(307.055 62.947)">
      <path id="Path_257" data-name="Path 257" d="M130.06,35.058,115.286,57.295s-5.07-3.979-7.246-6.835a20.121,20.121,0,0,1-8.267-1.318,8.167,8.167,0,0,0-.826-.342c-3.988-1.374-6.832-4.029-9.029-5.664a20.086,20.086,0,0,1-8.971-.122l-.011,0-.008,0,5.889-26.031c3.789-.663,7.979.246,11.868,1.567a38.83,38.83,0,0,1,9.865,5.97,28.694,28.694,0,0,1,7.992,1.634,22.051,22.051,0,0,1,7.2,3.875,46.475,46.475,0,0,1,5.538,4.928,1.018,1.018,0,0,1,.157-.006l.621.11Z" transform="translate(-80.784 -16.155)" fill="#d9dfe7"/>
      <path id="Path_258" data-name="Path 258" d="M116.38,56.252l-.006,0a21.44,21.44,0,0,1-6.763-6.588A38.994,38.994,0,0,1,106,44.406c-2.351-4.165-3.638-6.84-5.54-10.628l-.407-.8a50.777,50.777,0,0,0-3.511-5.893,58.187,58.187,0,0,0-4.289-5.154,28.585,28.585,0,0,0-3.109-2.867,24.723,24.723,0,0,1,10.093,2.008,37.213,37.213,0,0,1,8.188,5.419,30.028,30.028,0,0,1,8.544,13.285l.346,1.137c1.01,3.349,1.9,6.726,2.914,9.767l.014.023.266.83,1.728-2.6-2.606-8.717-.348-1.138c-1.366-4.639-3.255-7.771-6.741-11.885,3.994.739,7.833,1.861,11.1,4.616a36.958,36.958,0,0,1,6.014,5.964l1.834-2.76-.629-.1a1.081,1.081,0,0,0-.16.009,44.991,44.991,0,0,0-5.536-5,21.644,21.644,0,0,0-7.237-3.9,28.042,28.042,0,0,0-8.062-1.572,37.753,37.753,0,0,0-9.877-6.085c-3.9-1.338-8.12-2.236-11.937-1.511L86.318,20.1a20.128,20.128,0,0,1,4.057,3.435A45.538,45.538,0,0,1,97.9,34.088l.4.809c1.837,3.849,3.353,6.5,5.751,10.874.788,1.361,1.5,2.453,2.091,3.276a16.191,16.191,0,0,1-5.651-1.141,20.784,20.784,0,0,1-6.567-3.586c-2.3-2.064-4.874-4-6.762-6.309-.979-1.138-3.128-3.9-3.8-4.847l-.689,3.045c1.948,2.451,3.72,4.624,5,5.9a19.783,19.783,0,0,1-6.244-.388l-.537,2.371.008,0,.011,0a19.143,19.143,0,0,0,8.954.013c2.171,1.679,4.974,4.382,8.937,5.746a8.233,8.233,0,0,1,.821.339,19.315,19.315,0,0,0,8.269,1.2,24.612,24.612,0,0,0,7.123,6.886l.009.005h.009l1.349-2.03Z" transform="translate(-80.89 -16.6)" fill="#002d5d"/>
    </g>
    <g id="Group_122" data-name="Group 122" transform="translate(257.724 33.769)">
      <path id="Path_259" data-name="Path 259" d="M68.458,18.456,93.43,8.967l.408,1.557a26.63,26.63,0,0,1,.769,3.769c.289,2.94.656,6.456.084,8.7a23.865,23.865,0,0,1,3.086,10.7c.012.416.023.828.034,1.226a29.567,29.567,0,0,1-3.476,13.157,21.673,21.673,0,0,1-.042,11.38l0,.014v.011L68.48,52.581c-1.356-5.738.8-12.865,3.194-17.66a27.528,27.528,0,0,1-2.809-11.211,23.563,23.563,0,0,1,.023-2.645c0-.807-.04-1.53.016-2.289a.706.706,0,0,1-.109-.048l-.337-.272Z" transform="translate(-67.429 -8.735)" fill="#d9dfe7"/>
      <path id="Path_260" data-name="Path 260" d="M92.224,9.772l0,.01a23.287,23.287,0,0,1,1.066,12.709,28.324,28.324,0,0,1-2.467,7.166,32.053,32.053,0,0,1-7.812,9.786l-.648.6c-2.981,2.839-6.81,6.005-9.341,8.583a28.341,28.341,0,0,0-2.58,2.486C69.739,45.981,71.728,39.77,74,35.567a47.8,47.8,0,0,1,3.564-6.375c1.111-1.856,2.407-3.619,3.993-5.8.028,0,.618-.945.618-.945a33.4,33.4,0,0,0,4.488-9.654l0-.032.262-.979-2.921,1.11a37.9,37.9,0,0,1-1.63,4.36c-.737,1.415-1.521,2.755-2.31,4.007l-.6.939c-1.112,1.806-2.427,3.444-3.443,5.049-.993,1.593-1.978,3.226-3.081,5.149-.574-1.511-.964-2.953-1.349-4.332a30.889,30.889,0,0,1-.468-4.3,20,20,0,0,1,.134-3.141,25.019,25.019,0,0,1,.219-2.966l-3.1,1.178.345.261a.741.741,0,0,0,.112.046c-.073.753-.051,1.467-.063,2.263a22.063,22.063,0,0,0-.06,2.611A25.188,25.188,0,0,0,71.59,35.081C69.1,39.833,66.881,46.888,68.382,52.6l3.211.858a25.594,25.594,0,0,1,3.166-3.31c2.707-2.435,6.11-5.607,9.275-8.324l.662-.6c3.071-2.884,5.661-5.286,8.232-10.236a19.326,19.326,0,0,0,1.817-4.278,19.694,19.694,0,0,1,1.714,7.266,24.6,24.6,0,0,1-1.52,9.373,34.244,34.244,0,0,1-5.507,9.13,36.7,36.7,0,0,1-4.882,4.437l3.019.806a36.479,36.479,0,0,0,5.966-6.38,21.552,21.552,0,0,1-.5,7.84l2.351.628V59.8l0-.015a21.243,21.243,0,0,0-.044-11.468,29.008,29.008,0,0,0,3.59-13.229c-.011-.4-.023-.816-.035-1.235a23.716,23.716,0,0,0-1.27-6.642,29.811,29.811,0,0,0-1.93-4.131,23.647,23.647,0,0,0,.372-7.1,22.934,22.934,0,0,0-1.553-7.055l-.006-.016L94.5,8.906l-2.28.866Z" transform="translate(-67.894 -8.906)" fill="#002d5d"/>
    </g>
    <g id="Group_123" data-name="Group 123" transform="translate(236.813 0.083)">
      <path id="Path_261" data-name="Path 261" d="M62.4,26.689,65.615.194s2.347.576,5.174,1.48a31.48,31.48,0,0,1,8.072,4.018,24.3,24.3,0,0,1,11.9,3.582,7.932,7.932,0,0,1,1.164.824,25.905,25.905,0,0,1,6.313,6.689A32.7,32.7,0,0,1,100.2,20.09c.46,1.1.839,2.117,1.155,3.036a17.234,17.234,0,0,1,4.557,4.374,20.953,20.953,0,0,1,3.319,5.936l.006.016.006.009-24.97,9.489c-4.291-3.271-5.693-7.488-7.59-11.608a24.649,24.649,0,0,1-9.436-2.554c-1.494-.925-3.049-1.4-4.332-2.331a.728.728,0,0,1-.1.069c-.137.063-.268.087-.413.162Z" transform="translate(-62.334 0.457)" fill="#d9dfe7"/>
      <path id="Path_262" data-name="Path 262" d="M65.451,2.445h.011a32.791,32.791,0,0,1,6.573,1.8,28.153,28.153,0,0,1,5.327,3.232,26.518,26.518,0,0,1,5.4,5.915,23.468,23.468,0,0,1,3.8,12.169l0,.9a50.21,50.21,0,0,1-1.242,11.873,26.241,26.241,0,0,0-.572,3.1c-3.462-2.989-4.924-7.074-6.618-10.87-1.944-4.445-3.326-7.628-5.6-12.28l-.538-1a33.348,33.348,0,0,0-6.463-8.507L65.5,8.763c-.241-.24-.486-.491-.731-.7l-.375,3.1a35.2,35.2,0,0,1,5.585,7.384l.533,1c1.032,1.947,1.891,3.577,2.621,5.342C73.917,26.543,74.7,28.1,75.4,29.9a11.632,11.632,0,0,1-1.908-.38,10.61,10.61,0,0,1-1.882-.393,37.866,37.866,0,0,1-3.6-1.489,54.9,54.9,0,0,1-5.225-3.178l-.4,3.288.408-.173a.71.71,0,0,0,.095-.074c1.256.958,2.785,1.447,4.238,2.378A21.431,21.431,0,0,0,76.4,32.262c1.763,4.159,2.984,8.238,7.376,11.375l3.107-1.18c.249-1.386.43-2.709.709-4.162a40.548,40.548,0,0,0,.966-5.605c.113-1.036.229-2.1.345-3.17.016-1.037.032-2.078.048-3.1l0-.91a21.834,21.834,0,0,0-.815-6.21,30.482,30.482,0,0,0-1.075-3.334,37.672,37.672,0,0,0-1.94-3.558,18.048,18.048,0,0,0-3.073-3.955,20.035,20.035,0,0,1,7.867,2.844,22.824,22.824,0,0,1,7.513,8.116A22.1,22.1,0,0,1,99.75,25.3a16.889,16.889,0,0,1,.729,5.636c-.014.9-.1,2.313-.254,3.608a15.764,15.764,0,0,1-.807,3.145l2.921-1.11c1.048-3.522.653-6.9.512-9.344a20.288,20.288,0,0,1,4.775,7.335l2.275-.864-.007-.01-.005-.016a20.917,20.917,0,0,0-3.376-6,17.268,17.268,0,0,0-4.658-4.4c-.312-.934-.688-1.971-1.147-3.087a32.3,32.3,0,0,0-1.959-3.364,25.884,25.884,0,0,0-6.38-6.8,8.062,8.062,0,0,0-1.18-.834A24.144,24.144,0,0,0,79.107,5.657,34.745,34.745,0,0,0,72.69,1.877,37.316,37.316,0,0,0,65.772.024l-.016,0-.011,0-.293,2.419Z" transform="translate(-62.386 -0.022)" fill="#002d5d"/>
    </g>
  </g>
</svg>
