<svg id="knot-clove-hitch" xmlns="http://www.w3.org/2000/svg" width="232.967" height="242.835" viewBox="0 0 232.967 242.835">
  <g id="Group_359" data-name="Group 359">
    <rect id="Rectangle_4" data-name="Rectangle 4" width="150.361" height="84.802" transform="translate(31.373 80.751)" fill="#fff"/>
    <g id="Group_346" data-name="Group 346" transform="translate(101.409 42.855)">
      <g id="Group_341" data-name="Group 341" transform="translate(0 148.725)">
        <path id="Path_687" data-name="Path 687" d="M44.873,70.7a1.058,1.058,0,0,0,.072.143,45.911,45.911,0,0,0-2.581,7.012,32.12,32.12,0,0,0-.412,16.339c-3.243,6.072-6.026,15.593-3.849,23.231l28.664,3.727v-.01l0-.014a25.24,25.24,0,0,0-.991-10.939,37.736,37.736,0,0,0,4.253-12.46l.144-1.12a28.172,28.172,0,0,0-1.1-10.32c2.115-3.76,4.209-11.728,4.209-11.728L44.72,70.08l.152.615Z" transform="translate(-36.638 -69.984)" fill="#d9dfe7"/>
        <path id="Path_688" data-name="Path 688" d="M71.8,74.318v.01A30.1,30.1,0,0,1,67.742,85.2a42.471,42.471,0,0,1-4.4,6.12,67.938,67.938,0,0,1-9.7,9.266l-.749.629a84.864,84.864,0,0,0-10.282,10.27,30.635,30.635,0,0,0-2.566,3.558c-1.332-6.732,1.32-14.78,4.26-19.938A40.149,40.149,0,0,1,55.29,82.269l.994-.8c2.936-2.368,5.978-4.8,8.682-7.379l.018-.026.743-.7-3.345-.525c-2.438,2.236-5.117,4.41-7.738,6.519l-.994.8a43.165,43.165,0,0,0-9.828,10.646,27.451,27.451,0,0,1,.811-12.227A37.74,37.74,0,0,1,48.069,70.6l-3.53-.553.163.617a1.031,1.031,0,0,0,.077.142,44.341,44.341,0,0,0-2.651,7A30.856,30.856,0,0,0,41.8,94.167c-3.352,6.059-6.2,15.575-3.884,23.234l3.552.462a29.833,29.833,0,0,1,3.133-4.632,82.041,82.041,0,0,1,9.951-9.935l.762-.627a72.382,72.382,0,0,0,10.043-9.615,43.045,43.045,0,0,0,2.789-3.639,22.854,22.854,0,0,1,.526,7.087,27.639,27.639,0,0,1-2.384,8.882,45.159,45.159,0,0,1-5.7,9.286,51.139,51.139,0,0,1-4.745,5.059l3.357.437a53.938,53.938,0,0,0,5.737-6.811,22.523,22.523,0,0,1,.35,7.6l2.622.341,0-.01,0-.014a24.291,24.291,0,0,0-1.1-10.951,36.22,36.22,0,0,0,4.369-12.439l.143-1.119A27.172,27.172,0,0,0,70.1,86.433a34.186,34.186,0,0,0,4.321-11.682l0-.014,0-.01L71.8,74.317Z" transform="translate(-37.077 -70.045)" fill="#002d5d"/>
      </g>
      <g id="Group_342" data-name="Group 342" transform="translate(6.904 101.426)">
        <path id="Path_689" data-name="Path 689" d="M48.756,53.42a1.039,1.039,0,0,0,.066.146,45.549,45.549,0,0,0-2.85,6.951A32,32,0,0,0,45,76.9c-3.439,5.988-6.5,15.467-4.522,23.176l28.556,4.482v-.01l0-.014a25.31,25.31,0,0,0-.7-10.934,37.927,37.927,0,0,0,4.614-12.285l.176-1.111A28.035,28.035,0,0,0,72.357,69.9c2.244-3.666,4.631-11.5,4.631-11.5L48.63,52.8l.126.624Z" transform="translate(-39.167 -52.674)" fill="#d9dfe7"/>
        <path id="Path_690" data-name="Path 690" d="M75.518,58.105l0,.009A30.118,30.118,0,0,1,71.063,68.77a42.447,42.447,0,0,1-4.6,5.948,69.255,69.255,0,0,1-9.988,8.945l-.767.606a83.144,83.144,0,0,0-10.574,9.985,30.722,30.722,0,0,0-2.666,3.495c-1.149-6.78,1.738-14.778,4.845-19.857A39.691,39.691,0,0,1,58.725,65.405l1.023-.766c3.016-2.262,6.152-4.579,8.95-7.038l.019-.025.771-.664-3.322-.657c-2.521,2.134-5.286,4.2-7.979,6.218l-1.023.766A42.575,42.575,0,0,0,46.971,73.573a27.347,27.347,0,0,1,1.239-12.242,37.35,37.35,0,0,1,3.743-7.886l-3.505-.693.137.627a1,1,0,0,0,.071.146,44.013,44.013,0,0,0-2.919,6.943,30.768,30.768,0,0,0-.891,16.411c-3.547,5.973-6.674,15.446-4.558,23.181l3.539.556a29.236,29.236,0,0,1,3.256-4.554A80.408,80.408,0,0,1,57.312,86.4l.781-.6a74.4,74.4,0,0,0,10.334-9.282,44.931,44.931,0,0,0,2.9-3.532,22.717,22.717,0,0,1,.3,7.074,27.588,27.588,0,0,1-2.647,8.777,45.668,45.668,0,0,1-5.958,9.1,52.7,52.7,0,0,1-4.879,4.924l3.345.525A54.6,54.6,0,0,0,67.4,96.746a22.566,22.566,0,0,1,.149,7.593l2.612.41,0-.01,0-.014a24.347,24.347,0,0,0-.808-10.948,36.377,36.377,0,0,0,4.729-12.258l.175-1.11a27.036,27.036,0,0,0-.882-10.323,34.274,34.274,0,0,0,4.739-11.442l0-.013,0-.01-2.6-.514Z" transform="translate(-39.601 -52.752)" fill="#002d5d"/>
      </g>
      <g id="Group_343" data-name="Group 343" transform="translate(15.399 54.063)">
        <path id="Path_691" data-name="Path 691" d="M54.428,36.145a1.062,1.062,0,0,0,.053.154,43.792,43.792,0,0,0-3.423,6.868A31.832,31.832,0,0,0,49,59.7c-3.782,5.858-7.287,15.3-5.628,23.128L71.73,88.439v-.01l0-.013a25.274,25.274,0,0,0-.247-10.876,38.274,38.274,0,0,0,5.19-11.912l.237-1.083a28.2,28.2,0,0,0-.176-10.194c2.448-3.47,5.4-10.865,5.4-10.865L54.358,35.5l.071.646Z" transform="translate(-42.281 -35.325)" fill="#d9dfe7"/>
        <path id="Path_692" data-name="Path 692" d="M80.7,43.058l0,.009a30.639,30.639,0,0,1-5.185,10.085,44.619,44.619,0,0,1-4.948,5.579,74.05,74.05,0,0,1-10.459,8.352l-.8.568a79.5,79.5,0,0,0-11.031,9.524,30.1,30.1,0,0,0-2.814,3.4c-.866-6.86,2.4-14.8,5.8-19.753A38.519,38.519,0,0,1,63.427,48.964L64.5,48.27c3.171-2.049,6.46-4.119,9.45-6.3l.021-.023.82-.588-3.254-.936c-2.69,1.894-5.6,3.744-8.438,5.569l-1.075.695a41.084,41.084,0,0,0-10.856,9.762,27.281,27.281,0,0,1,2.061-12.3,36.448,36.448,0,0,1,4.384-7.726l-3.434-.987.081.651a1.027,1.027,0,0,0,.057.155A42.534,42.534,0,0,0,50.826,43.1a30.68,30.68,0,0,0-1.974,16.571c-3.89,5.84-7.465,15.281-5.666,23.14l3.514.7a29.09,29.09,0,0,1,3.444-4.439,76.689,76.689,0,0,1,10.663-9.207l.809-.564a79.025,79.025,0,0,0,10.8-8.669,42.74,42.74,0,0,0,3.1-3.307,22.647,22.647,0,0,1-.1,7,27.8,27.8,0,0,1-3.08,8.538A46.835,46.835,0,0,1,65.99,81.62a54.007,54.007,0,0,1-5.074,4.7l3.321.658a56.069,56.069,0,0,0,6.179-6.353,22.544,22.544,0,0,1-.158,7.546l2.594.513v-.01l0-.014A24.278,24.278,0,0,0,72.5,77.772,36.643,36.643,0,0,0,77.8,65.9l.236-1.082a27.126,27.126,0,0,0-.293-10.21,34.947,34.947,0,0,0,5.506-10.793l0-.013,0-.01L80.7,43.057Z" transform="translate(-42.707 -35.435)" fill="#002d5d"/>
      </g>
      <g id="Group_344" data-name="Group 344" transform="translate(26.834 1.889)">
        <path id="Path_693" data-name="Path 693" d="M78.4,17.1a2.1,2.1,0,0,0-.17.158,20.2,20.2,0,0,0-10.256,4.57,33.79,33.79,0,0,0-8.892,11.754c-2.386,5.191-3.064,8.44-3.2,11.44-4.919,5.639-9.622,15.2-8.637,23.306l27.779,7.992v-.01l0-.013a25.029,25.029,0,0,0,.694-10.5,42.018,42.018,0,0,0,6.462-10.325l.371-.92c.18-.5.315-.923.381-1.2a8.248,8.248,0,0,0,.181-1c.089-.452-.067-.362-.131-.507l-.256-.341a8.345,8.345,0,0,1-.831-1.613,4.647,4.647,0,0,1,1.676.863,2.177,2.177,0,0,1,.468.58L79.219,16.59a8.071,8.071,0,0,0-.814.512Z" transform="translate(-46.484 -15.958)" fill="#d9dfe7"/>
        <path id="Path_694" data-name="Path 694" d="M84.08,49.063h0c-.535.319-1.537-.3-2.968-.586a9.731,9.731,0,0,0-4.049.2A49.734,49.734,0,0,0,71.4,51.492L65.678,54.4l-.868.456a64.265,64.265,0,0,0-12.126,8.385,29.39,29.39,0,0,0-3.148,3.218c-.229-7.066,4.083-15.027,8.377-19.7,1.3-1.413,2.427-2.493,3.746-3.76l1.9-1.677c.7-.622,1.369-1.174,2.02-1.666a15.14,15.14,0,0,1,7.663-3.111l1.076-.068a10.638,10.638,0,0,1,8.029,3.472l.018.01c.195.21.359.393.538.624l-.648-4.667a12.524,12.524,0,0,0-3.634-2.275,6.2,6.2,0,0,0-1.976-.412,15.668,15.668,0,0,0-2.1-.121l-1.135.022a15.32,15.32,0,0,0-7.043,2.28,22.511,22.511,0,0,0-3.777,2.852l-3.776,3.678q.2-1,.453-1.979c.164-.647.562-1.63.858-2.43a31.509,31.509,0,0,1,2.272-4.922A27.773,27.773,0,0,1,68.88,24.45a18.117,18.117,0,0,1,11.155-4.493l-.5-3.6a8.294,8.294,0,0,0-.829.523,1.992,1.992,0,0,0-.171.162,20.374,20.374,0,0,0-10.49,4.548c-3.731,2.885-6.806,7.255-9.107,11.974a40.639,40.639,0,0,0-2.472,6.662,22.282,22.282,0,0,0-.721,4.97c-5.032,5.625-9.811,15.2-8.692,23.36l3.442.991a28.376,28.376,0,0,1,3.852-4.206,63.475,63.475,0,0,1,11.644-8.09l.877-.451,5.781-3L75.567,52.2a24.339,24.339,0,0,1,3.082-1.585,2.473,2.473,0,0,1,1.59-.389,7.54,7.54,0,0,1,1.029.083l.495,1.218a9.433,9.433,0,0,1-.176,1.284c-.045.213-.1.417-.163.631l-.28.842a28.475,28.475,0,0,1-4.086,7.409A53.271,53.271,0,0,1,69.874,69.4a59.942,59.942,0,0,1-5.452,4.161l3.254.936a65.85,65.85,0,0,0,6.692-5.6,22.461,22.461,0,0,1-.793,7.3l2.541.731v-.009l0-.013A23.914,23.914,0,0,0,76.7,66.385a39.729,39.729,0,0,0,6.554-10.236l.368-.915.233-.694.135-.488a7.568,7.568,0,0,0,.159-.975c.084-.451.44-.354.44-.354h0v-.007l-.508-3.653Z" transform="translate(-46.888 -16.359)" fill="#002d5d"/>
      </g>
      <g id="Group_345" data-name="Group 345" transform="translate(59.515)">
        <path id="Path_695" data-name="Path 695" d="M98.167,62.818a1.092,1.092,0,0,0-.128-.1,42.119,42.119,0,0,0-.825-7.813A31.367,31.367,0,0,0,91.987,42.6l-1.86-2.721c-.7-.982-1.364-1.949-2.119-2.846-1.561-5.761-5.172-13.206-10.758-17.255A18.491,18.491,0,0,0,68.1,16.017a14.94,14.94,0,0,0-9.231,1.859l4.821,34.8v0h0a11.553,11.553,0,0,1,1.481-2.862,11.3,11.3,0,0,1-.719,3.575l.056.085a.5.5,0,0,0,.185.083c.124.129.454.729.687,1.045.513.766,1.078,1.433,1.593,2.1A34.355,34.355,0,0,0,69.6,59.54c-.173,3.975,1.166,11.688,1.166,11.688l27.81-7.891-.408-.519Z" transform="translate(-58.781 -15.231)" fill="#d9dfe7"/>
        <path id="Path_696" data-name="Path 696" d="M72.688,71.135l0-.009a30.256,30.256,0,0,1-.953-11,52.5,52.5,0,0,1,1.067-7.1c.461-2.732,1.246-4.082,1.8-6.075a31.245,31.245,0,0,0,1.184-6.931l.045-1.206c.162-5.788-2.412-13.589-7.328-17.363a14.388,14.388,0,0,0-5.535-2.637,13.471,13.471,0,0,1,7.83.154,18.568,18.568,0,0,1,7.071,4.222c4.2,3.959,6.947,9.886,8.076,14.607a30.847,30.847,0,0,1,.821,3.874,21.082,21.082,0,0,1,.382,3.2,31.611,31.611,0,0,1-.474,4.317,36.055,36.055,0,0,1-2.539,7.8l-.513,1.17c-1.557,3.456-3.243,6.93-4.63,10.345l-.006.031-.381.924,3.258-.924c1.26-3.013,2.781-6.128,4.164-9.208l.534-1.176a33.875,33.875,0,0,0,3.291-14.676,27.324,27.324,0,0,1,5.48,12.061,35.787,35.787,0,0,1,.468,9.044l3.437-.975-.42-.517a1.03,1.03,0,0,0-.132-.1,40.974,40.974,0,0,0-.764-7.854,30.373,30.373,0,0,0-2.877-8.437,30.933,30.933,0,0,0-2.4-3.911l-1.909-2.762c-.721-1-1.4-1.983-2.178-2.893C86.988,31.232,83.3,23.611,77.58,19.519a18.782,18.782,0,0,0-9.346-3.762,15.333,15.333,0,0,0-9.4,1.926l.5,3.608a11.963,11.963,0,0,1,6.944,1.938c4.813,3.029,7.464,10.144,7.332,15.7l-.051,1.224a28.518,28.518,0,0,1-1.178,6.931,23.156,23.156,0,0,1-1.011,2.729c-.193.432-.4.849-.614,1.249a4.047,4.047,0,0,0-.322.63l-.214.96c-.356,1.676-.584,3.074-.739,4.226-.6-.659-1.279-1.435-1.946-2.286-.328-.428-.654-.9-.946-1.366a1.115,1.115,0,0,1-.339-.294c-.4-.514-.187-1.162-.065-2.509a17.129,17.129,0,0,0-1.071-7.751,13.383,13.383,0,0,0-1.585-3.04,23.327,23.327,0,0,0-1.978-2.312l.647,4.667a12.9,12.9,0,0,1,2.733,6.7,11.3,11.3,0,0,1-1.559,1.763l.506,3.645v0h0a3.662,3.662,0,0,1,.132-.952c.142-.566.685-.317.423.259a2.214,2.214,0,0,1-.534.825l.037.04a.539.539,0,0,0,.161.017c.119.112.456.716.691,1.025.518.757,1.092,1.413,1.617,2.072a33.236,33.236,0,0,0,2.685,2.807A33.946,33.946,0,0,0,70.128,71.84l0,.013.007.007,2.55-.723Z" transform="translate(-58.837 -15.669)" fill="#002d5d"/>
      </g>
    </g>
    <g id="Group_352" data-name="Group 352" transform="translate(35.613)">
      <g id="Group_347" data-name="Group 347" transform="translate(0 146.772)">
        <path id="Path_697" data-name="Path 697" d="M56.017,74.865c0,.042,0,.068.007.1a4.092,4.092,0,0,1-.96-1.453c-.072-.211-.108-.335-.175-.378a.147.147,0,0,0-.127-.016,3.263,3.263,0,0,0-.4-.068l-5.042-2.057c-1.577-5.184-4.773-12.827-10.729-17.222L13.248,67.684l.008.008.008.013a25.73,25.73,0,0,0,8.12,8.891A31.622,31.622,0,0,0,28.622,90.29l1.006,1.064a27.2,27.2,0,0,0,7.066,4.955,28.042,28.042,0,0,0,6.678,2.438,24.042,24.042,0,0,0,13.15,4.838,26.56,26.56,0,0,0,6.154-.448c1.544-.358,2.492-.638,2.492-.638L56.026,74.592l-.009.273Z" transform="translate(-12.626 -53.471)" fill="#d9dfe7"/>
        <path id="Path_698" data-name="Path 698" d="M64.96,100.846l-.016.006A19.622,19.622,0,0,1,45.882,97.8a28.867,28.867,0,0,1-3.271-3.044,17.647,17.647,0,0,1-3.188-5.223c-2.182-5.768-1.9-9.249-1.61-13.883l.089-.967c.436-4.607.979-9.753,1.234-13.953a37.811,37.811,0,0,0,0-4.114C43.959,60.781,46.583,67.408,47.9,72.2c.783,2.82,1.3,5.029,1.753,7.25a24.266,24.266,0,0,0,1.669,6.827,10.3,10.3,0,0,0,.56,1.142,14.416,14.416,0,0,0,9.873,7.353H61.8l1.25.234L61.993,91.79A12.556,12.556,0,0,1,53.8,85.908a9.128,9.128,0,0,1-.573-1.049,15.175,15.175,0,0,1-1.511-5.65c-.112-.895-.051-1.586-.212-2.522l-.62-2.935a32.468,32.468,0,0,0,3.194,1.2,1.594,1.594,0,0,1,1,.684,8.868,8.868,0,0,0,2.292,2.044l-1.15-3.51c.005.093.01.179.015.277l.013.1c.49-1.525-.65-1.139-.678-1.537-.014-.206.005-.311-.009-.329a.1.1,0,0,0-.053.03c-.067,0-.215-.028-.348-.018l-5.007-1.9C48.7,65.586,45.6,57.968,39.53,53.662l-3.14,1.724a30.673,30.673,0,0,1,.143,5.307c-.243,4.11-.778,9.161-1.281,13.7l-.1.979c-.37,4.662-.665,8.431,1.46,14.675a20.586,20.586,0,0,0,1.26,2.8c.231.432.423.828.683,1.231l.894,1.185a24.376,24.376,0,0,1-8.115-5.15,25.559,25.559,0,0,1-6.024-9.156A34.472,34.472,0,0,1,23.08,69.435a39.915,39.915,0,0,1,.607-7.074l-2.968,1.629a40.7,40.7,0,0,0-.138,9.307,23.136,23.136,0,0,1-5.243-6.354l-2.318,1.273.008.007.008.014a25.092,25.092,0,0,0,8.24,8.875,31.064,31.064,0,0,0,7.211,13.849L29.5,92.038a27.176,27.176,0,0,0,7.183,4.993,28.384,28.384,0,0,0,6.836,2.453,24.142,24.142,0,0,0,10.536,4.888,21.814,21.814,0,0,0,11.682-.987l.026-.009.016-.01-.824-2.518Z" transform="translate(-13.021 -53.662)" fill="#002d5d"/>
      </g>
      <g id="Group_348" data-name="Group 348" transform="translate(42.692 137.388)">
        <path id="Path_699" data-name="Path 699" d="M43.252,50.887a.976.976,0,0,0,.057.142,51.01,51.01,0,0,0-3.407,6,31.746,31.746,0,0,0-3.392,14.014,88.833,88.833,0,0,0-6.374,6.221c-.893.954-1.546,1.7-1.267,1.787a6.073,6.073,0,0,1,.212,1.7l9.147,27.9.016-.009.025-.009a24.745,24.745,0,0,0,8.969-6.017A23.387,23.387,0,0,0,50.2,98.773a17.2,17.2,0,0,0,1.59-3.427A33.49,33.49,0,0,0,62.253,82.78l.545-1.209A26.74,26.74,0,0,0,64.643,70.13a40.465,40.465,0,0,0,4.3-7.28c1.187-2.509,2-4.566,2-4.566l-27.782-7.99.088.592Z" transform="translate(-28.329 -50.122)" fill="#d9dfe7"/>
        <path id="Path_700" data-name="Path 700" d="M69.381,57.857l0,.01A29.157,29.157,0,0,1,63.454,68.7a35.35,35.35,0,0,1-5.772,5.469,38.1,38.1,0,0,1-12.148,6.27l-.917.3c-2.2.693-4.548,1.352-6.742,1.838a23.656,23.656,0,0,1-3.153.453l-1.365.037a7.069,7.069,0,0,1-1.035-.285,8.091,8.091,0,0,1-2.043-1.045,6.2,6.2,0,0,1,.191-1.439,17.832,17.832,0,0,1,2-2.328,71.4,71.4,0,0,1,5.943-5.5,63.591,63.591,0,0,1,13.355-9l1.12-.6A77.626,77.626,0,0,0,62.625,56.8l.022-.024.827-.621-3.254-.936a82.461,82.461,0,0,1-8.589,5.329l-1.1.6A67.534,67.534,0,0,0,38.941,68.7a27.067,27.067,0,0,1,2.966-10.626A41.649,41.649,0,0,1,46.3,51.219l-3.434-.987.1.594a.933.933,0,0,0,.061.143,48.481,48.481,0,0,0-3.467,5.955,29.732,29.732,0,0,0-3.28,13.971,80.024,80.024,0,0,0-6.405,6.056c-.878.922-1.5,1.627-1.137,1.657a3.689,3.689,0,0,1,.445,1.637l1.155,3.518a12.223,12.223,0,0,0,5.234,1.558,22.936,22.936,0,0,0,3.091-.36,64.665,64.665,0,0,0,6.7-1.675l.958-.277a39.766,39.766,0,0,0,12.845-6.549,35.983,35.983,0,0,0,3.716-3.221,22.3,22.3,0,0,1-1.594,7.753A26.49,26.49,0,0,1,55.2,90.013a32.671,32.671,0,0,1-11.871,7.425,19.456,19.456,0,0,1-4.55.788,11.712,11.712,0,0,1-3.814-.354l1.054,3.217c4.53.672,9.219-.923,12.259-2.6a21.4,21.4,0,0,1-10.35,8.435l.822,2.513.016-.009.027-.009a25.112,25.112,0,0,0,9.166-6.154,23.5,23.5,0,0,0,3.008-3.937,17.114,17.114,0,0,0,1.589-3.5A33.276,33.276,0,0,0,63.2,83.2l.548-1.218A26.138,26.138,0,0,0,65.506,70.44a33.315,33.315,0,0,0,6.419-11.825l0-.014,0-.011-2.547-.733Z" transform="translate(-28.63 -50.231)" fill="#002d5d"/>
      </g>
      <g id="Group_349" data-name="Group 349" transform="translate(56.791 92.795)">
        <path id="Path_701" data-name="Path 701" d="M43.779,34.561a1.006,1.006,0,0,0,.072.139,47.808,47.808,0,0,0-2.645,6.723,32.139,32.139,0,0,0-1.007,15.7c-3.571,5.64-7.083,14.177-5.965,21.536L62.012,86.65v-.011l0-.014a25.129,25.129,0,0,0,.566-11.56,36.755,36.755,0,0,0,5.408-12.6l.218-1.154A27.6,27.6,0,0,0,67.66,50.6c2.3-3.8,4.5-12.006,4.5-12.006L43.629,33.964l.15.6Z" transform="translate(-33.372 -33.864)" fill="#d9dfe7"/>
        <path id="Path_702" data-name="Path 702" d="M70.658,38.348v.01a29.551,29.551,0,0,1-4.311,11.077,38.841,38.841,0,0,1-4.665,6.075A56.475,56.475,0,0,1,51.395,64.2l-.8.562a124.756,124.756,0,0,0-11.2,8.9,31.71,31.71,0,0,0-2.958,3.006c-.478-6.463,2.793-13.743,6.025-18.54A44.383,44.383,0,0,1,53.995,46.119l1.017-.767a105.47,105.47,0,0,0,8.81-7.261l.019-.026.751-.7-3.342-.543c-2.457,2.237-5.163,4.371-7.828,6.4l-1.011.768a48.079,48.079,0,0,0-10.193,9.979,27.471,27.471,0,0,1,1.217-11.778A38.875,38.875,0,0,1,46.949,34.5l-3.527-.572.162.6a.976.976,0,0,0,.076.138,45.859,45.859,0,0,0-2.713,6.7,30.671,30.671,0,0,0-.916,15.693c-3.677,5.611-7.25,14.107-5.988,21.485l3.442.991A33.3,33.3,0,0,1,41.17,75.6a122.221,122.221,0,0,1,10.912-8.62l.812-.558A59.665,59.665,0,0,0,63.6,57.377a40.5,40.5,0,0,0,2.976-3.6,22.6,22.6,0,0,1,.117,7.322A27.4,27.4,0,0,1,63.587,70.1a40.925,40.925,0,0,1-6.744,8.958,42.944,42.944,0,0,1-5.431,4.483l3.254.936a46,46,0,0,0,6.672-6.263,22.526,22.526,0,0,1-.773,7.961l2.541.731V86.9l0-.015a24.359,24.359,0,0,0,.466-11.614,35.544,35.544,0,0,0,5.528-12.6l.218-1.156a26.756,26.756,0,0,0-.662-10.742A33.623,33.623,0,0,0,73.276,38.8l0-.014,0-.01-2.616-.425Z" transform="translate(-33.784 -33.927)" fill="#002d5d"/>
      </g>
      <g id="Group_350" data-name="Group 350" transform="translate(65.837 46.649)">
        <path id="Path_703" data-name="Path 703" d="M44.135,17.673a1.045,1.045,0,0,0,.08.136,46.88,46.88,0,0,0-2.263,6.939A32.137,32.137,0,0,0,41.976,40.7c-3.146,5.973-5.94,15.1-3.983,22.574l28.531,4.638V67.9l0-.014A25.249,25.249,0,0,0,65.8,56.665a36.916,36.916,0,0,0,4.287-12.746l.135-1.148a27.98,27.98,0,0,0-1.3-10.5c2.021-3.887,3.769-12.118,3.769-12.118L43.95,17.08l.184.594Z" transform="translate(-36.656 -17.014)" fill="#d9dfe7"/>
        <path id="Path_704" data-name="Path 704" d="M71.2,19.991V20A29.636,29.636,0,0,1,67.56,31.207a40.341,40.341,0,0,1-4.249,6.312,60.645,60.645,0,0,1-9.6,9.408l-.748.627A100.933,100.933,0,0,0,42.619,57.581a33.011,33.011,0,0,0-2.634,3.4c-1.169-6.58,1.485-14.342,4.352-19.43A42.586,42.586,0,0,1,55.021,28.674l.966-.83c2.857-2.454,5.79-5.02,8.377-7.742l.017-.027.708-.738-3.367-.36c-2.321,2.361-4.914,4.643-7.447,6.831l-.965.83a46.018,46.018,0,0,0-9.524,10.721,27.419,27.419,0,0,1,.456-11.975,38.675,38.675,0,0,1,3.074-7.948l-3.553-.38.2.595a.976.976,0,0,0,.084.135,45.02,45.02,0,0,0-2.332,6.928,30.752,30.752,0,0,0,.114,15.948C38.57,46.617,35.71,55.724,37.81,63.212l3.536.575a29.737,29.737,0,0,1,3.239-4.443,96.411,96.411,0,0,1,10.048-9.711l.762-.625a64.262,64.262,0,0,0,9.965-9.774,40.1,40.1,0,0,0,2.717-3.757,22.726,22.726,0,0,1,.646,7.2,27.432,27.432,0,0,1-2.36,9.072,42.8,42.8,0,0,1-5.83,9.378,47.975,47.975,0,0,1-4.882,4.983l3.342.543a49.7,49.7,0,0,0,5.915-6.789,22.552,22.552,0,0,1,.144,7.774l2.61.424,0-.01,0-.014a24.379,24.379,0,0,0-.829-11.246,35.584,35.584,0,0,0,4.4-12.739l.134-1.149a27.074,27.074,0,0,0-1.417-10.519A33.712,33.712,0,0,0,73.838,20.3v-.014l0-.01L71.2,19.992Z" transform="translate(-37.092 -17.056)" fill="#002d5d"/>
      </g>
      <g id="Group_351" data-name="Group 351" transform="translate(71.603)">
        <path id="Path_705" data-name="Path 705" d="M44.616.6A1.029,1.029,0,0,0,44.7.738a46.764,46.764,0,0,0-2.015,7.044,32.121,32.121,0,0,0,.647,16.01c-2.9,6.127-5.272,15.472-2.918,22.9l28.741,3.082,0-.01v-.014a25.187,25.187,0,0,0-1.3-11.079,37.05,37.05,0,0,0,3.7-12.842c.028-.372.056-.757.085-1.145a27.884,27.884,0,0,0-1.722-10.387c1.875-3.945,3.326-12.2,3.326-12.2L44.413.016l.2.588Z" transform="translate(-38.756 0.028)" fill="#d9dfe7"/>
        <path id="Path_706" data-name="Path 706" d="M71.753,1.984v.01a29.72,29.72,0,0,1-3.23,11.292,40.552,40.552,0,0,1-4,6.452,62.072,62.072,0,0,1-9.191,9.79l-.719.66A95.716,95.716,0,0,0,44.748,40.73a32.09,32.09,0,0,0-2.457,3.562c-1.512-6.563.788-14.508,3.441-19.733A41.951,41.951,0,0,1,55.9,11.228l.934-.866c2.76-2.56,5.605-5.227,8.09-8.032l.016-.027.684-.76L62.245,1.3C60,3.736,57.5,6.109,55.044,8.389l-.933.865a45.284,45.284,0,0,0-9.1,11.114A27.379,27.379,0,0,1,45,8.336,38.258,38.258,0,0,1,47.795.257L44.231,0l.214.589a.988.988,0,0,0,.088.133,45,45,0,0,0-2.085,7.036,30.76,30.76,0,0,0,.736,16.01c-3.005,6.115-5.449,15.447-2.952,22.883l3.562.382a30.139,30.139,0,0,1,3-4.636,91.819,91.819,0,0,1,9.573-10.207l.733-.658A66.075,66.075,0,0,0,66.64,21.365a41.374,41.374,0,0,0,2.565-3.847,22.75,22.75,0,0,1,.937,7.138,27.416,27.416,0,0,1-1.956,9.116,43.341,43.341,0,0,1-5.368,9.6A48.5,48.5,0,0,1,58.2,48.578l3.366.361A50.527,50.527,0,0,0,67.123,41.9a22.428,22.428,0,0,1,.55,7.7l2.629.282,0-.01v-.014a24.293,24.293,0,0,0-1.409-11.1,35.671,35.671,0,0,0,3.82-12.838c.027-.372.056-.757.084-1.146a26.96,26.96,0,0,0-1.839-10.4A33.779,33.779,0,0,0,74.4,2.2V2.185l0-.01-2.643-.191Z" transform="translate(-39.2 0)" fill="#002d5d"/>
      </g>
    </g>
    <g id="Group_358" data-name="Group 358" transform="translate(31.863 47.021)">
      <g id="Group_353" data-name="Group 353" transform="translate(115.289 99.758)">
        <path id="Path_707" data-name="Path 707" d="M54.776,103.3a1.489,1.489,0,0,0,.211-.017,19.437,19.437,0,0,0,11.906,2.092,20.249,20.249,0,0,0,11.93-6.627,24.8,24.8,0,0,0,3.971-6.087q.794-1.684,1.5-3.362c.375-1.2.691-2.411.991-3.6l1.345-1.785,1.212-1.69c.638-.919,1.274-1.906,1.895-2.947A41.428,41.428,0,0,0,92.75,73a34.329,34.329,0,0,0,1.641-6.54,23.661,23.661,0,0,0-.054-6.347l-28.19-6.392v.009l0,.012a23.44,23.44,0,0,0-.1,10.084c-.913,1.231-2.075,2.555-3.091,4.2-.519.782-1.025,1.421-1.468,2.223l-.323.595-.153.306-.039.008c-.047.011-.076.027-.087.054l-.007.056a11.425,11.425,0,0,1,.543,1.247,9.22,9.22,0,0,1,.4,1.979,5.313,5.313,0,0,1-1.495-1.743,2.62,2.62,0,0,1-.266-.863L53.846,103.2l.93.1Z" transform="translate(-53.723 -53.564)" fill="#d9dfe7"/>
        <path id="Path_708" data-name="Path 708" d="M59.7,74.233h0A23.255,23.255,0,0,0,62.581,76.9a4.9,4.9,0,0,0,1.254.636,9.534,9.534,0,0,0,2.573.632c3.318.193,6.3-.7,10.465-2.907l.873-.452a55.025,55.025,0,0,0,11.914-8.8,29.788,29.788,0,0,0,2.972-3.4A24.065,24.065,0,0,1,90.541,73.65a34.995,34.995,0,0,1-2.768,5.239,51.888,51.888,0,0,1-3.728,5.044c-.867,1.053-1.676,1.993-2.437,2.836a29.734,29.734,0,0,1-2.4,2.056,15.9,15.9,0,0,1-2.192,1.544c-.761.373-1.48.692-2.165.965a12.31,12.31,0,0,1-7.911.38l-1.13-.39a6.277,6.277,0,0,1-1.193-.518c-.414-.28-.82-.611-1.2-.921A15.418,15.418,0,0,1,61.3,87.63a22.725,22.725,0,0,1-1.627-2.614,27.069,27.069,0,0,1-1.1-2.692l-.012-.025-.265-.969-.774,3.909a16.581,16.581,0,0,0,1.116,2.582,15.787,15.787,0,0,0,1.541,2.568A7.813,7.813,0,0,0,62.127,92.4a10.339,10.339,0,0,0,2.227,1.453l1.216.581a13.472,13.472,0,0,0,7.5.667c.651-.135,1.329-.3,2.04-.49a17.32,17.32,0,0,0,2.059-.926c.711-.36,1.465-.753,2.249-1.207.7-.554,1.432-1.165,2.207-1.839-2.657,6.567-7.745,11.616-14.412,12.813a16.751,16.751,0,0,1-12.7-3.117l-.716,3.587.95.095a1.4,1.4,0,0,0,.214-.021A19.925,19.925,0,0,0,67.1,106.146a20.6,20.6,0,0,0,12.192-6.709,24.99,24.99,0,0,0,4.056-6.214q.809-1.722,1.526-3.437c.379-1.225.7-2.467,1-3.678l1.384-1.816L88.5,82.579c.653-.923,1.3-1.915,1.937-2.964A40.747,40.747,0,0,0,93.5,73.3a33.208,33.208,0,0,0,1.641-6.569,22.937,22.937,0,0,0-.118-6.382l-3.493-.793a29.689,29.689,0,0,1-3.647,4.424,53.693,53.693,0,0,1-11.348,8.454l-.852.458c-2.048.993-3.886,1.956-5.649,2.614a11.169,11.169,0,0,1-4.905.3,7.237,7.237,0,0,1-2.229-.824,16.741,16.741,0,0,1-.34-2.459A25.436,25.436,0,0,1,65.4,68.183a62.2,62.2,0,0,1,6.794-7.515A56.425,56.425,0,0,1,77.4,56.355l-3.3-.749a70.44,70.44,0,0,0-6.359,5.7,20.715,20.715,0,0,1,.373-7.056l-2.579-.584v.009l0,.013a22.315,22.315,0,0,0,.018,10.073c-.937,1.218-2.123,2.52-3.156,4.149-.527.77-1.037,1.389-1.481,2.176l-.323.583-.153.3-.031-.012-.053-.025.014.01A2.9,2.9,0,0,1,61.08,72a7.867,7.867,0,0,1,.544,1.936,5.065,5.065,0,0,1-1.16-1.927,4.093,4.093,0,0,1-.158-.843h0v.005l-.605,3.06Z" transform="translate(-53.801 -53.665)" fill="#002d5d"/>
      </g>
      <g id="Group_354" data-name="Group 354" transform="translate(78.864 90.232)">
        <path id="Path_709" data-name="Path 709" d="M41.172,63.932a1.065,1.065,0,0,0,.143.072,42.648,42.648,0,0,0,2.125,7.234A31.225,31.225,0,0,0,53.507,84.858,34.294,34.294,0,0,0,55.428,90.6a27.678,27.678,0,0,0,1.526,3.093l.94,1.583.5.786c.188.28.577.748.861,1.113a38.241,38.241,0,0,0,8.27,8.228,18.88,18.88,0,0,0,9.169,3.6l6.235-31.317v0h0a8.721,8.721,0,0,1-2.113,1.354l.177-.473c.024-.089.087-.123.081-.253l-.157-.583c-.221-.8-.477-1.572-.8-2.459a30.822,30.822,0,0,0-2.826-5.763l-.546-.869a28.664,28.664,0,0,0-6.929-6.818C69.292,57.737,66.393,50.3,66.393,50.3L40.687,63.525l.485.408Z" transform="translate(-40.13 -49.976)" fill="#d9dfe7"/>
        <path id="Path_710" data-name="Path 710" d="M65.02,51.394l0,.008a29.386,29.386,0,0,1,3.048,10.821,44.911,44.911,0,0,1,.147,7.286A112.579,112.579,0,0,1,66.6,82.592l-.131.967a33.4,33.4,0,0,0-.251,7.607,41.989,41.989,0,0,0,1.2,4.785c.583,1.565,1.266,3.173,2.025,4.737a26.319,26.319,0,0,0,4.1,5.527,14.049,14.049,0,0,1-3.692-1.731l-1.868-1.159c-.6-.459-1.167-.991-1.751-1.508a26.611,26.611,0,0,1-3.346-3.408l-1.529-1.893a18.248,18.248,0,0,1-1.284-1.737A31.287,31.287,0,0,1,55.9,84.507c-1.451-7.208-.871-11.4.5-17.072l.318-1.233c.931-3.632,1.959-7.354,2.645-10.977v-.031c.068-.34.132-.662.2-.988l-3.011,1.549c-.671,3.21-1.557,6.513-2.4,9.757l-.317,1.233a37.333,37.333,0,0,0-1.15,14.591,26.731,26.731,0,0,1-7.013-10.448,35.219,35.219,0,0,1-2-8.506l-3.177,1.634.5.4a1.006,1.006,0,0,0,.146.07,41.292,41.292,0,0,0,2.069,7.276A30.255,30.255,0,0,0,53.358,85.378a33.556,33.556,0,0,0,1.875,5.8A27.2,27.2,0,0,0,56.752,94.3l.941,1.6.5.794c.189.283.589.764.878,1.136a38.526,38.526,0,0,0,8.463,8.4c3.13,2.094,6.358,3.48,9.385,3.606l.721-3.6c-.555-.421-1.095-.84-1.612-1.277q-.743-.745-1.425-1.524a16.3,16.3,0,0,1-2.371-3.378,21.157,21.157,0,0,1-1.936-4.258,23.839,23.839,0,0,1-1.211-11.851l.144-.973a126.785,126.785,0,0,0,1.615-13.426,42.479,42.479,0,0,0,.035-4.4,22.168,22.168,0,0,1,4.612,4.793,25.97,25.97,0,0,1,3.527,7.406c.212.734.406,1.5.583,2.287.153.487-.027.506-.031.786l-.117.713a18.545,18.545,0,0,0-.1,3.551,19.27,19.27,0,0,0,.412,3.139,31.23,31.23,0,0,0,.892,3.286l.775-3.908a14.909,14.909,0,0,1-.338-6.744c.89-.306,1.348-.531,1.742-.341l.6-3.053v0h0a15.044,15.044,0,0,1-1.627,1.3,6.442,6.442,0,0,0-.041-.825c-.206-.8-.444-1.573-.758-2.459a28.723,28.723,0,0,0-2.772-5.75l-.544-.865a27.492,27.492,0,0,0-7.016-6.734,33.34,33.34,0,0,0-3.29-11.54l-.006-.012-.008-.006-2.357,1.212Z" transform="translate(-40.483 -50.182)" fill="#002d5d"/>
      </g>
      <g id="Group_355" data-name="Group 355" transform="translate(57.876 48.237)">
        <path id="Path_711" data-name="Path 711" d="M33.488,48.735a1,1,0,0,0,.14.067,46.029,46.029,0,0,0,1.886,6.916A31.6,31.6,0,0,0,44.3,68.932c.684,6.7,3.655,16.067,9.812,21.164L79.818,76.878l-.007-.007-.006-.012A24.926,24.926,0,0,0,72.918,68.6,36.577,36.577,0,0,0,69.471,56l-.515-1a27.6,27.6,0,0,0-6.8-7.889c-.408-4.31-3.528-12.16-3.528-12.16L33.013,48.355l.475.38Z" transform="translate(-32.458 -34.619)" fill="#d9dfe7"/>
        <path id="Path_712" data-name="Path 712" d="M57.256,36.057l0,.009a28.925,28.925,0,0,1,3.134,11.324,39.306,39.306,0,0,1-.1,7.538,63.6,63.6,0,0,1-2.811,13.04l-.27.933a81.772,81.772,0,0,0-2.782,14.163,30.228,30.228,0,0,0-.119,4.374c-4.914-4.809-7.167-12.868-7.6-18.686a41.03,41.03,0,0,1,1.832-16.568l.354-1.216a105.184,105.184,0,0,0,2.736-11.022v-.032l.183-1.006-3,1.57c-.635,3.245-1.536,6.549-2.463,9.751L46,51.443A44.563,44.563,0,0,0,43.92,65.562a26.906,26.906,0,0,1-6.182-10.168,37.742,37.742,0,0,1-1.763-8.2L32.81,48.855l.485.374a.955.955,0,0,0,.143.064,44.147,44.147,0,0,0,1.82,6.941A30.276,30.276,0,0,0,44.12,69.4c.586,6.751,3.5,16.15,9.786,21.188l3.186-1.638a27.855,27.855,0,0,1-.033-5.577A78.412,78.412,0,0,1,59.75,69.669l.282-.939a68.247,68.247,0,0,0,2.907-13.523,41.75,41.75,0,0,0,.219-4.58,22.4,22.4,0,0,1,4.46,5.539,26.855,26.855,0,0,1,3.01,8.632,44.36,44.36,0,0,1,.445,10.758,53.426,53.426,0,0,1-1.094,6.77l3.011-1.548a54.341,54.341,0,0,0,.947-8.726,22.045,22.045,0,0,1,4.511,5.919L80.8,76.762l-.007-.006-.006-.012a23.963,23.963,0,0,0-6.982-8.2,35.117,35.117,0,0,0-3.34-12.646l-.516-1a26.7,26.7,0,0,0-6.912-7.84,32.842,32.842,0,0,0-3.418-12.2l-.007-.013-.009-.007-2.348,1.229Z" transform="translate(-32.81 -34.828)" fill="#002d5d"/>
      </g>
      <g id="Group_356" data-name="Group 356" transform="translate(37.876 2.902)">
        <path id="Path_713" data-name="Path 713" d="M25.806,45.636l.058-.077A7.436,7.436,0,0,1,25.8,46.6c-.013.141-.027.287-.041.438,0,.077-.034.108,0,.213l.386.644a32.977,32.977,0,0,0,9.53,9.536c1.186,6.117,4.248,14.688,10.256,19.408l25.611-13.4-.007-.007-.007-.013a25.053,25.053,0,0,0-7.39-8.575,34.358,34.358,0,0,0-4.9-13.082l-.69-1.033A27.782,27.782,0,0,0,49.8,33a21.333,21.333,0,0,0-2.048-3.981,26.685,26.685,0,0,0-1.532-2.25c-.8-.966-1.635-1.9-2.463-2.773a61.376,61.376,0,0,0-4.632-4.106A19.3,19.3,0,0,0,37,18.493L25.631,45.822l.176-.186Z" transform="translate(-25.267 -17.835)" fill="#d9dfe7"/>
        <path id="Path_714" data-name="Path 714" d="M36.478,20.712l.015.008a20.414,20.414,0,0,1,4.291,3.047,25.7,25.7,0,0,1,3.79,3.9l.814,1.034c.2.294.332.536.494.8l.855,1.543A14.471,14.471,0,0,1,47.9,33.839,28.221,28.221,0,0,1,49.6,41.793c.419,5.6-.249,8.936-1.144,13.482l-.191.946a123.79,123.79,0,0,0-2.151,14.053,32.824,32.824,0,0,0-.088,4.232c-4.835-4.464-7.257-11.9-8.145-17.307-1.082-6.438-.82-10.319-.449-16.017l.055-1.245a25.212,25.212,0,0,0-.312-5.847,21.887,21.887,0,0,0-2.35-6.5l-.027-.033-.7-1.137-1.31,3.143a19.244,19.244,0,0,1,2.095,10.388l-.048,1.231a73,73,0,0,0,.072,13.458,27.269,27.269,0,0,1-6.945-7.413,2.956,2.956,0,0,1-.662-1.968A15.443,15.443,0,0,0,27.04,43.4L25.61,46.844l.162-.209.056-.083a5.012,5.012,0,0,1-.184.991l-.1.4c-.01.07-.058.093-.037.192l.372.639a30.6,30.6,0,0,0,9.53,9.391c1.08,6.154,4.068,14.734,10.2,19.38l3.174-1.66a29.621,29.621,0,0,1-.044-5.423,118.238,118.238,0,0,1,2.114-13.667l.213-.96a46.873,46.873,0,0,0,1.255-14.072,28.048,28.048,0,0,0-.733-4.871,22.5,22.5,0,0,1,5.635,5.417,26.006,26.006,0,0,1,4.144,8.871,38.79,38.79,0,0,1,1.17,11.09,45.236,45.236,0,0,1-.914,6.9l3-1.57a46.148,46.148,0,0,0,.631-8.985,22.332,22.332,0,0,1,4.807,6.139L72.4,63.525l-.007-.007-.007-.013a24.259,24.259,0,0,0-7.5-8.539,33.351,33.351,0,0,0-4.822-13.177l-.694-1.037a27.31,27.31,0,0,0-8.881-7.714,24.552,24.552,0,0,0-1.557-3.51l-1-1.73-.529-.85c-.251-.344-.594-.755-.9-1.124a28.077,28.077,0,0,0-4.175-4.2,24.21,24.21,0,0,0-4.79-3.355l-.024-.013-.018,0-1.026,2.459Z" transform="translate(-25.498 -18.252)" fill="#002d5d"/>
      </g>
      <g id="Group_357" data-name="Group 357">
        <path id="Path_715" data-name="Path 715" d="M39.511,65.29a.919.919,0,0,0-.054-.138A57.462,57.462,0,0,0,42.9,59.5,29.1,29.1,0,0,0,45.46,53.24a17.877,17.877,0,0,0,.678-3.037,14.027,14.027,0,0,0-.178-2.211,3.885,3.885,0,0,1,2.317,1.1c.277.329.13-.357,1.231-1.562L60.868,20.2l-.017-.006-.023-.012c-6.481-3.553-13.589-3.543-18.519-.63a16.724,16.724,0,0,0-4.429.645,19.191,19.191,0,0,0-5.029,1.953,11.431,11.431,0,0,0-2.571,1.654l-2.606,2.037a58.42,58.42,0,0,0-4.62,5.483L22.071,32.9a23.691,23.691,0,0,0-3.039,7.91,30.09,30.09,0,0,0-.423,4.764,38.422,38.422,0,0,0-4.591,7.366c-1.236,2.527-2.12,4.611-2.12,4.611l27.689,8.305c-.025-.191-.049-.368-.076-.567Z" transform="translate(-11.218 -16.763)" fill="#d9dfe7"/>
        <path id="Path_716" data-name="Path 716" d="M14.188,58.539l0-.01a31.568,31.568,0,0,1,2.628-6,27.882,27.882,0,0,1,3.615-4.9,32.89,32.89,0,0,1,6.2-5.383c4.8-3.269,8.782-4.851,12.861-4.635l.847.073a12.136,12.136,0,0,1,5.52,2.079,10.221,10.221,0,0,1,3.309,4.168,10.564,10.564,0,0,1,.735,2.6c-.929.852-1.261,1.022-1.95.892a11.63,11.63,0,0,0-3.058-.391,16.874,16.874,0,0,0-2.856.971c-1.064.674-2.118,1.272-3.2,1.83-2.113,1.182-4.314,2.214-6.911,3.455l-1.123.553a65.7,65.7,0,0,0-9.851,5.826l-.022.024-.853.611,3.243.973A71.273,71.273,0,0,1,32,56.185l1.122-.551c2.182-1.1,4.14-2.066,6.042-3.071,1.838-1.064,3.748-2.078,5.592-3.215a24.81,24.81,0,0,1-3.108,9.619A43.218,43.218,0,0,1,37.2,65.439l3.422,1.026-.087-.568a.89.89,0,0,0-.059-.137,54.2,54.2,0,0,0,3.5-5.6,26.933,26.933,0,0,0,2.542-6.208,16.849,16.849,0,0,0,.628-3.014,13.277,13.277,0,0,0-.277-2.157,2.766,2.766,0,0,1,2.051,1.5c.11.423-.247-.364.772-1.719l1.433-3.456a15.149,15.149,0,0,0-1.174-3.471,11.809,11.809,0,0,0-3.591-4.479,11.272,11.272,0,0,0-2.748-1.548,11.02,11.02,0,0,0-3.039-.836l-.914-.122a16.015,16.015,0,0,0-6.6.955,23.109,23.109,0,0,0-3.707,1.648,47.045,47.045,0,0,0-3.987,2.525,35.46,35.46,0,0,0-4.049,3.189,23.111,23.111,0,0,1,.744-3.774,15.24,15.24,0,0,1,.746-2.23,30.125,30.125,0,0,1,1.411-2.7A18.934,18.934,0,0,1,26.6,30.875c.951-1.114,1.865-2.211,2.822-3.164A22.077,22.077,0,0,1,35.549,23.8a15.338,15.338,0,0,1,4.141-1.225,16.259,16.259,0,0,1,4.149-.281,18.847,18.847,0,0,1,3.867.751,19.761,19.761,0,0,1,3.264,1.583c2.143,1.215,5.444,5.033,5.9,6.635l1.309-3.142a18.728,18.728,0,0,0-9.955-7.88,17.518,17.518,0,0,1,12.33,2.184l1.023-2.454-.017-.005-.024-.013C54.9,16.339,47.639,16.4,42.622,19.4a17.118,17.118,0,0,0-4.525.628,19.517,19.517,0,0,0-5.147,1.962,11.611,11.611,0,0,0-2.635,1.677l-2.671,2.071a59.082,59.082,0,0,0-4.733,5.594l-1,1.6a23.341,23.341,0,0,0-3.048,8.027,29.5,29.5,0,0,0-.372,4.818,35.7,35.7,0,0,0-4.164,5.8,35.189,35.189,0,0,0-2.67,6.168l0,.014v.011l2.538.762Z" transform="translate(-11.649 -17.192)" fill="#002d5d"/>
      </g>
    </g>
    <path id="Path_717" data-name="Path 717" d="M136.445,114.326H55.629L68.5,29.524h67.943Z" transform="translate(96.521 51.227)" fill="#fff"/>
    <path id="Path_718" data-name="Path 718" d="M78.887,114.326H.431v-84.8H67.854Z" transform="translate(0.748 51.227)" fill="#fff"/>
    <path id="Path_719" data-name="Path 719" d="M136.759,64.262l-80.264-.554-1.046-4.014h81.31Z" transform="translate(96.208 103.575)" fill="#002d5d"/>
    <path id="Path_720" data-name="Path 720" d="M128.949,33.257h-69l1.979-4.568h67.021Z" transform="translate(104.018 49.778)" fill="#002d5d"/>
    <path id="Path_721" data-name="Path 721" d="M71.8,33.257H.046V28.689H69.767Z" transform="translate(0.079 49.778)" fill="#002d5d"/>
    <path id="Path_722" data-name="Path 722" d="M77.491,64.262H0V59.694H82.414Z" transform="translate(0 103.575)" fill="#002d5d"/>
    <line id="Line_1" data-name="Line 1" x2="67.776" transform="translate(156.718 156.26)" fill="none" stroke="#002d5d" stroke-width="1.253"/>
    <line id="Line_2" data-name="Line 2" x2="56.411" transform="translate(172.987 89.245)" fill="none" stroke="#002d5d" stroke-width="0.835"/>
    <line id="Line_3" data-name="Line 3" x2="17.524" transform="translate(209.91 97.292)" fill="none" stroke="#002d5d" stroke-width="0.418"/>
    <line id="Line_4" data-name="Line 4" x2="26.817" transform="translate(165.741 97.292)" fill="none" stroke="#002d5d" stroke-width="0.418"/>
    <line id="Line_5" data-name="Line 5" x2="67.769" transform="translate(6.772 156.385)" fill="none" stroke="#002d5d" stroke-width="1.253"/>
    <line id="Line_6" data-name="Line 6" x2="20.645" transform="translate(61.36 146.188)" fill="none" stroke="#002d5d" stroke-width="0.418"/>
    <line id="Line_7" data-name="Line 7" x2="20.413" transform="translate(19.994 146.188)" fill="none" stroke="#002d5d" stroke-width="0.418"/>
    <line id="Line_8" data-name="Line 8" x2="8.613" transform="translate(47.081 146.188)" fill="none" stroke="#002d5d" stroke-width="0.418"/>
    <line id="Line_9" data-name="Line 9" x2="17.779" transform="translate(152.588 146.188)" fill="none" stroke="#002d5d" stroke-width="0.418"/>
    <line id="Line_10" data-name="Line 10" x2="38.328" transform="translate(178.622 146.188)" fill="none" stroke="#002d5d" stroke-width="0.418"/>
    <line id="Line_11" data-name="Line 11" x2="61.88" transform="translate(8.092 91.634)" fill="none" stroke="#002d5d" stroke-width="0.835"/>
    <line id="Line_12" data-name="Line 12" x2="7.664" transform="translate(195.828 97.292)" fill="none" stroke="#002d5d" stroke-width="0.418"/>
    <path id="Path_723" data-name="Path 723" d="M40.11,20.466a22.646,22.646,0,0,1,.915-6.1c.395-1.147,1.633-2.076,1.553-3.287-.169-2.544-.842-4.89,1.623-6.127,1.606-.806,7.119-1.03,8.916-1.012A29.5,29.5,0,0,1,64.052,6.165a8.592,8.592,0,0,1,4.167,3.009c1,1.57,1.037,3.541,1.047,5.4q.046,8.659.091,17.317c.016,2.966-.171,6.374-2.509,8.2-1.581,1.234-3.728,1.375-5.732,1.465-5.053.228-10.2.449-15.181-.586-2.089-.434-4.805-.648-5.335-2.917a39.018,39.018,0,0,1-.8-8.223c-.047-3.124.132-6.246.311-9.364Z" transform="translate(69.042 6.83)" fill="#002d5d"/>
  </g>
</svg>
