<svg id="knot-figure-eight" xmlns="http://www.w3.org/2000/svg" width="465.482" height="162.676" viewBox="0 0 465.482 162.676">
  <g id="Group_87" data-name="Group 87">
    <g id="Group_67" data-name="Group 67" transform="translate(268.5 56.706)">
      <path id="Path_151" data-name="Path 151" d="M136.046,15.55l6.18,35.984s-2.431.188-5.526.238a74.213,74.213,0,0,1-9.379-.074,39.282,39.282,0,0,1-11.011,6.6l-1.318.45a55.473,55.473,0,0,1-16.221,2.47A34.339,34.339,0,0,1,87.516,69.2l-.016.007-.009.008L72.71,35.831C80.2,28.106,93.784,24.885,103.225,25a41.666,41.666,0,0,1,21.187-8.582,51.991,51.991,0,0,1,10.707-.258,1.442,1.442,0,0,1,.16-.15l.766-.458Z" transform="translate(-72.388 -14.765)" fill="#d9dfe7"/>
      <path id="Path_152" data-name="Path 152" d="M142.048,49.7l-.011,0a42.814,42.814,0,0,1-14.045-.05,68.818,68.818,0,0,1-9.326-1.916,131.756,131.756,0,0,1-16.272-5.724l-1.184-.461a86.988,86.988,0,0,0-18.518-4.83,42.02,42.02,0,0,0-5.876-.381c7.048-6.091,18.637-8.388,26.7-8.1a46.483,46.483,0,0,1,21.737,5.5l1.484.778,12.834,6.947.038.011,1.129.593-.723-4.209c-3.7-1.935-7.58-4.288-11.46-6.271l-1.487-.778a49.3,49.3,0,0,0-18.5-5.649,36.272,36.272,0,0,1,16.09-5.69,45.3,45.3,0,0,1,12.255.329l-.767-4.465-.767.473a1.442,1.442,0,0,0-.16.156,50.835,50.835,0,0,0-10.77.181,40.446,40.446,0,0,0-21.226,8.709c-9.5-.239-23.168,2.917-30.6,10.818l1.839,4.154a36.914,36.914,0,0,1,7.472.246,84.316,84.316,0,0,1,17.83,4.583l1.186.469a138.78,138.78,0,0,0,16.8,5.835c2.223.608,4.113,1.01,5.618,1.267a30.55,30.55,0,0,1-7.706,4.36,38.593,38.593,0,0,1-11.248,2.365,69.713,69.713,0,0,1-13.82-.545,81.764,81.764,0,0,1-8.713-1.822l1.729,3.9A86.951,86.951,0,0,0,94.8,62.314,30.86,30.86,0,0,1,86.74,67.56L88.087,70.6l.009-.009.016-.007a32.792,32.792,0,0,0,11.171-8.1,52.631,52.631,0,0,0,16.225-2.316l1.313-.449A37.466,37.466,0,0,0,127.751,53a49.694,49.694,0,0,0,14.836,0l.016,0,.01-.008-.565-3.285Z" transform="translate(-72.623 -15.338)" fill="#002d5d"/>
    </g>
    <g id="Group_68" data-name="Group 68" transform="translate(211.766 77.049)">
      <path id="Path_153" data-name="Path 153" d="M114.064,21.037l14.781,33.385s-9.884,3.245-15.385,3.807a38.039,38.039,0,0,1-10.1,8.682l-1.287.691A52.762,52.762,0,0,1,85.693,72.69a33.768,33.768,0,0,1-11.213,9.444l-.017.009-.01.01L57.378,49.883c6.224-7.789,18.615-12.416,27.668-13.7A43.06,43.06,0,0,1,103.5,24.244a59.617,59.617,0,0,1,9.854-2.42,1.355,1.355,0,0,1,.112-.18l.6-.607Z" transform="translate(-57.006 -20.309)" fill="#d9dfe7"/>
      <path id="Path_154" data-name="Path 154" d="M128.129,52.72l-.011,0a42.478,42.478,0,0,1-14.43,3.378,61.788,61.788,0,0,1-9.709-.075,97.686,97.686,0,0,1-17.1-2.965l-1.234-.285a112.814,112.814,0,0,0-18.7-2.645,41.528,41.528,0,0,0-5.653.037c6-6.368,16.726-9.943,24.524-10.843a50.575,50.575,0,0,1,22.094,1.71l1.592.448c4.7,1.339,9.5,2.766,14.178,3.854h.041l1.269.3-1.729-3.9c-4.14-1.03-8.414-2.289-12.616-3.5l-1.6-.454a53.889,53.889,0,0,0-18.9-2.226,36.971,36.971,0,0,1,14.184-8.365,49.307,49.307,0,0,1,11.514-2.206l-1.835-4.143-.6.621a1.371,1.371,0,0,0-.111.184,57.829,57.829,0,0,0-9.908,2.348A41.512,41.512,0,0,0,84.971,36.044C75.847,37.211,63.4,41.768,57.278,49.71L59.4,53.725a43.448,43.448,0,0,1,7.194-.23,112.463,112.463,0,0,1,18.062,2.568l1.242.3a104.815,104.815,0,0,0,17.7,3.03c2.335.168,4.323.218,5.894.192a30.992,30.992,0,0,1-7.119,5.756A38.005,38.005,0,0,1,91.2,69.594,62.077,62.077,0,0,1,77,70.9a63.114,63.114,0,0,1-9.027-.98l2,3.774a69.034,69.034,0,0,0,11.709.607,30.528,30.528,0,0,1-8.093,6.226l1.555,2.94.01-.01.017-.009a32.532,32.532,0,0,0,11.154-9.569,50.574,50.574,0,0,0,16.437-4.952l1.285-.691a36.534,36.534,0,0,0,10.018-8.806,48.209,48.209,0,0,0,15.392-3.648l.016-.007.008-.01-1.349-3.048Z" transform="translate(-57.278 -20.84)" fill="#002d5d"/>
    </g>
    <g id="Group_69" data-name="Group 69" transform="translate(65.218 64.938)">
      <path id="Path_155" data-name="Path 155" d="M66.263,65.775,42.456,93.456a41.9,41.9,0,0,1-5.286-6.13,41.311,41.311,0,0,1-6.455-11.785,45.335,45.335,0,0,1-5.1-5c-1.8-2.579-4.255-5.782-5.453-9.691L19.533,58.9c-1.6-4.594-1.6-9.1-1.664-12.957a52.5,52.5,0,0,1,1.695-9.778,38.8,38.8,0,0,1-1.652-8.684,49.269,49.269,0,0,1,1.007-9.813l.007-.024v-.017l35.411,8.885a16.056,16.056,0,0,1,.937,5.565,23.167,23.167,0,0,1-.086,5.667,95.342,95.342,0,0,1-1.561,10.472,49.517,49.517,0,0,1,8.634,11.377c.457,1.172,1.219,2.075,1.687,3.119.483,1.04.973,2.026,1.522,2.955a1.079,1.079,0,0,1,.171-.01l.62.122Z" transform="translate(-17.023 -17.406)" fill="#d9dfe7"/>
      <path id="Path_156" data-name="Path 156" d="M44.665,91.763l-.012-.01c-5.028-3.941-9.254-11.4-10.528-16.121-.335-1.485-.665-2.764-.985-4.475a25.751,25.751,0,0,1-.435-7.115,30.191,30.191,0,0,1,1.828-9.735A32.813,32.813,0,0,1,38.318,46.7l.656-1.044A102.536,102.536,0,0,1,49.81,32.182c1.1-1.216,2.321-2.29,3.246-3.407,1.439,6.607-.221,13.848-1.43,19.774-1.467,7.1-2.281,11.775-3.4,19.1l-.157,1.6a41.707,41.707,0,0,0,1.22,15.214l.021.041.4,1.388L52.5,82.657A41.742,41.742,0,0,1,51.39,69.585l.163-1.6c.176-1.529.34-2.961.5-4.328l.705-4.013c.306-2.513.984-5.119,1.366-7.747a40.3,40.3,0,0,1,3.734,4.3,15.51,15.51,0,0,1,1.459,2.318,16.5,16.5,0,0,1,1.472,2.464c.52,1.291,1.3,2.494,1.883,3.842.543,1.382,1.216,2.668,1.778,3.939L67.4,65.33l-.622-.105a1.121,1.121,0,0,0-.173.015c-.523-.931-.988-1.916-1.444-2.95-.441-1.038-1.178-1.932-1.608-3.088-2.214-4.262-4.727-7.223-8.583-11.041A79.043,79.043,0,0,0,56.7,37.888a20.989,20.989,0,0,0,.071-5.553,15.136,15.136,0,0,0-1.044-5.475l-4.406-1.105A43.4,43.4,0,0,1,47.245,30.3c-1.8,1.747-3.482,3.877-5.549,6.143-1.942,2.267-3.63,4.724-5.478,7.159,0,0-.789,1.061-.755,1.061a55.122,55.122,0,0,0-4.128,7.9A38.761,38.761,0,0,0,29.185,63.08a37.463,37.463,0,0,0,.284,7.264A27.605,27.605,0,0,1,26.044,66a21.863,21.863,0,0,1-3.012-5.944,33.205,33.205,0,0,1-1.8-15.652,42.217,42.217,0,0,1,2.162-8.665,43.934,43.934,0,0,1,3.6-7.157c1.559-2.162,5.068-6.288,6.551-7.284L29.4,20.255c-3.488,3.563-6.535,7.743-7.828,10.76-.966-3.817-.478-8.15.33-12.641l-3.226-.809v.017l-.007.024a48.356,48.356,0,0,0-.991,9.928,38.111,38.111,0,0,0,1.748,8.776,51.906,51.906,0,0,0-1.789,9.884c.043,3.905.034,8.468,1.649,13.12l.633,1.981c1.22,3.956,3.715,7.194,5.563,9.791A44.63,44.63,0,0,0,30.7,76.107,39.076,39.076,0,0,0,42.456,94.268l.019.016.017.007,2.173-2.527Z" transform="translate(-17.64 -17.564)" fill="#002d5d"/>
    </g>
    <g id="Group_70" data-name="Group 70" transform="translate(66.062 72.082)">
      <path id="Path_157" data-name="Path 157" d="M76.844,19.708,83.95,55.52s-2.919.273-6.562.426A54.545,54.545,0,0,1,66.4,55.374a37.817,37.817,0,0,1-13.731,4.8l-1.589.135a49.272,49.272,0,0,1-18.266-2.165,34.4,34.4,0,0,1-14.91,3.1h-.02l-.013,0,.485-36.506c9.093-3.825,20.939-2.238,29.175,0a45.015,45.015,0,0,1,19.407-4.767,75.386,75.386,0,0,1,9.129.314,1.224,1.224,0,0,1,.133-.145Z" transform="translate(-17.859 -18.927)" fill="#d9dfe7"/>
      <path id="Path_158" data-name="Path 158" d="M83.483,53.694l-.013,0a38.8,38.8,0,0,1-16.181-.322,42.776,42.776,0,0,1-9.7-3.2C51,47.295,47.439,44.53,42.657,40.912l-1-.759a182.9,182.9,0,0,0-15.2-10.7,43.272,43.272,0,0,0-4.851-2.6c8.1-2.778,18.311-1.09,25.422,1.051,8.428,2.591,13.076,5.246,19.359,9.349l1.376.9a96.454,96.454,0,0,0,12.936,7.357l.041.01,1.228.576-.831-4.189A108.874,108.874,0,0,1,69.762,35.4l-1.375-.9A74.126,74.126,0,0,0,52.095,26.1,38.515,38.515,0,0,1,66.859,23a58.95,58.95,0,0,1,10.72.936L76.7,19.5l-.638.448a1.252,1.252,0,0,0-.132.15,71.065,71.065,0,0,0-9.116-.405A42.6,42.6,0,0,0,47.48,24.561c-8.228-2.38-20.031-4.058-29.1-.049l-.061,4.542a48.5,48.5,0,0,1,6.31,3.217A179.859,179.859,0,0,1,39.384,42.7l1,.807c4.748,3.62,8.607,6.589,15.544,9.688A56.063,56.063,0,0,0,61.767,55.4,32.813,32.813,0,0,1,52.3,58.324a37.557,37.557,0,0,1-12.806-.6A50.74,50.74,0,0,1,18.072,47.379l-.057,4.27A57.636,57.636,0,0,0,28.29,57.707a30.075,30.075,0,0,1-10.378,1.672L17.868,62.7l.013,0h.02a33.343,33.343,0,0,0,14.943-3.236,47.8,47.8,0,0,0,18.32,2.31l1.593-.136a36.788,36.788,0,0,0,13.754-4.952,53.515,53.515,0,0,0,8.935,1.05,48.7,48.7,0,0,0,8.654-.762l.02,0,.012-.008-.649-3.27Z" transform="translate(-17.868 -19.497)" fill="#002d5d"/>
    </g>
    <g id="Group_71" data-name="Group 71" transform="translate(0 70.52)">
      <path id="Path_159" data-name="Path 159" d="M66.42,25.821l-.485,36.507s-2.874-.3-6.422-.911A55.953,55.953,0,0,1,49.03,58.679a37.857,37.857,0,0,1-14.173,2.15l-1.571-.139a49.438,49.438,0,0,1-17.471-5.343,33.655,33.655,0,0,1-15.721.319L.069,55.66H.051L7.846,19.994c8.759-2.212,20.695,1.32,28.364,5.074a44.85,44.85,0,0,1,20.3-1,77.627,77.627,0,0,1,9.018,2.17,1.2,1.2,0,0,1,.162-.116Z" transform="translate(0.139 -18.442)" fill="#d9dfe7"/>
      <path id="Path_160" data-name="Path 160" d="M66.106,60.519h-.013a39.708,39.708,0,0,1-15.582-3.54,51.733,51.733,0,0,1-8.82-4.986,69.353,69.353,0,0,1-12.96-11.821l-.847-.941c-4.048-4.492-8.958-9.417-13.1-13.141a49.87,49.87,0,0,0-4.221-3.436c8.23-1.251,18.152,2.057,24.813,5.51A62.909,62.909,0,0,1,52.771,41l1.175,1.144a109.5,109.5,0,0,0,11.15,9.8l.038.018,1.076.81.057-4.27a111.435,111.435,0,0,1-9.813-8.7l-1.174-1.144A69.436,69.436,0,0,0,40.74,27.3a38.336,38.336,0,0,1,15.325-.2,58.768,58.768,0,0,1,10.445,3.09l.06-4.531-.728.313a1.281,1.281,0,0,0-.162.121,73.3,73.3,0,0,0-8.993-2.257,42.585,42.585,0,0,0-20.263,1.118c-7.635-3.89-19.537-7.509-28.269-5.1l-.97,4.438c1.591,1.206,3.564,2.636,5.317,4.244,4.013,3.659,8.778,8.448,12.692,12.826l.845.959A72.017,72.017,0,0,0,39.522,54.646a46.59,46.59,0,0,0,5.26,3.244,31.247,31.247,0,0,1-9.714,1.129,37.635,37.635,0,0,1-12.39-2.843A53.577,53.577,0,0,1,9.941,48.648,58.9,58.9,0,0,1,3.272,42.19l-.911,4.172a65.27,65.27,0,0,0,9.287,7.855,29.824,29.824,0,0,1-10.938-.3L0,57.164H.018l.026.005a32.672,32.672,0,0,0,15.8-.445,47.934,47.934,0,0,0,17.492,5.494l1.574.138a36.749,36.749,0,0,0,14.214-2.3,44.863,44.863,0,0,0,16.9,3.8h.02l.013-.005.044-3.333Z" transform="translate(0 -19.074)" fill="#002d5d"/>
    </g>
    <g id="Group_72" data-name="Group 72" transform="translate(181.275 28.622)">
      <path id="Path_161" data-name="Path 161" d="M103.222,7.929l17.872,31.838s-10.352,4.5-16.134,5.305A37.593,37.593,0,0,1,94.13,54.19l-1.39.7a49.067,49.067,0,0,1-17.475,4.647,34.473,34.473,0,0,1-12.44,8.57l-.018.007-.011.009L49.112,34.278c6.954-7.051,18.688-10.29,27.381-11.217a44.439,44.439,0,0,1,17.1-11.523,64,64,0,0,1,9.05-2.788,1.278,1.278,0,0,1,.085-.184l.495-.637Z" transform="translate(-48.813 -7.235)" fill="#d9dfe7"/>
      <path id="Path_162" data-name="Path 162" d="M120.116,38.144l-.011.006a40.308,40.308,0,0,1-15,4.735,50.752,50.752,0,0,1-10.05.276A71.932,71.932,0,0,1,77.845,39.89l-1.216-.348a161.161,161.161,0,0,0-18.173-4.071,41.509,41.509,0,0,0-5.531-.567c6.494-5.6,16.694-8.144,24.252-8.723A60.944,60.944,0,0,1,98.8,28.023l1.6.387a129.746,129.746,0,0,0,14.556,2.825l.041,0,1.322.162-2.09-3.724c-4.277-.6-8.652-1.551-12.861-2.538l-1.6-.387a65.059,65.059,0,0,0-18.435-2.123,37.514,37.514,0,0,1,13.188-8.214,53.884,53.884,0,0,1,10.741-2.715L103.05,7.741l-.487.648a1.3,1.3,0,0,0-.082.189A61.216,61.216,0,0,0,93.4,11.284,42.319,42.319,0,0,0,76.38,22.892c-8.744.8-20.483,3.942-27.35,11.154l1.7,4.211a39.515,39.515,0,0,1,7.087.5,159.955,159.955,0,0,1,17.656,4.014l1.224.363a76.848,76.848,0,0,0,17.912,3.427,56.177,56.177,0,0,0,6.122.037,30.392,30.392,0,0,1-7.606,5.976A37.137,37.137,0,0,1,81.22,56.665a55.051,55.051,0,0,1-14.666.4A62.482,62.482,0,0,1,57.6,55.248l1.6,3.959A64.53,64.53,0,0,0,70.965,60.86,32.057,32.057,0,0,1,62.1,66.375l1.246,3.083.011-.009.018-.007a33.375,33.375,0,0,0,12.412-8.709,47.513,47.513,0,0,0,17.566-4.526l1.393-.7a36.437,36.437,0,0,0,10.781-9.26,46.053,46.053,0,0,0,16.2-5.171l.017-.01.008-.011-1.632-2.907Z" transform="translate(-49.031 -7.741)" fill="#002d5d"/>
    </g>
    <g id="Group_73" data-name="Group 73" transform="translate(124.89 54.932)">
      <path id="Path_163" data-name="Path 163" d="M90.353,15.057l13.684,33.849S93,52.122,87.062,52.065a37.722,37.722,0,0,1-12.267,7.509l-1.514.473a49.287,49.287,0,0,1-18.288,1.779,34.435,34.435,0,0,1-14.033,6.22l-.02,0-.013.006L33.822,32.244c7.973-5.614,19.8-6.628,28.408-6.191A44.182,44.182,0,0,1,80.505,17.3a59.814,59.814,0,0,1,9.182-1.511,1.269,1.269,0,0,1,.106-.168l.56-.561Z" transform="translate(-33.666 -14.319)" fill="#d9dfe7"/>
      <path id="Path_164" data-name="Path 164" d="M103.235,47.181l-.012,0A39.984,39.984,0,0,1,87.5,49.923a46.738,46.738,0,0,1-10.075-1.161C70.41,47.287,66.351,45.414,60.9,42.868l-1.138-.53c-5.48-2.682-11.84-5.222-17.1-7.194a40.8,40.8,0,0,0-5.26-1.532c7.263-4.361,17.541-4.978,25.007-4.378a64.362,64.362,0,0,1,20.971,5.089l1.533.613A116.032,116.032,0,0,0,98.989,39.67l.042,0,1.3.332-1.6-3.959c-4.19-1.144-8.408-2.683-12.418-4.207l-1.532-.612a69.286,69.286,0,0,0-17.795-4.85A37.77,37.77,0,0,1,81.01,20.268a52.063,52.063,0,0,1,10.856-1.21l-1.7-4.2-.553.574a1.223,1.223,0,0,0-.1.173,57.311,57.311,0,0,0-9.195,1.422,41.953,41.953,0,0,0-18.194,8.847C53.487,25.3,41.689,26.214,33.78,32l.884,4.456a50.956,50.956,0,0,1,6.8,1.816c5.132,1.907,11.316,4.453,16.626,7.055l1.152.576c5.4,2.484,9.835,4.6,17.215,6.151a56.431,56.431,0,0,0,6.129.965,33.484,33.484,0,0,1-8.552,4.811,38.314,38.314,0,0,1-12.6,2.144,52.2,52.2,0,0,1-14.679-2.123,51.464,51.464,0,0,1-8.517-3.418l.831,4.189a58.448,58.448,0,0,0,11.381,3.744,30.652,30.652,0,0,1-9.877,3.839l.647,3.262.013-.006.02,0a33.413,33.413,0,0,0,14.041-6.364,47.816,47.816,0,0,0,18.371-1.649l1.518-.475a36.633,36.633,0,0,0,12.25-7.659,45.659,45.659,0,0,0,17.03-3.022l.018-.007.01-.01-1.249-3.09Z" transform="translate(-33.78 -14.858)" fill="#002d5d"/>
    </g>
    <g id="Group_74" data-name="Group 74" transform="translate(298.98)">
      <path id="Path_165" data-name="Path 165" d="M154.5,24.465,127.105,48.6s-.9-1.264-1.936-3.006a23.519,23.519,0,0,1-1.758-2.548,16.006,16.006,0,0,1-2.027-2.65,33.888,33.888,0,0,1-9.484-.018l-1.024-.181a47.312,47.312,0,0,1-6.784-2.019c-2.208-.612-4.138-1.629-5.879-2.222a33.139,33.139,0,0,1-11.374,4.131l-.015,0-.01.006L80.9,4.065C85.948,1.151,92.655.051,99.27.27a45.837,45.837,0,0,1,18.184,4.8,36.928,36.928,0,0,1,26.872,8.411,67.445,67.445,0,0,1,5.351,5.2c1.373,1.777,2.565,3.485,3.615,5.146a1.95,1.95,0,0,1,.249.087l.962.551Z" transform="translate(-80.773 0.655)" fill="#d9dfe7"/>
      <path id="Path_166" data-name="Path 166" d="M129.032,47.639l-.006-.006c-2.253-2.253-3.916-5.579-5.733-8.31-.912-1.773-1.795-2.582-4.49-6.738-1.814-2.491-3.419-4.674-5.074-6.627A76.1,76.1,0,0,0,108.4,19.7l-.887-.933A53.4,53.4,0,0,0,91.087,7.6a42.615,42.615,0,0,0-6-2c9.258-4.2,23.035-2.1,31.071,2.447,9.5,5.285,13.42,10.539,16.115,17.894l.545,1.575a48.307,48.307,0,0,1,2,13.842l.009.034c.007.387.013.758.02,1.13l3.2-2.822c-.1-1.933-.223-4.037-.43-6.263a53.885,53.885,0,0,0-1.341-6.543l-.473-1.729A32.957,32.957,0,0,0,123.036,8.242,33.164,33.164,0,0,1,142.48,15.71a52.273,52.273,0,0,1,5.588,5.77,55.194,55.194,0,0,1,3.727,6.108l3.4-3-.982-.552a1.915,1.915,0,0,0-.255-.085c-1.052-1.692-2.252-3.431-3.637-5.239a66.826,66.826,0,0,0-5.412-5.3,36.789,36.789,0,0,0-27.214-8.436A45.5,45.5,0,0,0,99.359.03c-6.67-.236-13.429.894-18.492,3.9L81.6,8.417a31.283,31.283,0,0,1,7.614,2.2A51.97,51.97,0,0,1,104.9,20.983l.885.9a131.887,131.887,0,0,1,10.7,12.954c1.194,1.6,2.132,2.889,2.781,3.979a29.087,29.087,0,0,1-6.815-.178,39.529,39.529,0,0,1-8.948-2.673c-3.64-1.555-7.792-3.388-11.4-5.283C90.265,29.7,86,27.387,84.57,26.5l.691,4.214c3.873,2.1,7.2,3.909,9.421,4.964a29.783,29.783,0,0,1-8.169,2.665l.538,3.282.01-.006.016,0A30.876,30.876,0,0,0,98.325,37.36c1.726.627,3.629,1.682,5.806,2.32a42.078,42.078,0,0,0,6.656,2.051l1,.176a30.593,30.593,0,0,0,9.344-.19c2.31,3.525,3.249,5.935,5.379,8.119l.007.007h.01l2.5-2.2Z" transform="translate(-80.867 0)" fill="#002d5d"/>
    </g>
    <g id="Group_75" data-name="Group 75" transform="translate(235.292 3.94)">
      <path id="Path_167" data-name="Path 167" d="M127.174,1.278l5.913,36.029-5.214.183a87.541,87.541,0,0,1-9.1.013,40.62,40.62,0,0,1-10.107,6.88l-1.224.5A56.889,56.889,0,0,1,92.127,48.4a27.571,27.571,0,0,1-4.286,4.868,38.8,38.8,0,0,1-6.2,4.411l-.017.01-.009.01L63.746,25.864a26.363,26.363,0,0,1,5.629-5.406,43.54,43.54,0,0,1,7.834-4.425,51.165,51.165,0,0,1,16.277-4.061,41.462,41.462,0,0,1,21.65-9.713,51.582,51.582,0,0,1,11.06-.377,1.5,1.5,0,0,1,.17-.149l.808-.454Z" transform="translate(-63.356 -0.493)" fill="#d9dfe7"/>
      <path id="Path_168" data-name="Path 168" d="M132.976,35.47l-.011,0a47.722,47.722,0,0,1-13.584,0c-2.266-.441-3.868-.436-9.113-1.692-6.586-1.49-10.684-2.938-16.464-4.707l-1.223-.366a72.47,72.47,0,0,0-19.133-2.816c-2.133-.01-3.936.028-5.778.2a24.012,24.012,0,0,1,2.391-2.3,36.124,36.124,0,0,1,3.082-2.17A35.279,35.279,0,0,1,80.035,18.2,46.249,46.249,0,0,1,93.976,15.2c9.834-.383,15.377,1.164,22.322,4.429l1.49.713c4.4,2.238,8.716,4.563,12.8,6.86l.037.011,1.1.614-.691-4.214c-3.656-2.085-7.525-4.229-11.471-6.242l-1.511-.774A45.017,45.017,0,0,0,99.014,11.77a36.323,36.323,0,0,1,16.443-6.462,44.8,44.8,0,0,1,12.606.228l-.734-4.471-.811.468a1.505,1.505,0,0,0-.17.155,50.82,50.82,0,0,0-11.14.3,40.467,40.467,0,0,0-21.722,9.855,50,50,0,0,0-16.4,3.96,42.3,42.3,0,0,0-7.864,4.451,25.384,25.384,0,0,0-5.581,5.483L65.865,29.7a39.8,39.8,0,0,1,7.174-.4A72.432,72.432,0,0,1,91.4,31.925l1.219.362c5.72,1.734,10.126,3.226,16.939,4.722,2.2.541,4.043.907,5.5,1.118a31.987,31.987,0,0,1-7.124,4.606A39.685,39.685,0,0,1,97.317,45.75a78.542,78.542,0,0,1-13.451.72,73.861,73.861,0,0,1-9.03-.785l2.09,3.723c4.672.54,8.972.417,11.518.5a29.651,29.651,0,0,1-7.734,6.238l1.628,2.9.009-.01.017-.01a37.1,37.1,0,0,0,6.183-4.445,26.64,26.64,0,0,0,4.212-4.945,53.459,53.459,0,0,0,15.3-3.354l1.217-.494a38.332,38.332,0,0,0,9.992-7,54.082,54.082,0,0,0,14.221-.026l.016,0,.009-.008-.54-3.289Z" transform="translate(-63.641 -1.066)" fill="#002d5d"/>
    </g>
    <g id="Group_76" data-name="Group 76" transform="translate(329.875 91.345)">
      <path id="Path_169" data-name="Path 169" d="M98.559,90.542,89.285,55.229s6.369-.608,10.218-1.413c.352-.631.762-2.108,1.433-3.548a31.817,31.817,0,0,1,2.633-4.624l.637-.706c2.776-3.894,6.463-6.67,8.915-9.123a44.129,44.129,0,0,1-.333-5.492,47.567,47.567,0,0,1,.606-5.545l0-.014,0-.01,35.775,7.285c.9,6.165-.87,13.27-4.006,19.518a52.317,52.317,0,0,1-5.688,8.526,59.5,59.5,0,0,1-6.67,6.271,37.649,37.649,0,0,1-20.127,20.322c-2.449.91-4.723,1.642-6.852,2.232a40.268,40.268,0,0,1-6.159.865,1.933,1.933,0,0,1-.189.179l-.918.59Z" transform="translate(-89.058 -24.577)" fill="#d9dfe7"/>
      <path id="Path_170" data-name="Path 170" d="M90.07,57.721l.008,0c1.51-.484,3.364-.582,5.1-.939,1.861-.09,3.626-.411,5.184-.428,2.013.071,3.034-.384,7.981-.746l8.163-1.475c2.458-.634,4.948-1.2,7.952-2.05,0,0,1.247-.376,1.226-.393a51.466,51.466,0,0,0,8.981-4.3,50.283,50.283,0,0,0,8.068-6.375,43.071,43.071,0,0,0,4.272-5.085c.359,10.862-7.782,23.191-15.542,28.261a40.965,40.965,0,0,1-6.435,3.8,21.662,21.662,0,0,1-5.82,2.084,36.792,36.792,0,0,1-5.488.844,38.553,38.553,0,0,1-5.688-.385l-1.645-.247a51.205,51.205,0,0,1-13.286-4.556l-.034-.008-1.034-.513,1.084,4.13c1.786.8,3.757,1.731,5.817,2.509,2.006.64,4.157,1.263,6.411,1.8,0,0,1.74.42,1.729.382a31.922,31.922,0,0,0,21.009-3.7c-3.3,6.149-8.926,10.927-15.754,14.036a64.092,64.092,0,0,1-7.477,2.192,41.645,41.645,0,0,1-7.08.5l1.151,4.382.927-.607a1.907,1.907,0,0,0,.19-.185,40.206,40.206,0,0,0,6.248-.842c2.161-.586,4.47-1.32,6.955-2.236a37.545,37.545,0,0,0,20.32-20.628,58.474,58.474,0,0,0,6.8-6.293,51.755,51.755,0,0,0,5.782-8.595c3.18-6.307,4.946-13.494,3.97-19.727l-4.451-.907a26.777,26.777,0,0,1-4.943,6.6c-1.1,1.1-2.229,2.2-3.483,3.232-1.325,1.012-2.693,1.978-4.066,2.873a36.992,36.992,0,0,1-8.435,4.189l-1.185.413a74.876,74.876,0,0,1-7.919,2.163,81.879,81.879,0,0,1-8.282,1.617c-1.841.448-3.6.337-4.741.552a28.289,28.289,0,0,1,1.3-2.75,11.881,11.881,0,0,1,1.772-3.058,42.609,42.609,0,0,1,6.137-6.621c.721-.616,1.493-1.232,2.306-1.846l2.25-2c1.588-1.3,3.256-2.591,4.717-3.845l3.455-2.645c1.281-1.019,2.437-2.073,3.158-2.538l-4.184-.852c-3.2,2.738-6.3,4.834-7.95,6.358-.421-2.677.023-5.132.375-7.9l-3.259-.664,0,.01,0,.014a41.39,41.39,0,0,0-.548,5.468,40.431,40.431,0,0,0,.456,5.454c-2.5,2.387-6.219,5.05-8.931,8.862l-.62.687a27.259,27.259,0,0,0-2.493,4.569c-.621,1.437-.986,2.924-1.312,3.563-2.023.029-3.692.359-5.406.37-1.579.289-3.157.368-4.593.783l-.01,0-.005.008.847,3.224Z" transform="translate(-89.223 -24.707)" fill="#002d5d"/>
    </g>
    <g id="Group_77" data-name="Group 77" transform="translate(344.649 24.589)">
      <path id="Path_171" data-name="Path 171" d="M138.062,80.484,102.286,73.2c-.088-.024.843-1.869,1.517-4.386.889-2.479,1.717-5.562,2.691-7.695a40.9,40.9,0,0,1-4.179-9.852l-.186-1.1c-1.174-4.993-.978-9.576-1.09-12.933a32.135,32.135,0,0,1-7.624-6.3l-.008-.007-.008,0L120.8,6.793a34.751,34.751,0,0,1,13.075,16.54,43.437,43.437,0,0,1,3.066,18.843,40.124,40.124,0,0,1,4.349,25.668,47.8,47.8,0,0,1-3.422,11.436,1.649,1.649,0,0,1,.076.225l.122.979Z" transform="translate(-92.731 -6.267)" fill="#d9dfe7"/>
      <path id="Path_172" data-name="Path 172" d="M105.166,74.07l0-.01a19.223,19.223,0,0,1,.816-2.945,25.742,25.742,0,0,1,.958-3.107,56.846,56.846,0,0,1,2.434-5.58c1.124-1.9,1.407-3.237,4.017-7.748,1.423-2.823,2.7-5.222,3.961-7.553,1.122-2.307,2.359-4.592,3.647-7.4l.466-1.17c2.291-5.626,3.842-13.321,2.971-20.068a23.334,23.334,0,0,0-1.479-6.8c4.62,3.561,7.894,9.119,9.838,14.718a39.382,39.382,0,0,1,1.919,15.823c-.585,5.331-1.538,9.24-3.2,12.616a33.577,33.577,0,0,1-6.085,9.055l-1.114,1.231a70.738,70.738,0,0,1-5.263,5.107c-1.727,1.624-3.507,3.146-5.321,4.573l-.024.03-.959.766,4.184.852a111.465,111.465,0,0,0,9.713-8.714l1.18-1.232c4.434-5.012,7.673-10,9.413-18.131A34.9,34.9,0,0,1,139.4,67.466a41.14,41.14,0,0,1-4.506,12.656l4.44.9c-.045-.332-.088-.646-.135-.99a1.587,1.587,0,0,0-.081-.228,47.393,47.393,0,0,0,3.523-11.527A39.634,39.634,0,0,0,138.16,42.4a43.109,43.109,0,0,0-2.988-19.059,34.566,34.566,0,0,0-13.29-16.69l-3.409,3a34.4,34.4,0,0,1,2.406,8.366,40.589,40.589,0,0,1-2.534,19.034l-.484,1.171a82.087,82.087,0,0,1-3.517,7.445c-1.11,2.364-2.523,4.875-3.988,7.756-.848,1.839-1.868,3.41-2.393,4.619a31.96,31.96,0,0,1-1.472-3.19,15.924,15.924,0,0,1-1.306-3.767,38.381,38.381,0,0,1-1.108-9.345c.1-3.837.13-7.96.356-11.795.237-1.988.119-6.395.289-8.179l-3.2,2.823c-.085,2.092-.162,3.954-.227,5.566-.062,1.592-.258,3.1-.3,4.182A26.566,26.566,0,0,1,95.715,29.7l-2.5,2.2.008,0,.007.007a29.016,29.016,0,0,0,7.618,6.047c.029,3.342-.272,7.878.883,12.784.06.351.122.713.184,1.078a37.782,37.782,0,0,0,4.311,9.695c-1.1,2.093-1.765,4.141-2.626,6.1a22.793,22.793,0,0,0-.908,2.936,22.673,22.673,0,0,0-.8,2.831l0,.013,0,.01,3.266.665Z" transform="translate(-93.219 -6.651)" fill="#002d5d"/>
    </g>
    <g id="Group_78" data-name="Group 78" transform="translate(218.59 68.478)">
      <path id="Path_173" data-name="Path 173" d="M59.279,43.8l26.5-25.113s6.725,8.716,8.936,13.892A38.521,38.521,0,0,1,106.132,39.9l1.033,1.039a46.692,46.692,0,0,1,5.754,7.329,50.034,50.034,0,0,1,3.282,6.079,33.566,33.566,0,0,1,11.424,5.186l.013.009.011,0L106.606,89.381c-5.666-1.489-11.025-5.231-15.4-9.647a61.093,61.093,0,0,1-5.7-6.99,57.5,57.5,0,0,1-3.6-6.523A43.667,43.667,0,0,1,65.381,52.411a63.148,63.148,0,0,1-5.156-8.236,1.329,1.329,0,0,1-.2-.04l-.744-.334Z" transform="translate(-58.702 -18.074)" fill="#d9dfe7"/>
      <path id="Path_174" data-name="Path 174" d="M84.43,20.814l.009.009a40.709,40.709,0,0,1,8.155,13.023,56.7,56.7,0,0,1,2.89,9.4,93.451,93.451,0,0,1,2.068,17.261l.076,1.268a65.322,65.322,0,0,0,4.322,18.991,28.084,28.084,0,0,0,2.794,5.575c-9.333-3.465-17.435-13.969-20.053-20.9a52.434,52.434,0,0,1-4.726-21.545l-.054-1.65c-.16-4.873-.323-9.917-.928-14.745l-.013-.04c-.054-.452-.106-.884-.159-1.318l-3.1,2.937c.465,4.272.623,8.743.766,13.084l.052,1.65a56.615,56.615,0,0,0,3.331,18.581A37.379,37.379,0,0,1,67.91,51.563a51.8,51.8,0,0,1-5.5-9.884L59.123,44.8l.754.324a1.281,1.281,0,0,0,.2.036,60.636,60.636,0,0,0,5.091,8.3A41.957,41.957,0,0,0,81.786,67.191a55.568,55.568,0,0,0,3.54,6.592,59.2,59.2,0,0,0,5.7,7.059c4.39,4.453,9.8,8.2,15.544,9.637l2.618-3.712a32.022,32.022,0,0,1-3.871-6.835,78.384,78.384,0,0,1-2.844-8.939,75.88,75.88,0,0,1-1.373-9.258l-.09-1.255a102.9,102.9,0,0,0-2.186-17.831,56.833,56.833,0,0,0-1.579-5.74,30.413,30.413,0,0,1,7.654,5.241,38.023,38.023,0,0,1,7.133,9.261c1.024,1.9,1.958,4,2.833,6.067a50.933,50.933,0,0,1,2.383,6.032c.573,2.133,2.188,6.536,2.5,8.281L122.21,68.3c-.606-2.153-1.254-4.074-1.854-5.768-.551-1.779-1.081-3.294-1.532-4.5a23.7,23.7,0,0,1,3.969,1.723,23.9,23.9,0,0,1,3.873,2.224l1.917-2.718-.011,0-.013-.009a31.608,31.608,0,0,0-11.438-5.019,48.1,48.1,0,0,0-3.183-6.121,44.164,44.164,0,0,0-5.707-7.35L107.2,39.725A37.118,37.118,0,0,0,95.684,32.51,46.248,46.248,0,0,0,86.876,18.54l-.013-.014-.013,0-2.42,2.293Z" transform="translate(-59.123 -18.522)" fill="#002d5d"/>
    </g>
    <g id="Group_79" data-name="Group 79" transform="translate(266.038 109.214)">
      <path id="Path_175" data-name="Path 175" d="M72.081,59.574,93.124,29.737s1.639,1.675,3.792,3.482c1.06.948,2.211,2.036,3.285,3.147a25.774,25.774,0,0,1,2.916,2.93,46.313,46.313,0,0,1,10.951,1.012l1.072.306a43.16,43.16,0,0,1,6.624,2.622,47.3,47.3,0,0,1,5.114,2.593,21.078,21.078,0,0,1,4.448-2.39c1.372-.866,2.928-1.073,4.346-1.632l.01,0,.006-.006,9.273,35.311c-2.88,1.968-6.328,2.867-9.958,3.811a42.95,42.95,0,0,1-11,.417,42.436,42.436,0,0,1-18.223-6.225c-9.023.257-17.194-2.768-24.25-7.705-3.407-2.689-6.274-4.954-8.34-7.566a1.518,1.518,0,0,1-.224-.015l-.886-.254Z" transform="translate(-71.622 -29.008)" fill="#d9dfe7"/>
      <path id="Path_176" data-name="Path 176" d="M92.052,32.264l.009.006a54.546,54.546,0,0,1,5.226,4.453,56.212,56.212,0,0,1,4.207,4.814c1.3,1.8,2.318,2.947,5.221,7.178,1.807,2.809,3.367,4.845,4.837,7.065a79.027,79.027,0,0,0,4.8,6.692l.806,1a41.723,41.723,0,0,0,16.526,12.01,34.028,34.028,0,0,0,6.8,1.7,31.351,31.351,0,0,1-17.827,1.992,32.907,32.907,0,0,1-8.334-2.293,32.131,32.131,0,0,1-6.668-3.437,60.092,60.092,0,0,1-5.642-4.325,46.214,46.214,0,0,1-3.919-4.4,36.309,36.309,0,0,1-5.19-9.512l-.6-1.535c-1.648-4.687-3.046-9.341-4.357-13.825l-.018-.035L87.59,38.59l-2.461,3.49c1.091,4.136,2.422,8.22,3.838,12.5l.553,1.62a52.042,52.042,0,0,0,4.34,8.618,44.536,44.536,0,0,0,7.174,8.028,44.506,44.506,0,0,1-9.194-2.168,45.31,45.31,0,0,1-8.275-4.542,43.115,43.115,0,0,1-9-9.087l-2.612,3.7.9.245a1.535,1.535,0,0,0,.228.011c2.059,2.652,4.932,4.955,8.353,7.678a39.4,39.4,0,0,0,24.473,7.678,42.144,42.144,0,0,0,18.385,6.4,42.652,42.652,0,0,0,11.132-.429c3.676-.965,7.163-1.9,10.072-3.923l-1.154-4.394a27.234,27.234,0,0,1-8.59-1.595,40.686,40.686,0,0,1-8.806-4.568,47.707,47.707,0,0,1-7.008-6.324l-.8-1.013c-1.859-2.392-3.361-4.433-4.9-6.59-1.513-2.338-3.122-4.505-4.987-7.229-1.2-1.811-2.22-3.236-3.069-4.3a32.692,32.692,0,0,1,7.6.8,36.588,36.588,0,0,1,8.708,3.492c1.617.758,3.349,1.9,5.047,2.83,1.677.836,3.425,1.951,5.05,2.909,1.562.829,5.684,3.244,7.1,3.861l-1.084-4.13c-1.76-.785-3.463-1.971-4.829-2.71a36.76,36.76,0,0,1-3.5-2.118c1.082-.476,2.094-1.084,3.134-1.557,1.029-.5,2.189-.624,3.228-1.092l-.845-3.217-.006.006-.01,0a20.722,20.722,0,0,0-4.208,1.644,20.21,20.21,0,0,0-4.343,2.488,44.465,44.465,0,0,0-5.006-2.683,38.232,38.232,0,0,0-6.5-2.644l-1.055-.3a42.88,42.88,0,0,0-10.887-.827c-1.506-1.9-3.092-3.552-4.692-5.266A58.331,58.331,0,0,0,94,29.55l-.013-.009h-.012l-1.921,2.724Z" transform="translate(-71.957 -29.54)" fill="#002d5d"/>
    </g>
    <g id="Group_80" data-name="Group 80" transform="translate(121.823 5.074)">
      <path id="Path_177" data-name="Path 177" d="M43.75,39.5,33.021,4.607l2.26-.471a37.341,37.341,0,0,1,5.542-.726,45.117,45.117,0,0,1,13.033.544,47.784,47.784,0,0,1,6.7-1.866A34.648,34.648,0,0,1,71.54,2.023l2.026.425a38.565,38.565,0,0,1,12.067,4.9,43.627,43.627,0,0,1,7.4,5.974,34.475,34.475,0,0,1,15.532,6.4l.017.013.013.006L87.031,49.206a34.142,34.142,0,0,1-12.083-5.2,72.415,72.415,0,0,1-8.739-6.593A44.865,44.865,0,0,1,51.475,39.25c-2.616.027-4.973-.3-7.185-.356a1.061,1.061,0,0,1-.087.15l-.453.461Z" transform="translate(-32.759 -0.733)" fill="#d9dfe7"/>
      <path id="Path_178" data-name="Path 178" d="M33.93,7.579l.015,0c5.913-2.1,14.186-1.813,18.8-.468A35.694,35.694,0,0,1,63.3,11.6c1.684,1.089,3.1,2.113,4.338,3.1a40.027,40.027,0,0,1,3.234,3.261,32.673,32.673,0,0,1,4.784,7.018l.59,1.084c1.383,2.546,2.648,5.616,3.885,8.228l3.318,7.935a40.307,40.307,0,0,0,2.214,4.655c-7.713-2.113-13.727-7.313-18.141-11.189-5.4-4.677-9.3-7.832-15.05-12.4l-1.3-.969a39.755,39.755,0,0,0-6.343-3.943,36.517,36.517,0,0,0-7.2-2.979l-.045,0L36.2,14.978l1.255,4.082a47.084,47.084,0,0,1,11.7,5.908l1.3.972c2.524,1.934,4.638,3.469,6.707,5.267l3.1,2.436c1.017.9,2.05,1.773,3.127,2.614a36.3,36.3,0,0,1-11.683,1.2c-2.868-.106-6.063-.549-8.862-.883L44.175,40.9l.44-.472a1.041,1.041,0,0,0,.084-.155c2.192.1,4.516.466,7.087.467a38.777,38.777,0,0,0,14.442-1.956,61.7,61.7,0,0,0,8.5,6.655,31.707,31.707,0,0,0,12.027,5.045l2.682-3.666a54.329,54.329,0,0,1-3.045-5.99c-1.986-4.877-4.425-10.78-7.021-16.152l-.551-1.19a50.991,50.991,0,0,0-4.861-7.453,37.23,37.23,0,0,0-8.121-7.014,32.251,32.251,0,0,0-6.355-3.3,22.563,22.563,0,0,1,5.373-.878,23.76,23.76,0,0,1,6.614.26,32.858,32.858,0,0,1,14.467,6.076A39.447,39.447,0,0,1,96.661,23.333c1.176,2.164,3.324,6.9,3.6,8.7l2.522-3.446a46.564,46.564,0,0,0-5.694-11.17,31.338,31.338,0,0,1,10.26,4.931l1.964-2.684-.014-.006-.017-.013a33.893,33.893,0,0,0-15.7-6.345,43.179,43.179,0,0,0-7.426-6.1,38.425,38.425,0,0,0-12.2-4.993L71.9,1.779a34.4,34.4,0,0,0-11.121.11,46.8,46.8,0,0,0-6.767,1.953,40.282,40.282,0,0,0-21.025.534l-.023.007-.014.01.979,3.186Z" transform="translate(-32.95 -1.372)" fill="#002d5d"/>
    </g>
    <g id="Group_81" data-name="Group 81" transform="translate(175.628 23.358)">
      <path id="Path_179" data-name="Path 179" d="M47.63,35.977,69.191,6.512s2.37,2.049,4.993,4.79c2.563,2.764,5.518,6.161,6.939,8.8A37.957,37.957,0,0,1,93.7,27.318L94.824,28.4a49.471,49.471,0,0,1,10.227,14.786,34.651,34.651,0,0,1,12.119,8.323l.013.014.011.006L90.7,76.643C81.3,72.448,74.1,62.232,70.362,54.46a45.743,45.743,0,0,1-16.3-11.547,82.96,82.96,0,0,1-5.52-6.788,1.155,1.155,0,0,1-.19.006l-.721-.154Z" transform="translate(-47.16 -5.793)" fill="#d9dfe7"/>
      <path id="Path_180" data-name="Path 180" d="M68.092,9.008l.011.008a37.691,37.691,0,0,1,10.851,12.61,45.691,45.691,0,0,1,3.926,9.448c2.084,6.887,2.366,11.31,2.808,17.317l.081,1.265a136.375,136.375,0,0,0,2.482,18.57,42.6,42.6,0,0,0,1.537,5.453C81.981,69.468,76.075,60.494,73,53.664A64.244,64.244,0,0,1,67.366,32.84L67.152,31.2a81.831,81.831,0,0,0-3.18-14.6l-.021-.038-.43-1.311L61,18.7A79.091,79.091,0,0,1,63.74,31.556l.232,1.608a71.392,71.392,0,0,0,4.3,17.828,38.308,38.308,0,0,1-11.957-9.121,61.134,61.134,0,0,1-6.134-8.383L47.5,37.145l.727.14a1.192,1.192,0,0,0,.192-.011A76.351,76.351,0,0,0,53.851,44.1a43.277,43.277,0,0,0,16.33,11.423c3.63,7.86,10.754,18.123,20.279,22.191l3.3-3.125a39.944,39.944,0,0,1-2.168-6.916,130.523,130.523,0,0,1-2.4-18.018l-.069-1.278a73.126,73.126,0,0,0-2.886-18.031A53.124,53.124,0,0,0,84.121,24.5a32.6,32.6,0,0,1,8.336,5.209,37.378,37.378,0,0,1,7.851,9.832,56.336,56.336,0,0,1,5.322,13.5,65.021,65.021,0,0,1,1.43,8.945l3.1-2.937a65.222,65.222,0,0,0-2.509-11.429,30.819,30.819,0,0,1,8.121,6.111l2.414-2.288-.011-.006-.013-.014a33.437,33.437,0,0,0-12.226-8.234A47.807,47.807,0,0,0,95.794,28.281L94.662,27.2a36.936,36.936,0,0,0-12.7-7.132A42.479,42.479,0,0,0,70.093,6.334l-.017-.013-.015,0-1.969,2.69Z" transform="translate(-47.503 -6.318)" fill="#002d5d"/>
    </g>
    <g id="Group_82" data-name="Group 82" transform="translate(66.249 8.102)">
      <path id="Path_181" data-name="Path 181" d="M53.566,67.507,18.153,58.621s1.29-3.448,3.167-7.536c2.184-3.975,4.974-8.6,7.74-10.941a33.759,33.759,0,0,1,7.946-15.788l1.376-1.43A40.4,40.4,0,0,1,57.77,12.239a32.736,32.736,0,0,1,15.317-9.8l.023-.007.014-.009,10.728,34.9A30.328,30.328,0,0,1,74.242,43.8a82.2,82.2,0,0,1-10.333,4.119C61.955,53.286,60.3,57.311,57.4,61.271c-1.592,1.969-2.619,3.844-4.045,5.507a.94.94,0,0,1,.077.143l.13.585Z" transform="translate(-17.287 -1.57)" fill="#d9dfe7"/>
      <path id="Path_182" data-name="Path 182" d="M21.153,59.837l0-.016a39.677,39.677,0,0,1,4.054-9.494c1.969-2.9,3.786-5.582,5.815-7.1,2.393-1.794,3.648-3.784,9.572-6.405a32.313,32.313,0,0,1,9.385-2.835,37.21,37.21,0,0,1,8.471-.314l1.232.06c2.909.139,6.169.68,9.018,1,3.009.558,5.761,1.061,8.179,1.617a38.924,38.924,0,0,0,4.668.94c-5.128,4.7-12.339,7.058-18.393,9.011l-18.8,5.931-1.472.587a70.117,70.117,0,0,0-6.789,3.236,52.726,52.726,0,0,0-6.278,4.658l-.03.036-1.123.969L32.8,62.76a42.418,42.418,0,0,1,11.328-6.784l1.466-.584c5.742-2.189,10.388-3.3,15.632-5.185a35.949,35.949,0,0,1-5.248,10.348c-1.763,2.169-3.426,4.625-5.406,6.664l4.395,1.1c-.05-.194-.1-.377-.147-.578a.961.961,0,0,0-.083-.143c1.452-1.616,2.492-3.439,4.081-5.348,2.892-3.841,4.436-7.783,6.245-13.171A71.258,71.258,0,0,0,75.33,45.2,27.343,27.343,0,0,0,84.719,38.7l-1.335-4.342c-2-.377-3.987-.688-6.14-1.166a119.893,119.893,0,0,0-17.1-2.848l-1.305-.15a60.171,60.171,0,0,0-8.858.177,42.4,42.4,0,0,0-10.188,2.9,52.814,52.814,0,0,0-6.262,3.455c1.176-2.754,2.8-7,6.007-10.2a29.81,29.81,0,0,1,6.2-5.429,27.985,27.985,0,0,1,6.311-3.4,38.407,38.407,0,0,1,16.434-2.809c1.269.1,3.261.346,5.093.665A24.223,24.223,0,0,1,78,16.842L76.744,12.76a40.243,40.243,0,0,0-13.126-1.426A30.036,30.036,0,0,1,74.472,5.37l-.977-3.179L73.48,2.2l-.023.007a32.434,32.434,0,0,0-15.424,10A40.171,40.171,0,0,0,38.379,22.91l-1.391,1.447a33.6,33.6,0,0,0-7.943,16.027,39.631,39.631,0,0,0-11.119,18.6l-.007.024v.017l3.233.811Z" transform="translate(-17.919 -2.191)" fill="#002d5d"/>
    </g>
    <g id="Group_83" data-name="Group 83" transform="translate(159.936 105.924)">
      <path id="Path_183" data-name="Path 183" d="M95.406,28.84l17.076,32.271s-2.592,1.079-5.994,2.238a54.825,54.825,0,0,1-10.578,2.706A36.382,36.382,0,0,1,83.841,74.8c-.509.233-1.059.421-1.572.615a45.457,45.457,0,0,1-19.56,2.7,33.706,33.706,0,0,1-15.791,5.7l-.022,0-.014,0L43.28,47.5c3.768-2.423,8.073-3.575,12.555-4.357A74.731,74.731,0,0,1,69.07,42.2,44.621,44.621,0,0,1,85.809,32.12a72.865,72.865,0,0,1,9-2.477,1.263,1.263,0,0,1,.09-.181l.51-.621Z" transform="translate(-43.202 -28.137)" fill="#d9dfe7"/>
      <path id="Path_184" data-name="Path 184" d="M111.4,59.466l-.011.006a40.138,40.138,0,0,1-15.34,4.391,48.242,48.242,0,0,1-10.3-.122A55.059,55.059,0,0,1,68.7,58.971l-1.153-.5c-5.525-2.414-11.675-5.138-16.446-7.39-1.621-.726-3.173-1.347-4.73-1.944C53.1,45.6,62.154,45.1,69.387,45.34a76.766,76.766,0,0,1,20.964,3.433l1.581.438a116.919,116.919,0,0,0,14.483,3.219l.042,0,1.321.2-2-3.774A124.529,124.529,0,0,1,93,45.96l-1.58-.438a83.393,83.393,0,0,0-17.892-3.256,38.353,38.353,0,0,1,12.99-7.251A58.41,58.41,0,0,1,97.21,32.655L95.092,28.65l-.5.633a1.284,1.284,0,0,0-.087.186,69.266,69.266,0,0,0-9.021,2.391A41.966,41.966,0,0,0,68.863,42.012a69.361,69.361,0,0,0-13.187.774c-4.445.755-8.694,1.921-12.417,4.433l.448,4.521a47.982,47.982,0,0,1,6.176,2.4l16.095,7.381,1.168.538A58.122,58.122,0,0,0,85,67.122a48.345,48.345,0,0,0,6.33.334,30.575,30.575,0,0,1-8.477,5.652A36.845,36.845,0,0,1,69.6,76.1a45.2,45.2,0,0,1-15.526-2.13,44.122,44.122,0,0,1-8.559-3.995l.421,4.25a47.418,47.418,0,0,0,11.8,4.384A30.86,30.86,0,0,1,46.7,81.92l.328,3.309.015,0,.022,0a33.083,33.083,0,0,0,15.875-5.856,44.653,44.653,0,0,0,19.708-2.592c.516-.2,1.068-.384,1.579-.619a35.459,35.459,0,0,0,12.063-8.908,45.742,45.742,0,0,0,16.643-4.814l.017-.009.009-.011L111.4,59.466Z" transform="translate(-43.259 -28.65)" fill="#002d5d"/>
    </g>
    <g id="Group_84" data-name="Group 84" transform="translate(90.074 112.7)">
      <path id="Path_185" data-name="Path 185" d="M93.88,42.634l3.6,36.333s-3.247.037-7.239-.3a49.342,49.342,0,0,1-11.689-2.311,36.2,36.2,0,0,1-16.828.84l-1.836-.469A41.843,41.843,0,0,1,41.134,66.077a32.6,32.6,0,0,1-16.58-7.727l-.019-.016-.015-.008,23.806-27.68a30.4,30.4,0,0,1,10.583,4.531A96.653,96.653,0,0,1,68.346,42,45.869,45.869,0,0,1,85.1,41.586c3.041.438,5.62.951,8.044,1.53a1.083,1.083,0,0,1,.131-.128l.607-.354Z" transform="translate(-23.939 -30.042)" fill="#d9dfe7"/>
      <path id="Path_186" data-name="Path 186" d="M97.665,76.977h-.014c-5.763.612-13.168-.634-17.249-2.547a40.223,40.223,0,0,1-9.711-5.318,37.388,37.388,0,0,1-6.985-6.71,41.014,41.014,0,0,1-4.634-7.075l-.594-1.1A121.973,121.973,0,0,1,51.4,38.284a38.821,38.821,0,0,0-1.685-4.417C56.294,35.536,62.438,40.5,67.526,44.75c5.963,4.982,9.451,8.476,14.875,13.657l1.192,1.131A63.766,63.766,0,0,0,95.64,68.559l.042.014,1.219.7-.421-4.25a66.2,66.2,0,0,1-10.51-7.9l-1.188-1.085c-4.728-4.471-8.176-7.625-12.672-11.591a37.6,37.6,0,0,1,12.984.01,63.362,63.362,0,0,1,9.578,2.334l-.447-4.509-.6.368c-.059.04-.085.095-.129.133a79.982,79.982,0,0,0-7.975-1.622,41.267,41.267,0,0,0-16.557.553,84.24,84.24,0,0,0-9.227-6.9A27.276,27.276,0,0,0,49.27,30.483l-2.962,3.444c.714,1.849,1.49,3.7,2.246,5.761a131.686,131.686,0,0,0,6.784,15.99l.589,1.124c2.916,5.257,5.629,9.64,12.155,14.712a30.637,30.637,0,0,0,5.826,3.7,29.891,29.891,0,0,1-11.377,0,35.736,35.736,0,0,1-13.593-5.965A40.246,40.246,0,0,1,37.853,56.929c-.6-1.128-1.475-2.944-2.2-4.663a25.209,25.209,0,0,1-1.3-4.444l-2.784,3.237A39.758,39.758,0,0,0,37.5,62.936,29.514,29.514,0,0,1,26.532,56.92l-2.169,2.521.016.008.019.016A32.3,32.3,0,0,0,41.2,67.18,41.508,41.508,0,0,0,60.09,78.042l1.853.473a35.773,35.773,0,0,0,17-.966A42.848,42.848,0,0,0,97.958,80.3h.022l.014-.007-.329-3.317Z" transform="translate(-24.363 -30.483)" fill="#002d5d"/>
    </g>
    <g id="Group_85" data-name="Group 85" transform="translate(394.792 54.272)">
      <path id="Path_187" data-name="Path 187" d="M176.99,36.72,158.494,68.2a133.633,133.633,0,0,1-11.1-8.9,39.61,39.61,0,0,1-12.067-1.034L134.07,57.9a61.047,61.047,0,0,1-7.942-3.279c-2.351-1.214-4.379-2.548-6.108-3.559a27.939,27.939,0,0,1-6.38,1.052,30.642,30.642,0,0,1-6.8-.142l-.017,0-.011,0,4.466-36.235c10.805-2.839,24.724,2.13,32.7,7.826a40.9,40.9,0,0,1,23.068,6.259,58.43,58.43,0,0,1,8.8,6.762,1.544,1.544,0,0,1,.228-.011l.92.148Z" transform="translate(-106.702 -14.048)" fill="#d9dfe7"/>
      <path id="Path_188" data-name="Path 188" d="M159.81,66.724l-.009,0a28.47,28.47,0,0,1-5.67-4.023,37.019,37.019,0,0,1-4.764-4.562c-1.433-1.813-2.681-2.782-5.924-7.061-4.093-5.4-6.426-8.951-9.774-14.056l-.727-1.031a77.125,77.125,0,0,0-6.1-7.577,87.843,87.843,0,0,0-7.045-6.64,35.653,35.653,0,0,0-4.968-3.411c9.518-1.552,21.044,2.987,27.7,8.041a42.817,42.817,0,0,1,9,8.4,39.749,39.749,0,0,1,5.532,9.167l.69,1.51c2.075,4.337,3.693,9.223,5.484,13.393l.022.032.47,1.149,2.163-3.682c-1.578-3.762-3.089-8.047-4.858-12.092l-.693-1.511a54.641,54.641,0,0,0-4.707-8.323,53.088,53.088,0,0,0-6.987-7.585,44.2,44.2,0,0,1,8.713,1.67,40.116,40.116,0,0,1,8.2,3.877,48.014,48.014,0,0,1,9.617,8.167l2.3-3.906-.931-.138a1.6,1.6,0,0,0-.231.015,57.278,57.278,0,0,0-8.816-6.87,39.979,39.979,0,0,0-23.221-6.2c-7.968-5.841-21.952-10.913-32.818-7.9l-.556,4.508a40.454,40.454,0,0,1,6.434,4.116A69.834,69.834,0,0,1,130,37.779l.721,1.048c3.395,4.805,5.835,8.9,10.145,14.3,1.349,1.8,2.537,3.244,3.52,4.322a31.936,31.936,0,0,1-8.358-.92,30.7,30.7,0,0,1-5.434-1.945,31.134,31.134,0,0,1-4.664-2.341,80.8,80.8,0,0,1-10.906-7.912,76.93,76.93,0,0,1-6.364-6.057l-.522,4.238a110.424,110.424,0,0,0,8.294,7.383,30.7,30.7,0,0,1-9.24.29l-.407,3.3.011,0,.017,0a29.091,29.091,0,0,0,6.772.1,26.933,26.933,0,0,0,6.369-1.158c1.715,1.043,3.723,2.411,6.054,3.648a56.081,56.081,0,0,0,7.879,3.312l1.253.36a37.383,37.383,0,0,0,12.047.869,49.564,49.564,0,0,0,5.365,5.04,28.953,28.953,0,0,0,5.547,3.933l.014.007h.012l1.689-2.874Z" transform="translate(-106.782 -14.679)" fill="#002d5d"/>
    </g>
    <g id="Group_86" data-name="Group 86" transform="translate(332.022 51.732)">
      <path id="Path_189" data-name="Path 189" d="M157.05,17.584,152.583,53.82l-5.434-1.359a78.383,78.383,0,0,1-9.107-2.9,39.283,39.283,0,0,1-12.3,3l-1.366.059a56.711,56.711,0,0,1-15.9-2.233,34.43,34.43,0,0,1-12.429,4.684l-.016,0-.01.006L89.841,19.1c9.644-5.748,24.027-5.084,33.108-2.185a42.419,42.419,0,0,1,22.908-1.936A65.526,65.526,0,0,1,156,17.871a1.43,1.43,0,0,1,.2-.092l.857-.194Z" transform="translate(-89.705 -13.35)" fill="#d9dfe7"/>
      <path id="Path_190" data-name="Path 190" d="M152.98,52.039h-.011a43.65,43.65,0,0,1-13.635-4.186,83.008,83.008,0,0,1-8.248-4.633,145.248,145.248,0,0,1-13.849-10.249l-1-.763a78.056,78.056,0,0,0-16.654-9.72,42.086,42.086,0,0,0-5.734-1.838c8.7-4.2,20.772-3.194,28.471-.512a44.671,44.671,0,0,1,19.229,11.729l1.179,1.156c3.466,3.417,6.861,7.181,10.261,10.385l.033.023.91.928.522-4.238-9.122-9.383-1.179-1.18a48.414,48.414,0,0,0-16.034-10.889,36.913,36.913,0,0,1,17.125-.659,49.186,49.186,0,0,1,11.452,3.926l.555-4.5-.862.208a1.369,1.369,0,0,0-.2.1,63.481,63.481,0,0,0-10.17-2.98,41.2,41.2,0,0,0-22.988,2.047c-9.11-3.038-23.568-3.785-33.225,2.151l.769,4.477a37.178,37.178,0,0,1,7.353,2.11A72.615,72.615,0,0,1,113.967,34.8l1,.781a168.209,168.209,0,0,0,14.3,10.442c1.926,1.239,3.59,2.19,4.934,2.873a29.26,29.26,0,0,1-8.537,1.872,39.061,39.061,0,0,1-11.254-.947A77.1,77.1,0,0,1,101.521,45.5a87.168,87.168,0,0,1-7.846-4l.723,4.209a95.2,95.2,0,0,0,10.092,4.671,29.628,29.628,0,0,1-8.784,2.948l.563,3.278.01-.006.016,0a32.7,32.7,0,0,0,12.353-4.814A53.482,53.482,0,0,0,124.5,54.166l1.36-.06a37.393,37.393,0,0,0,12.249-3.151,49.348,49.348,0,0,0,14.438,4.393l.017,0,.012,0,.408-3.309Z" transform="translate(-89.804 -13.992)" fill="#002d5d"/>
    </g>
  </g>
</svg>
